<svg version="1.1" viewBox="0.0 0.0 518.2808398950132 334.40944881889766" fill="none" stroke="none" stroke-linecap="square" stroke-miterlimit="10" xmlns:xlink="http://www.w3.org/1999/xlink" xmlns="http://www.w3.org/2000/svg"><clipPath id="p.0"><path d="m0 0l518.2808 0l0 334.40945l-518.2808 0l0 -334.40945z" clip-rule="nonzero"/></clipPath><g clip-path="url(#p.0)"><path fill="#000000" fill-opacity="0.0" d="m0 0l518.2808 0l0 334.40945l-518.2808 0z" fill-rule="evenodd"/><path fill="#f4cccc" d="m188.79974 89.16721l0 0c0 -18.934235 23.161331 -34.283466 51.732285 -34.283466l0 0c28.570938 0 51.732285 15.349232 51.732285 34.283466l0 0c0 18.934235 -23.161346 34.283463 -51.732285 34.283463l0 0c-28.570953 0 -51.732285 -15.349228 -51.732285 -34.283463z" fill-rule="evenodd"/><path stroke="#595959" stroke-width="1.574803149606299" stroke-linejoin="round" stroke-linecap="butt" d="m188.79974 89.16721l0 0c0 -18.934235 23.161331 -34.283466 51.732285 -34.283466l0 0c28.570938 0 51.732285 15.349232 51.732285 34.283466l0 0c0 18.934235 -23.161346 34.283463 -51.732285 34.283463l0 0c-28.570953 0 -51.732285 -15.349228 -51.732285 -34.283463z" fill-rule="evenodd"/><path fill="#000000" d="m218.64406 97.33131l0 -16.515625l2.1875 0l0 6.78125l8.59375 0l0 -6.78125l2.1875 0l0 16.515625l-2.1875 0l0 -7.78125l-8.59375 0l0 7.78125l-2.1875 0zm16.35379 -14.1875l0 -2.328125l2.03125 0l0 2.328125l-2.03125 0zm0 14.1875l0 -11.96875l2.03125 0l0 11.96875l-2.03125 0zm4.752228 0.984375l1.96875 0.296875q0.125 0.921875 0.6875 1.328125q0.75 0.5625 2.0625 0.5625q1.40625 0 2.171875 -0.5625q0.765625 -0.5625 1.03125 -1.578125q0.15625 -0.609375 0.15625 -2.59375q-1.328125 1.5625 -3.3125 1.5625q-2.46875 0 -3.828125 -1.78125q-1.34375 -1.78125 -1.34375 -4.265625q0 -1.71875 0.609375 -3.15625q0.625 -1.453125 1.796875 -2.234375q1.1875 -0.796875 2.765625 -0.796875q2.125 0 3.5 1.703125l0 -1.4375l1.875 0l0 10.34375q0 2.796875 -0.578125 3.953125q-0.5625 1.171875 -1.796875 1.84375q-1.234375 0.6875 -3.046875 0.6875q-2.140625 0 -3.453125 -0.96875q-1.3125 -0.953125 -1.265625 -2.90625zm1.671875 -7.1875q0 2.359375 0.9375 3.453125q0.9375 1.078125 2.34375 1.078125q1.390625 0 2.328125 -1.078125q0.953125 -1.078125 0.953125 -3.375q0 -2.203125 -0.96875 -3.3125q-0.96875 -1.125 -2.34375 -1.125q-1.359375 0 -2.3125 1.109375q-0.9375 1.09375 -0.9375 3.25zm11.522461 6.203125l0 -16.515625l2.03125 0l0 5.921875q1.4218597 -1.640625 3.5937347 -1.640625q1.328125 0 2.296875 0.53125q0.984375 0.515625 1.40625 1.4375q0.421875 0.921875 0.421875 2.6875l0 7.578125l-2.03125 0l0 -7.578125q0 -1.53125 -0.65625 -2.21875q-0.65625 -0.6875 -1.859375 -0.6875q-0.90625 0 -1.703125 0.46875q-0.79685974 0.453125 -1.1406097 1.265625q-0.328125 0.796875 -0.328125 2.203125l0 6.546875l-2.03125 0z" fill-rule="nonzero"/><path fill="#fff2cc" d="m376.52325 89.16721l0 0c0 -18.934235 23.161346 -34.283466 51.7323 -34.283466l0 0c28.570953 0 51.73227 15.349232 51.73227 34.283466l0 0c0 18.934235 -23.161316 34.283463 -51.73227 34.283463l0 0c-28.570953 0 -51.7323 -15.349228 -51.7323 -34.283463z" fill-rule="evenodd"/><path stroke="#595959" stroke-width="1.574803149606299" stroke-linejoin="round" stroke-linecap="butt" d="m376.52325 89.16721l0 0c0 -18.934235 23.161346 -34.283466 51.7323 -34.283466l0 0c28.570953 0 51.73227 15.349232 51.73227 34.283466l0 0c0 18.934235 -23.161316 34.283463 -51.73227 34.283463l0 0c-28.570953 0 -51.7323 -15.349228 -51.7323 -34.283463z" fill-rule="evenodd"/><path fill="#000000" d="m410.53915 96.81633l0 -15.015625l2.0 0l0 13.25l7.390625 0l0 1.765625l-9.390625 0zm10.842407 -5.4375q0 -3.03125 1.671875 -4.484375q1.40625 -1.203125 3.421875 -1.203125q2.25 0 3.671875 1.46875q1.421875 1.46875 1.421875 4.0625q0 2.09375 -0.640625 3.296875q-0.625 1.203125 -1.828125 1.875q-1.203125 0.671875 -2.625 0.671875q-2.28125 0 -3.6875 -1.46875q-1.40625 -1.46875 -1.40625 -4.21875zm1.890625 0q0 2.09375 0.90625 3.140625q0.921875 1.03125 2.296875 1.03125q1.375 0 2.28125 -1.046875q0.921875 -1.046875 0.921875 -3.1875q0 -2.015625 -0.921875 -3.046875q-0.921875 -1.046875 -2.28125 -1.046875q-1.375 0 -2.296875 1.03125q-0.90625 1.03125 -0.90625 3.125zm12.467377 5.4375l-3.328125 -10.875l1.90625 0l1.734375 6.28125l0.640625 2.328125q0.046875 -0.171875 0.5625 -2.25l1.734375 -6.359375l1.890625 0l1.640625 6.3125l0.53125 2.078125l0.625 -2.109375l1.875 -6.28125l1.78125 0l-3.390625 10.875l-1.921875 0l-1.734375 -6.515625l-0.421875 -1.859375l-2.203125 8.375l-1.921875 0z" fill-rule="nonzero"/><path fill="#000000" fill-opacity="0.0" d="m4.4409447 51.17296l193.48032 0l0 68.566925l-193.48032 0z" fill-rule="evenodd"/><path fill="#000000" d="m64.05086 81.43145l2.9375 -0.28125q0.265625 1.484375 1.078125 2.1875q0.828125 0.6875 2.203125 0.6875q1.46875 0 2.203125 -0.609375q0.75 -0.625 0.75 -1.453125q0 -0.53125 -0.3125 -0.90625q-0.3125 -0.375 -1.09375 -0.65625q-0.53125 -0.1875 -2.421875 -0.65625q-2.4375 -0.609375 -3.421875 -1.484375q-1.390625 -1.234375 -1.390625 -3.03125q0 -1.140625 0.65625 -2.140625q0.65625 -1.0 1.875 -1.515625q1.21875 -0.53125 2.953125 -0.53125q2.828125 0 4.25 1.25q1.4375 1.234375 1.515625 3.296875l-3.03125 0.140625q-0.203125 -1.15625 -0.84375 -1.65625q-0.640625 -0.515625 -1.921875 -0.515625q-1.3125 0 -2.0625 0.546875q-0.484375 0.34375 -0.484375 0.921875q0 0.53125 0.453125 0.921875q0.5625 0.484375 2.78125 1.0q2.21875 0.515625 3.265625 1.078125q1.0625 0.5625 1.65625 1.53125q0.609375 0.96875 0.609375 2.390625q0 1.296875 -0.71875 2.421875q-0.71875 1.125 -2.03125 1.671875q-1.296875 0.546875 -3.265625 0.546875q-2.84375 0 -4.375 -1.3125q-1.515625 -1.3125 -1.8125 -3.84375zm21.902664 4.890625l0 -1.625q-0.59375 0.859375 -1.5625 1.375q-0.96875 0.5 -2.046875 0.5q-1.09375 0 -1.96875 -0.484375q-0.875 -0.484375 -1.265625 -1.34375q-0.390625 -0.875 -0.390625 -2.421875l0 -6.875l2.890625 0l0 5.0q0 2.28125 0.15625 2.8125q0.15625 0.515625 0.578125 0.8125q0.421875 0.296875 1.0625 0.296875q0.734375 0 1.3125 -0.390625q0.59375 -0.40625 0.8125 -1.0q0.21875 -0.609375 0.21875 -2.953125l0 -4.578125l2.875 0l0 10.875l-2.671875 0zm5.53685 0l0 -15.015625l2.875 0l0 5.40625q1.328125 -1.515625 3.15625 -1.515625q1.984375 0 3.28125 1.4375q1.3125 1.4375 1.3125 4.140625q0 2.78125 -1.328125 4.296875q-1.328125 1.5 -3.234375 1.5q-0.921875 0 -1.828125 -0.46875q-0.90625 -0.46875 -1.5625 -1.375l0 1.59375l-2.671875 0zm2.84375 -5.671875q0 1.6875 0.546875 2.5q0.734375 1.140625 1.984375 1.140625q0.953125 0 1.625 -0.8125q0.671875 -0.8125 0.671875 -2.5625q0 -1.875 -0.6875 -2.6875q-0.671875 -0.828125 -1.71875 -0.828125q-1.046875 0 -1.734375 0.8125q-0.6875 0.796875 -0.6875 2.4375zm10.021225 -6.6875l0 -2.65625l2.890625 0l0 2.65625l-2.890625 0zm2.890625 1.484375l0 10.53125q0 2.078125 -0.28125 2.9375q-0.265625 0.859375 -1.046875 1.34375q-0.765625 0.484375 -1.96875 0.484375q-0.421875 0 -0.921875 -0.078125q-0.5 -0.078125 -1.078125 -0.234375l0.5 -2.453125q0.21875 0.03125 0.40625 0.046875q0.171875 0.03125 0.3125 0.03125q0.453125 0 0.734375 -0.1875q0.28125 -0.1875 0.359375 -0.453125q0.09375 -0.265625 0.09375 -1.59375l0 -10.375l2.890625 0zm9.314514 7.40625l2.859375 0.484375q-0.546875 1.578125 -1.75 2.40625q-1.1875 0.828125 -2.984375 0.828125q-2.828125 0 -4.203125 -1.859375q-1.0625 -1.484375 -1.0625 -3.75q0 -2.703125 1.40625 -4.234375q1.421875 -1.53125 3.578125 -1.53125q2.421875 0 3.828125 1.609375q1.40625 1.59375 1.34375 4.90625l-7.21875 0q0.03125 1.28125 0.703125 2.0q0.671875 0.703125 1.65625 0.703125q0.6875 0 1.140625 -0.359375q0.46875 -0.375 0.703125 -1.203125zm0.15625 -2.90625q-0.03125 -1.25 -0.640625 -1.890625q-0.609375 -0.65625 -1.5 -0.65625q-0.9375 0 -1.5625 0.6875q-0.609375 0.6875 -0.59375 1.859375l4.296875 0zm14.701767 -1.296875l-2.84375 0.515625q-0.140625 -0.84375 -0.65625 -1.265625q-0.5 -0.4375 -1.3125 -0.4375q-1.078125 0 -1.71875 0.75q-0.640625 0.734375 -0.640625 2.46875q0 1.9375 0.65625 2.75q0.65625 0.796875 1.75 0.796875q0.8125 0 1.328125 -0.46875q0.53125 -0.46875 0.75 -1.609375l2.828125 0.484375q-0.4375 1.953125 -1.6875 2.953125q-1.25 0.984375 -3.359375 0.984375q-2.390625 0 -3.8125 -1.5q-1.40625 -1.515625 -1.40625 -4.1875q0 -2.6875 1.421875 -4.1875q1.421875 -1.5 3.84375 -1.5q2.0 0 3.171875 0.859375q1.171875 0.84375 1.6875 2.59375zm7.170517 -3.203125l0 2.28125l-1.96875 0l0 4.390625q0 1.328125 0.046875 1.5625q0.0625 0.21875 0.265625 0.359375q0.203125 0.140625 0.484375 0.140625q0.40625 0 1.15625 -0.28125l0.25 2.234375q-1.0 0.4375 -2.28125 0.4375q-0.78125 0 -1.40625 -0.265625q-0.625 -0.265625 -0.921875 -0.671875q-0.28125 -0.421875 -0.390625 -1.125q-0.09375 -0.5 -0.09375 -2.03125l0 -4.75l-1.328125 0l0 -2.28125l1.328125 0l0 -2.171875l2.890625 -1.671875l0 3.84375l1.96875 0z" fill-rule="nonzero"/><path fill="#000000" d="m34.237698 111.009895q-1.21875 -1.546875 -2.0625 -3.609375q-0.84375 -2.0625 -0.84375 -4.265625q0 -1.953125 0.625 -3.75q0.75 -2.0625 2.28125 -4.125l1.0625 0q-1.0 1.703125 -1.3125 2.4375q-0.5 1.125 -0.78125 2.359375q-0.359375 1.53125 -0.359375 3.078125q0 3.9375 2.453125 7.875l-1.0625 0zm10.838287 -15.546875l1.59375 0l0 6.9375q0 1.8125 -0.40625 2.890625q-0.40625 1.0625 -1.484375 1.734375q-1.0625 0.65625 -2.796875 0.65625q-1.6875 0 -2.765625 -0.578125q-1.078125 -0.578125 -1.546875 -1.671875q-0.453125 -1.109375 -0.453125 -3.03125l0 -6.9375l1.59375 0l0 6.9375q0 1.5625 0.28125 2.3125q0.296875 0.734375 1.0 1.140625q0.71875 0.390625 1.75 0.390625q1.75 0 2.484375 -0.78125q0.75 -0.796875 0.75 -3.0625l0 -6.9375zm3.4626312 9.421875l1.453125 -0.234375q0.125 0.875 0.6875 1.34375q0.5625 0.46875 1.578125 0.46875q1.015625 0 1.5 -0.40625q0.5 -0.421875 0.5 -0.984375q0 -0.5 -0.4375 -0.78125q-0.3125 -0.203125 -1.515625 -0.5q-1.625 -0.40625 -2.25 -0.703125q-0.625 -0.296875 -0.953125 -0.828125q-0.3125 -0.53125 -0.3125 -1.171875q0 -0.578125 0.265625 -1.078125q0.265625 -0.5 0.71875 -0.828125q0.34375 -0.25 0.9375 -0.421875q0.59375 -0.1875 1.28125 -0.1875q1.015625 0 1.78125 0.296875q0.78125 0.296875 1.15625 0.8125q0.375 0.5 0.515625 1.34375l-1.453125 0.1875q-0.09375 -0.671875 -0.5625 -1.046875q-0.46875 -0.375 -1.328125 -0.375q-1.015625 0 -1.453125 0.34375q-0.4375 0.328125 -0.4375 0.78125q0 0.28125 0.1875 0.515625q0.171875 0.234375 0.5625 0.390625q0.21875 0.078125 1.296875 0.375q1.5625 0.421875 2.171875 0.6875q0.625 0.265625 0.984375 0.78125q0.359375 0.5 0.359375 1.25q0 0.75 -0.4375 1.40625q-0.421875 0.640625 -1.234375 1.0q-0.8125 0.359375 -1.84375 0.359375q-1.6875 0 -2.578125 -0.703125q-0.890625 -0.71875 -1.140625 -2.09375zm14.9375 -0.203125l1.5312538 0.1875q-0.359375 1.328125 -1.3437538 2.078125q-0.96875 0.734375 -2.484375 0.734375q-1.921875 0 -3.046875 -1.171875q-1.109375 -1.1875 -1.109375 -3.3125q0 -2.1875 1.125 -3.40625q1.140625 -1.21875 2.9375 -1.21875q1.75 0 2.859375 1.203125q1.1093788 1.1875 1.1093788 3.328125q0 0.140625 -0.015625 0.40625l-6.484379 0q0.078125 1.421875 0.796875 2.1875q0.734375 0.765625 1.828125 0.765625q0.8125 0 1.390625 -0.421875q0.578125 -0.4375 0.90625 -1.359375zm-4.84375 -2.390625l4.859375 0q-0.09375 -1.09375 -0.5625 -1.640625q-0.703125 -0.859375 -1.828125 -0.859375q-1.015625 0 -1.703125 0.6875q-0.6875 0.671875 -0.765625 1.8125zm8.207935 5.1875l0 -8.703125l1.328125 0l0 1.328125q0.5 -0.9375 0.921875 -1.234375q0.4375 -0.296875 0.953125 -0.296875q0.75 0 1.515625 0.484375l-0.5 1.359375q-0.546875 -0.3125 -1.078125 -0.3125q-0.484375 0 -0.875 0.296875q-0.390625 0.28125 -0.546875 0.796875q-0.25 0.796875 -0.25 1.71875l0 4.5625l-1.46875 0zm5.0524597 0l0 -1.6875l1.6875 0l0 1.6875q0 0.921875 -0.328125 1.484375q-0.328125 0.578125 -1.046875 0.890625l-0.40625 -0.625q0.46875 -0.203125 0.6875 -0.609375q0.21875 -0.390625 0.25 -1.140625l-0.84375 0zm9.137238 0l0 -12.015625l4.53125 0q1.1875 0 1.828125 0.125q0.875 0.140625 1.46875 0.5625q0.609375 0.40625 0.96875 1.15625q0.375 0.734375 0.375 1.640625q0 1.53125 -0.984375 2.59375q-0.96875 1.046875 -3.515625 1.046875l-3.078125 0l0 4.890625l-1.59375 0zm1.59375 -6.296875l3.09375 0q1.546875 0 2.1875 -0.578125q0.65625 -0.578125 0.65625 -1.609375q0 -0.765625 -0.390625 -1.296875q-0.375 -0.53125 -1.0 -0.703125q-0.40625 -0.109375 -1.484375 -0.109375l-3.0625 0l0 4.296875zm9.396088 6.296875l0 -8.703125l1.328125 0l0 1.328125q0.5 -0.9375 0.921875 -1.234375q0.4375 -0.296875 0.953125 -0.296875q0.75 0 1.515625 0.484375l-0.5 1.359375q-0.546875 -0.3125 -1.078125 -0.3125q-0.484375 0 -0.875 0.296875q-0.390625 0.28125 -0.546875 0.796875q-0.25 0.796875 -0.25 1.71875l0 4.5625l-1.46875 0zm5.0570374 -4.34375q0 -2.421875 1.34375 -3.59375q1.125 -0.96875 2.734375 -0.96875q1.796875 0 2.921875 1.1875q1.140625 1.171875 1.140625 3.25q0 1.671875 -0.5 2.640625q-0.5 0.953125 -1.46875 1.5q-0.953125 0.53125 -2.09375 0.53125q-1.828125 0 -2.953125 -1.171875q-1.125 -1.171875 -1.125 -3.375zm1.515625 0q0 1.671875 0.71875 2.5q0.734375 0.828125 1.84375 0.828125q1.09375 0 1.8125 -0.828125q0.734375 -0.84375 0.734375 -2.5625q0 -1.609375 -0.734375 -2.4375q-0.71875 -0.828125 -1.8125 -0.828125q-1.109375 0 -1.84375 0.828125q-0.71875 0.828125 -0.71875 2.5zm14.0360565 1.15625l1.453125 0.1875q-0.234375 1.5 -1.21875 2.359375q-0.984375 0.84375 -2.40625 0.84375q-1.78125 0 -2.875 -1.171875q-1.078125 -1.171875 -1.078125 -3.34375q0 -1.421875 0.46875 -2.46875q0.46875 -1.0625 1.421875 -1.59375q0.953125 -0.53125 2.078125 -0.53125q1.40625 0 2.3125 0.71875q0.90625 0.71875 1.15625 2.046875l-1.4375 0.21875q-0.203125 -0.875 -0.71875 -1.3125q-0.515625 -0.453125 -1.265625 -0.453125q-1.109375 0 -1.8125 0.796875q-0.6875 0.796875 -0.6875 2.53125q0 1.75 0.671875 2.546875q0.671875 0.796875 1.75 0.796875q0.875 0 1.453125 -0.53125q0.578125 -0.53125 0.734375 -1.640625zm8.671875 0.390625l1.53125 0.1875q-0.359375 1.328125 -1.34375 2.078125q-0.96875 0.734375 -2.484375 0.734375q-1.921875 0 -3.046875 -1.171875q-1.109375 -1.1875 -1.109375 -3.3125q0 -2.1875 1.125 -3.40625q1.140625 -1.21875 2.9375 -1.21875q1.75 0 2.859375 1.203125q1.109375 1.1875 1.109375 3.328125q0 0.140625 -0.015625 0.40625l-6.484375 0q0.078125 1.421875 0.796875 2.1875q0.734375 0.765625 1.828125 0.765625q0.8125 0 1.390625 -0.421875q0.578125 -0.4375 0.90625 -1.359375zm-4.84375 -2.390625l4.859375 0q-0.09375 -1.09375 -0.5625 -1.640625q-0.703125 -0.859375 -1.828125 -0.859375q-1.015625 0 -1.703125 0.6875q-0.6875 0.671875 -0.765625 1.8125zm7.6298065 2.59375l1.453125 -0.234375q0.125 0.875 0.6875 1.34375q0.5625 0.46875 1.578125 0.46875q1.015625 0 1.5 -0.40625q0.5 -0.421875 0.5 -0.984375q0 -0.5 -0.4375 -0.78125q-0.3125 -0.203125 -1.515625 -0.5q-1.625 -0.40625 -2.25 -0.703125q-0.625 -0.296875 -0.953125 -0.828125q-0.3125 -0.53125 -0.3125 -1.171875q0 -0.578125 0.265625 -1.078125q0.265625 -0.5 0.71875 -0.828125q0.34375 -0.25 0.9375 -0.421875q0.59375 -0.1875 1.28125 -0.1875q1.015625 0 1.78125 0.296875q0.78125 0.296875 1.15625 0.8125q0.375 0.5 0.515625 1.34375l-1.453125 0.1875q-0.09375 -0.671875 -0.5625 -1.046875q-0.46875 -0.375 -1.328125 -0.375q-1.015625 0 -1.453125 0.34375q-0.4375 0.328125 -0.4375 0.78125q0 0.28125 0.1875 0.515625q0.171875 0.234375 0.5625 0.390625q0.21875 0.078125 1.296875 0.375q1.5625 0.421875 2.171875 0.6875q0.625 0.265625 0.984375 0.78125q0.359375 0.5 0.359375 1.25q0 0.75 -0.4375 1.40625q-0.421875 0.640625 -1.234375 1.0q-0.8125 0.359375 -1.84375 0.359375q-1.6875 0 -2.578125 -0.703125q-0.890625 -0.71875 -1.140625 -2.09375zm8.390625 0l1.453125 -0.234375q0.125 0.875 0.6875 1.34375q0.5625 0.46875 1.578125 0.46875q1.015625 0 1.5 -0.40625q0.5 -0.421875 0.5 -0.984375q0 -0.5 -0.4375 -0.78125q-0.3125 -0.203125 -1.515625 -0.5q-1.625 -0.40625 -2.25 -0.703125q-0.625 -0.296875 -0.953125 -0.828125q-0.3125 -0.53125 -0.3125 -1.171875q0 -0.578125 0.265625 -1.078125q0.265625 -0.5 0.71875 -0.828125q0.34375 -0.25 0.9375 -0.421875q0.59375 -0.1875 1.28125 -0.1875q1.015625 0 1.78125 0.296875q0.78125 0.296875 1.15625 0.8125q0.375 0.5 0.515625 1.34375l-1.453125 0.1875q-0.09375 -0.671875 -0.5625 -1.046875q-0.46875 -0.375 -1.328125 -0.375q-1.015625 0 -1.453125 0.34375q-0.4375 0.328125 -0.4375 0.78125q0 0.28125 0.1875 0.515625q0.171875 0.234375 0.5625 0.390625q0.21875 0.078125 1.296875 0.375q1.5625 0.421875 2.171875 0.6875q0.625 0.265625 0.984375 0.78125q0.359375 0.5 0.359375 1.25q0 0.75 -0.4375 1.40625q-0.421875 0.640625 -1.234375 1.0q-0.8125 0.359375 -1.84375 0.359375q-1.6875 0 -2.578125 -0.703125q-0.890625 -0.71875 -1.140625 -2.09375zm9.359375 2.59375l0 -1.6875l1.6875 0l0 1.6875q0 0.921875 -0.328125 1.484375q-0.328125 0.578125 -1.046875 0.890625l-0.40625 -0.625q0.46875 -0.203125 0.6875 -0.609375q0.21875 -0.390625 0.25 -1.140625l-0.84375 0zm9.793488 0l0 -1.6875l1.6875 0l0 1.6875l-1.6875 0zm5.609375 0l0 -1.6875l1.671875 0l0 1.6875l-1.671875 0zm5.578125 0l0 -1.6875l1.6875 0l0 1.6875l-1.6875 0zm5.71875 3.53125l-1.0625 0q2.453125 -3.9375 2.453125 -7.875q0 -1.546875 -0.359375 -3.0625q-0.28125 -1.21875 -0.78125 -2.359375q-0.3125 -0.734375 -1.3125 -2.453125l1.0625 0q1.53125 2.0625 2.265625 4.125q0.640625 1.796875 0.640625 3.75q0 2.203125 -0.859375 4.265625q-0.84375 2.0625 -2.046875 3.609375z" fill-rule="nonzero"/><path fill="#000000" fill-opacity="0.0" d="m4.891293 200.92004l192.56693 0l0 57.5748l-192.56693 0z" fill-rule="evenodd"/><path fill="#000000" d="m66.267296 219.78818q0 -2.53125 0.765625 -4.234375q0.5625 -1.265625 1.53125 -2.265625q0.96875 -1.0 2.140625 -1.484375q1.53125 -0.65625 3.5625 -0.65625q3.640625 0 5.828125 2.265625q2.203125 2.265625 2.203125 6.296875q0 4.0 -2.1875 6.265625q-2.171875 2.25 -5.8125 2.25q-3.671875 0 -5.859375 -2.25q-2.171875 -2.25 -2.171875 -6.1875zm3.4375 -0.109375q0 2.796875 1.296875 4.25q1.296875 1.453125 3.296875 1.453125q1.984375 0 3.265625 -1.4375q1.28125 -1.4375 1.28125 -4.3125q0 -2.84375 -1.25 -4.234375q-1.234375 -1.40625 -3.296875 -1.40625q-2.0625 0 -3.328125 1.421875q-1.265625 1.40625 -1.265625 4.265625zm15.029037 8.265625l0 -16.515625l3.171875 0l0 5.953125q1.46875 -1.671875 3.46875 -1.671875q2.1875 0 3.609375 1.578125q1.4375 1.578125 1.4375 4.546875q0 3.0625 -1.46875 4.71875q-1.453125 1.65625 -3.53125 1.65625q-1.03125 0 -2.03125 -0.5q-0.984375 -0.515625 -1.703125 -1.53125l0 1.765625l-2.953125 0zm3.15625 -6.25q0 1.859375 0.578125 2.75q0.828125 1.265625 2.1875 1.265625q1.046875 0 1.78125 -0.890625q0.75 -0.890625 0.75 -2.828125q0 -2.046875 -0.75 -2.953125q-0.75 -0.90625 -1.90625 -0.90625q-1.140625 0 -1.890625 0.890625q-0.75 0.875 -0.75 2.671875zm11.018921 -7.34375l0 -2.921875l3.15625 0l0 2.921875l-3.15625 0zm3.15625 1.625l0 11.59375q0 2.296875 -0.296875 3.234375q-0.296875 0.9375 -1.15625 1.46875q-0.84375 0.53125 -2.15625 0.53125q-0.46875 0 -1.015625 -0.09375q-0.546875 -0.078125 -1.1875 -0.25l0.5625 -2.703125q0.21875 0.046875 0.421875 0.078125q0.1875 0.03125 0.359375 0.03125q0.484375 0 0.796875 -0.21875q0.3125 -0.203125 0.40625 -0.5q0.109375 -0.296875 0.109375 -1.75l0 -11.421875l3.15625 0zm10.2556 8.15625l3.140625 0.53125q-0.59375 1.734375 -1.921875 2.640625q-1.3125 0.90625 -3.28125 0.90625q-3.109375 0 -4.609375 -2.03125q-1.1875 -1.640625 -1.1875 -4.125q0 -2.984375 1.546875 -4.65625q1.5625 -1.6875 3.9375 -1.6875q2.671875 0 4.21875 1.765625q1.546875 1.765625 1.46875 5.390625l-7.921875 0q0.03125 1.421875 0.75 2.203125q0.734375 0.78125 1.828125 0.78125q0.75 0 1.25 -0.40625q0.515625 -0.40625 0.78125 -1.3125zm0.171875 -3.203125q-0.03125 -1.375 -0.71875 -2.078125q-0.671875 -0.71875 -1.640625 -0.71875q-1.03125 0 -1.703125 0.75q-0.6875 0.75 -0.671875 2.046875l4.734375 0zm16.163078 -1.40625l-3.1249924 0.5625q-0.15625 -0.9375 -0.71875 -1.40625q-0.546875 -0.484375 -1.4375 -0.484375q-1.1875 0 -1.890625 0.828125q-0.703125 0.8125 -0.703125 2.71875q0 2.140625 0.703125 3.015625q0.71875 0.875 1.921875 0.875q0.90625 0 1.484375 -0.5q0.578125 -0.515625 0.8125 -1.78125l3.1093674 0.53125q-0.484375 2.140625 -1.8593674 3.234375q-1.375 1.09375 -3.6875 1.09375q-2.625 0 -4.1875 -1.65625q-1.5625 -1.65625 -1.5625 -4.578125q0 -2.96875 1.5625 -4.609375q1.578125 -1.65625 4.25 -1.65625q2.1875 0 3.46875 0.9375q1.2968674 0.9375 1.8593674 2.875zm7.881851 -3.546875l0 2.53125l-2.15625 0l0 4.8125q0 1.46875 0.0625 1.71875q0.0625 0.234375 0.28125 0.390625q0.21875 0.15625 0.53125 0.15625q0.4375 0 1.28125 -0.296875l0.265625 2.453125q-1.109375 0.46875 -2.5 0.46875q-0.859375 0 -1.5468903 -0.28125q-0.6875 -0.28125 -1.015625 -0.734375q-0.3125 -0.46875 -0.4375 -1.25q-0.109375 -0.546875 -0.109375 -2.21875l0 -5.21875l-1.453125 0l0 -2.53125l1.453125 0l0 -2.375l3.1875153 -1.84375l0 4.21875l2.15625 0z" fill-rule="nonzero"/><path fill="#000000" d="m32.354664 253.13599q-1.21875 -1.546875 -2.0625 -3.609375q-0.84375 -2.0625 -0.84375 -4.265625q0 -1.953125 0.625 -3.75q0.75 -2.0625 2.28125 -4.125l1.0625 0q-1.0 1.703125 -1.3125 2.4375q-0.5 1.125 -0.78125 2.359375q-0.359375 1.53125 -0.359375 3.078125q0 3.9375 2.453125 7.875l-1.0625 0zm3.0414124 -3.53125l0 -12.015625l8.109375 0l0 1.421875l-6.515625 0l0 3.71875l5.640625 0l0 1.421875l-5.640625 0l0 5.453125l-1.59375 0zm9.985031 -10.3125l0 -1.703125l1.484375 0l0 1.703125l-1.484375 0zm0 10.3125l0 -8.703125l1.484375 0l0 8.703125l-1.484375 0zm3.6970062 0l0 -12.015625l1.46875 0l0 12.015625l-1.46875 0zm9.712631 -2.796875l1.53125 0.1875q-0.359375 1.328125 -1.34375 2.078125q-0.96875 0.734375 -2.484375 0.734375q-1.921875 0 -3.046875 -1.171875q-1.109375 -1.1875 -1.109375 -3.3125q0 -2.1875 1.125 -3.40625q1.140625 -1.21875 2.9375 -1.21875q1.75 0 2.859375 1.203125q1.109375 1.1875 1.109375 3.328125q0 0.140625 -0.015625 0.40625l-6.484375 0q0.078125 1.421875 0.796875 2.1875q0.734375 0.765625 1.828125 0.765625q0.8125 0 1.390625 -0.421875q0.578125 -0.4375 0.90625 -1.359375zm-4.84375 -2.390625l4.859375 0q-0.09375 -1.09375 -0.5625 -1.640625q-0.703125 -0.859375 -1.828125 -0.859375q-1.015625 0 -1.703125 0.6875q-0.6875 0.671875 -0.765625 1.8125zm8.5985565 5.1875l0 -1.6875l1.6875038 0l0 1.6875q0 0.921875 -0.3281288 1.484375q-0.328125 0.578125 -1.046875 0.890625l-0.40625 -0.625q0.46875 -0.203125 0.6875 -0.609375q0.21875 -0.390625 0.25 -1.140625l-0.84375 0zm9.137241 0l0 -12.015625l4.140625 0q1.390625 0 2.140625 0.171875q1.03125 0.234375 1.75 0.859375q0.953125 0.8125 1.421875 2.0625q0.46875 1.25 0.46875 2.84375q0 1.375 -0.3125 2.4375q-0.3125 1.046875 -0.8125 1.75q-0.5 0.6875 -1.09375 1.09375q-0.59375 0.390625 -1.4375 0.59375q-0.84375 0.203125 -1.9375 0.203125l-4.328125 0zm1.59375 -1.421875l2.5625 0q1.1875 0 1.859375 -0.21875q0.671875 -0.21875 1.078125 -0.625q0.5625 -0.5625 0.875 -1.515625q0.328125 -0.953125 0.328125 -2.3125q0 -1.890625 -0.625 -2.890625q-0.625 -1.015625 -1.5 -1.359375q-0.640625 -0.25 -2.0625 -0.25l-2.515625 0l0 9.171875zm16.009506 0.34375q-0.8125 0.703125 -1.578125 1.0q-0.75 0.28125 -1.625 0.28125q-1.4375 0 -2.203125 -0.703125q-0.765625 -0.703125 -0.765625 -1.796875q0 -0.640625 0.28125 -1.15625q0.296875 -0.53125 0.765625 -0.84375q0.46875 -0.328125 1.0625 -0.5q0.4375 -0.109375 1.3125 -0.21875q1.78125 -0.21875 2.625 -0.5q0.015625 -0.3125 0.015625 -0.390625q0 -0.90625 -0.421875 -1.265625q-0.5625 -0.5 -1.671875 -0.5q-1.046875 0 -1.546875 0.359375q-0.484375 0.359375 -0.734375 1.296875l-1.4375 -0.203125q0.203125 -0.921875 0.640625 -1.484375q0.453125 -0.578125 1.296875 -0.890625q0.859375 -0.3125 1.984375 -0.3125q1.125 0 1.8125 0.265625q0.703125 0.265625 1.03125 0.671875q0.328125 0.390625 0.453125 1.0q0.078125 0.375 0.078125 1.359375l0 1.96875q0 2.046875 0.09375 2.59375q0.09375 0.546875 0.375 1.046875l-1.546875 0q-0.234375 -0.453125 -0.296875 -1.078125zm-0.125 -3.296875q-0.796875 0.328125 -2.40625 0.5625q-0.90625 0.140625 -1.28125 0.3125q-0.375 0.15625 -0.59375 0.46875q-0.203125 0.3125 -0.203125 0.703125q0 0.578125 0.453125 0.984375q0.453125 0.390625 1.3125 0.390625q0.84375 0 1.5 -0.375q0.671875 -0.375 0.984375 -1.03125q0.234375 -0.484375 0.234375 -1.46875l0 -0.546875zm7.0048065 3.0625l0.21875 1.296875q-0.625 0.125 -1.125 0.125q-0.796875 0 -1.25 -0.25q-0.4375 -0.25 -0.625 -0.65625q-0.171875 -0.421875 -0.171875 -1.75l0 -5.015625l-1.078125 0l0 -1.140625l1.078125 0l0 -2.15625l1.46875 -0.875l0 3.03125l1.484375 0l0 1.140625l-1.484375 0l0 5.09375q0 0.640625 0.078125 0.828125q0.078125 0.171875 0.25 0.28125q0.171875 0.09375 0.5 0.09375q0.25 0 0.65625 -0.046875zm7.115494 0.234375q-0.8125 0.703125 -1.578125 1.0q-0.75 0.28125 -1.625 0.28125q-1.4375 0 -2.203125 -0.703125q-0.765625 -0.703125 -0.765625 -1.796875q0 -0.640625 0.28125 -1.15625q0.296875 -0.53125 0.765625 -0.84375q0.46875 -0.328125 1.0625 -0.5q0.4375 -0.109375 1.3125 -0.21875q1.78125 -0.21875 2.625 -0.5q0.015625 -0.3125 0.015625 -0.390625q0 -0.90625 -0.421875 -1.265625q-0.5625 -0.5 -1.671875 -0.5q-1.046875 0 -1.546875 0.359375q-0.484375 0.359375 -0.734375 1.296875l-1.4375 -0.203125q0.203125 -0.921875 0.640625 -1.484375q0.453125 -0.578125 1.296875 -0.890625q0.859375 -0.3125 1.984375 -0.3125q1.125 0 1.8125 0.265625q0.703125 0.265625 1.03125 0.671875q0.328125 0.390625 0.453125 1.0q0.078125 0.375 0.078125 1.359375l0 1.96875q0 2.046875 0.09375 2.59375q0.09375 0.546875 0.375 1.046875l-1.546875 0q-0.234375 -0.453125 -0.296875 -1.078125zm-0.125 -3.296875q-0.796875 0.328125 -2.40625 0.5625q-0.90625 0.140625 -1.28125 0.3125q-0.375 0.15625 -0.59375 0.46875q-0.203125 0.3125 -0.203125 0.703125q0 0.578125 0.453125 0.984375q0.453125 0.390625 1.3125 0.390625q0.84375 0 1.5 -0.375q0.671875 -0.375 0.984375 -1.03125q0.234375 -0.484375 0.234375 -1.46875l0 -0.546875zm5.1454315 4.375l-1.375 0l0 -12.015625l1.484375 0l0 4.28125q0.921875 -1.171875 2.375 -1.171875q0.8125 0 1.515625 0.328125q0.71875 0.328125 1.1875 0.921875q0.46875 0.578125 0.71875 1.40625q0.265625 0.828125 0.265625 1.765625q0 2.234375 -1.109375 3.46875q-1.09375 1.21875 -2.640625 1.21875q-1.546875 0 -2.421875 -1.296875l0 1.09375zm-0.015625 -4.421875q0 1.578125 0.421875 2.265625q0.703125 1.140625 1.890625 1.140625q0.96875 0 1.671875 -0.84375q0.703125 -0.84375 0.703125 -2.5q0 -1.703125 -0.6875 -2.515625q-0.671875 -0.8125 -1.625 -0.8125q-0.96875 0 -1.671875 0.84375q-0.703125 0.84375 -0.703125 2.421875zm13.6610565 3.34375q-0.8125 0.703125 -1.578125 1.0q-0.75 0.28125 -1.625 0.28125q-1.4375 0 -2.203125 -0.703125q-0.765625 -0.703125 -0.765625 -1.796875q0 -0.640625 0.28125 -1.15625q0.296875 -0.53125 0.765625 -0.84375q0.46875 -0.328125 1.0625 -0.5q0.4375 -0.109375 1.3125 -0.21875q1.78125 -0.21875 2.625 -0.5q0.015625 -0.3125 0.015625 -0.390625q0 -0.90625 -0.421875 -1.265625q-0.5625 -0.5 -1.671875 -0.5q-1.046875 0 -1.546875 0.359375q-0.484375 0.359375 -0.734375 1.296875l-1.4375 -0.203125q0.203125 -0.921875 0.640625 -1.484375q0.453125 -0.578125 1.296875 -0.890625q0.859375 -0.3125 1.984375 -0.3125q1.125 0 1.8125 0.265625q0.703125 0.265625 1.03125 0.671875q0.328125 0.390625 0.453125 1.0q0.078125 0.375 0.078125 1.359375l0 1.96875q0 2.046875 0.09375 2.59375q0.09375 0.546875 0.375 1.046875l-1.546875 0q-0.234375 -0.453125 -0.296875 -1.078125zm-0.125 -3.296875q-0.796875 0.328125 -2.40625 0.5625q-0.90625 0.140625 -1.28125 0.3125q-0.375 0.15625 -0.59375 0.46875q-0.203125 0.3125 -0.203125 0.703125q0 0.578125 0.453125 0.984375q0.453125 0.390625 1.3125 0.390625q0.84375 0 1.5 -0.375q0.671875 -0.375 0.984375 -1.03125q0.234375 -0.484375 0.234375 -1.46875l0 -0.546875zm3.1923065 1.78125l1.453125 -0.234375q0.125 0.875 0.6875 1.34375q0.5625 0.46875 1.5781174 0.46875q1.015625 0 1.5 -0.40625q0.5 -0.421875 0.5 -0.984375q0 -0.5 -0.4375 -0.78125q-0.3125 -0.203125 -1.515625 -0.5q-1.6249924 -0.40625 -2.2499924 -0.703125q-0.625 -0.296875 -0.953125 -0.828125q-0.3125 -0.53125 -0.3125 -1.171875q0 -0.578125 0.265625 -1.078125q0.265625 -0.5 0.71875 -0.828125q0.34375 -0.25 0.9375 -0.421875q0.59375 -0.1875 1.2812424 -0.1875q1.015625 0 1.78125 0.296875q0.78125 0.296875 1.15625 0.8125q0.375 0.5 0.515625 1.34375l-1.453125 0.1875q-0.09375 -0.671875 -0.5625 -1.046875q-0.46875 -0.375 -1.328125 -0.375q-1.0156174 0 -1.4531174 0.34375q-0.4375 0.328125 -0.4375 0.78125q0 0.28125 0.1875 0.515625q0.171875 0.234375 0.5625 0.390625q0.21875 0.078125 1.2968674 0.375q1.5625 0.421875 2.171875 0.6875q0.625 0.265625 0.984375 0.78125q0.359375 0.5 0.359375 1.25q0 0.75 -0.4375 1.40625q-0.421875 0.640625 -1.234375 1.0q-0.8125 0.359375 -1.84375 0.359375q-1.6874924 0 -2.5781174 -0.703125q-0.890625 -0.71875 -1.140625 -2.09375zm14.937508 -0.203125l1.53125 0.1875q-0.359375 1.328125 -1.34375 2.078125q-0.96875 0.734375 -2.484375 0.734375q-1.921875 0 -3.046875 -1.171875q-1.109375 -1.1875 -1.109375 -3.3125q0 -2.1875 1.125 -3.40625q1.140625 -1.21875 2.9375 -1.21875q1.75 0 2.859375 1.203125q1.109375 1.1875 1.109375 3.328125q0 0.140625 -0.015625 0.40625l-6.484375 0q0.078125 1.421875 0.796875 2.1875q0.734375 0.765625 1.828125 0.765625q0.8125 0 1.390625 -0.421875q0.578125 -0.4375 0.90625 -1.359375zm-4.84375 -2.390625l4.859375 0q-0.09375 -1.09375 -0.5625 -1.640625q-0.703125 -0.859375 -1.828125 -0.859375q-1.015625 0 -1.703125 0.6875q-0.6875 0.671875 -0.765625 1.8125zm8.598541 5.1875l0 -1.6875l1.6875 0l0 1.6875q0 0.921875 -0.328125 1.484375q-0.328125 0.578125 -1.046875 0.890625l-0.40625 -0.625q0.46875 -0.203125 0.6875 -0.609375q0.21875 -0.390625 0.25 -1.140625l-0.84375 0zm9.793488 0l0 -1.6875l1.6875 0l0 1.6875l-1.6875 0zm5.609375 0l0 -1.6875l1.671875 0l0 1.6875l-1.671875 0zm5.578125 0l0 -1.6875l1.6875 0l0 1.6875l-1.6875 0zm5.71875 3.53125l-1.0625 0q2.453125 -3.9375 2.453125 -7.875q0 -1.546875 -0.359375 -3.0625q-0.28125 -1.21875 -0.78125 -2.359375q-0.3125 -0.734375 -1.3125 -2.453125l1.0625 0q1.53125 2.0625 2.265625 4.125q0.640625 1.796875 0.640625 3.75q0 2.203125 -0.859375 4.265625q-0.84375 2.0625 -2.046875 3.609375z" fill-rule="nonzero"/><path fill="#f4cccc" d="m188.7985 202.26685l103.46457 0l0 57.5748l-103.46457 0z" fill-rule="evenodd"/><path stroke="#595959" stroke-width="1.574803149606299" stroke-linejoin="round" stroke-linecap="butt" d="m188.7985 202.26685l103.46457 0l0 57.5748l-103.46457 0z" fill-rule="evenodd"/><path fill="#000000" d="m218.6428 227.71834l0 -16.515625l2.1875 0l0 6.78125l8.59375 0l0 -6.78125l2.1875 0l0 16.515625l-2.1875 0l0 -7.78125l-8.59375 0l0 7.78125l-2.1875 0zm16.35379 -14.1875l0 -2.328125l2.03125 0l0 2.328125l-2.03125 0zm0 14.1875l0 -11.96875l2.03125 0l0 11.96875l-2.03125 0zm4.752228 0.984375l1.96875 0.296875q0.125 0.921875 0.6875 1.328125q0.75 0.5625 2.0625 0.5625q1.40625 0 2.171875 -0.5625q0.765625 -0.5625 1.03125 -1.578125q0.15625 -0.609375 0.15625 -2.59375q-1.328125 1.5625 -3.3125 1.5625q-2.46875 0 -3.828125 -1.78125q-1.34375 -1.78125 -1.34375 -4.265625q0 -1.71875 0.609375 -3.15625q0.625 -1.453125 1.796875 -2.234375q1.1875 -0.796875 2.765625 -0.796875q2.125 0 3.5 1.703125l0 -1.4375l1.875 0l0 10.34375q0 2.796875 -0.578125 3.953125q-0.5625 1.171875 -1.796875 1.84375q-1.234375 0.6875 -3.046875 0.6875q-2.140625 0 -3.453125 -0.96875q-1.3125 -0.953125 -1.265625 -2.90625zm1.671875 -7.1875q0 2.359375 0.9375 3.453125q0.9375 1.078125 2.34375 1.078125q1.390625 0 2.328125 -1.078125q0.953125 -1.078125 0.953125 -3.375q0 -2.203125 -0.96875 -3.3125q-0.96875 -1.125 -2.34375 -1.125q-1.359375 0 -2.3125 1.109375q-0.9375 1.09375 -0.9375 3.25zm11.522461 6.203125l0 -16.515625l2.03125 0l0 5.921875q1.4218903 -1.640625 3.5937653 -1.640625q1.328125 0 2.296875 0.53125q0.984375 0.515625 1.40625 1.4375q0.421875 0.921875 0.421875 2.6875l0 7.578125l-2.03125 0l0 -7.578125q0 -1.53125 -0.65625 -2.21875q-0.65625 -0.6875 -1.859375 -0.6875q-0.90625 0 -1.703125 0.46875q-0.79689026 0.453125 -1.1406403 1.265625q-0.328125 0.796875 -0.328125 2.203125l0 6.546875l-2.03125 0z" fill-rule="nonzero"/><path fill="#000000" d="m211.39146 255.65727q-1.375 -1.734375 -2.328125 -4.046875q-0.953125 -2.328125 -0.953125 -4.8125q0 -2.203125 0.71875 -4.203125q0.828125 -2.328125 2.5625 -4.640625l1.1875 0q-1.125 1.90625 -1.484375 2.734375q-0.5625 1.265625 -0.875 2.65625q-0.40625 1.71875 -0.40625 3.453125q0 4.4375 2.765625 8.859375l-1.1875 0zm2.7073975 -8.3125l1.6875 -0.140625q0.125 1.015625 0.5625 1.671875q0.4375 0.640625 1.359375 1.046875q0.921875 0.390625 2.078125 0.390625q1.015625 0 1.796875 -0.296875q0.78125 -0.3125 1.15625 -0.84375q0.390625 -0.53125 0.390625 -1.15625q0 -0.625 -0.375 -1.09375q-0.359375 -0.484375 -1.203125 -0.8125q-0.546875 -0.203125 -2.40625 -0.65625q-1.859375 -0.453125 -2.609375 -0.84375q-0.96875 -0.5 -1.453125 -1.25q-0.46875 -0.765625 -0.46875 -1.6875q0 -1.03125 0.578125 -1.90625q0.59375 -0.890625 1.703125 -1.34375q1.109375 -0.46875 2.484375 -0.46875q1.5 0 2.640625 0.484375q1.15625 0.46875 1.765625 1.421875q0.625 0.9375 0.671875 2.125l-1.71875 0.125q-0.140625 -1.28125 -0.9375 -1.9375q-0.796875 -0.65625 -2.359375 -0.65625q-1.609375 0 -2.359375 0.59375q-0.734375 0.59375 -0.734375 1.4375q0 0.734375 0.515625 1.203125q0.515625 0.46875 2.6875 0.96875q2.1875 0.484375 3.0 0.859375q1.1875 0.53125 1.75 1.375q0.5625 0.828125 0.5625 1.921875q0 1.078125 -0.625 2.03125q-0.609375 0.953125 -1.765625 1.484375q-1.15625 0.53125 -2.609375 0.53125q-1.828125 0 -3.078125 -0.53125q-1.234375 -0.546875 -1.9375 -1.609375q-0.703125 -1.078125 -0.75 -2.4375zm19.683228 1.1875l1.71875 0.21875q-0.40625 1.5 -1.5 2.328125q-1.09375 0.828125 -2.796875 0.828125q-2.15625 0 -3.421875 -1.3125q-1.25 -1.328125 -1.25 -3.71875q0 -2.46875 1.265625 -3.828125q1.28125 -1.375 3.3125 -1.375q1.953125 0 3.203125 1.34375q1.25 1.328125 1.25 3.765625q0 0.140625 -0.015625 0.4375l-7.296875 0q0.09375 1.609375 0.90625 2.46875q0.828125 0.859375 2.046875 0.859375q0.921875 0 1.5625 -0.46875q0.640625 -0.484375 1.015625 -1.546875zm-5.4375 -2.671875l5.46875 0q-0.109375 -1.234375 -0.625 -1.859375q-0.796875 -0.953125 -2.0625 -0.953125q-1.140625 0 -1.921875 0.765625q-0.78125 0.765625 -0.859375 2.046875zm15.6223755 2.25l1.640625 0.203125q-0.265625 1.6875 -1.375 2.640625q-1.09375 0.953125 -2.703125 0.953125q-2.015625 0 -3.234375 -1.3125q-1.21875 -1.3125 -1.21875 -3.765625q0 -1.578125 0.515625 -2.765625q0.53125 -1.1875 1.609375 -1.78125q1.078125 -0.609375 2.34375 -0.609375q1.59375 0 2.59375 0.8125q1.015625 0.8125 1.3125 2.296875l-1.609375 0.25q-0.234375 -1.0 -0.828125 -1.484375q-0.578125 -0.5 -1.40625 -0.5q-1.25 0 -2.046875 0.90625q-0.78125 0.890625 -0.78125 2.828125q0 1.96875 0.75 2.875q0.765625 0.890625 1.984375 0.890625q0.96875 0 1.625 -0.59375q0.65625 -0.609375 0.828125 -1.84375zm3.03125 3.578125l0 -9.78125l1.5 0l0 1.484375q0.578125 -1.046875 1.0625 -1.375q0.484375 -0.34375 1.0625 -0.34375q0.828125 0 1.703125 0.546875l-0.578125 1.53125q-0.609375 -0.359375 -1.21875 -0.359375q-0.53125 0 -0.96875 0.328125q-0.4375 0.328125 -0.625 0.90625q-0.265625 0.890625 -0.265625 1.9375l0 5.125l-1.671875 0zm13.004288 -3.15625l1.71875 0.21875q-0.40625 1.5 -1.5 2.328125q-1.09375 0.828125 -2.796875 0.828125q-2.1562653 0 -3.4218903 -1.3125q-1.25 -1.328125 -1.25 -3.71875q0 -2.46875 1.265625 -3.828125q1.28125 -1.375 3.3125153 -1.375q1.953125 0 3.203125 1.34375q1.25 1.328125 1.25 3.765625q0 0.140625 -0.015625 0.4375l-7.2968903 0q0.09375 1.609375 0.90625 2.46875q0.82814026 0.859375 2.0468903 0.859375q0.921875 0 1.5625 -0.46875q0.640625 -0.484375 1.015625 -1.546875zm-5.4375153 -2.671875l5.4687653 0q-0.109375 -1.234375 -0.625 -1.859375q-0.796875 -0.953125 -2.0625 -0.953125q-1.140625 0 -1.9218903 0.765625q-0.78125 0.765625 -0.859375 2.046875zm12.856766 4.34375l0.25 1.46875q-0.703125 0.140625 -1.25 0.140625q-0.90625 0 -1.40625 -0.28125q-0.5 -0.28125 -0.703125 -0.75q-0.203125 -0.46875 -0.203125 -1.953125l0 -5.640625l-1.21875 0l0 -1.28125l1.21875 0l0 -2.4375l1.65625 -0.984375l0 3.421875l1.65625 0l0 1.28125l-1.65625 0l0 5.71875q0 0.71875 0.078125 0.921875q0.09375 0.203125 0.28125 0.328125q0.203125 0.109375 0.578125 0.109375q0.28125 0 0.71875 -0.0625zm2.7128296 5.453125l-1.1875 0q2.765625 -4.421875 2.765625 -8.859375q0 -1.734375 -0.40625 -3.4375q-0.3125 -1.375 -0.875 -2.65625q-0.359375 -0.828125 -1.484375 -2.75l1.1875 0q1.734375 2.3125 2.5625 4.640625q0.71875 2.0 0.71875 4.203125q0 2.484375 -0.953125 4.8125q-0.953125 2.3125 -2.328125 4.046875z" fill-rule="nonzero"/><path fill="#fff2cc" d="m376.52286 202.26685l103.46457 0l0 57.5748l-103.46457 0z" fill-rule="evenodd"/><path stroke="#595959" stroke-width="1.574803149606299" stroke-linejoin="round" stroke-linecap="butt" d="m376.52286 202.26685l103.46457 0l0 57.5748l-103.46457 0z" fill-rule="evenodd"/><path fill="#000000" d="m408.77454 227.71834l0 -16.515625l2.1875 0l0 14.5625l8.140625 0l0 1.953125l-10.328125 0zm11.913086 -5.984375q0 -3.328125 1.84375 -4.921875q1.546875 -1.328125 3.765625 -1.328125q2.46875 0 4.03125 1.625q1.578125 1.609375 1.578125 4.453125q0 2.3125 -0.703125 3.640625q-0.6875 1.328125 -2.015625 2.0625q-1.328125 0.71875 -2.890625 0.71875q-2.515625 0 -4.0625 -1.609375q-1.546875 -1.609375 -1.546875 -4.640625zm2.078125 0q0 2.296875 1.0 3.453125q1.015625 1.140625 2.53125 1.140625q1.515625 0 2.515625 -1.15625q1.0 -1.15625 1.0 -3.5q0 -2.21875 -1.015625 -3.359375q-1.0 -1.15625 -2.5 -1.15625q-1.515625 0 -2.53125 1.140625q-1.0 1.140625 -1.0 3.4375zm13.725586 5.984375l-3.671875 -11.96875l2.09375 0l1.90625 6.90625l0.71875 2.578125q0.046875 -0.203125 0.609375 -2.46875l1.90625 -7.015625l2.09375 0l1.78125 6.9375l0.609375 2.296875l0.6875 -2.3125l2.046875 -6.921875l1.96875 0l-3.734375 11.96875l-2.109375 0l-1.90625 -7.171875l-0.46875 -2.03125l-2.421875 9.203125l-2.109375 0z" fill-rule="nonzero"/><path fill="#000000" d="m400.68723 255.65727q-1.375 -1.734375 -2.328125 -4.046875q-0.953125 -2.328125 -0.953125 -4.8125q0 -2.203125 0.71875 -4.203125q0.828125 -2.328125 2.5625 -4.640625l1.1875 0q-1.125 1.90625 -1.484375 2.734375q-0.5625 1.265625 -0.875 2.65625q-0.40625 1.71875 -0.40625 3.453125q0 4.4375 2.765625 8.859375l-1.1875 0zm3.3167725 -3.96875l0 -13.515625l5.09375 0q1.34375 0 2.0625 0.140625q1.0 0.15625 1.671875 0.625q0.671875 0.46875 1.078125 1.3125q0.40625 0.828125 0.40625 1.828125q0 1.734375 -1.09375 2.921875q-1.09375 1.1875 -3.96875 1.1875l-3.453125 0l0 5.5l-1.796875 0zm1.796875 -7.09375l3.484375 0q1.734375 0 2.453125 -0.640625q0.734375 -0.640625 0.734375 -1.8125q0 -0.84375 -0.4375 -1.453125q-0.421875 -0.609375 -1.109375 -0.796875q-0.453125 -0.125 -1.671875 -0.125l-3.453125 0l0 4.828125zm16.995728 7.09375l0 -1.4375q-1.140625 1.65625 -3.109375 1.65625q-0.859375 0 -1.609375 -0.328125q-0.75 -0.328125 -1.125 -0.828125q-0.359375 -0.515625 -0.5 -1.234375q-0.109375 -0.484375 -0.109375 -1.546875l0 -6.0625l1.65625 0l0 5.421875q0 1.296875 0.109375 1.75q0.15625 0.65625 0.65625 1.03125q0.515625 0.375 1.265625 0.375q0.734375 0 1.390625 -0.375q0.65625 -0.390625 0.921875 -1.046875q0.28125 -0.671875 0.28125 -1.921875l0 -5.234375l1.65625 0l0 9.78125l-1.484375 0zm5.6223755 0l-1.546875 0l0 -13.515625l1.65625 0l0 4.828125q1.046875 -1.328125 2.6875 -1.328125q0.90625 0 1.703125 0.375q0.8125 0.359375 1.328125 1.015625q0.53125 0.65625 0.8125 1.59375q0.296875 0.9375 0.296875 1.984375q0 2.515625 -1.25 3.890625q-1.234375 1.375 -2.96875 1.375q-1.734375 0 -2.71875 -1.4375l0 1.21875zm-0.03125 -4.96875q0 1.765625 0.484375 2.546875q0.78125 1.28125 2.125 1.28125q1.078125 0 1.875 -0.9375q0.796875 -0.953125 0.796875 -2.828125q0 -1.90625 -0.765625 -2.8125q-0.765625 -0.921875 -1.84375 -0.921875q-1.078125 0 -1.875 0.953125q-0.796875 0.9375 -0.796875 2.71875zm8.9505005 4.96875l0 -13.515625l1.65625 0l0 13.515625l-1.65625 0zm4.2402954 -11.609375l0 -1.90625l1.65625 0l0 1.90625l-1.65625 0zm0 11.609375l0 -9.78125l1.65625 0l0 9.78125l-1.65625 0zm10.56842 -3.578125l1.640625 0.203125q-0.265625 1.6875 -1.375 2.640625q-1.09375 0.953125 -2.703125 0.953125q-2.015625 0 -3.234375 -1.3125q-1.21875 -1.3125 -1.21875 -3.765625q0 -1.578125 0.515625 -2.765625q0.53125 -1.1875 1.609375 -1.78125q1.078125 -0.609375 2.34375 -0.609375q1.59375 0 2.59375 0.8125q1.015625 0.8125 1.3125 2.296875l-1.609375 0.25q-0.234375 -1.0 -0.828125 -1.484375q-0.578125 -0.5 -1.40625 -0.5q-1.25 0 -2.046875 0.90625q-0.78125 0.890625 -0.78125 2.828125q0 1.96875 0.75 2.875q0.765625 0.890625 1.984375 0.890625q0.96875 0 1.625 -0.59375q0.65625 -0.609375 0.828125 -1.84375zm4.140625 7.546875l-1.1875 0q2.765625 -4.421875 2.765625 -8.859375q0 -1.734375 -0.40625 -3.4375q-0.3125 -1.375 -0.875 -2.65625q-0.359375 -0.828125 -1.484375 -2.75l1.1875 0q1.734375 2.3125 2.5625 4.640625q0.71875 2.0 0.71875 4.203125q0 2.484375 -0.953125 4.8125q-0.953125 2.3125 -2.328125 4.046875z" fill-rule="nonzero"/><path fill="#000000" fill-opacity="0.0" d="m265.275 123.86285l137.10239 73.48031" fill-rule="evenodd"/><path stroke="#188038" stroke-width="1.574803149606299" stroke-linejoin="round" stroke-linecap="butt" d="m273.60315 128.32631l128.77423 69.016846" fill-rule="evenodd"/><path fill="#188038" stroke="#188038" stroke-width="1.574803149606299" stroke-linecap="butt" d="m274.83188 126.033676l-7.52771 -1.0833054l5.070221 5.6685867z" fill-rule="evenodd"/><path fill="#000000" fill-opacity="0.0" d="m402.46997 124.56935l-118.74014 74.897644" fill-rule="evenodd"/><path stroke="#188038" stroke-width="1.574803149606299" stroke-linejoin="round" stroke-linecap="butt" d="m402.46997 124.56936l-110.74835 69.85665" fill-rule="evenodd"/><path fill="#188038" stroke="#188038" stroke-width="1.574803149606299" stroke-linecap="butt" d="m290.3339 192.22597l-4.6568604 6.012787l7.432312 -1.6126862z" fill-rule="evenodd"/><path fill="#000000" fill-opacity="0.0" d="m391.67648 115.846275l-131.3386 81.57481" fill-rule="evenodd"/><path stroke="#cc4125" stroke-width="3.146981627296588" stroke-linejoin="round" stroke-linecap="butt" d="m375.63666 125.80868l-115.29874 71.612404" fill-rule="evenodd"/><path fill="#cc4125" stroke="#cc4125" stroke-width="3.146981627296588" stroke-linecap="butt" d="m378.37915 130.22426l9.389191 -11.950638l-14.874237 3.1194687z" fill-rule="evenodd"/><path fill="#e06666" d="m363.5748 67.31368l-13.039368 13.039368l0 -6.519684l-45.322845 0l0 -13.039368l45.322845 0l0 -6.5196877z" fill-rule="evenodd"/><path stroke="#595959" stroke-width="1.574803149606299" stroke-linejoin="round" stroke-linecap="butt" d="m363.5748 67.31368l-13.039368 13.039368l0 -6.519684l-45.322845 0l0 -13.039368l45.322845 0l0 -6.5196877z" fill-rule="evenodd"/><path fill="#000000" fill-opacity="0.0" d="m223.38849 3.902887l217.03937 0l0 44.220474l-217.03937 0z" fill-rule="evenodd"/><path fill="#cc4125" d="m252.77444 41.066982l3.4375 -16.515623l4.984375 0q1.796875 0 2.734375 0.25q1.359375 0.359375 2.3125 1.25q0.953125 0.890625 1.4375 2.234375q0.484375 1.34375 0.484375 3.015625q0 1.9843731 -0.609375 3.624998q-0.59375 1.640625 -1.5625 2.890625q-0.96875 1.25 -2.046875 1.953125q-1.0625 0.703125 -2.515625 1.03125q-1.09375 0.265625 -2.71875 0.265625l-5.9375 0zm2.59375 -1.875l2.625 0q1.765625 0 3.140625 -0.328125q0.859375 -0.203125 1.46875 -0.59375q0.796875 -0.5 1.453125 -1.34375q0.84375 -1.09375 1.359375 -2.5q0.515625 -1.421875 0.515625 -3.234373q0 -2.0 -0.703125 -3.078125q-0.6875 -1.078125 -1.78125 -1.421875q-0.796875 -0.265625 -2.484375 -0.265625l-2.921875 0l-2.671875 12.765623zm22.60379 -2.1875l1.984375 0.203125q-0.4375 1.46875 -1.984375 2.796875q-1.53125 1.328125 -3.65625 1.328125q-1.328125 0 -2.4375 -0.609375q-1.109375 -0.609375 -1.703125 -1.78125q-0.578125 -1.171875 -0.578125 -2.671875q0 -1.96875 0.90625 -3.8125q0.921875 -1.8437481 2.359375 -2.734373q1.4375 -0.890625 3.125 -0.890625q2.140625 0 3.40625 1.328125q1.28125 1.328125 1.28125 3.624998q0 0.875 -0.15625 1.8125l-8.8125 0q-0.046875 0.34375 -0.046875 0.625q0 1.671875 0.765625 2.5625q0.78125 0.890625 1.90625 0.890625q1.046875 0 2.0625 -0.6875q1.015625 -0.6875 1.578125 -1.984375zm-5.9375 -2.96875l6.71875 0q0.015625 -0.3125 0.015625 -0.453125q0 -1.53125 -0.765625 -2.343748q-0.765625 -0.828125 -1.96875 -0.828125q-1.3125 0 -2.390625 0.90625q-1.078125 0.9062481 -1.609375 2.718748zm18.24121 2.671875l2.03125 0.21875q-0.765625 2.234375 -2.1875 3.328125q-1.40625 1.078125 -3.203125 1.078125q-1.953125 0 -3.171875 -1.25q-1.203125 -1.265625 -1.203125 -3.53125q0 -1.96875 0.765625 -3.859375q0.78125 -1.8906231 2.234375 -2.874998q1.453125 -0.984375 3.3125 -0.984375q1.921875 0 3.046875 1.09375q1.125 1.078125 1.125 2.874998l-2.0 0.125q-0.015625 -1.1406231 -0.671875 -1.7812481q-0.640625 -0.640625 -1.6875 -0.640625q-1.234375 0 -2.140625 0.78125q-0.890625 0.7812481 -1.40625 2.359373q-0.515625 1.578125 -0.515625 3.046875q0 1.53125 0.671875 2.296875q0.671875 0.765625 1.671875 0.765625q0.984375 0 1.890625 -0.75q0.90625 -0.75 1.4375 -2.296875zm3.1171875 4.359375l3.453125 -16.515623l2.03125 0l-3.453125 16.515623l-2.03125 0zm13.345978 -1.484375q-1.046875 0.90625 -2.03125 1.328125q-0.984375 0.421875 -2.09375 0.421875q-1.65625 0 -2.671875 -0.96875q-1.015625 -0.96875 -1.015625 -2.5q0 -1.0 0.453125 -1.765625q0.453125 -0.78125 1.203125 -1.25q0.765625 -0.46875 1.859375 -0.671875q0.6875 -0.125 2.609375 -0.203125q1.921875 -0.078125 2.75 -0.40625q0.234375 -0.84375 0.234375 -1.390625q0 -0.7031231 -0.515625 -1.1093731q-0.703125 -0.5625 -2.078125 -0.5625q-1.28125 0 -2.09375 0.5625q-0.8125 0.5625 -1.1875 1.6093731l-2.0625 -0.171875q0.625 -1.7812481 2.0 -2.718748q1.375 -0.953125 3.453125 -0.953125q2.21875 0 3.515625 1.0625q0.984375 0.78125 0.984375 2.046875q0 0.9531231 -0.28125 2.218748l-0.65625 2.96875q-0.3125 1.421875 -0.3125 2.3125q0 0.5625 0.25 1.625l-2.0625 0q-0.171875 -0.59375 -0.25 -1.484375zm0.765625 -4.578125q-0.4375 0.171875 -0.921875 0.265625q-0.484375 0.078125 -1.640625 0.1875q-1.78125 0.15625 -2.515625 0.40625q-0.734375 0.234375 -1.109375 0.765625q-0.359375 0.53125 -0.359375 1.171875q0 0.859375 0.578125 1.40625q0.59375 0.546875 1.6875 0.546875q1.015625 0 1.953125 -0.53125q0.9375 -0.53125 1.46875 -1.484375q0.546875 -0.96875 0.859375 -2.734375zm4.194336 1.96875l2.046875 -0.125q0 0.890625 0.265625 1.515625q0.265625 0.609375 0.984375 1.0q0.734375 0.390625 1.71875 0.390625q1.34375 0 2.015625 -0.53125q0.6875 -0.546875 0.6875 -1.28125q0 -0.53125 -0.40625 -1.0q-0.421875 -0.46875 -2.046875 -1.15625q-1.609375 -0.703125 -2.0625 -0.984375q-0.75 -0.46875 -1.140625 -1.09375q-0.375 -0.625 -0.375 -1.4375q0 -1.4062481 1.125 -2.421873q1.125 -1.015625 3.15625 -1.015625q2.25 0 3.421875 1.046875q1.1875 1.03125 1.234375 2.734373l-2.0 0.140625q-0.046875 -1.0781231 -0.765625 -1.7031231q-0.71875 -0.640625 -2.046875 -0.640625q-1.046875 0 -1.640625 0.484375q-0.578125 0.484375 -0.578125 1.046875q0 0.5624981 0.5 0.9843731q0.34375 0.296875 1.75 0.90625q2.34375 1.015625 2.953125 1.59375q0.96875 0.9375 0.96875 2.28125q0 0.890625 -0.546875 1.75q-0.546875 0.859375 -1.671875 1.375q-1.125 0.5 -2.640625 0.5q-2.078125 0 -3.53125 -1.015625q-1.453125 -1.03125 -1.375 -3.34375zm11.5390625 0l2.046875 -0.125q0 0.890625 0.265625 1.515625q0.265625 0.609375 0.984375 1.0q0.734375 0.390625 1.71875 0.390625q1.34375 0 2.015625 -0.53125q0.6875 -0.546875 0.6875 -1.28125q0 -0.53125 -0.40625 -1.0q-0.421875 -0.46875 -2.046875 -1.15625q-1.609375 -0.703125 -2.0625 -0.984375q-0.75 -0.46875 -1.140625 -1.09375q-0.375 -0.625 -0.375 -1.4375q0 -1.4062481 1.125 -2.421873q1.125 -1.015625 3.15625 -1.015625q2.25 0 3.421875 1.046875q1.1875 1.03125 1.234375 2.734373l-2.0 0.140625q-0.046875 -1.0781231 -0.765625 -1.7031231q-0.71875 -0.640625 -2.046875 -0.640625q-1.046875 0 -1.640625 0.484375q-0.578125 0.484375 -0.578125 1.046875q0 0.5624981 0.5 0.9843731q0.34375 0.296875 1.75 0.90625q2.34375 1.015625 2.953125 1.59375q0.96875 0.9375 0.96875 2.28125q0 0.890625 -0.546875 1.75q-0.546875 0.859375 -1.671875 1.375q-1.125 0.5 -2.640625 0.5q-2.078125 0 -3.53125 -1.015625q-1.453125 -1.03125 -1.375 -3.34375zm14.2421875 -10.109373l0.484375 -2.3125l2.03125 0l-0.484375 2.3125l-2.03125 0zm-2.96875 14.203123l2.5 -11.968748l2.046875 0l-2.5 11.968748l-2.046875 0zm5.486603 0l2.171875 -10.390623l-1.828125 0l0.328125 -1.578125l1.828125 0l0.359375 -1.703125q0.265625 -1.265625 0.546875 -1.828125q0.296875 -0.5625 0.9375 -0.921875q0.65625 -0.375 1.765625 -0.375q0.78125 0 2.25 0.328125l-0.375 1.78125q-1.03125 -0.28125 -1.734375 -0.28125q-0.59375 0 -0.90625 0.296875q-0.3125 0.296875 -0.53125 1.421875l-0.265625 1.28125l2.265625 0l-0.328125 1.578125l-2.265625 0l-2.171875 10.390623l-2.046875 0zm9.02121 -14.203123l0.484375 -2.3125l2.03125 0l-0.484375 2.3125l-2.03125 0zm-2.96875 14.203123l2.5 -11.968748l2.046875 0l-2.5 11.968748l-2.046875 0zm13.470978 -4.359375l2.03125 0.21875q-0.765625 2.234375 -2.1875 3.328125q-1.40625 1.078125 -3.203125 1.078125q-1.953125 0 -3.171875 -1.25q-1.203125 -1.265625 -1.203125 -3.53125q0 -1.96875 0.765625 -3.859375q0.78125 -1.8906231 2.234375 -2.874998q1.453125 -0.984375 3.3125 -0.984375q1.921875 0 3.046875 1.09375q1.125 1.078125 1.125 2.874998l-2.0 0.125q-0.015625 -1.1406231 -0.671875 -1.7812481q-0.640625 -0.640625 -1.6875 -0.640625q-1.234375 0 -2.140625 0.78125q-0.890625 0.7812481 -1.40625 2.359373q-0.515625 1.578125 -0.515625 3.046875q0 1.53125 0.671875 2.296875q0.671875 0.765625 1.671875 0.765625q0.984375 0 1.890625 -0.75q0.90625 -0.75 1.4375 -2.296875zm11.3359375 2.875q-1.046875 0.90625 -2.03125 1.328125q-0.984375 0.421875 -2.09375 0.421875q-1.65625 0 -2.671875 -0.96875q-1.015625 -0.96875 -1.015625 -2.5q0 -1.0 0.453125 -1.765625q0.453125 -0.78125 1.203125 -1.25q0.765625 -0.46875 1.859375 -0.671875q0.6875 -0.125 2.609375 -0.203125q1.921875 -0.078125 2.75 -0.40625q0.234375 -0.84375 0.234375 -1.390625q0 -0.7031231 -0.515625 -1.1093731q-0.703125 -0.5625 -2.078125 -0.5625q-1.28125 0 -2.09375 0.5625q-0.8125 0.5625 -1.1875 1.6093731l-2.0625 -0.171875q0.625 -1.7812481 2.0 -2.718748q1.375 -0.953125 3.453125 -0.953125q2.21875 0 3.515625 1.0625q0.984375 0.78125 0.984375 2.046875q0 0.9531231 -0.28125 2.218748l-0.65625 2.96875q-0.3125 1.421875 -0.3125 2.3125q0 0.5625 0.25 1.625l-2.0625 0q-0.171875 -0.59375 -0.25 -1.484375zm0.765625 -4.578125q-0.4375 0.171875 -0.921875 0.265625q-0.484375 0.078125 -1.640625 0.1875q-1.78125 0.15625 -2.515625 0.40625q-0.734375 0.234375 -1.109375 0.765625q-0.359375 0.53125 -0.359375 1.171875q0 0.859375 0.578125 1.40625q0.59375 0.546875 1.6875 0.546875q1.015625 0 1.953125 -0.53125q0.9375 -0.53125 1.46875 -1.484375q0.546875 -0.96875 0.859375 -2.734375zm8.772461 4.40625l-0.34375 1.671875q-0.71875 0.1875 -1.40625 0.1875q-1.21875 0 -1.9375 -0.59375q-0.546875 -0.453125 -0.546875 -1.234375q0 -0.390625 0.296875 -1.8125l1.453125 -6.953123l-1.609375 0l0.328125 -1.578125l1.609375 0l0.609375 -2.9375l2.34375 -1.40625l-0.921875 4.34375l2.015625 0l-0.34375 1.578125l-2.0 0l-1.375 6.609373q-0.265625 1.265625 -0.265625 1.515625q0 0.359375 0.203125 0.5625q0.21875 0.1875 0.6875 0.1875q0.671875 0 1.203125 -0.140625zm4.536865 -12.546873l0.484375 -2.3125l2.03125 0l-0.484375 2.3125l-2.03125 0zm-2.96875 14.203123l2.5 -11.968748l2.046875 0l-2.5 11.968748l-2.046875 0zm5.564728 -4.546875q0 -3.5 2.0625 -5.796873q1.703125 -1.890625 4.46875 -1.890625q2.15625 0 3.484375 1.359375q1.328125 1.34375 1.328125 3.640623q0 2.0625 -0.84375 3.84375q-0.828125 1.765625 -2.375 2.71875q-1.53125 0.9375 -3.234375 0.9375q-1.390625 0 -2.546875 -0.59375q-1.140625 -0.59375 -1.75 -1.6875q-0.59375 -1.09375 -0.59375 -2.53125zm2.046875 -0.203125q0 1.703125 0.8125 2.578125q0.8125 0.859375 2.0625 0.859375q0.640625 0 1.28125 -0.265625q0.65625 -0.265625 1.203125 -0.796875q0.546875 -0.546875 0.9375 -1.234375q0.390625 -0.6875 0.625 -1.5q0.359375 -1.109375 0.359375 -2.140625q0 -1.625 -0.828125 -2.515623q-0.8125 -0.890625 -2.046875 -0.890625q-0.96875 0 -1.765625 0.453125q-0.78125 0.453125 -1.421875 1.3437481q-0.625 0.875 -0.921875 2.046875q-0.296875 1.15625 -0.296875 2.0625zm10.428711 4.75l2.5 -11.968748l1.84375 0l-0.4375 2.09375q1.203125 -1.234375 2.25 -1.796875q1.0625 -0.5625 2.15625 -0.5625q1.453125 0 2.28125 0.796875q0.828125 0.78125 0.828125 2.09375q0 0.6718731 -0.296875 2.093748l-1.53125 7.25l-2.03125 0l1.59375 -7.578125q0.234375 -1.109375 0.234375 -1.6406231q0 -0.59375 -0.421875 -0.96875q-0.40625 -0.375 -1.1875 -0.375q-1.5625 0 -2.78125 1.125q-1.21875 1.1249981 -1.796875 3.874998l-1.15625 5.5625l-2.046875 0z" fill-rule="nonzero"/><path fill="#000000" fill-opacity="0.0" d="m113.23484 127.48316l0 70.77166" fill-rule="evenodd"/><path stroke="#595959" stroke-width="1.574803149606299" stroke-linejoin="round" stroke-linecap="butt" d="m113.23483 127.48316l0 61.322838" fill-rule="evenodd"/><path fill="#595959" stroke="#595959" stroke-width="1.574803149606299" stroke-linecap="butt" d="m110.63368 188.806l2.6011505 7.1466064l2.6011581 -7.1466064z" fill-rule="evenodd"/><path fill="#000000" fill-opacity="0.0" d="m91.754486 127.48316l0 70.77166" fill-rule="evenodd"/><path stroke="#595959" stroke-width="1.574803149606299" stroke-linejoin="round" stroke-linecap="butt" d="m91.75448 136.93199l0 61.32283" fill-rule="evenodd"/><path fill="#595959" stroke="#595959" stroke-width="1.574803149606299" stroke-linecap="butt" d="m94.35564 136.93198l-2.6011581 -7.1466064l-2.6011505 7.1466064z" fill-rule="evenodd"/><path fill="#000000" fill-opacity="0.0" d="m4.4409447 146.15105l76.50394 0l0 33.417328l-76.50394 0z" fill-rule="evenodd"/><path fill="#000000" d="m16.919827 168.31516l0 -16.515625l7.328125 0q2.203125 0 3.34375 0.453125q1.15625 0.4375 1.84375 1.5625q0.6875 1.125 0.6875 2.484375q0 1.765625 -1.140625 2.96875q-1.125 1.203125 -3.515625 1.53125q0.875 0.421875 1.328125 0.828125q0.953125 0.875 1.8125 2.1875l2.875 4.5l-2.75 0l-2.1875 -3.4375q-0.953125 -1.484375 -1.578125 -2.265625q-0.625 -0.796875 -1.109375 -1.109375q-0.484375 -0.328125 -1.0 -0.4375q-0.375 -0.078125 -1.21875 -0.078125l-2.53125 0l0 7.328125l-2.1875 0zm2.1875 -9.234375l4.703125 0q1.5 0 2.34375 -0.296875q0.84375 -0.3125 1.28125 -1.0q0.4375 -0.6875 0.4375 -1.484375q0 -1.171875 -0.859375 -1.921875q-0.84375 -0.75 -2.671875 -0.75l-5.234375 0l0 5.453125zm22.38504 5.375l2.09375 0.265625q-0.5 1.828125 -1.84375 2.84375q-1.34375 1.015625 -3.421875 1.015625q-2.625 0 -4.171875 -1.609375q-1.53125 -1.625 -1.53125 -4.53125q0 -3.03125 1.546875 -4.6875q1.5625 -1.671875 4.046875 -1.671875q2.390625 0 3.90625 1.640625q1.53125 1.625 1.53125 4.59375q0 0.171875 -0.015625 0.53125l-8.921875 0q0.109375 1.96875 1.109375 3.03125q1.015625 1.046875 2.515625 1.046875q1.109375 0 1.890625 -0.578125q0.796875 -0.59375 1.265625 -1.890625zm-6.671875 -3.28125l6.6875 0q-0.140625 -1.5 -0.765625 -2.25q-0.96875 -1.171875 -2.515625 -1.171875q-1.390625 0 -2.34375 0.9375q-0.953125 0.921875 -1.0625 2.484375zm19.11621 5.671875q-1.125 0.953125 -2.171875 1.34375q-1.03125 0.390625 -2.234375 0.390625q-1.96875 0 -3.03125 -0.953125q-1.0625 -0.96875 -1.0625 -2.46875q0 -0.875 0.40625 -1.59375q0.40625 -0.734375 1.046875 -1.171875q0.65625 -0.4375 1.453125 -0.671875q0.609375 -0.15625 1.8125 -0.296875q2.453125 -0.296875 3.609375 -0.703125q0.015625 -0.421875 0.015625 -0.53125q0 -1.234375 -0.578125 -1.75q-0.765625 -0.6875 -2.3125 -0.6875q-1.421875 0 -2.109375 0.5q-0.671875 0.5 -1.0 1.78125l-1.984375 -0.265625q0.265625 -1.28125 0.875 -2.0625q0.625 -0.78125 1.796875 -1.203125q1.171875 -0.421875 2.71875 -0.421875q1.53125 0 2.484375 0.359375q0.96875 0.359375 1.421875 0.90625q0.453125 0.546875 0.625 1.375q0.109375 0.515625 0.109375 1.875l0 2.703125q0 2.828125 0.125 3.578125q0.125 0.75 0.515625 1.4375l-2.125 0q-0.3125 -0.625 -0.40625 -1.46875zm-0.171875 -4.53125q-1.09375 0.4375 -3.3125 0.765625q-1.25 0.171875 -1.765625 0.40625q-0.515625 0.21875 -0.796875 0.65625q-0.28125 0.4375 -0.28125 0.953125q0 0.8125 0.609375 1.359375q0.609375 0.546875 1.796875 0.546875q1.171875 0 2.078125 -0.515625q0.921875 -0.515625 1.34375 -1.40625q0.328125 -0.6875 0.328125 -2.03125l0 -0.734375zm12.959965 6.0l0 -1.515625q-1.140625 1.78125 -3.3437538 1.78125q-1.4375 0 -2.640625 -0.78125q-1.1875 -0.796875 -1.859375 -2.203125q-0.65625 -1.421875 -0.65625 -3.25q0 -1.796875 0.59375 -3.25q0.609375 -1.46875 1.796875 -2.234375q1.203125 -0.78125 2.671875 -0.78125q1.0937538 0 1.9375038 0.453125q0.84375 0.453125 1.375 1.1875l0 -5.921875l2.015625 0l0 16.515625l-1.890625 0zm-6.406254 -5.96875q0 2.296875 0.96875 3.4375q0.96875 1.140625 2.28125 1.140625q1.3281288 0 2.2500038 -1.09375q0.9375 -1.09375 0.9375 -3.3125q0 -2.46875 -0.953125 -3.609375q-0.9375 -1.15625 -2.3125038 -1.15625q-1.359375 0 -2.265625 1.109375q-0.90625 1.109375 -0.90625 3.484375z" fill-rule="nonzero"/><path fill="#000000" fill-opacity="0.0" d="m120.940575 146.15105l76.50393 0l0 33.417328l-76.50393 0z" fill-rule="evenodd"/><path fill="#000000" d="m137.15224 168.31516l-4.390625 -16.515625l2.25 0l2.5 10.828125q0.40625 1.703125 0.703125 3.375q0.625 -2.640625 0.75 -3.046875l3.140625 -11.15625l2.640625 0l2.359375 8.359375q0.890625 3.109375 1.28125 5.84375q0.328125 -1.5625 0.828125 -3.59375l2.59375 -10.609375l2.1875 0l-4.515625 16.515625l-2.109375 0l-3.484375 -12.59375q-0.4375 -1.578125 -0.515625 -1.9375q-0.265625 1.140625 -0.484375 1.9375l-3.515625 12.59375l-2.21875 0zm18.193253 0l0 -11.96875l1.828125 0l0 1.8125q0.6875 -1.265625 1.28125 -1.671875q0.59375 -0.40625 1.3125 -0.40625q1.015625 0 2.078125 0.65625l-0.703125 1.875q-0.734375 -0.4375 -1.484375 -0.4375q-0.65625 0 -1.1875 0.40625q-0.53125 0.390625 -0.765625 1.109375q-0.328125 1.078125 -0.328125 2.359375l0 6.265625l-2.03125 0zm7.716446 -14.1875l0 -2.328125l2.03125 0l0 2.328125l-2.03125 0zm0 14.1875l0 -11.96875l2.03125 0l0 11.96875l-2.03125 0zm9.549103 -1.8125l0.296875 1.796875q-0.859375 0.171875 -1.546875 0.171875q-1.09375 0 -1.703125 -0.34375q-0.609375 -0.359375 -0.859375 -0.921875q-0.25 -0.5625 -0.25 -2.390625l0 -6.890625l-1.484375 0l0 -1.578125l1.484375 0l0 -2.96875l2.015625 -1.203125l0 4.171875l2.046875 0l0 1.578125l-2.046875 0l0 7.0q0 0.859375 0.109375 1.109375q0.109375 0.25 0.34375 0.40625q0.25 0.140625 0.703125 0.140625q0.328125 0 0.890625 -0.078125zm10.177475 -2.046875l2.09375 0.265625q-0.5 1.828125 -1.84375 2.84375q-1.34375 1.015625 -3.421875 1.015625q-2.625 0 -4.171875 -1.609375q-1.53125 -1.625 -1.53125 -4.53125q0 -3.03125 1.546875 -4.6875q1.5625 -1.671875 4.046875 -1.671875q2.390625 0 3.90625 1.640625q1.53125 1.625 1.53125 4.59375q0 0.171875 -0.015625 0.53125l-8.921875 0q0.109375 1.96875 1.109375 3.03125q1.015625 1.046875 2.515625 1.046875q1.109375 0 1.890625 -0.578125q0.796875 -0.59375 1.265625 -1.890625zm-6.671875 -3.28125l6.6875 0q-0.140625 -1.5 -0.765625 -2.25q-0.96875 -1.171875 -2.515625 -1.171875q-1.390625 0 -2.34375 0.9375q-0.953125 0.921875 -1.0625 2.484375z" fill-rule="nonzero"/><path fill="#000000" fill-opacity="0.0" d="m252.44608 127.800316l0 70.771645" fill-rule="evenodd"/><path stroke="#188038" stroke-width="1.574803149606299" stroke-linejoin="round" stroke-linecap="butt" d="m252.44608 127.80031l0 61.322845" fill-rule="evenodd"/><path fill="#188038" stroke="#188038" stroke-width="1.574803149606299" stroke-linecap="butt" d="m249.84492 189.12315l2.6011505 7.1466064l2.6011505 -7.1466064z" fill-rule="evenodd"/><path fill="#000000" fill-opacity="0.0" d="m230.96594 127.800316l0 70.771645" fill-rule="evenodd"/><path stroke="#188038" stroke-width="1.574803149606299" stroke-linejoin="round" stroke-linecap="butt" d="m230.96594 137.24913l0 61.322845" fill-rule="evenodd"/><path fill="#188038" stroke="#188038" stroke-width="1.574803149606299" stroke-linecap="butt" d="m233.5671 137.24913l-2.6011505 -7.1466064l-2.6011505 7.1466064z" fill-rule="evenodd"/><path fill="#000000" fill-opacity="0.0" d="m445.4307 127.800316l0 70.771645" fill-rule="evenodd"/><path stroke="#188038" stroke-width="1.574803149606299" stroke-linejoin="round" stroke-linecap="butt" d="m445.4307 127.80031l0 61.322845" fill-rule="evenodd"/><path fill="#188038" stroke="#188038" stroke-width="1.574803149606299" stroke-linecap="butt" d="m442.82953 189.12315l2.6011658 7.1466064l2.6011658 -7.1466064z" fill-rule="evenodd"/><path fill="#000000" fill-opacity="0.0" d="m423.95056 127.800316l0 70.771645" fill-rule="evenodd"/><path stroke="#188038" stroke-width="1.574803149606299" stroke-linejoin="round" stroke-linecap="butt" d="m423.95053 137.24913l0 61.322845" fill-rule="evenodd"/><path fill="#188038" stroke="#188038" stroke-width="1.574803149606299" stroke-linecap="butt" d="m426.5517 137.24913l-2.6011658 -7.1466064l-2.6011353 7.1466064z" fill-rule="evenodd"/><path fill="#000000" fill-opacity="0.0" d="m428.2377 198.94179l-151.1181 -83.08662" fill-rule="evenodd"/><path stroke="#cc4125" stroke-width="3.146981627296588" stroke-linejoin="round" stroke-linecap="butt" d="m411.69177 189.84464l-134.57217 -73.98946" fill-rule="evenodd"/><path fill="#cc4125" stroke="#cc4125" stroke-width="3.146981627296588" stroke-linecap="butt" d="m409.18744 194.39954l15.018829 2.3257294l-10.010162 -11.435547z" fill-rule="evenodd"/><path fill="#000000" fill-opacity="0.0" d="m223.38852 258.69754l217.03937 0l0 57.5748l-217.03937 0z" fill-rule="evenodd"/><path fill="#000000" d="m256.91797 294.5313l2.78125 0.703125q-0.875 3.4375 -3.15625 5.234375q-2.265625 1.796875 -5.546875 1.796875q-3.390625 0 -5.53125 -1.375q-2.125 -1.390625 -3.234375 -4.015625q-1.109375 -2.625 -1.109375 -5.640625q0 -3.28125 1.25 -5.71875q1.25 -2.453125 3.5625 -3.71875q2.328125 -1.28125 5.109375 -1.28125q3.15625 0 5.296875 1.609375q2.15625 1.609375 3.0 4.515625l-2.734375 0.65625q-0.734375 -2.296875 -2.125 -3.34375q-1.390625 -1.046875 -3.5 -1.046875q-2.421875 0 -4.046875 1.15625q-1.625 1.15625 -2.296875 3.125q-0.65625 1.953125 -0.65625 4.03125q0 2.6875 0.78125 4.6875q0.78125 2.0 2.421875 3.0q1.65625 0.984375 3.578125 0.984375q2.34375 0 3.96875 -1.34375q1.625 -1.359375 2.1875 -4.015625zm4.916809 -0.234375q0 -4.234375 2.359375 -6.28125q1.96875 -1.6875 4.796875 -1.6875q3.140625 0 5.125 2.0625q2.0 2.0625 2.0 5.6875q0 2.9375 -0.890625 4.625q-0.875 1.6875 -2.5625 2.625q-1.6875 0.921875 -3.671875 0.921875q-3.203125 0 -5.1875 -2.046875q-1.96875 -2.0625 -1.96875 -5.90625zm2.65625 0q0 2.921875 1.28125 4.375q1.28125 1.453125 3.21875 1.453125q1.921875 0 3.1875 -1.453125q1.28125 -1.46875 1.28125 -4.46875q0 -2.828125 -1.28125 -4.28125q-1.28125 -1.453125 -3.1875 -1.453125q-1.9375 0 -3.21875 1.453125q-1.28125 1.4375 -1.28125 4.375zm14.649475 7.609375l0 -15.234375l2.328125 0l0 2.171875q1.671875 -2.515625 4.84375 -2.515625q1.375 0 2.53125 0.5q1.15625 0.484375 1.71875 1.296875q0.578125 0.796875 0.8125 1.90625q0.140625 0.71875 0.140625 2.515625l0 9.359375l-2.578125 0l0 -9.265625q0 -1.578125 -0.3125 -2.359375q-0.296875 -0.78125 -1.0625 -1.25q-0.765625 -0.46875 -1.796875 -0.46875q-1.65625 0 -2.859375 1.046875q-1.1875 1.046875 -1.1875 3.984375l0 8.3125l-2.578125 0zm16.94635 0l0 -13.21875l-2.28125 0l0 -2.015625l2.28125 0l0 -1.625q0 -1.53125 0.28125 -2.28125q0.375 -1.0 1.3125 -1.625q0.9375 -0.625 2.625 -0.625q1.09375 0 2.421875 0.265625l-0.390625 2.25q-0.8125 -0.140625 -1.53125 -0.140625q-1.171875 0 -1.65625 0.5q-0.484375 0.5 -0.484375 1.875l0 1.40625l2.96875 0l0 2.015625l-2.96875 0l0 13.21875l-2.578125 0zm7.567566 -18.0625l0 -2.96875l2.578125 0l0 2.96875l-2.578125 0zm0 18.0625l0 -15.234375l2.578125 0l0 15.234375l-2.578125 0zm16.38556 0l0 -1.921875q-1.4375 2.265625 -4.25 2.265625q-1.828125 0 -3.359375 -1.0q-1.515625 -1.0 -2.359375 -2.796875q-0.84375 -1.8125 -0.84375 -4.15625q0 -2.265625 0.765625 -4.125q0.765625 -1.859375 2.28125 -2.84375q1.515625 -1.0 3.390625 -1.0q1.390625 0 2.453125 0.578125q1.078125 0.578125 1.75 1.515625l0 -7.546875l2.578125 0l0 21.03125l-2.40625 0zm-8.15625 -7.609375q0 2.9375 1.234375 4.390625q1.234375 1.4375 2.90625 1.4375q1.703125 0 2.875 -1.375q1.1875 -1.390625 1.1875 -4.234375q0 -3.125 -1.203125 -4.578125q-1.203125 -1.46875 -2.96875 -1.46875q-1.71875 0 -2.875 1.40625q-1.15625 1.40625 -1.15625 4.421875zm25.0401 2.703125l2.671875 0.328125q-0.625 2.34375 -2.34375 3.640625q-1.703125 1.28125 -4.359375 1.28125q-3.34375 0 -5.296875 -2.046875q-1.953125 -2.0625 -1.953125 -5.78125q0 -3.84375 1.96875 -5.96875q1.984375 -2.125 5.140625 -2.125q3.0625 0 5.0 2.078125q1.9375 2.078125 1.9375 5.859375q0 0.21875 -0.015625 0.6875l-11.359375 0q0.140625 2.5 1.40625 3.84375q1.28125 1.328125 3.1875 1.328125q1.421875 0 2.421875 -0.734375q1.015625 -0.75 1.59375 -2.390625zm-8.46875 -4.171875l8.5 0q-0.171875 -1.921875 -0.96875 -2.890625q-1.234375 -1.484375 -3.203125 -1.484375q-1.78125 0 -3.0 1.1875q-1.203125 1.1875 -1.328125 3.1875zm14.38385 9.078125l0 -15.234375l2.328125 0l0 2.171875q1.671875 -2.515625 4.84375 -2.515625q1.375 0 2.53125 0.5q1.15625 0.484375 1.71875 1.296875q0.578125 0.796875 0.8125 1.90625q0.140625 0.71875 0.140625 2.515625l0 9.359375l-2.578125 0l0 -9.265625q0 -1.578125 -0.3125 -2.359375q-0.296875 -0.78125 -1.0625 -1.25q-0.765625 -0.46875 -1.796875 -0.46875q-1.65625 0 -2.859375 1.046875q-1.1875 1.046875 -1.1875 3.984375l0 8.3125l-2.578125 0zm21.9776 -2.3125l0.375 2.28125q-1.09375 0.234375 -1.953125 0.234375q-1.40625 0 -2.1875 -0.4375q-0.765625 -0.453125 -1.09375 -1.171875q-0.3125 -0.734375 -0.3125 -3.046875l0 -8.765625l-1.890625 0l0 -2.015625l1.890625 0l0 -3.765625l2.578125 -1.546875l0 5.3125l2.59375 0l0 2.015625l-2.59375 0l0 8.90625q0 1.09375 0.125 1.421875q0.140625 0.3125 0.4375 0.5q0.3125 0.1875 0.890625 0.1875q0.4375 0 1.140625 -0.109375zm2.536316 -15.75l0 -2.96875l2.578125 0l0 2.96875l-2.578125 0zm0 18.0625l0 -15.234375l2.578125 0l0 15.234375l-2.578125 0zm16.44806 -1.875q-1.4375 1.21875 -2.765625 1.71875q-1.328125 0.5 -2.84375 0.5q-2.5 0 -3.859375 -1.21875q-1.34375 -1.234375 -1.34375 -3.140625q0 -1.125 0.5 -2.046875q0.515625 -0.921875 1.34375 -1.484375q0.828125 -0.5625 1.859375 -0.84375q0.75 -0.203125 2.296875 -0.390625q3.125 -0.375 4.59375 -0.890625q0.015625 -0.53125 0.015625 -0.671875q0 -1.578125 -0.734375 -2.21875q-0.984375 -0.875 -2.9375 -0.875q-1.8125 0 -2.6875 0.640625q-0.859375 0.640625 -1.28125 2.25l-2.53125 -0.34375q0.34375 -1.609375 1.125 -2.609375q0.796875 -1.0 2.28125 -1.53125q1.5 -0.546875 3.46875 -0.546875q1.953125 0 3.171875 0.46875q1.21875 0.453125 1.78125 1.15625q0.578125 0.6875 0.8125 1.75q0.125 0.65625 0.125 2.375l0 3.453125q0 3.59375 0.15625 4.546875q0.171875 0.953125 0.671875 1.828125l-2.703125 0q-0.40625 -0.796875 -0.515625 -1.875zm-0.21875 -5.765625q-1.40625 0.5625 -4.21875 0.96875q-1.578125 0.234375 -2.25 0.53125q-0.65625 0.28125 -1.015625 0.828125q-0.359375 0.546875 -0.359375 1.21875q0 1.03125 0.78125 1.734375q0.78125 0.6875 2.296875 0.6875q1.484375 0 2.640625 -0.65625q1.171875 -0.65625 1.71875 -1.78125q0.40625 -0.875 0.40625 -2.59375l0 -0.9375zm6.555725 7.640625l0 -21.03125l2.578125 0l0 21.03125l-2.578125 0zm6.604309 -18.0625l0 -2.96875l2.578125 0l0 2.96875l-2.578125 0zm0 18.0625l0 -15.234375l2.578125 0l0 15.234375l-2.578125 0zm12.151184 -2.3125l0.375 2.28125q-1.09375 0.234375 -1.953125 0.234375q-1.40625 0 -2.1875 -0.4375q-0.765625 -0.453125 -1.09375 -1.171875q-0.3125 -0.734375 -0.3125 -3.046875l0 -8.765625l-1.890625 0l0 -2.015625l1.890625 0l0 -3.765625l2.578125 -1.546875l0 5.3125l2.59375 0l0 2.015625l-2.59375 0l0 8.90625q0 1.09375 0.125 1.421875q0.140625 0.3125 0.4375 0.5q0.3125 0.1875 0.890625 0.1875q0.4375 0 1.140625 -0.109375zm2.411316 8.171875l-0.296875 -2.421875q0.84375 0.234375 1.484375 0.234375q0.859375 0 1.375 -0.296875q0.515625 -0.28125 0.84375 -0.796875q0.25 -0.390625 0.796875 -1.921875q0.0625 -0.21875 0.21875 -0.625l-5.78125 -15.265625l2.78125 0l3.171875 8.828125q0.625 1.671875 1.109375 3.515625q0.4375 -1.765625 1.0625 -3.46875l3.25 -8.875l2.578125 0l-5.78125 15.5q-0.9375 2.5 -1.453125 3.453125q-0.6875 1.265625 -1.578125 1.859375q-0.890625 0.609375 -2.125 0.609375q-0.75 0 -1.65625 -0.328125z" fill-rule="nonzero"/></g></svg>