<svg version="1.1" viewBox="0.0 0.0 1164.9133858267717 435.0866141732283" fill="none" stroke="none" stroke-linecap="square" stroke-miterlimit="10" xmlns:xlink="http://www.w3.org/1999/xlink" xmlns="http://www.w3.org/2000/svg"><clipPath id="p.0"><path d="m0 0l1164.9133 0l0 435.0866l-1164.9133 0l0 -435.0866z" clip-rule="nonzero"/></clipPath><g clip-path="url(#p.0)"><path fill="#000000" fill-opacity="0.0" d="m0 0l1164.9133 0l0 435.0866l-1164.9133 0z" fill-rule="evenodd"/><path fill="#fff2cc" d="m45.862392 165.54564l0 0c0 -19.02121 23.281193 -34.44095 51.999996 -34.44095l0 0c28.718811 0 52.000008 15.419739 52.000008 34.44095l0 0c0 19.02121 -23.281197 34.44095 -52.000008 34.44095l0 0c-28.718803 0 -51.999996 -15.419739 -51.999996 -34.44095z" fill-rule="evenodd"/><path stroke="#595959" stroke-width="1.916010498687664" stroke-linejoin="round" stroke-linecap="butt" d="m45.862392 165.54564l0 0c0 -19.02121 23.281193 -34.44095 51.999996 -34.44095l0 0c28.718811 0 52.000008 15.419739 52.000008 34.44095l0 0c0 19.02121 -23.281197 34.44095 -52.000008 34.44095l0 0c-28.718803 0 -51.999996 -15.419739 -51.999996 -34.44095z" fill-rule="evenodd"/><path fill="#000000" d="m73.638885 174.57288l0 -18.28125l2.421875 0l0 7.5l9.5 0l0 -7.5l2.421875 0l0 18.28125l-2.421875 0l0 -8.625l-9.5 0l0 8.625l-2.421875 0zm18.105392 -15.703125l0 -2.578125l2.234375 0l0 2.578125l-2.234375 0zm0 15.703125l0 -13.25l2.234375 0l0 13.25l-2.234375 0zm5.238205 1.09375l2.1875 0.328125q0.140625 1.015625 0.765625 1.46875q0.828125 0.625 2.28125 0.625q1.5625 0 2.40625 -0.625q0.84375 -0.625 1.140625 -1.75q0.1875 -0.671875 0.171875 -2.875q-1.46875 1.734375 -3.671875 1.734375q-2.734375 0 -4.234375 -1.96875q-1.484375 -1.96875 -1.484375 -4.734375q0 -1.890625 0.6875 -3.484375q0.6875 -1.609375 1.984375 -2.484375q1.296875 -0.875 3.0625 -0.875q2.34375 0 3.859375 1.890625l0 -1.59375l2.078125 0l0 11.453125q0 3.09375 -0.640625 4.375q-0.625 1.296875 -2.0 2.046875q-1.359375 0.75 -3.34375 0.75q-2.375 0 -3.84375 -1.0625q-1.453125 -1.0625 -1.40625 -3.21875zm1.859375 -7.953125q0 2.609375 1.03125 3.8125q1.046875 1.1875 2.609375 1.1875q1.546875 0 2.59375 -1.1875q1.046875 -1.1875 1.046875 -3.734375q0 -2.4375 -1.078125 -3.671875q-1.078125 -1.234375 -2.609375 -1.234375q-1.484375 0 -2.546875 1.21875q-1.046875 1.21875 -1.046875 3.609375zm12.770462 6.859375l0 -18.28125l2.234375 0l0 6.5625q1.578125 -1.828125 3.96875 -1.828125q1.484375 0 2.5625 0.578125q1.078125 0.578125 1.546875 1.609375q0.46875 1.015625 0.46875 2.96875l0 8.390625l-2.234375 0l0 -8.390625q0 -1.6875 -0.734375 -2.453125q-0.734375 -0.765625 -2.0625 -0.765625q-1.0 0 -1.890625 0.515625q-0.875 0.515625 -1.25 1.40625q-0.375 0.875 -0.375 2.4375l0 7.25l-2.234375 0z" fill-rule="nonzero"/><path fill="#fff2cc" d="m234.5058 165.54564l0 0c0 -19.02121 23.281189 -34.44095 52.0 -34.44095l0 0c28.718811 0 52.0 15.419739 52.0 34.44095l0 0c0 19.02121 -23.281189 34.44095 -52.0 34.44095l0 0c-28.718811 0 -52.0 -15.419739 -52.0 -34.44095z" fill-rule="evenodd"/><path stroke="#595959" stroke-width="1.916010498687664" stroke-linejoin="round" stroke-linecap="butt" d="m234.5058 165.54564l0 0c0 -19.02121 23.281189 -34.44095 52.0 -34.44095l0 0c28.718811 0 52.0 15.419739 52.0 34.44095l0 0c0 19.02121 -23.281189 34.44095 -52.0 34.44095l0 0c-28.718811 0 -52.0 -15.419739 -52.0 -34.44095z" fill-rule="evenodd"/><path fill="#000000" d="m264.94827 174.57288l0 -18.28125l2.421875 0l0 16.125l9.0 0l0 2.15625l-11.421875 0zm13.176697 -6.625q0 -3.671875 2.046875 -5.453125q1.71875 -1.46875 4.171875 -1.46875q2.734375 0 4.46875 1.796875q1.734375 1.78125 1.734375 4.9375q0 2.5625 -0.78125 4.03125q-0.765625 1.453125 -2.234375 2.265625q-1.453125 0.8125 -3.1875 0.8125q-2.78125 0 -4.5 -1.78125q-1.71875 -1.78125 -1.71875 -5.140625zm2.3125 0q0 2.546875 1.109375 3.8125q1.109375 1.265625 2.796875 1.265625q1.671875 0 2.78125 -1.265625q1.109375 -1.28125 1.109375 -3.890625q0 -2.453125 -1.125 -3.71875q-1.109375 -1.265625 -2.765625 -1.265625q-1.6875 0 -2.796875 1.265625q-1.109375 1.25 -1.109375 3.796875zm15.176727 6.625l-4.046875 -13.25l2.3125 0l2.109375 7.65625l0.78125 2.84375q0.0625 -0.21875 0.6875 -2.734375l2.109375 -7.765625l2.3125 0l1.984375 7.6875l0.65625 2.53125l0.765625 -2.5625l2.265625 -7.65625l2.1875 0l-4.140625 13.25l-2.328125 0l-2.109375 -7.9375l-0.515625 -2.25l-2.6875 10.1875l-2.34375 0z" fill-rule="nonzero"/><path fill="#fff2cc" d="m45.862392 273.42664l104.0 0l0 53.259827l-104.0 0z" fill-rule="evenodd"/><path stroke="#595959" stroke-width="1.916010498687664" stroke-linejoin="round" stroke-linecap="butt" d="m45.862392 273.42664l104.0 0l0 53.259827l-104.0 0z" fill-rule="evenodd"/><path fill="#000000" d="m73.63888 309.08377l0 -18.28125l2.421875 0l0 7.5l9.5 0l0 -7.5l2.421875 0l0 18.28125l-2.421875 0l0 -8.625l-9.5 0l0 8.625l-2.421875 0zm18.105392 -15.703125l0 -2.578125l2.234375 0l0 2.578125l-2.234375 0zm0 15.703125l0 -13.25l2.234375 0l0 13.25l-2.234375 0zm5.238205 1.09375l2.1875 0.328125q0.140625 1.015625 0.765625 1.46875q0.828125 0.625 2.28125 0.625q1.5625 0 2.40625 -0.625q0.84375 -0.625 1.140625 -1.75q0.1875 -0.671875 0.171875 -2.875q-1.46875 1.734375 -3.671875 1.734375q-2.734375 0 -4.234375 -1.96875q-1.484375 -1.96875 -1.484375 -4.734375q0 -1.890625 0.6875 -3.484375q0.6875 -1.609375 1.984375 -2.484375q1.296875 -0.875 3.0625 -0.875q2.34375 0 3.859375 1.890625l0 -1.59375l2.078125 0l0 11.453125q0 3.09375 -0.640625 4.375q-0.625 1.296875 -2.0 2.046875q-1.359375 0.75 -3.34375 0.75q-2.375 0 -3.84375 -1.0625q-1.453125 -1.0625 -1.40625 -3.21875zm1.859375 -7.953125q0 2.609375 1.03125 3.8125q1.046875 1.1875 2.609375 1.1875q1.546875 0 2.59375 -1.1875q1.046875 -1.1875 1.046875 -3.734375q0 -2.4375 -1.078125 -3.671875q-1.078125 -1.234375 -2.609375 -1.234375q-1.484375 0 -2.546875 1.21875q-1.046875 1.21875 -1.046875 3.609375zm12.770462 6.859375l0 -18.28125l2.234375 0l0 6.5625q1.578125 -1.828125 3.96875 -1.828125q1.484375 0 2.5625 0.578125q1.078125 0.578125 1.546875 1.609375q0.46875 1.015625 0.46875 2.96875l0 8.390625l-2.234375 0l0 -8.390625q0 -1.6875 -0.734375 -2.453125q-0.734375 -0.765625 -2.0625 -0.765625q-1.0 0 -1.890625 0.515625q-0.875 0.515625 -1.25 1.40625q-0.375 0.875 -0.375 2.4375l0 7.25l-2.234375 0z" fill-rule="nonzero"/><path fill="#fff2cc" d="m234.5058 273.42664l104.0 0l0 53.259827l-104.0 0z" fill-rule="evenodd"/><path stroke="#595959" stroke-width="1.916010498687664" stroke-linejoin="round" stroke-linecap="butt" d="m234.5058 273.42664l104.0 0l0 53.259827l-104.0 0z" fill-rule="evenodd"/><path fill="#000000" d="m264.94827 309.08377l0 -18.28125l2.421875 0l0 16.125l9.0 0l0 2.15625l-11.421875 0zm13.176697 -6.625q0 -3.671875 2.046875 -5.453125q1.71875 -1.46875 4.171875 -1.46875q2.734375 0 4.46875 1.796875q1.734375 1.78125 1.734375 4.9375q0 2.5625 -0.78125 4.03125q-0.765625 1.453125 -2.234375 2.265625q-1.453125 0.8125 -3.1875 0.8125q-2.78125 0 -4.5 -1.78125q-1.71875 -1.78125 -1.71875 -5.140625zm2.3125 0q0 2.546875 1.109375 3.8125q1.109375 1.265625 2.796875 1.265625q1.671875 0 2.78125 -1.265625q1.109375 -1.28125 1.109375 -3.890625q0 -2.453125 -1.125 -3.71875q-1.109375 -1.265625 -2.765625 -1.265625q-1.6875 0 -2.796875 1.265625q-1.109375 1.25 -1.109375 3.796875zm15.176727 6.625l-4.046875 -13.25l2.3125 0l2.109375 7.65625l0.78125 2.84375q0.0625 -0.21875 0.6875 -2.734375l2.109375 -7.765625l2.3125 0l1.984375 7.6875l0.65625 2.53125l0.765625 -2.5625l2.265625 -7.65625l2.1875 0l-4.140625 13.25l-2.328125 0l-2.109375 -7.9375l-0.515625 -2.25l-2.6875 10.1875l-2.34375 0z" fill-rule="nonzero"/><path fill="#000000" fill-opacity="0.0" d="m97.86239 199.98659l0 73.44881" fill-rule="evenodd"/><path stroke="#188038" stroke-width="1.916010498687664" stroke-linejoin="round" stroke-linecap="butt" d="m97.86239 211.48265l0 50.45668" fill-rule="evenodd"/><path fill="#188038" stroke="#188038" stroke-width="1.916010498687664" stroke-linecap="butt" d="m101.02712 211.48265l-3.164734 -8.695038l-3.164734 8.695038z" fill-rule="evenodd"/><path fill="#188038" stroke="#188038" stroke-width="1.916010498687664" stroke-linecap="butt" d="m94.697655 261.93933l3.164734 8.695068l3.164734 -8.695068z" fill-rule="evenodd"/><path fill="#000000" fill-opacity="0.0" d="m97.86239 199.98659l188.62991 73.44881" fill-rule="evenodd"/><path stroke="#188038" stroke-width="1.916010498687664" stroke-linejoin="round" stroke-linecap="butt" d="m108.575 204.15787l177.91731 69.27753" fill-rule="evenodd"/><path fill="#188038" stroke="#188038" stroke-width="1.916010498687664" stroke-linecap="butt" d="m109.7233 201.20882l-9.250778 -0.20588684l6.95417 6.104004z" fill-rule="evenodd"/><path fill="#000000" fill-opacity="0.0" d="m286.5058 199.98659l0 73.44881" fill-rule="evenodd"/><path stroke="#188038" stroke-width="1.916010498687664" stroke-linejoin="round" stroke-linecap="butt" d="m286.5058 211.48265l0 50.45668" fill-rule="evenodd"/><path fill="#188038" stroke="#188038" stroke-width="1.916010498687664" stroke-linecap="butt" d="m289.67053 211.48265l-3.164734 -8.695038l-3.164734 8.695038z" fill-rule="evenodd"/><path fill="#188038" stroke="#188038" stroke-width="1.916010498687664" stroke-linecap="butt" d="m283.34106 261.93933l3.164734 8.695068l3.164734 -8.695068z" fill-rule="evenodd"/><path fill="#000000" fill-opacity="0.0" d="m286.5058 199.98659l-188.62991 73.44881" fill-rule="evenodd"/><path stroke="#188038" stroke-width="1.916010498687664" stroke-linejoin="round" stroke-linecap="butt" d="m286.5058 199.98659l-177.9173 69.27754" fill-rule="evenodd"/><path fill="#188038" stroke="#188038" stroke-width="1.916010498687664" stroke-linecap="butt" d="m107.44018 266.31506l-6.9541626 6.104004l9.250778 -0.20587158z" fill-rule="evenodd"/><path fill="#000000" fill-opacity="0.0" d="m310.9959 268.85648l-196.6614 -76.50395" fill-rule="evenodd"/><path stroke="#cc4125" stroke-width="3.832020997375328" stroke-linejoin="round" stroke-linecap="butt" d="m289.56805 260.52072l-175.23355 -68.1682" fill-rule="evenodd"/><path fill="#cc4125" stroke="#cc4125" stroke-width="3.832020997375328" stroke-linecap="butt" d="m287.27332 266.4196l18.501709 0.4058838l-13.912231 -12.203583z" fill-rule="evenodd"/><path fill="#000000" fill-opacity="0.0" d="m271.6112 188.2987l-199.24411 84.566925" fill-rule="evenodd"/><path stroke="#cc4125" stroke-width="3.832020997375328" stroke-linejoin="round" stroke-linecap="butt" d="m250.44656 197.2818l-178.07947 75.58386" fill-rule="evenodd"/><path fill="#cc4125" stroke="#cc4125" stroke-width="3.832020997375328" stroke-linecap="butt" d="m252.91951 203.1082l13.534927 -12.620743l-18.48082 0.9679718z" fill-rule="evenodd"/><path fill="#b6d7a8" d="m162.85275 174.66266l13.102371 -13.102371l0 6.551193l45.543304 0l0 13.102356l-45.543304 0l0 6.551178z" fill-rule="evenodd"/><path stroke="#595959" stroke-width="1.916010498687664" stroke-linejoin="round" stroke-linecap="butt" d="m162.85275 174.66266l13.102371 -13.102371l0 6.551193l45.543304 0l0 13.102356l-45.543304 0l0 6.551178z" fill-rule="evenodd"/><path fill="#e06666" d="m221.49388 140.27551l-13.102371 13.102371l0 -6.551178l-45.543304 0l0 -13.102371l45.543304 0l0 -6.551178z" fill-rule="evenodd"/><path stroke="#595959" stroke-width="1.916010498687664" stroke-linejoin="round" stroke-linecap="butt" d="m221.49388 140.27551l-13.102371 13.102371l0 -6.551178l-45.543304 0l0 -13.102371l45.543304 0l0 -6.551178z" fill-rule="evenodd"/><path fill="#000000" fill-opacity="0.0" d="m51.239296 335.89352l276.8819 0l0 44.44095l-276.8819 0z" fill-rule="evenodd"/><path fill="#000000" d="m99.50222 375.26373l4.296875 1.359375q-0.984375 3.59375 -3.28125 5.34375q-2.296875 1.734375 -5.828125 1.734375q-4.375 0 -7.1875 -2.984375q-2.8125 -2.984375 -2.8125 -8.171875q0 -5.46875 2.828125 -8.5q2.828125 -3.03125 7.4375 -3.03125q4.03125 0 6.546875 2.375q1.5 1.40625 2.234375 4.046875l-4.375 1.046875q-0.390625 -1.71875 -1.625 -2.703125q-1.234375 -0.984375 -3.0 -0.984375q-2.4375 0 -3.96875 1.75q-1.515625 1.75 -1.515625 5.671875q0 4.15625 1.5 5.9375q1.5 1.765625 3.890625 1.765625q1.765625 0 3.03125 -1.125q1.28125 -1.125 1.828125 -3.53125zm7.107712 -0.109375q0 -2.09375 1.03125 -4.046875q1.03125 -1.96875 2.921875 -3.0q1.890625 -1.03125 4.234375 -1.03125q3.59375 0 5.90625 2.34375q2.3125 2.328125 2.3125 5.90625q0 3.609375 -2.328125 5.984375q-2.328125 2.375 -5.859375 2.375q-2.1875 0 -4.171875 -0.984375q-1.984375 -0.984375 -3.015625 -2.890625q-1.03125 -1.921875 -1.03125 -4.65625zm4.296875 0.21875q0 2.375 1.125 3.640625q1.125 1.25 2.78125 1.25q1.640625 0 2.75 -1.25q1.125 -1.265625 1.125 -3.671875q0 -2.328125 -1.125 -3.578125q-1.109375 -1.265625 -2.75 -1.265625q-1.65625 0 -2.78125 1.265625q-1.125 1.25 -1.125 3.609375zm29.851067 7.953125l-4.203125 0l0 -8.109375q0 -2.578125 -0.265625 -3.328125q-0.265625 -0.765625 -0.875 -1.171875q-0.609375 -0.421875 -1.46875 -0.421875q-1.09375 0 -1.96875 0.59375q-0.859375 0.59375 -1.1875 1.59375q-0.3125 0.984375 -0.3125 3.640625l0 7.203125l-4.2031326 0l0 -15.890625l3.9062576 0l0 2.328125q2.078125 -2.6875 5.234375 -2.6875q1.390625 0 2.546875 0.5q1.15625 0.5 1.75 1.28125q0.59375 0.765625 0.8125 1.765625q0.234375 0.984375 0.234375 2.828125l0 9.875zm2.429184 -15.890625l2.328125 0l0 -1.203125q0 -2.0 0.421875 -2.984375q0.4375 -1.0 1.578125 -1.609375q1.15625 -0.625 2.90625 -0.625q1.796875 0 3.515625 0.53125l-0.578125 2.9375q-1.0 -0.234375 -1.921875 -0.234375q-0.921875 0 -1.3125 0.421875q-0.390625 0.421875 -0.390625 1.640625l0 1.125l3.140625 0l0 3.296875l-3.140625 0l0 12.59375l-4.21875 0l0 -12.59375l-2.328125 0l0 -3.296875zm12.052521 -2.15625l0 -3.890625l4.203125 0l0 3.890625l-4.203125 0zm0 18.046875l0 -15.890625l4.203125 0l0 15.890625l-4.203125 0zm23.095413 0l-3.90625 0l0 -2.328125q-0.96875 1.359375 -2.296875 2.03125q-1.328125 0.65625 -2.671875 0.65625q-2.734375 0 -4.703125 -2.203125q-1.953125 -2.21875 -1.953125 -6.171875q0 -4.03125 1.90625 -6.125q1.90625 -2.109375 4.8125 -2.109375q2.65625 0 4.609375 2.203125l0 -7.890625l4.203125 0l0 21.9375zm-11.234375 -8.296875q0 2.546875 0.703125 3.6875q1.03125 1.640625 2.84375 1.640625q1.453125 0 2.46875 -1.234375q1.03125 -1.234375 1.03125 -3.6875q0 -2.734375 -1.0 -3.9375q-0.984375 -1.203125 -2.515625 -1.203125q-1.5 0 -2.515625 1.1875q-1.015625 1.1875 -1.015625 3.546875zm24.585434 3.234375l4.1875 0.703125q-0.796875 2.3125 -2.546875 3.515625q-1.75 1.203125 -4.359375 1.203125q-4.15625 0 -6.140625 -2.703125q-1.578125 -2.171875 -1.578125 -5.484375q0 -3.953125 2.0625 -6.1875q2.078125 -2.234375 5.234375 -2.234375q3.546875 0 5.59375 2.34375q2.046875 2.328125 1.96875 7.171875l-10.546875 0q0.046875 1.875 1.015625 2.921875q0.984375 1.03125 2.4375 1.03125q0.984375 0 1.65625 -0.53125q0.671875 -0.546875 1.015625 -1.75zm0.234375 -4.25q-0.046875 -1.828125 -0.953125 -2.765625q-0.890625 -0.953125 -2.171875 -0.953125q-1.375 0 -2.28125 1.0q-0.890625 1.0 -0.875 2.71875l6.28125 0zm22.06517 9.3125l-4.203125 0l0 -8.109375q0 -2.578125 -0.265625 -3.328125q-0.265625 -0.765625 -0.875 -1.171875q-0.609375 -0.421875 -1.46875 -0.421875q-1.09375 0 -1.96875 0.59375q-0.859375 0.59375 -1.1875 1.59375q-0.3125 0.984375 -0.3125 3.640625l0 7.203125l-4.203125 0l0 -15.890625l3.90625 0l0 2.328125q2.078125 -2.6875 5.234375 -2.6875q1.390625 0 2.546875 0.5q1.15625 0.5 1.75 1.28125q0.59375 0.765625 0.8125 1.765625q0.234375 0.984375 0.234375 2.828125l0 9.875zm11.554184 -15.890625l0 3.34375l-2.875 0l0 6.40625q0 1.953125 0.078125 2.28125q0.09375 0.3125 0.375 0.53125q0.296875 0.203125 0.71875 0.203125q0.59375 0 1.6875 -0.40625l0.359375 3.265625q-1.453125 0.625 -3.3125 0.625q-1.140625 0 -2.0625 -0.375q-0.90625 -0.390625 -1.34375 -0.984375q-0.421875 -0.609375 -0.578125 -1.65625q-0.140625 -0.734375 -0.140625 -2.953125l0 -6.9375l-1.921875 0l0 -3.34375l1.921875 0l0 -3.171875l4.21875 -2.453125l0 5.625l2.875 0zm2.9275208 -2.15625l0 -3.890625l4.203125 0l0 3.890625l-4.203125 0zm0 18.046875l0 -15.890625l4.203125 0l0 15.890625l-4.203125 0zm11.657913 -11.046875l-3.8125 -0.6875q0.640625 -2.3125 2.203125 -3.40625q1.578125 -1.109375 4.671875 -1.109375q2.828125 0 4.203125 0.671875q1.375 0.65625 1.9375 1.6875q0.5625 1.015625 0.5625 3.75l-0.046875 4.921875q0 2.09375 0.203125 3.09375q0.203125 0.984375 0.75 2.125l-4.15625 0q-0.171875 -0.421875 -0.40625 -1.25q-0.109375 -0.359375 -0.15625 -0.484375q-1.078125 1.046875 -2.3125 1.578125q-1.21875 0.515625 -2.609375 0.515625q-2.453125 0 -3.875 -1.328125q-1.40625 -1.34375 -1.40625 -3.375q0 -1.34375 0.640625 -2.390625q0.640625 -1.0625 1.796875 -1.625q1.171875 -0.5625 3.359375 -0.984375q2.9375 -0.546875 4.078125 -1.03125l0 -0.421875q0 -1.203125 -0.59375 -1.71875q-0.59375 -0.515625 -2.265625 -0.515625q-1.125 0 -1.75 0.4375q-0.625 0.4375 -1.015625 1.546875zm5.625 3.40625q-0.8125 0.28125 -2.5625 0.65625q-1.75 0.375 -2.28125 0.734375q-0.828125 0.578125 -0.828125 1.46875q0 0.890625 0.65625 1.53125q0.65625 0.640625 1.6875 0.640625q1.125 0 2.15625 -0.75q0.765625 -0.5625 1.015625 -1.390625q0.15625 -0.53125 0.15625 -2.046875l0 -0.84375zm8.28392 7.640625l0 -21.9375l4.2031097 0l0 21.9375l-4.2031097 0zm8.517288 -18.046875l0 -3.890625l4.203125 0l0 3.890625l-4.203125 0zm0 18.046875l0 -15.890625l4.203125 0l0 15.890625l-4.203125 0zm15.798523 -15.890625l0 3.34375l-2.875 0l0 6.40625q0 1.953125 0.078125 2.28125q0.09375 0.3125 0.375 0.53125q0.296875 0.203125 0.71875 0.203125q0.59375 0 1.6875 -0.40625l0.359375 3.265625q-1.453125 0.625 -3.3125 0.625q-1.140625 0 -2.0625 -0.375q-0.90625 -0.390625 -1.34375 -0.984375q-0.421875 -0.609375 -0.578125 -1.65625q-0.140625 -0.734375 -0.140625 -2.953125l0 -6.9375l-1.921875 0l0 -3.34375l1.921875 0l0 -3.171875l4.21875 -2.453125l0 5.625l2.875 0zm0.92752075 0l4.484375 0l3.796875 11.28125l3.71875 -11.28125l4.359375 0l-5.625 15.296875l-1.0 2.765625q-0.546875 1.390625 -1.0625 2.125q-0.5 0.734375 -1.15625 1.1875q-0.640625 0.453125 -1.59375 0.703125q-0.953125 0.265625 -2.140625 0.265625q-1.21875 0 -2.375 -0.25l-0.375 -3.296875q0.984375 0.1875 1.78125 0.1875q1.453125 0 2.15625 -0.859375q0.703125 -0.859375 1.078125 -2.1875l-6.046875 -15.9375z" fill-rule="nonzero"/><path fill="#000000" fill-opacity="0.0" d="m80.62063 74.95513l218.11023 0l0 44.44094l-218.11023 0z" fill-rule="evenodd"/><path fill="#cc4125" d="m102.07586 117.48236l3.8125 -18.28125l5.515625 0q1.984375 0 3.03125 0.28125q1.5 0.390625 2.546875 1.390625q1.0625 0.984375 1.59375 2.46875q0.546875 1.484375 0.546875 3.328125q0 2.203125 -0.671875 4.015625q-0.65625 1.8125 -1.75 3.203125q-1.078125 1.375 -2.25 2.15625q-1.171875 0.78125 -2.78125 1.15625q-1.234375 0.28125 -3.015625 0.28125l-6.578125 0zm2.875 -2.078125l2.890625 0q1.96875 0 3.484375 -0.359375q0.953125 -0.21875 1.625 -0.65625q0.875 -0.5625 1.609375 -1.484375q0.9375 -1.21875 1.5 -2.78125q0.578125 -1.578125 0.578125 -3.5625q0 -2.21875 -0.78125 -3.40625q-0.765625 -1.203125 -1.96875 -1.59375q-0.875 -0.28125 -2.75 -0.28125l-3.234375 0l-2.953125 14.125zm25.011635 -2.421875l2.203125 0.21875q-0.484375 1.640625 -2.1875 3.109375q-1.703125 1.46875 -4.0624924 1.46875q-1.46875 0 -2.703125 -0.671875q-1.21875 -0.6875 -1.859375 -1.984375q-0.640625 -1.296875 -0.640625 -2.953125q0 -2.171875 1.0 -4.203125q1.0 -2.046875 2.59375 -3.03125q1.609375 -1.0 3.453125 -1.0q2.3749924 0 3.7812424 1.46875q1.421875 1.46875 1.421875 4.015625q0 0.984375 -0.171875 2.0l-9.749992 0q-0.046875 0.390625 -0.046875 0.703125q0 1.859375 0.84375 2.84375q0.859375 0.96875 2.09375 0.96875q1.15625 0 2.2812424 -0.75q1.125 -0.765625 1.75 -2.203125zm-6.5624924 -3.28125l7.4374924 0q0.015625 -0.359375 0.015625 -0.5q0 -1.703125 -0.859375 -2.59375q-0.84375 -0.90625 -2.1718674 -0.90625q-1.453125 0 -2.640625 1.0q-1.1875 0.984375 -1.78125 3.0zm20.176704 2.953125l2.265625 0.234375q-0.84375 2.484375 -2.421875 3.6875q-1.5625 1.203125 -3.546875 1.203125q-2.171875 0 -3.515625 -1.390625q-1.328125 -1.40625 -1.328125 -3.90625q0 -2.171875 0.859375 -4.265625q0.859375 -2.09375 2.453125 -3.1875q1.609375 -1.09375 3.671875 -1.09375q2.125 0 3.375 1.203125q1.25 1.203125 1.25 3.1875l-2.21875 0.15625q-0.015625 -1.265625 -0.734375 -1.96875q-0.71875 -0.71875 -1.890625 -0.71875q-1.359375 0 -2.359375 0.859375q-0.984375 0.859375 -1.5625 2.609375q-0.5625 1.75 -0.5625 3.375q0 1.703125 0.75 2.546875q0.75 0.84375 1.84375 0.84375q1.09375 0 2.09375 -0.828125q1.015625 -0.84375 1.578125 -2.546875zm3.4609375 4.828125l3.8125 -18.28125l2.265625 0l-3.8125 18.28125l-2.265625 0zm14.78508 -1.640625q-1.171875 1.0 -2.265625 1.46875q-1.078125 0.46875 -2.3125 0.46875q-1.828125 0 -2.953125 -1.078125q-1.125 -1.078125 -1.125 -2.765625q0 -1.109375 0.5 -1.953125q0.515625 -0.859375 1.34375 -1.375q0.828125 -0.515625 2.046875 -0.75q0.765625 -0.140625 2.890625 -0.234375q2.125 -0.09375 3.046875 -0.453125q0.265625 -0.921875 0.265625 -1.53125q0 -0.78125 -0.578125 -1.234375q-0.78125 -0.625 -2.296875 -0.625q-1.421875 0 -2.328125 0.640625q-0.90625 0.625 -1.3125 1.78125l-2.28125 -0.203125q0.703125 -1.96875 2.21875 -3.015625q1.515625 -1.046875 3.8125 -1.046875q2.46875 0 3.890625 1.171875q1.109375 0.875 1.109375 2.265625q0 1.0625 -0.3125 2.46875l-0.734375 3.28125q-0.359375 1.578125 -0.359375 2.5625q0 0.625 0.28125 1.796875l-2.28125 0q-0.1875 -0.65625 -0.265625 -1.640625zm0.828125 -5.078125q-0.46875 0.1875 -1.015625 0.296875q-0.53125 0.09375 -1.8125 0.203125q-1.96875 0.1875 -2.78125 0.453125q-0.8125 0.265625 -1.21875 0.859375q-0.40625 0.578125 -0.40625 1.28125q0 0.953125 0.640625 1.5625q0.65625 0.609375 1.875 0.609375q1.125 0 2.15625 -0.578125q1.03125 -0.59375 1.625 -1.65625q0.609375 -1.0625 0.9375 -3.03125zm4.661087 2.1875l2.25 -0.140625q0 0.984375 0.296875 1.671875q0.3125 0.6875 1.109375 1.125q0.8125 0.421875 1.875 0.421875q1.5 0 2.25 -0.59375q0.75 -0.59375 0.75 -1.40625q0 -0.59375 -0.453125 -1.109375q-0.453125 -0.53125 -2.25 -1.296875q-1.78125 -0.765625 -2.28125 -1.078125q-0.84375 -0.515625 -1.265625 -1.203125q-0.421875 -0.6875 -0.421875 -1.59375q0 -1.5625 1.234375 -2.6875q1.25 -1.125 3.5 -1.125q2.5 0 3.796875 1.15625q1.3125 1.15625 1.359375 3.03125l-2.203125 0.15625q-0.0625 -1.203125 -0.859375 -1.890625q-0.796875 -0.703125 -2.25 -0.703125q-1.171875 0 -1.828125 0.53125q-0.640625 0.53125 -0.640625 1.15625q0 0.625 0.5625 1.109375q0.375 0.3125 1.921875 0.984375q2.59375 1.125 3.28125 1.78125q1.0625 1.03125 1.0625 2.515625q0 0.984375 -0.609375 1.9375q-0.59375 0.953125 -1.84375 1.515625q-1.234375 0.5625 -2.921875 0.5625q-2.296875 0 -3.90625 -1.125q-1.609375 -1.140625 -1.515625 -3.703125zm12.7734375 0l2.25 -0.140625q0 0.984375 0.296875 1.671875q0.3125 0.6875 1.109375 1.125q0.8125 0.421875 1.875 0.421875q1.5 0 2.25 -0.59375q0.75 -0.59375 0.75 -1.40625q0 -0.59375 -0.453125 -1.109375q-0.453125 -0.53125 -2.25 -1.296875q-1.78125 -0.765625 -2.28125 -1.078125q-0.84375 -0.515625 -1.265625 -1.203125q-0.421875 -0.6875 -0.421875 -1.59375q0 -1.5625 1.234375 -2.6875q1.25 -1.125 3.5 -1.125q2.5 0 3.796875 1.15625q1.3125 1.15625 1.359375 3.03125l-2.203125 0.15625q-0.0625 -1.203125 -0.859375 -1.890625q-0.796875 -0.703125 -2.25 -0.703125q-1.171875 0 -1.828125 0.53125q-0.640625 0.53125 -0.640625 1.15625q0 0.625 0.5625 1.109375q0.375 0.3125 1.921875 0.984375q2.59375 1.125 3.28125 1.78125q1.0625 1.03125 1.0625 2.515625q0 0.984375 -0.609375 1.9375q-0.59375 0.953125 -1.84375 1.515625q-1.234375 0.5625 -2.921875 0.5625q-2.296875 0 -3.90625 -1.125q-1.609375 -1.140625 -1.515625 -3.703125zm15.7578125 -11.203125l0.546875 -2.546875l2.234375 0l-0.53125 2.546875l-2.25 0zm-3.28125 15.734375l2.765625 -13.25l2.25 0l-2.765625 13.25l-2.25 0zm6.06633 0l2.40625 -11.5l-2.015625 0l0.359375 -1.75l2.015625 0l0.390625 -1.875q0.296875 -1.421875 0.609375 -2.03125q0.328125 -0.625 1.046875 -1.03125q0.71875 -0.40625 1.953125 -0.40625q0.859375 0 2.5 0.359375l-0.421875 1.96875q-1.140625 -0.296875 -1.921875 -0.296875q-0.65625 0 -1.0 0.328125q-0.34375 0.328125 -0.59375 1.5625l-0.296875 1.421875l2.515625 0l-0.359375 1.75l-2.515625 0l-2.40625 11.5l-2.265625 0zm9.988373 -15.734375l0.546875 -2.546875l2.234375 0l-0.53125 2.546875l-2.25 0zm-3.28125 15.734375l2.765625 -13.25l2.25 0l-2.765625 13.25l-2.25 0zm14.894455 -4.828125l2.265625 0.234375q-0.84375 2.484375 -2.421875 3.6875q-1.5625 1.203125 -3.546875 1.203125q-2.171875 0 -3.515625 -1.390625q-1.328125 -1.40625 -1.328125 -3.90625q0 -2.171875 0.859375 -4.265625q0.859375 -2.09375 2.453125 -3.1875q1.609375 -1.09375 3.671875 -1.09375q2.125 0 3.375 1.203125q1.25 1.203125 1.25 3.1875l-2.21875 0.15625q-0.015625 -1.265625 -0.734375 -1.96875q-0.71875 -0.71875 -1.890625 -0.71875q-1.359375 0 -2.359375 0.859375q-0.984375 0.859375 -1.5625 2.609375q-0.5625 1.75 -0.5625 3.375q0 1.703125 0.75 2.546875q0.75 0.84375 1.84375 0.84375q1.09375 0 2.09375 -0.828125q1.015625 -0.84375 1.578125 -2.546875zm12.5703125 3.1875q-1.171875 1.0 -2.265625 1.46875q-1.078125 0.46875 -2.3125 0.46875q-1.828125 0 -2.953125 -1.078125q-1.125 -1.078125 -1.125 -2.765625q0 -1.109375 0.5 -1.953125q0.515625 -0.859375 1.34375 -1.375q0.828125 -0.515625 2.046875 -0.75q0.765625 -0.140625 2.890625 -0.234375q2.125 -0.09375 3.046875 -0.453125q0.265625 -0.921875 0.265625 -1.53125q0 -0.78125 -0.578125 -1.234375q-0.78125 -0.625 -2.296875 -0.625q-1.421875 0 -2.328125 0.640625q-0.90625 0.625 -1.3125 1.78125l-2.28125 -0.203125q0.703125 -1.96875 2.21875 -3.015625q1.515625 -1.046875 3.8125 -1.046875q2.46875 0 3.890625 1.171875q1.109375 0.875 1.109375 2.265625q0 1.0625 -0.3125 2.46875l-0.734375 3.28125q-0.359375 1.578125 -0.359375 2.5625q0 0.625 0.28125 1.796875l-2.28125 0q-0.1875 -0.65625 -0.265625 -1.640625zm0.828125 -5.078125q-0.46875 0.1875 -1.015625 0.296875q-0.53125 0.09375 -1.8125 0.203125q-1.96875 0.1875 -2.78125 0.453125q-0.8125 0.265625 -1.21875 0.859375q-0.40625 0.578125 -0.40625 1.28125q0 0.953125 0.640625 1.5625q0.65625 0.609375 1.875 0.609375q1.125 0 2.15625 -0.578125q1.03125 -0.59375 1.625 -1.65625q0.609375 -1.0625 0.9375 -3.03125zm9.723587 4.890625l-0.375 1.84375q-0.8125 0.203125 -1.578125 0.203125q-1.34375 0 -2.140625 -0.65625q-0.59375 -0.5 -0.59375 -1.359375q0 -0.4375 0.328125 -2.0l1.609375 -7.703125l-1.796875 0l0.375 -1.75l1.78125 0l0.6875 -3.25l2.578125 -1.5625l-1.015625 4.8125l2.21875 0l-0.375 1.75l-2.203125 0l-1.53125 7.328125q-0.296875 1.390625 -0.296875 1.671875q0 0.390625 0.234375 0.609375q0.234375 0.203125 0.765625 0.203125q0.734375 0 1.328125 -0.140625zm5.019623 -13.90625l0.546875 -2.546875l2.234375 0l-0.53125 2.546875l-2.25 0zm-3.28125 15.734375l2.765625 -13.25l2.25 0l-2.765625 13.25l-2.25 0zm6.16008 -5.03125q0 -3.875 2.28125 -6.421875q1.875 -2.09375 4.9375153 -2.09375q2.390625 0 3.859375 1.5q1.46875 1.5 1.46875 4.03125q0 2.296875 -0.921875 4.265625q-0.921875 1.953125 -2.625 3.0q-1.703125 1.046875 -3.59375 1.046875q-1.5468903 0 -2.8125153 -0.65625q-1.265625 -0.65625 -1.9375 -1.859375q-0.65625 -1.21875 -0.65625 -2.8125zm2.25 -0.21875q0 1.875 0.890625 2.84375q0.90625 0.953125 2.2968903 0.953125q0.71875 0 1.421875 -0.28125q0.71875 -0.296875 1.328125 -0.890625q0.609375 -0.609375 1.046875 -1.375q0.4375 -0.765625 0.6875 -1.65625q0.390625 -1.234375 0.390625 -2.359375q0 -1.796875 -0.90625 -2.78125q-0.90625 -1.0 -2.28125 -1.0q-1.046875 0 -1.921875 0.5q-0.87501526 0.5 -1.5781403 1.484375q-0.703125 0.96875 -1.046875 2.265625q-0.328125 1.28125 -0.328125 2.296875zm11.551712 5.25l2.78125 -13.25l2.03125 0l-0.484375 2.3125q1.34375 -1.359375 2.5 -1.984375q1.15625 -0.625 2.375 -0.625q1.609375 0 2.515625 0.875q0.921875 0.875 0.921875 2.328125q0 0.734375 -0.328125 2.328125l-1.6875 8.015625l-2.25 0l1.765625 -8.390625q0.25 -1.234375 0.25 -1.8125q0 -0.65625 -0.453125 -1.0625q-0.453125 -0.421875 -1.3125 -0.421875q-1.734375 0 -3.09375 1.25q-1.34375 1.25 -1.984375 4.28125l-1.28125 6.15625l-2.265625 0z" fill-rule="nonzero"/><path fill="#fff2cc" d="m423.23163 162.55312l0 0c0 -19.02121 23.281189 -34.44095 52.0 -34.44095l0 0c28.718811 0 52.0 15.419739 52.0 34.44095l0 0c0 19.02121 -23.281189 34.44095 -52.0 34.44095l0 0c-28.718811 0 -52.0 -15.419739 -52.0 -34.44095z" fill-rule="evenodd"/><path stroke="#595959" stroke-width="1.916010498687664" stroke-linejoin="round" stroke-linecap="butt" d="m423.23163 162.55312l0 0c0 -19.02121 23.281189 -34.44095 52.0 -34.44095l0 0c28.718811 0 52.0 15.419739 52.0 34.44095l0 0c0 19.02121 -23.281189 34.44095 -52.0 34.44095l0 0c-28.718811 0 -52.0 -15.419739 -52.0 -34.44095z" fill-rule="evenodd"/><path fill="#000000" d="m451.00812 171.58034l0 -18.28125l2.421875 0l0 7.5l9.5 0l0 -7.5l2.421875 0l0 18.28125l-2.421875 0l0 -8.625l-9.5 0l0 8.625l-2.421875 0zm18.105408 -15.703125l0 -2.578125l2.234375 0l0 2.578125l-2.234375 0zm0 15.703125l0 -13.25l2.234375 0l0 13.25l-2.234375 0zm5.2381897 1.09375l2.1875 0.328125q0.140625 1.015625 0.765625 1.46875q0.828125 0.625 2.28125 0.625q1.5625 0 2.40625 -0.625q0.84375 -0.625 1.140625 -1.75q0.1875 -0.671875 0.171875 -2.875q-1.46875 1.734375 -3.671875 1.734375q-2.734375 0 -4.234375 -1.96875q-1.484375 -1.96875 -1.484375 -4.734375q0 -1.890625 0.6875 -3.484375q0.6875 -1.609375 1.984375 -2.484375q1.296875 -0.875 3.0625 -0.875q2.34375 0 3.859375 1.890625l0 -1.59375l2.078125 0l0 11.453125q0 3.09375 -0.640625 4.375q-0.625 1.296875 -2.0 2.046875q-1.359375 0.75 -3.34375 0.75q-2.375 0 -3.84375 -1.0625q-1.453125 -1.0625 -1.40625 -3.21875zm1.859375 -7.953125q0 2.609375 1.03125 3.8125q1.046875 1.1875 2.609375 1.1875q1.546875 0 2.59375 -1.1875q1.046875 -1.1875 1.046875 -3.734375q0 -2.4375 -1.078125 -3.671875q-1.078125 -1.234375 -2.609375 -1.234375q-1.484375 0 -2.546875 1.21875q-1.046875 1.21875 -1.046875 3.609375zm12.770477 6.859375l0 -18.28125l2.234375 0l0 6.5625q1.578125 -1.828125 3.96875 -1.828125q1.484375 0 2.5625 0.578125q1.078125 0.578125 1.546875 1.609375q0.46875 1.015625 0.46875 2.96875l0 8.390625l-2.234375 0l0 -8.390625q0 -1.6875 -0.734375 -2.453125q-0.734375 -0.765625 -2.0625 -0.765625q-1.0 0 -1.890625 0.515625q-0.875 0.515625 -1.25 1.40625q-0.375 0.875 -0.375 2.4375l0 7.25l-2.234375 0z" fill-rule="nonzero"/><path fill="#fff2cc" d="m611.87506 162.55312l0 0c0 -19.02121 23.281189 -34.44095 52.0 -34.44095l0 0c28.718811 0 52.0 15.419739 52.0 34.44095l0 0c0 19.02121 -23.281189 34.44095 -52.0 34.44095l0 0c-28.718811 0 -52.0 -15.419739 -52.0 -34.44095z" fill-rule="evenodd"/><path stroke="#595959" stroke-width="1.916010498687664" stroke-linejoin="round" stroke-linecap="butt" d="m611.87506 162.55312l0 0c0 -19.02121 23.281189 -34.44095 52.0 -34.44095l0 0c28.718811 0 52.0 15.419739 52.0 34.44095l0 0c0 19.02121 -23.281189 34.44095 -52.0 34.44095l0 0c-28.718811 0 -52.0 -15.419739 -52.0 -34.44095z" fill-rule="evenodd"/><path fill="#000000" d="m642.3175 171.58034l0 -18.28125l2.421875 0l0 16.125l9.0 0l0 2.15625l-11.421875 0zm13.176697 -6.625q0 -3.671875 2.046875 -5.453125q1.71875 -1.46875 4.171875 -1.46875q2.734375 0 4.46875 1.796875q1.734375 1.78125 1.734375 4.9375q0 2.5625 -0.78125 4.03125q-0.765625 1.453125 -2.234375 2.265625q-1.453125 0.8125 -3.1875 0.8125q-2.78125 0 -4.5 -1.78125q-1.71875 -1.78125 -1.71875 -5.140625zm2.3125 0q0 2.546875 1.109375 3.8125q1.109375 1.265625 2.796875 1.265625q1.671875 0 2.78125 -1.265625q1.109375 -1.28125 1.109375 -3.890625q0 -2.453125 -1.125 -3.71875q-1.109375 -1.265625 -2.765625 -1.265625q-1.6875 0 -2.796875 1.265625q-1.109375 1.25 -1.109375 3.796875zm15.176758 6.625l-4.046875 -13.25l2.3125 0l2.109375 7.65625l0.78125 2.84375q0.0625 -0.21875 0.6875 -2.734375l2.109375 -7.765625l2.3125 0l1.984375 7.6875l0.65625 2.53125l0.765625 -2.5625l2.265625 -7.65625l2.1875 0l-4.140625 13.25l-2.328125 0l-2.109375 -7.9375l-0.515625 -2.25l-2.6875 10.1875l-2.34375 0z" fill-rule="nonzero"/><path fill="#fff2cc" d="m423.23163 270.43408l104.0 0l0 53.259857l-104.0 0z" fill-rule="evenodd"/><path stroke="#595959" stroke-width="1.916010498687664" stroke-linejoin="round" stroke-linecap="butt" d="m423.23163 270.43408l104.0 0l0 53.259857l-104.0 0z" fill-rule="evenodd"/><path fill="#000000" d="m451.00812 306.09125l0 -18.28125l2.421875 0l0 7.5l9.5 0l0 -7.5l2.421875 0l0 18.28125l-2.421875 0l0 -8.625l-9.5 0l0 8.625l-2.421875 0zm18.105408 -15.703125l0 -2.578125l2.234375 0l0 2.578125l-2.234375 0zm0 15.703125l0 -13.25l2.234375 0l0 13.25l-2.234375 0zm5.2381897 1.09375l2.1875 0.328125q0.140625 1.015625 0.765625 1.46875q0.828125 0.625 2.28125 0.625q1.5625 0 2.40625 -0.625q0.84375 -0.625 1.140625 -1.75q0.1875 -0.671875 0.171875 -2.875q-1.46875 1.734375 -3.671875 1.734375q-2.734375 0 -4.234375 -1.96875q-1.484375 -1.96875 -1.484375 -4.734375q0 -1.890625 0.6875 -3.484375q0.6875 -1.609375 1.984375 -2.484375q1.296875 -0.875 3.0625 -0.875q2.34375 0 3.859375 1.890625l0 -1.59375l2.078125 0l0 11.453125q0 3.09375 -0.640625 4.375q-0.625 1.296875 -2.0 2.046875q-1.359375 0.75 -3.34375 0.75q-2.375 0 -3.84375 -1.0625q-1.453125 -1.0625 -1.40625 -3.21875zm1.859375 -7.953125q0 2.609375 1.03125 3.8125q1.046875 1.1875 2.609375 1.1875q1.546875 0 2.59375 -1.1875q1.046875 -1.1875 1.046875 -3.734375q0 -2.4375 -1.078125 -3.671875q-1.078125 -1.234375 -2.609375 -1.234375q-1.484375 0 -2.546875 1.21875q-1.046875 1.21875 -1.046875 3.609375zm12.770477 6.859375l0 -18.28125l2.234375 0l0 6.5625q1.578125 -1.828125 3.96875 -1.828125q1.484375 0 2.5625 0.578125q1.078125 0.578125 1.546875 1.609375q0.46875 1.015625 0.46875 2.96875l0 8.390625l-2.234375 0l0 -8.390625q0 -1.6875 -0.734375 -2.453125q-0.734375 -0.765625 -2.0625 -0.765625q-1.0 0 -1.890625 0.515625q-0.875 0.515625 -1.25 1.40625q-0.375 0.875 -0.375 2.4375l0 7.25l-2.234375 0z" fill-rule="nonzero"/><path fill="#fff2cc" d="m611.87506 270.43408l104.0 0l0 53.259857l-104.0 0z" fill-rule="evenodd"/><path stroke="#595959" stroke-width="1.916010498687664" stroke-linejoin="round" stroke-linecap="butt" d="m611.87506 270.43408l104.0 0l0 53.259857l-104.0 0z" fill-rule="evenodd"/><path fill="#000000" d="m642.3175 306.09125l0 -18.28125l2.421875 0l0 16.125l9.0 0l0 2.15625l-11.421875 0zm13.176697 -6.625q0 -3.671875 2.046875 -5.453125q1.71875 -1.46875 4.171875 -1.46875q2.734375 0 4.46875 1.796875q1.734375 1.78125 1.734375 4.9375q0 2.5625 -0.78125 4.03125q-0.765625 1.453125 -2.234375 2.265625q-1.453125 0.8125 -3.1875 0.8125q-2.78125 0 -4.5 -1.78125q-1.71875 -1.78125 -1.71875 -5.140625zm2.3125 0q0 2.546875 1.109375 3.8125q1.109375 1.265625 2.796875 1.265625q1.671875 0 2.78125 -1.265625q1.109375 -1.28125 1.109375 -3.890625q0 -2.453125 -1.125 -3.71875q-1.109375 -1.265625 -2.765625 -1.265625q-1.6875 0 -2.796875 1.265625q-1.109375 1.25 -1.109375 3.796875zm15.176758 6.625l-4.046875 -13.25l2.3125 0l2.109375 7.65625l0.78125 2.84375q0.0625 -0.21875 0.6875 -2.734375l2.109375 -7.765625l2.3125 0l1.984375 7.6875l0.65625 2.53125l0.765625 -2.5625l2.265625 -7.65625l2.1875 0l-4.140625 13.25l-2.328125 0l-2.109375 -7.9375l-0.515625 -2.25l-2.6875 10.1875l-2.34375 0z" fill-rule="nonzero"/><path fill="#000000" fill-opacity="0.0" d="m475.23163 196.99406l0 73.44881" fill-rule="evenodd"/><path stroke="#188038" stroke-width="1.916010498687664" stroke-linejoin="round" stroke-linecap="butt" d="m475.23163 208.49011l0 50.456696" fill-rule="evenodd"/><path fill="#188038" stroke="#188038" stroke-width="1.916010498687664" stroke-linecap="butt" d="m478.39636 208.49011l-3.164734 -8.695038l-3.164734 8.695038z" fill-rule="evenodd"/><path fill="#188038" stroke="#188038" stroke-width="1.916010498687664" stroke-linecap="butt" d="m472.0669 258.9468l3.164734 8.695038l3.164734 -8.695038z" fill-rule="evenodd"/><path fill="#000000" fill-opacity="0.0" d="m475.23163 196.99406l188.62994 73.44881" fill-rule="evenodd"/><path stroke="#188038" stroke-width="1.916010498687664" stroke-linejoin="round" stroke-linecap="butt" d="m475.23163 196.99405l177.9173 69.27756" fill-rule="evenodd"/><path fill="#188038" stroke="#188038" stroke-width="1.916010498687664" stroke-linecap="butt" d="m652.0006 269.22064l9.250793 0.2059021l-6.9541626 -6.104004z" fill-rule="evenodd"/><path fill="#000000" fill-opacity="0.0" d="m663.87506 196.99406l0 73.44881" fill-rule="evenodd"/><path stroke="#188038" stroke-width="1.916010498687664" stroke-linejoin="round" stroke-linecap="butt" d="m663.87506 208.49011l0 50.456696" fill-rule="evenodd"/><path fill="#188038" stroke="#188038" stroke-width="1.916010498687664" stroke-linecap="butt" d="m667.0398 208.49011l-3.164734 -8.695038l-3.164734 8.695038z" fill-rule="evenodd"/><path fill="#188038" stroke="#188038" stroke-width="1.916010498687664" stroke-linecap="butt" d="m660.7103 258.9468l3.164734 8.695038l3.164734 -8.695038z" fill-rule="evenodd"/><path fill="#000000" fill-opacity="0.0" d="m663.87506 196.99406l-188.62994 73.44881" fill-rule="evenodd"/><path stroke="#188038" stroke-width="1.916010498687664" stroke-linejoin="round" stroke-linecap="butt" d="m653.1624 201.16533l-177.9173 69.27754" fill-rule="evenodd"/><path fill="#188038" stroke="#188038" stroke-width="1.916010498687664" stroke-linecap="butt" d="m654.3107 204.1144l6.9541626 -6.104004l-9.250732 0.20588684z" fill-rule="evenodd"/><path fill="#000000" fill-opacity="0.0" d="m678.21796 268.6105l-197.98425 -84.85039" fill-rule="evenodd"/><path stroke="#cc4125" stroke-width="3.832020997375328" stroke-linejoin="round" stroke-linecap="butt" d="m678.21796 268.6105l-176.85117 -75.79335" fill-rule="evenodd"/><path fill="#cc4125" stroke="#cc4125" stroke-width="3.832020997375328" stroke-linecap="butt" d="m503.8601 186.99945l-18.477295 -1.0325928l13.490692 12.667999z" fill-rule="evenodd"/><path fill="#000000" fill-opacity="0.0" d="m642.1672 190.86754l-199.11807 85.732285" fill-rule="evenodd"/><path stroke="#cc4125" stroke-width="3.832020997375328" stroke-linejoin="round" stroke-linecap="butt" d="m642.1672 190.86754l-178.00021 76.639786" fill-rule="evenodd"/><path fill="#cc4125" stroke="#cc4125" stroke-width="3.832020997375328" stroke-linecap="butt" d="m461.66388 261.69382l-13.469421 12.690613l18.475555 -1.0635986z" fill-rule="evenodd"/><path fill="#000000" fill-opacity="0.0" d="m457.98987 335.88312l218.11023 0l0 44.44095l-218.11023 0z" fill-rule="evenodd"/><path fill="#000000" d="m508.67197 383.31583l0 -21.9375l4.4375305 0l0 21.9375l-4.4375305 0zm23.079803 0l-4.203125 0l0 -8.109375q0 -2.578125 -0.265625 -3.328125q-0.265625 -0.765625 -0.875 -1.171875q-0.609375 -0.421875 -1.46875 -0.421875q-1.09375 0 -1.96875 0.59375q-0.859375 0.59375 -1.1875 1.59375q-0.3125 0.984375 -0.3125 3.640625l0 7.203125l-4.203125 0l0 -15.890625l3.90625 0l0 2.328125q2.078125 -2.6875 5.234375 -2.6875q1.390625 0 2.546875 0.5q1.15625 0.5 1.75 1.28125q0.59375 0.765625 0.8125 1.765625q0.234375 0.984375 0.234375 2.828125l0 9.875zm11.554199 -15.890625l0 3.34375l-2.875 0l0 6.40625q0 1.953125 0.078125 2.28125q0.09375 0.3125 0.375 0.53125q0.296875 0.203125 0.71875 0.203125q0.59375 0 1.6875 -0.40625l0.359375 3.265625q-1.453125 0.625 -3.3125 0.625q-1.140625 0 -2.0625 -0.375q-0.90625 -0.390625 -1.34375 -0.984375q-0.421875 -0.609375 -0.578125 -1.65625q-0.140625 -0.734375 -0.140625 -2.953125l0 -6.9375l-1.921875 0l0 -3.34375l1.921875 0l0 -3.171875l4.21875 -2.453125l0 5.625l2.875 0zm12.130615 10.828125l4.1875 0.703125q-0.796875 2.3125 -2.546875 3.515625q-1.75 1.203125 -4.359375 1.203125q-4.15625 0 -6.140625 -2.703125q-1.578125 -2.171875 -1.578125 -5.484375q0 -3.953125 2.0625 -6.1875q2.078125 -2.234375 5.234375 -2.234375q3.546875 0 5.59375 2.34375q2.046875 2.328125 1.96875 7.171875l-10.546875 0q0.046875 1.875 1.015625 2.921875q0.984375 1.03125 2.4375 1.03125q0.984375 0 1.65625 -0.53125q0.671875 -0.546875 1.015625 -1.75zm0.234375 -4.25q-0.046875 -1.828125 -0.953125 -2.765625q-0.890625 -0.953125 -2.171875 -0.953125q-1.375 0 -2.28125 1.0q-0.890625 1.0 -0.875 2.71875l6.28125 0zm7.2214355 10.359375l4.796875 0.578125q0.125 0.84375 0.5625 1.15625q0.59375 0.453125 1.890625 0.453125q1.640625 0 2.46875 -0.5q0.546875 -0.328125 0.828125 -1.0625q0.203125 -0.515625 0.203125 -1.921875l0 -2.328125q-1.890625 2.578125 -4.765625 2.578125q-3.203125 0 -5.078125 -2.703125q-1.46875 -2.140625 -1.46875 -5.328125q0 -4.0 1.921875 -6.109375q1.9375 -2.109375 4.796875 -2.109375q2.9375 0 4.859375 2.578125l0 -2.21875l3.9375 0l0 14.265625q0 2.8125 -0.46875 4.203125q-0.453125 1.390625 -1.296875 2.171875q-0.84375 0.796875 -2.25 1.25q-1.390625 0.453125 -3.53125 0.453125q-4.046875 0 -5.734375 -1.390625q-1.6875 -1.375 -1.6875 -3.5q0 -0.21875 0.015625 -0.515625zm3.75 -9.328125q0 2.53125 0.984375 3.71875q0.984375 1.171875 2.421875 1.171875q1.546875 0 2.609375 -1.203125q1.0625 -1.21875 1.0625 -3.578125q0 -2.46875 -1.03125 -3.65625q-1.015625 -1.203125 -2.5625 -1.203125q-1.515625 0 -2.5 1.171875q-0.984375 1.171875 -0.984375 3.578125zm19.397888 8.28125l-4.218689 0l0 -15.890625l3.90625 0l0 2.25q1.015564 -1.59375 1.812439 -2.09375q0.796875 -0.515625 1.8125 -0.515625q1.4375 0 2.765625 0.78125l-1.296875 3.671875q-1.0625 -0.6875 -1.96875 -0.6875q-0.890625 0 -1.5 0.484375q-0.609375 0.484375 -0.96875 1.765625q-0.34375 1.265625 -0.34375 5.328125l0 4.90625zm7.898987 -18.046875l0 -3.890625l4.203125 0l0 3.890625l-4.203125 0zm0 18.046875l0 -15.890625l4.203125 0l0 15.890625l-4.203125 0zm15.798523 -15.890625l0 3.34375l-2.875 0l0 6.40625q0 1.953125 0.078125 2.28125q0.09375 0.3125 0.375 0.53125q0.296875 0.203125 0.71875 0.203125q0.59375 0 1.6875 -0.40625l0.359375 3.265625q-1.453125 0.625 -3.3125 0.625q-1.140625 0 -2.0625 -0.375q-0.90625 -0.390625 -1.34375 -0.984375q-0.421875 -0.609375 -0.578125 -1.65625q-0.140625 -0.734375 -0.140625 -2.953125l0 -6.9375l-1.921875 0l0 -3.34375l1.921875 0l0 -3.171875l4.21875 -2.453125l0 5.625l2.875 0zm0.92749023 0l4.484375 0l3.796875 11.28125l3.71875 -11.28125l4.359375 0l-5.625 15.296875l-1.0 2.765625q-0.546875 1.390625 -1.0625 2.125q-0.5 0.734375 -1.15625 1.1875q-0.640625 0.453125 -1.59375 0.703125q-0.953125 0.265625 -2.140625 0.265625q-1.21875 0 -2.375 -0.25l-0.375 -3.296875q0.984375 0.1875 1.78125 0.1875q1.453125 0 2.15625 -0.859375q0.703125 -0.859375 1.078125 -2.1875l-6.046875 -15.9375z" fill-rule="nonzero"/><path fill="#b6d7a8" d="m598.8631 181.20354l-13.102356 13.102356l0 -6.551178l-45.543274 0l0 -13.102356l45.543274 0l0 -6.551178z" fill-rule="evenodd"/><path stroke="#595959" stroke-width="1.916010498687664" stroke-linejoin="round" stroke-linecap="butt" d="m598.8631 181.20354l-13.102356 13.102356l0 -6.551178l-45.543274 0l0 -13.102356l45.543274 0l0 -6.551178z" fill-rule="evenodd"/><path fill="#000000" fill-opacity="0.0" d="m457.98987 77.32244l218.11023 0l0 44.44094l-218.11023 0z" fill-rule="evenodd"/><path fill="#cc4125" d="m492.2123 119.84967l3.84375 -18.28125l13.1875 0l-0.4375 2.078125l-10.75 0l-1.203125 5.6875l10.484375 0l-0.4375 2.078125l-10.484375 0l-1.3125 6.359375l11.515625 0l-0.4375 2.078125l-13.96875 0zm16.742706 0l2.78125 -13.25l2.03125 0l-0.484375 2.3125q1.34375 -1.359375 2.5 -1.984375q1.15625 -0.625 2.375 -0.625q1.609375 0 2.515625 0.875q0.921875 0.875 0.921875 2.328125q0 0.734375 -0.328125 2.328125l-1.6875 8.015625l-2.25 0l1.765625 -8.390625q0.25 -1.234375 0.25 -1.8125q0 -0.65625 -0.453125 -1.0625q-0.453125 -0.421875 -1.3125 -0.421875q-1.734375 0 -3.09375 1.25q-1.34375 1.25 -1.984375 4.28125l-1.28125 6.15625l-2.265625 0zm23.145447 -1.921875q-1.9375 2.21875 -4.046875 2.21875q-1.875 0 -3.140625 -1.390625q-1.25 -1.390625 -1.25 -4.03125q0 -2.421875 0.984375 -4.421875q1.0 -2.0 2.484375 -3.0q1.5 -1.0 3.0 -1.0q2.46875 0 3.71875 2.375l1.5 -7.109375l2.25 0l-3.8125 18.28125l-2.09375 0l0.40625 -1.921875zm-6.1875 -3.625q0 1.375 0.265625 2.1875q0.28125 0.796875 0.9375 1.328125q0.671875 0.515625 1.59375 0.515625q1.53125 0 2.78125 -1.59375q1.671875 -2.125 1.671875 -5.234375q0 -1.578125 -0.828125 -2.453125q-0.828125 -0.890625 -2.0625 -0.890625q-0.8125 0 -1.484375 0.359375q-0.671875 0.359375 -1.328125 1.234375q-0.65625 0.859375 -1.109375 2.203125q-0.4375 1.328125 -0.4375 2.34375zm11.864197 0.515625q0 -3.875 2.28125 -6.421875q1.875 -2.09375 4.9375 -2.09375q2.390625 0 3.859375 1.5q1.46875 1.5 1.46875 4.03125q0 2.296875 -0.921875 4.265625q-0.921875 1.953125 -2.625 3.0q-1.703125 1.046875 -3.59375 1.046875q-1.546875 0 -2.8125 -0.65625q-1.265625 -0.65625 -1.9375 -1.859375q-0.65625 -1.21875 -0.65625 -2.8125zm2.25 -0.21875q0 1.875 0.890625 2.84375q0.90625 0.953125 2.296875 0.953125q0.71875 0 1.421875 -0.28125q0.71875 -0.296875 1.328125 -0.890625q0.609375 -0.609375 1.046875 -1.375q0.4375 -0.765625 0.6875 -1.65625q0.390625 -1.234375 0.390625 -2.359375q0 -1.796875 -0.90625 -2.78125q-0.90625 -1.0 -2.28125 -1.0q-1.046875 0 -1.921875 0.5q-0.875 0.5 -1.578125 1.484375q-0.703125 0.96875 -1.046875 2.265625q-0.328125 1.28125 -0.328125 2.296875zm11.551758 5.25l2.78125 -13.25l1.984375 0l-0.5625 2.703125q1.03125 -1.53125 2.0 -2.265625q0.984375 -0.734375 2.015625 -0.734375q0.671875 0 1.65625 0.484375l-0.921875 2.09375q-0.59375 -0.421875 -1.296875 -0.421875q-1.171875 0 -2.421875 1.328125q-1.25 1.3125 -1.96875 4.75l-1.109375 5.3125l-2.15625 0zm8.726013 -4.53125l2.25 -0.140625q0 0.984375 0.296875 1.671875q0.3125 0.6875 1.109375 1.125q0.8125 0.421875 1.875 0.421875q1.5 0 2.25 -0.59375q0.75 -0.59375 0.75 -1.40625q0 -0.59375 -0.453125 -1.109375q-0.453125 -0.53125 -2.25 -1.296875q-1.78125 -0.765625 -2.28125 -1.078125q-0.84375 -0.515625 -1.265625 -1.203125q-0.421875 -0.6875 -0.421875 -1.59375q0 -1.5625 1.234375 -2.6875q1.25 -1.125 3.5 -1.125q2.5 0 3.796875 1.15625q1.3125 1.15625 1.359375 3.03125l-2.203125 0.15625q-0.0625 -1.203125 -0.859375 -1.890625q-0.796875 -0.703125 -2.25 -0.703125q-1.171875 0 -1.828125 0.53125q-0.640625 0.53125 -0.640625 1.15625q0 0.625 0.5625 1.109375q0.375 0.3125 1.921875 0.984375q2.59375 1.125 3.28125 1.78125q1.0625 1.03125 1.0625 2.515625q0 0.984375 -0.609375 1.9375q-0.59375 0.953125 -1.84375 1.515625q-1.234375 0.5625 -2.921875 0.5625q-2.296875 0 -3.90625 -1.125q-1.609375 -1.140625 -1.515625 -3.703125zm22.289062 0.03125l2.203125 0.21875q-0.484375 1.640625 -2.1875 3.109375q-1.703125 1.46875 -4.0625 1.46875q-1.46875 0 -2.703125 -0.671875q-1.21875 -0.6875 -1.859375 -1.984375q-0.640625 -1.296875 -0.640625 -2.953125q0 -2.171875 1.0 -4.203125q1.0 -2.046875 2.59375 -3.03125q1.609375 -1.0 3.453125 -1.0q2.375 0 3.78125 1.46875q1.421875 1.46875 1.421875 4.015625q0 0.984375 -0.171875 2.0l-9.75 0q-0.046875 0.390625 -0.046875 0.703125q0 1.859375 0.84375 2.84375q0.859375 0.96875 2.09375 0.96875q1.15625 0 2.28125 -0.75q1.125 -0.765625 1.75 -2.203125zm-6.5625 -3.28125l7.4375 0q0.015625 -0.359375 0.015625 -0.5q0 -1.703125 -0.859375 -2.59375q-0.84375 -0.90625 -2.171875 -0.90625q-1.453125 0 -2.640625 1.0q-1.1875 0.984375 -1.78125 3.0zm11.020447 7.78125l2.78125 -13.25l2.25 0l-0.453125 2.1875q1.25 -1.40625 2.234375 -1.9375q1.0 -0.546875 2.15625 -0.546875q1.25 0 2.078125 0.65625q0.828125 0.65625 1.078125 1.828125q1.015625 -1.25 2.125 -1.859375q1.125 -0.625 2.359375 -0.625q1.65625 0 2.484375 0.796875q0.828125 0.78125 0.828125 2.203125q0 0.609375 -0.28125 2.015625l-1.78125 8.53125l-2.265625 0l1.828125 -8.75q0.234375 -1.078125 0.234375 -1.546875q0 -0.640625 -0.421875 -1.015625q-0.40625 -0.375 -1.140625 -0.375q-1.015625 0 -2.0625 0.609375q-1.046875 0.609375 -1.625 1.609375q-0.578125 0.984375 -1.015625 3.046875l-1.359375 6.421875l-2.25 0l1.875 -8.9375q0.1875 -0.921875 0.1875 -1.296875q0 -0.65625 -0.40625 -1.046875q-0.40625 -0.40625 -1.046875 -0.40625q-0.953125 0 -2.015625 0.609375q-1.046875 0.609375 -1.71875 1.703125q-0.65625 1.09375 -1.078125 3.109375l-1.3125 6.265625l-2.265625 0zm31.030762 -4.5l2.203125 0.21875q-0.484375 1.640625 -2.1875 3.109375q-1.703125 1.46875 -4.0625 1.46875q-1.46875 0 -2.703125 -0.671875q-1.21875 -0.6875 -1.859375 -1.984375q-0.640625 -1.296875 -0.640625 -2.953125q0 -2.171875 1.0 -4.203125q1.0 -2.046875 2.59375 -3.03125q1.609375 -1.0 3.453125 -1.0q2.375 0 3.78125 1.46875q1.421875 1.46875 1.421875 4.015625q0 0.984375 -0.171875 2.0l-9.75 0q-0.046875 0.390625 -0.046875 0.703125q0 1.859375 0.84375 2.84375q0.859375 0.96875 2.09375 0.96875q1.15625 0 2.28125 -0.75q1.125 -0.765625 1.75 -2.203125zm-6.5625 -3.28125l7.4375 0q0.015625 -0.359375 0.015625 -0.5q0 -1.703125 -0.859375 -2.59375q-0.84375 -0.90625 -2.171875 -0.90625q-1.453125 0 -2.640625 1.0q-1.1875 0.984375 -1.78125 3.0zm11.036072 7.78125l2.78125 -13.25l2.03125 0l-0.484375 2.3125q1.34375 -1.359375 2.5 -1.984375q1.15625 -0.625 2.375 -0.625q1.609375 0 2.515625 0.875q0.921875 0.875 0.921875 2.328125q0 0.734375 -0.328125 2.328125l-1.6875 8.015625l-2.25 0l1.765625 -8.390625q0.25 -1.234375 0.25 -1.8125q0 -0.65625 -0.453125 -1.0625q-0.453125 -0.421875 -1.3125 -0.421875q-1.734375 0 -3.09375 1.25q-1.34375 1.25 -1.984375 4.28125l-1.28125 6.15625l-2.265625 0zm19.489258 -1.828125l-0.375 1.84375q-0.8125 0.203125 -1.578125 0.203125q-1.34375 0 -2.140625 -0.65625q-0.59375 -0.5 -0.59375 -1.359375q0 -0.4375 0.328125 -2.0l1.609375 -7.703125l-1.796875 0l0.375 -1.75l1.78125 0l0.6875 -3.25l2.578125 -1.5625l-1.015625 4.8125l2.21875 0l-0.375 1.75l-2.203125 0l-1.53125 7.328125q-0.296875 1.390625 -0.296875 1.671875q0 0.390625 0.234375 0.609375q0.234375 0.203125 0.765625 0.203125q0.734375 0 1.328125 -0.140625z" fill-rule="nonzero"/><path fill="#e06666" d="m540.222 149.84377l13.102356 -13.102356l0 6.551178l45.543335 0l0 13.102356l-45.543335 0l0 6.551193z" fill-rule="evenodd"/><path stroke="#595959" stroke-width="1.916010498687664" stroke-linejoin="round" stroke-linecap="butt" d="m540.222 149.84377l13.102356 -13.102356l0 6.551178l45.543335 0l0 13.102356l-45.543335 0l0 6.551193z" fill-rule="evenodd"/><path fill="#eeeeee" d="m356.10236 226.52438l16.785187 0l0 -16.785202l15.800995 0l0 16.785202l16.785217 0l0 15.800995l-16.785217 0l0 16.785187l-15.800995 0l0 -16.785187l-16.785187 0z" fill-rule="evenodd"/><path stroke="#595959" stroke-width="1.916010498687664" stroke-linejoin="round" stroke-linecap="butt" d="m356.10236 226.52438l16.785187 0l0 -16.785202l15.800995 0l0 16.785202l16.785217 0l0 15.800995l-16.785217 0l0 16.785187l-15.800995 0l0 -16.785187l-16.785187 0z" fill-rule="evenodd"/><path fill="#eeeeee" d="m749.4037 211.31473l46.987305 0l0 15.037994l-46.987305 0zm0 22.556976l46.987305 0l0 15.037994l-46.987305 0z" fill-rule="evenodd"/><path stroke="#595959" stroke-width="1.916010498687664" stroke-linejoin="round" stroke-linecap="butt" d="m749.4037 211.31473l46.987305 0l0 15.037994l-46.987305 0zm0 22.556976l46.987305 0l0 15.037994l-46.987305 0z" fill-rule="evenodd"/><path fill="#fff2cc" d="m829.9145 154.39458l0 0c0 -19.038605 23.281189 -34.472443 52.0 -34.472443l0 0c28.718811 0 52.0 15.433838 52.0 34.472443l0 0c0 19.038605 -23.281189 34.472443 -52.0 34.472443l0 0c-28.718811 0 -52.0 -15.433838 -52.0 -34.472443z" fill-rule="evenodd"/><path stroke="#595959" stroke-width="1.916010498687664" stroke-linejoin="round" stroke-linecap="butt" d="m829.9145 154.39458l0 0c0 -19.038605 23.281189 -34.472443 52.0 -34.472443l0 0c28.718811 0 52.0 15.433838 52.0 34.472443l0 0c0 19.038605 -23.281189 34.472443 -52.0 34.472443l0 0c-28.718811 0 -52.0 -15.433838 -52.0 -34.472443z" fill-rule="evenodd"/><path fill="#000000" d="m857.691 163.42181l0 -18.28125l2.421875 0l0 7.5l9.5 0l0 -7.5l2.421875 0l0 18.28125l-2.421875 0l0 -8.625l-9.5 0l0 8.625l-2.421875 0zm18.105408 -15.703125l0 -2.578125l2.234375 0l0 2.578125l-2.234375 0zm0 15.703125l0 -13.25l2.234375 0l0 13.25l-2.234375 0zm5.238159 1.09375l2.1875 0.328125q0.140625 1.015625 0.765625 1.46875q0.828125 0.625 2.28125 0.625q1.5625 0 2.40625 -0.625q0.84375 -0.625 1.140625 -1.75q0.1875 -0.671875 0.171875 -2.875q-1.46875 1.734375 -3.671875 1.734375q-2.734375 0 -4.234375 -1.96875q-1.484375 -1.96875 -1.484375 -4.734375q0 -1.890625 0.6875 -3.484375q0.6875 -1.609375 1.984375 -2.484375q1.296875 -0.875 3.0625 -0.875q2.34375 0 3.859375 1.890625l0 -1.59375l2.078125 0l0 11.453125q0 3.09375 -0.640625 4.375q-0.625 1.296875 -2.0 2.046875q-1.359375 0.75 -3.34375 0.75q-2.375 0 -3.84375 -1.0625q-1.453125 -1.0625 -1.40625 -3.21875zm1.859375 -7.953125q0 2.609375 1.03125 3.8125q1.046875 1.1875 2.609375 1.1875q1.546875 0 2.59375 -1.1875q1.046875 -1.1875 1.046875 -3.734375q0 -2.4375 -1.078125 -3.671875q-1.078125 -1.234375 -2.609375 -1.234375q-1.484375 0 -2.546875 1.21875q-1.046875 1.21875 -1.046875 3.609375zm12.770508 6.859375l0 -18.28125l2.234375 0l0 6.5625q1.578125 -1.828125 3.96875 -1.828125q1.484375 0 2.5625 0.578125q1.078125 0.578125 1.546875 1.609375q0.46875 1.015625 0.46875 2.96875l0 8.390625l-2.234375 0l0 -8.390625q0 -1.6875 -0.734375 -2.453125q-0.734375 -0.765625 -2.0625 -0.765625q-1.0 0 -1.890625 0.515625q-0.875 0.515625 -1.25 1.40625q-0.375 0.875 -0.375 2.4375l0 7.25l-2.234375 0z" fill-rule="nonzero"/><path fill="#fff2cc" d="m1018.55786 154.39458l0 0c0 -19.038605 23.28125 -34.472443 52.0 -34.472443l0 0c28.718872 0 52.0 15.433838 52.0 34.472443l0 0c0 19.038605 -23.281128 34.472443 -52.0 34.472443l0 0c-28.71875 0 -52.0 -15.433838 -52.0 -34.472443z" fill-rule="evenodd"/><path stroke="#595959" stroke-width="1.916010498687664" stroke-linejoin="round" stroke-linecap="butt" d="m1018.55786 154.39458l0 0c0 -19.038605 23.28125 -34.472443 52.0 -34.472443l0 0c28.718872 0 52.0 15.433838 52.0 34.472443l0 0c0 19.038605 -23.281128 34.472443 -52.0 34.472443l0 0c-28.71875 0 -52.0 -15.433838 -52.0 -34.472443z" fill-rule="evenodd"/><path fill="#000000" d="m1049.0004 163.42181l0 -18.28125l2.421875 0l0 16.125l9.0 0l0 2.15625l-11.421875 0zm13.176758 -6.625q0 -3.671875 2.046875 -5.453125q1.71875 -1.46875 4.171875 -1.46875q2.734375 0 4.46875 1.796875q1.734375 1.78125 1.734375 4.9375q0 2.5625 -0.78125 4.03125q-0.765625 1.453125 -2.234375 2.265625q-1.453125 0.8125 -3.1875 0.8125q-2.78125 0 -4.5 -1.78125q-1.71875 -1.78125 -1.71875 -5.140625zm2.3125 0q0 2.546875 1.109375 3.8125q1.109375 1.265625 2.796875 1.265625q1.671875 0 2.78125 -1.265625q1.109375 -1.28125 1.109375 -3.890625q0 -2.453125 -1.125 -3.71875q-1.109375 -1.265625 -2.765625 -1.265625q-1.6875 0 -2.796875 1.265625q-1.109375 1.25 -1.109375 3.796875zm15.176636 6.625l-4.046875 -13.25l2.3125 0l2.109375 7.65625l0.78125 2.84375q0.0625 -0.21875 0.6875 -2.734375l2.109375 -7.765625l2.3125 0l1.984375 7.6875l0.65625 2.53125l0.765625 -2.5625l2.265625 -7.65625l2.1875 0l-4.140625 13.25l-2.328125 0l-2.109375 -7.9375l-0.515625 -2.25l-2.6875 10.1875l-2.34375 0z" fill-rule="nonzero"/><path fill="#fff2cc" d="m829.9145 270.43408l104.0 0l0 53.259857l-104.0 0z" fill-rule="evenodd"/><path stroke="#595959" stroke-width="1.916010498687664" stroke-linejoin="round" stroke-linecap="butt" d="m829.9145 270.43408l104.0 0l0 53.259857l-104.0 0z" fill-rule="evenodd"/><path fill="#000000" d="m857.691 306.09125l0 -18.28125l2.421875 0l0 7.5l9.5 0l0 -7.5l2.421875 0l0 18.28125l-2.421875 0l0 -8.625l-9.5 0l0 8.625l-2.421875 0zm18.105408 -15.703125l0 -2.578125l2.234375 0l0 2.578125l-2.234375 0zm0 15.703125l0 -13.25l2.234375 0l0 13.25l-2.234375 0zm5.238159 1.09375l2.1875 0.328125q0.140625 1.015625 0.765625 1.46875q0.828125 0.625 2.28125 0.625q1.5625 0 2.40625 -0.625q0.84375 -0.625 1.140625 -1.75q0.1875 -0.671875 0.171875 -2.875q-1.46875 1.734375 -3.671875 1.734375q-2.734375 0 -4.234375 -1.96875q-1.484375 -1.96875 -1.484375 -4.734375q0 -1.890625 0.6875 -3.484375q0.6875 -1.609375 1.984375 -2.484375q1.296875 -0.875 3.0625 -0.875q2.34375 0 3.859375 1.890625l0 -1.59375l2.078125 0l0 11.453125q0 3.09375 -0.640625 4.375q-0.625 1.296875 -2.0 2.046875q-1.359375 0.75 -3.34375 0.75q-2.375 0 -3.84375 -1.0625q-1.453125 -1.0625 -1.40625 -3.21875zm1.859375 -7.953125q0 2.609375 1.03125 3.8125q1.046875 1.1875 2.609375 1.1875q1.546875 0 2.59375 -1.1875q1.046875 -1.1875 1.046875 -3.734375q0 -2.4375 -1.078125 -3.671875q-1.078125 -1.234375 -2.609375 -1.234375q-1.484375 0 -2.546875 1.21875q-1.046875 1.21875 -1.046875 3.609375zm12.770508 6.859375l0 -18.28125l2.234375 0l0 6.5625q1.578125 -1.828125 3.96875 -1.828125q1.484375 0 2.5625 0.578125q1.078125 0.578125 1.546875 1.609375q0.46875 1.015625 0.46875 2.96875l0 8.390625l-2.234375 0l0 -8.390625q0 -1.6875 -0.734375 -2.453125q-0.734375 -0.765625 -2.0625 -0.765625q-1.0 0 -1.890625 0.515625q-0.875 0.515625 -1.25 1.40625q-0.375 0.875 -0.375 2.4375l0 7.25l-2.234375 0z" fill-rule="nonzero"/><path fill="#fff2cc" d="m1018.55786 270.43408l104.0 0l0 53.259857l-104.0 0z" fill-rule="evenodd"/><path stroke="#595959" stroke-width="1.916010498687664" stroke-linejoin="round" stroke-linecap="butt" d="m1018.55786 270.43408l104.0 0l0 53.259857l-104.0 0z" fill-rule="evenodd"/><path fill="#000000" d="m1049.0004 306.09125l0 -18.28125l2.421875 0l0 16.125l9.0 0l0 2.15625l-11.421875 0zm13.176758 -6.625q0 -3.671875 2.046875 -5.453125q1.71875 -1.46875 4.171875 -1.46875q2.734375 0 4.46875 1.796875q1.734375 1.78125 1.734375 4.9375q0 2.5625 -0.78125 4.03125q-0.765625 1.453125 -2.234375 2.265625q-1.453125 0.8125 -3.1875 0.8125q-2.78125 0 -4.5 -1.78125q-1.71875 -1.78125 -1.71875 -5.140625zm2.3125 0q0 2.546875 1.109375 3.8125q1.109375 1.265625 2.796875 1.265625q1.671875 0 2.78125 -1.265625q1.109375 -1.28125 1.109375 -3.890625q0 -2.453125 -1.125 -3.71875q-1.109375 -1.265625 -2.765625 -1.265625q-1.6875 0 -2.796875 1.265625q-1.109375 1.25 -1.109375 3.796875zm15.176636 6.625l-4.046875 -13.25l2.3125 0l2.109375 7.65625l0.78125 2.84375q0.0625 -0.21875 0.6875 -2.734375l2.109375 -7.765625l2.3125 0l1.984375 7.6875l0.65625 2.53125l0.765625 -2.5625l2.265625 -7.65625l2.1875 0l-4.140625 13.25l-2.328125 0l-2.109375 -7.9375l-0.515625 -2.25l-2.6875 10.1875l-2.34375 0z" fill-rule="nonzero"/><path fill="#000000" fill-opacity="0.0" d="m881.9145 188.86702l0 81.574814" fill-rule="evenodd"/><path stroke="#188038" stroke-width="1.916010498687664" stroke-linejoin="round" stroke-linecap="butt" d="m881.9144 200.36308l0 58.582687" fill-rule="evenodd"/><path fill="#188038" stroke="#188038" stroke-width="1.916010498687664" stroke-linecap="butt" d="m885.07916 200.36308l-3.164734 -8.695038l-3.164734 8.695038z" fill-rule="evenodd"/><path fill="#188038" stroke="#188038" stroke-width="1.916010498687664" stroke-linecap="butt" d="m878.7497 258.94577l3.164734 8.695038l3.164734 -8.695038z" fill-rule="evenodd"/><path fill="#000000" fill-opacity="0.0" d="m881.9145 188.86702l188.62994 81.574814" fill-rule="evenodd"/><path stroke="#cc4125" stroke-width="3.832020997375328" stroke-linejoin="round" stroke-linecap="butt" d="m903.0177 197.99333l146.42346 63.32219" fill-rule="evenodd"/><path fill="#cc4125" stroke="#cc4125" stroke-width="3.832020997375328" stroke-linecap="butt" d="m905.5301 192.18384l-18.473816 -1.0931854l13.449097 12.712173z" fill-rule="evenodd"/><path fill="#cc4125" stroke="#cc4125" stroke-width="3.832020997375328" stroke-linecap="butt" d="m1046.9287 267.125l18.473877 1.0932007l-13.449097 -12.712173z" fill-rule="evenodd"/><path fill="#000000" fill-opacity="0.0" d="m1070.5579 188.86702l0 81.574814" fill-rule="evenodd"/><path stroke="#188038" stroke-width="1.916010498687664" stroke-linejoin="round" stroke-linecap="butt" d="m1070.5579 200.36308l0 58.582687" fill-rule="evenodd"/><path fill="#188038" stroke="#188038" stroke-width="1.916010498687664" stroke-linecap="butt" d="m1073.7227 200.36308l-3.164795 -8.695038l-3.1646729 8.695038z" fill-rule="evenodd"/><path fill="#188038" stroke="#188038" stroke-width="1.916010498687664" stroke-linecap="butt" d="m1067.3932 258.94577l3.1646729 8.695038l3.164795 -8.695038z" fill-rule="evenodd"/><path fill="#000000" fill-opacity="0.0" d="m1070.5579 188.86702l-188.62988 81.574814" fill-rule="evenodd"/><path stroke="#cc4125" stroke-width="3.832020997375328" stroke-linejoin="round" stroke-linecap="butt" d="m1049.4546 197.99333l-146.42334 63.32219" fill-rule="evenodd"/><path fill="#cc4125" stroke="#cc4125" stroke-width="3.832020997375328" stroke-linecap="butt" d="m1051.967 203.80283l13.449097 -12.712173l-18.473877 1.0931854z" fill-rule="evenodd"/><path fill="#cc4125" stroke="#cc4125" stroke-width="3.832020997375328" stroke-linecap="butt" d="m900.51886 255.50603l-13.449036 12.712173l18.473816 -1.0932007z" fill-rule="evenodd"/><path fill="#000000" fill-opacity="0.0" d="m864.6727 335.88312l218.11023 0l0 44.44095l-218.11023 0z" fill-rule="evenodd"/><path fill="#000000" d="m912.8026 383.31583l0 -21.9375l4.4375 0l0 21.9375l-4.4375 0zm7.142273 -4.53125l4.21875 -0.640625q0.265625 1.21875 1.09375 1.859375q0.828125 0.640625 2.3125 0.640625q1.625 0 2.453125 -0.609375q0.546875 -0.421875 0.546875 -1.125q0 -0.46875 -0.296875 -0.78125q-0.3125 -0.3125 -1.40625 -0.5625q-5.09375 -1.125 -6.453125 -2.046875q-1.890625 -1.296875 -1.890625 -3.578125q0 -2.0625 1.625 -3.46875q1.640625 -1.40625 5.078125 -1.40625q3.25 0 4.84375 1.0625q1.59375 1.0625 2.1875 3.140625l-3.96875 0.734375q-0.25 -0.9375 -0.96875 -1.421875q-0.703125 -0.5 -2.03125 -0.5q-1.65625 0 -2.375 0.46875q-0.484375 0.328125 -0.484375 0.84375q0 0.453125 0.421875 0.765625q0.578125 0.421875 3.9375 1.1875q3.359375 0.765625 4.6875 1.875q1.3125 1.125 1.3125 3.125q0 2.1875 -1.828125 3.765625q-1.8125 1.5625 -5.390625 1.5625q-3.25 0 -5.15625 -1.3125q-1.890625 -1.328125 -2.46875 -3.578125zm17.565186 -3.640625q0 -2.09375 1.03125 -4.046875q1.03125 -1.96875 2.921875 -3.0q1.890625 -1.03125 4.234375 -1.03125q3.59375 0 5.90625 2.34375q2.3125 2.328125 2.3125 5.90625q0 3.609375 -2.328125 5.984375q-2.328125 2.375 -5.859375 2.375q-2.1875 0 -4.171875 -0.984375q-1.984375 -0.984375 -3.015625 -2.890625q-1.03125 -1.921875 -1.03125 -4.65625zm4.296875 0.21875q0 2.375 1.125 3.640625q1.125 1.25 2.78125 1.25q1.640625 0 2.75 -1.25q1.125 -1.265625 1.125 -3.671875q0 -2.328125 -1.125 -3.578125q-1.109375 -1.265625 -2.75 -1.265625q-1.65625 0 -2.78125 1.265625q-1.125 1.25 -1.125 3.609375zm15.397949 7.953125l0 -21.9375l4.203125 0l0 21.9375l-4.203125 0zm11.657898 -11.046875l-3.8125 -0.6875q0.640625 -2.3125 2.203125 -3.40625q1.578125 -1.109375 4.671875 -1.109375q2.828125 0 4.203125 0.671875q1.375 0.65625 1.9375 1.6875q0.5625 1.015625 0.5625 3.75l-0.046875 4.921875q0 2.09375 0.203125 3.09375q0.203125 0.984375 0.75 2.125l-4.15625 0q-0.171875 -0.421875 -0.40625 -1.25q-0.109375 -0.359375 -0.15625 -0.484375q-1.078125 1.046875 -2.3125 1.578125q-1.21875 0.515625 -2.609375 0.515625q-2.453125 0 -3.875 -1.328125q-1.40625 -1.34375 -1.40625 -3.375q0 -1.34375 0.640625 -2.390625q0.640625 -1.0625 1.796875 -1.625q1.171875 -0.5625 3.359375 -0.984375q2.9375 -0.546875 4.078125 -1.03125l0 -0.421875q0 -1.203125 -0.59375 -1.71875q-0.59375 -0.515625 -2.265625 -0.515625q-1.125 0 -1.75 0.4375q-0.625 0.4375 -1.015625 1.546875zm5.625 3.40625q-0.8125 0.28125 -2.5625 0.65625q-1.75 0.375 -2.28125 0.734375q-0.828125 0.578125 -0.828125 1.46875q0 0.890625 0.65625 1.53125q0.65625 0.640625 1.6875 0.640625q1.125 0 2.15625 -0.75q0.765625 -0.5625 1.015625 -1.390625q0.15625 -0.53125 0.15625 -2.046875l0 -0.84375zm15.565186 -8.25l0 3.34375l-2.875 0l0 6.40625q0 1.953125 0.078125 2.28125q0.09375 0.3125 0.375 0.53125q0.296875 0.203125 0.71875 0.203125q0.59375 0 1.6875 -0.40625l0.359375 3.265625q-1.453125 0.625 -3.3125 0.625q-1.140625 0 -2.0625 -0.375q-0.90625 -0.390625 -1.34375 -0.984375q-0.421875 -0.609375 -0.578125 -1.65625q-0.140625 -0.734375 -0.140625 -2.953125l0 -6.9375l-1.921875 0l0 -3.34375l1.921875 0l0 -3.171875l4.21875 -2.453125l0 5.625l2.875 0zm2.9274902 -2.15625l0 -3.890625l4.203125 0l0 3.890625l-4.203125 0zm0 18.046875l0 -15.890625l4.203125 0l0 15.890625l-4.203125 0zm7.548584 -8.171875q0 -2.09375 1.03125 -4.046875q1.03125 -1.96875 2.921875 -3.0q1.890625 -1.03125 4.234375 -1.03125q3.59375 0 5.90625 2.34375q2.3125 2.328125 2.3125 5.90625q0 3.609375 -2.328125 5.984375q-2.328125 2.375 -5.859375 2.375q-2.1875 0 -4.171875 -0.984375q-1.984375 -0.984375 -3.015625 -2.890625q-1.03125 -1.921875 -1.03125 -4.65625zm4.296875 0.21875q0 2.375 1.125 3.640625q1.125 1.25 2.78125 1.25q1.640625 0 2.75 -1.25q1.125 -1.265625 1.125 -3.671875q0 -2.328125 -1.125 -3.578125q-1.109375 -1.265625 -2.75 -1.265625q-1.65625 0 -2.78125 1.265625q-1.125 1.25 -1.125 3.609375zm29.851074 7.953125l-4.203125 0l0 -8.109375q0 -2.578125 -0.265625 -3.328125q-0.265625 -0.765625 -0.875 -1.171875q-0.609375 -0.421875 -1.46875 -0.421875q-1.09375 0 -1.96875 0.59375q-0.859375 0.59375 -1.1875 1.59375q-0.3125 0.984375 -0.3125 3.640625l0 7.203125l-4.203186 0l0 -15.890625l3.906311 0l0 2.328125q2.078125 -2.6875 5.234375 -2.6875q1.390625 0 2.546875 0.5q1.15625 0.5 1.75 1.28125q0.59375 0.765625 0.8125 1.765625q0.234375 0.984375 0.234375 2.828125l0 9.875z" fill-rule="nonzero"/><path fill="#e06666" d="m1005.54596 142.3555l-13.102356 13.102356l0 -6.551178l-45.543335 0l0 -13.102356l45.543335 0l0 -6.551193z" fill-rule="evenodd"/><path stroke="#595959" stroke-width="1.916010498687664" stroke-linejoin="round" stroke-linecap="butt" d="m1005.54596 142.3555l-13.102356 13.102356l0 -6.551178l-45.543335 0l0 -13.102356l45.543335 0l0 -6.551193z" fill-rule="evenodd"/><path fill="#e06666" d="m946.90485 173.73502l13.102356 -13.102356l0 6.551178l45.543335 0l0 13.102356l-45.543335 0l0 6.551178z" fill-rule="evenodd"/><path stroke="#595959" stroke-width="1.916010498687664" stroke-linejoin="round" stroke-linecap="butt" d="m946.90485 173.73502l13.102356 -13.102356l0 6.551178l45.543335 0l0 13.102356l-45.543335 0l0 6.551178z" fill-rule="evenodd"/><path fill="#000000" fill-opacity="0.0" d="m852.2751 28.438341l247.93707 0l0 94.92914l-247.93707 0z" fill-rule="evenodd"/><path fill="#cc4125" d="m889.6657 60.043697q1.671875 1.796875 2.875 2.75q1.203125 0.9375 2.28125 1.4062462l0 0.546875q-1.234375 0.609375 -2.390625 1.546875q-1.15625 0.921875 -2.765625 2.71875l-0.96875 0q1.171875 -2.515625 2.453125 -3.859375l-19.890625 0l0 -1.2656212l19.890625 0q-0.9375 -1.203125 -1.3125 -1.78125q-0.375 -0.59375 -1.109375 -2.0625l0.9375 0zm14.394653 10.921871l3.8125 -18.281246l5.515625 0q1.984375 0 3.03125 0.28125q1.5 0.390625 2.546875 1.390625q1.0625 0.984375 1.59375 2.46875q0.546875 1.484375 0.546875 3.328125q0 2.203125 -0.671875 4.015621q-0.65625 1.8125 -1.75 3.203125q-1.078125 1.375 -2.25 2.15625q-1.171875 0.78125 -2.78125 1.15625q-1.234375 0.28125 -3.015625 0.28125l-6.578125 0zm2.875 -2.078125l2.890625 0q1.96875 0 3.484375 -0.359375q0.953125 -0.21875 1.625 -0.65625q0.875 -0.5625 1.609375 -1.484375q0.9375 -1.21875 1.5 -2.7812462q0.578125 -1.578125 0.578125 -3.5625q0 -2.21875 -0.78125 -3.40625q-0.765625 -1.203125 -1.96875 -1.59375q-0.875 -0.28125 -2.75 -0.28125l-3.234375 0l-2.953125 14.124996zm25.011597 -2.421875l2.203125 0.21875q-0.484375 1.640625 -2.1875 3.109375q-1.703125 1.46875 -4.0625 1.46875q-1.46875 0 -2.703125 -0.671875q-1.21875 -0.6875 -1.859375 -1.984375q-0.640625 -1.296875 -0.640625 -2.953125q0 -2.1718712 1.0 -4.203121q1.0 -2.046875 2.59375 -3.03125q1.609375 -1.0 3.453125 -1.0q2.375 0 3.78125 1.46875q1.421875 1.46875 1.421875 4.015625q0 0.984375 -0.171875 1.9999962l-9.75 0q-0.046875 0.390625 -0.046875 0.703125q0 1.859375 0.84375 2.84375q0.859375 0.96875 2.09375 0.96875q1.15625 0 2.28125 -0.75q1.125 -0.765625 1.75 -2.203125zm-6.5625 -3.2812462l7.4375 0q0.015625 -0.359375 0.015625 -0.5q0 -1.703125 -0.859375 -2.59375q-0.84375 -0.90625 -2.171875 -0.90625q-1.453125 0 -2.640625 1.0q-1.1875 0.984375 -1.78125 3.0zm20.176758 2.9531212l2.265625 0.234375q-0.84375 2.484375 -2.421875 3.6875q-1.5625 1.203125 -3.546875 1.203125q-2.171875 0 -3.515625 -1.390625q-1.328125 -1.40625 -1.328125 -3.90625q0 -2.1718712 0.859375 -4.265621q0.859375 -2.09375 2.453125 -3.1875q1.609375 -1.09375 3.671875 -1.09375q2.125 0 3.375 1.203125q1.25 1.203125 1.25 3.1875l-2.21875 0.15625q-0.015625 -1.265625 -0.734375 -1.96875q-0.71875 -0.71875 -1.890625 -0.71875q-1.359375 0 -2.359375 0.859375q-0.984375 0.859375 -1.5625 2.609375q-0.5625 1.7499962 -0.5625 3.3749962q0 1.703125 0.75 2.546875q0.75 0.84375 1.84375 0.84375q1.09375 0 2.09375 -0.828125q1.015625 -0.84375 1.578125 -2.546875zm3.4609375 4.828125l3.8125 -18.281246l2.265625 0l-3.8125 18.281246l-2.265625 0zm14.785034 -1.640625q-1.171875 1.0 -2.265625 1.46875q-1.078125 0.46875 -2.3125 0.46875q-1.828125 0 -2.953125 -1.078125q-1.125 -1.078125 -1.125 -2.765625q0 -1.109375 0.5 -1.953125q0.515625 -0.859375 1.34375 -1.375q0.828125 -0.5156212 2.046875 -0.7499962q0.765625 -0.140625 2.890625 -0.234375q2.125 -0.09375 3.046875 -0.453125q0.265625 -0.921875 0.265625 -1.53125q0 -0.78125 -0.578125 -1.234375q-0.78125 -0.625 -2.296875 -0.625q-1.421875 0 -2.328125 0.640625q-0.90625 0.625 -1.3125 1.78125l-2.28125 -0.203125q0.703125 -1.96875 2.21875 -3.015625q1.515625 -1.046875 3.8125 -1.046875q2.46875 0 3.890625 1.171875q1.109375 0.875 1.109375 2.265625q0 1.0625 -0.3125 2.46875l-0.734375 3.2812462q-0.359375 1.578125 -0.359375 2.5625q0 0.625 0.28125 1.796875l-2.28125 0q-0.1875 -0.65625 -0.265625 -1.640625zm0.828125 -5.078125q-0.46875 0.1875 -1.015625 0.296875q-0.53125 0.09375 -1.8125 0.203125q-1.96875 0.1875 -2.78125 0.453125q-0.8125 0.265625 -1.21875 0.859375q-0.40625 0.578125 -0.40625 1.28125q0 0.953125 0.640625 1.5625q0.65625 0.609375 1.875 0.609375q1.125 0 2.15625 -0.578125q1.03125 -0.59375 1.625 -1.65625q0.609375 -1.0625 0.9375 -3.03125zm4.661133 2.1875l2.25 -0.140625q0 0.984375 0.296875 1.671875q0.3125 0.6875 1.109375 1.125q0.8125 0.421875 1.875 0.421875q1.5 0 2.25 -0.59375q0.75 -0.59375 0.75 -1.40625q0 -0.59375 -0.453125 -1.109375q-0.453125 -0.53125 -2.25 -1.296875q-1.78125 -0.765625 -2.28125 -1.078125q-0.84375 -0.5156212 -1.265625 -1.2031212q-0.421875 -0.6875 -0.421875 -1.59375q0 -1.5625 1.234375 -2.6875q1.25 -1.125 3.5 -1.125q2.5 0 3.796875 1.15625q1.3125 1.15625 1.359375 3.03125l-2.203125 0.15625q-0.0625 -1.203125 -0.859375 -1.890625q-0.796875 -0.703125 -2.25 -0.703125q-1.171875 0 -1.828125 0.53125q-0.640625 0.53125 -0.640625 1.15625q0 0.625 0.5625 1.109375q0.375 0.3125 1.921875 0.984375q2.59375 1.1249962 3.28125 1.7812462q1.0625 1.03125 1.0625 2.515625q0 0.984375 -0.609375 1.9375q-0.59375 0.953125 -1.84375 1.515625q-1.234375 0.5625 -2.921875 0.5625q-2.296875 0 -3.90625 -1.125q-1.609375 -1.140625 -1.515625 -3.703125zm12.7734375 0l2.25 -0.140625q0 0.984375 0.296875 1.671875q0.3125 0.6875 1.109375 1.125q0.8125 0.421875 1.875 0.421875q1.5 0 2.25 -0.59375q0.75 -0.59375 0.75 -1.40625q0 -0.59375 -0.453125 -1.109375q-0.453125 -0.53125 -2.25 -1.296875q-1.78125 -0.765625 -2.28125 -1.078125q-0.84375 -0.5156212 -1.265625 -1.2031212q-0.421875 -0.6875 -0.421875 -1.59375q0 -1.5625 1.234375 -2.6875q1.25 -1.125 3.5 -1.125q2.5 0 3.796875 1.15625q1.3125 1.15625 1.359375 3.03125l-2.203125 0.15625q-0.0625 -1.203125 -0.859375 -1.890625q-0.796875 -0.703125 -2.25 -0.703125q-1.171875 0 -1.828125 0.53125q-0.640625 0.53125 -0.640625 1.15625q0 0.625 0.5625 1.109375q0.375 0.3125 1.921875 0.984375q2.59375 1.1249962 3.28125 1.7812462q1.0625 1.03125 1.0625 2.515625q0 0.984375 -0.609375 1.9375q-0.59375 0.953125 -1.84375 1.515625q-1.234375 0.5625 -2.921875 0.5625q-2.296875 0 -3.90625 -1.125q-1.609375 -1.140625 -1.515625 -3.703125zm15.7578125 -11.203121l0.546875 -2.546875l2.234375 0l-0.53125 2.546875l-2.25 0zm-3.28125 15.734371l2.765625 -13.249996l2.25 0l-2.765625 13.249996l-2.25 0zm6.066284 0l2.40625 -11.499996l-2.015625 0l0.359375 -1.75l2.015625 0l0.390625 -1.875q0.296875 -1.421875 0.609375 -2.03125q0.328125 -0.625 1.046875 -1.03125q0.71875 -0.40625 1.953125 -0.40625q0.859375 0 2.5 0.359375l-0.421875 1.96875q-1.140625 -0.296875 -1.921875 -0.296875q-0.65625 0 -1.0 0.328125q-0.34375 0.328125 -0.59375 1.5625l-0.296875 1.421875l2.515625 0l-0.359375 1.75l-2.515625 0l-2.40625 11.499996l-2.265625 0zm9.988403 -15.734371l0.546875 -2.546875l2.234375 0l-0.53125 2.546875l-2.25 0zm-3.28125 15.734371l2.765625 -13.249996l2.25 0l-2.765625 13.249996l-2.25 0zm14.89447 -4.828125l2.265625 0.234375q-0.84375 2.484375 -2.421875 3.6875q-1.5625 1.203125 -3.546875 1.203125q-2.171875 0 -3.515625 -1.390625q-1.328125 -1.40625 -1.328125 -3.90625q0 -2.1718712 0.859375 -4.265621q0.859375 -2.09375 2.453125 -3.1875q1.609375 -1.09375 3.671875 -1.09375q2.125 0 3.375 1.203125q1.25 1.203125 1.25 3.1875l-2.21875 0.15625q-0.015625 -1.265625 -0.734375 -1.96875q-0.71875 -0.71875 -1.890625 -0.71875q-1.359375 0 -2.359375 0.859375q-0.984375 0.859375 -1.5625 2.609375q-0.5625 1.7499962 -0.5625 3.3749962q0 1.703125 0.75 2.546875q0.75 0.84375 1.84375 0.84375q1.09375 0 2.09375 -0.828125q1.015625 -0.84375 1.578125 -2.546875zm12.5703125 3.1875q-1.171875 1.0 -2.265625 1.46875q-1.078125 0.46875 -2.3125 0.46875q-1.828125 0 -2.953125 -1.078125q-1.125 -1.078125 -1.125 -2.765625q0 -1.109375 0.5 -1.953125q0.515625 -0.859375 1.34375 -1.375q0.828125 -0.5156212 2.046875 -0.7499962q0.765625 -0.140625 2.890625 -0.234375q2.125 -0.09375 3.046875 -0.453125q0.265625 -0.921875 0.265625 -1.53125q0 -0.78125 -0.578125 -1.234375q-0.78125 -0.625 -2.296875 -0.625q-1.421875 0 -2.328125 0.640625q-0.90625 0.625 -1.3125 1.78125l-2.28125 -0.203125q0.703125 -1.96875 2.21875 -3.015625q1.515625 -1.046875 3.8125 -1.046875q2.46875 0 3.890625 1.171875q1.109375 0.875 1.109375 2.265625q0 1.0625 -0.3125 2.46875l-0.734375 3.2812462q-0.359375 1.578125 -0.359375 2.5625q0 0.625 0.28125 1.796875l-2.28125 0q-0.1875 -0.65625 -0.265625 -1.640625zm0.828125 -5.078125q-0.46875 0.1875 -1.015625 0.296875q-0.53125 0.09375 -1.8125 0.203125q-1.96875 0.1875 -2.78125 0.453125q-0.8125 0.265625 -1.21875 0.859375q-0.40625 0.578125 -0.40625 1.28125q0 0.953125 0.640625 1.5625q0.65625 0.609375 1.875 0.609375q1.125 0 2.15625 -0.578125q1.03125 -0.59375 1.625 -1.65625q0.609375 -1.0625 0.9375 -3.03125zm9.723511 4.890625l-0.375 1.84375q-0.8125 0.203125 -1.578125 0.203125q-1.34375 0 -2.140625 -0.65625q-0.59375 -0.5 -0.59375 -1.359375q0 -0.4375 0.328125 -2.0l1.609375 -7.703121l-1.796875 0l0.375 -1.75l1.78125 0l0.6875 -3.25l2.578125 -1.5625l-1.015625 4.8125l2.21875 0l-0.375 1.75l-2.203125 0l-1.53125 7.328121q-0.296875 1.390625 -0.296875 1.671875q0 0.390625 0.234375 0.609375q0.234375 0.203125 0.765625 0.203125q0.734375 0 1.328125 -0.140625zm5.0196533 -13.906246l0.546875 -2.546875l2.234375 0l-0.53125 2.546875l-2.25 0zm-3.28125 15.734371l2.765625 -13.249996l2.25 0l-2.765625 13.249996l-2.25 0zm6.1601562 -5.03125q0 -3.8749962 2.28125 -6.421871q1.875 -2.09375 4.9375 -2.09375q2.390625 0 3.859375 1.5q1.46875 1.5 1.46875 4.03125q0 2.2968712 -0.921875 4.265621q-0.921875 1.953125 -2.625 3.0q-1.703125 1.046875 -3.59375 1.046875q-1.546875 0 -2.8125 -0.65625q-1.265625 -0.65625 -1.9375 -1.859375q-0.65625 -1.21875 -0.65625 -2.8125zm2.25 -0.21875q0 1.875 0.890625 2.84375q0.90625 0.953125 2.296875 0.953125q0.71875 0 1.421875 -0.28125q0.71875 -0.296875 1.328125 -0.890625q0.609375 -0.609375 1.046875 -1.375q0.4375 -0.765625 0.6875 -1.65625q0.390625 -1.234375 0.390625 -2.3593712q0 -1.796875 -0.90625 -2.78125q-0.90625 -1.0 -2.28125 -1.0q-1.046875 0 -1.921875 0.5q-0.875 0.5 -1.578125 1.484375q-0.703125 0.96875 -1.046875 2.265625q-0.328125 1.2812462 -0.328125 2.2968712zm11.551636 5.25l2.78125 -13.249996l2.03125 0l-0.484375 2.3125q1.34375 -1.359375 2.5 -1.984375q1.15625 -0.625 2.375 -0.625q1.609375 0 2.515625 0.875q0.921875 0.875 0.921875 2.328125q0 0.734375 -0.328125 2.328125l-1.6875 8.015621l-2.25 0l1.765625 -8.390621q0.25 -1.234375 0.25 -1.8125q0 -0.65625 -0.453125 -1.0625q-0.453125 -0.421875 -1.3125 -0.421875q-1.734375 0 -3.09375 1.25q-1.34375 1.25 -1.984375 4.281246l-1.28125 6.15625l-2.265625 0z" fill-rule="nonzero"/><path fill="#cc4125" d="m876.4157 90.70273l0.9375 0q-0.734375 1.46875 -1.109375 2.0625q-0.359375 0.59375 -1.3125 1.78125l19.890625 0l0 1.265625l-19.890625 0q1.296875 1.34375 2.46875 3.859375l-0.96875 0q-1.609375 -1.796875 -2.78125 -2.71875q-1.15625 -0.9375 -2.390625 -1.546875l0 -0.546875q1.09375 -0.46875 2.296875 -1.40625q1.203125 -0.953125 2.859375 -2.75zm27.644653 10.921875l3.84375 -18.28125l13.1875 0l-0.4375 2.078125l-10.75 0l-1.203125 5.6875l10.484375 0l-0.4375 2.078125l-10.484375 0l-1.3125 6.359375l11.515625 0l-0.4375 2.078125l-13.96875 0zm16.742676 0l2.78125 -13.25l2.03125 0l-0.484375 2.3125q1.34375 -1.359375 2.5 -1.984375q1.15625 -0.625 2.375 -0.625q1.609375 0 2.515625 0.875q0.921875 0.875 0.921875 2.328125q0 0.734375 -0.328125 2.328125l-1.6875 8.015625l-2.25 0l1.765625 -8.390625q0.25 -1.234375 0.25 -1.8125q0 -0.65625 -0.453125 -1.0625q-0.453125 -0.421875 -1.3125 -0.421875q-1.734375 0 -3.09375 1.25q-1.34375 1.25 -1.984375 4.28125l-1.28125 6.15625l-2.265625 0zm23.145447 -1.921875q-1.9375 2.21875 -4.046875 2.21875q-1.875 0 -3.140625 -1.390625q-1.25 -1.390625 -1.25 -4.03125q0 -2.421875 0.984375 -4.421875q1.0 -2.0 2.484375 -3.0q1.5 -1.0 3.0 -1.0q2.46875 0 3.71875 2.375l1.5 -7.109375l2.25 0l-3.8125 18.28125l-2.09375 0l0.40625 -1.921875zm-6.1875 -3.625q0 1.375 0.265625 2.1875q0.28125 0.796875 0.9375 1.328125q0.671875 0.515625 1.59375 0.515625q1.53125 0 2.78125 -1.59375q1.671875 -2.125 1.671875 -5.234375q0 -1.578125 -0.828125 -2.453125q-0.828125 -0.890625 -2.0625 -0.890625q-0.8125 0 -1.484375 0.359375q-0.671875 0.359375 -1.328125 1.234375q-0.65625 0.859375 -1.109375 2.203125q-0.4375 1.328125 -0.4375 2.34375zm11.864197 0.515625q0 -3.875 2.28125 -6.421875q1.875 -2.09375 4.9375 -2.09375q2.390625 0 3.859375 1.5q1.46875 1.5 1.46875 4.03125q0 2.296875 -0.921875 4.265625q-0.921875 1.953125 -2.625 3.0q-1.703125 1.046875 -3.59375 1.046875q-1.546875 0 -2.8125 -0.65625q-1.265625 -0.65625 -1.9375 -1.859375q-0.65625 -1.21875 -0.65625 -2.8125zm2.25 -0.21875q0 1.875 0.890625 2.84375q0.90625 0.953125 2.296875 0.953125q0.71875 0 1.421875 -0.28125q0.71875 -0.296875 1.328125 -0.890625q0.609375 -0.609375 1.046875 -1.375q0.4375 -0.765625 0.6875 -1.65625q0.390625 -1.234375 0.390625 -2.359375q0 -1.796875 -0.90625 -2.78125q-0.90625 -1.0 -2.28125 -1.0q-1.046875 0 -1.921875 0.5q-0.875 0.5 -1.578125 1.484375q-0.703125 0.96875 -1.046875 2.265625q-0.328125 1.28125 -0.328125 2.296875zm11.551758 5.25l2.78125 -13.25l1.984375 0l-0.5625 2.703125q1.03125 -1.53125 2.0 -2.265625q0.984375 -0.734375 2.015625 -0.734375q0.671875 0 1.65625 0.484375l-0.921875 2.09375q-0.59375 -0.421875 -1.296875 -0.421875q-1.171875 0 -2.421875 1.328125q-1.25 1.3125 -1.96875 4.75l-1.109375 5.3125l-2.15625 0zm8.726013 -4.53125l2.25 -0.140625q0 0.984375 0.296875 1.671875q0.3125 0.6875 1.109375 1.125q0.8125 0.421875 1.875 0.421875q1.5 0 2.25 -0.59375q0.75 -0.59375 0.75 -1.40625q0 -0.59375 -0.453125 -1.109375q-0.453125 -0.53125 -2.25 -1.296875q-1.78125 -0.765625 -2.28125 -1.078125q-0.84375 -0.515625 -1.265625 -1.203125q-0.421875 -0.6875 -0.421875 -1.59375q0 -1.5625 1.234375 -2.6875q1.25 -1.125 3.5 -1.125q2.5 0 3.796875 1.15625q1.3125 1.15625 1.359375 3.03125l-2.203125 0.15625q-0.0625 -1.203125 -0.859375 -1.890625q-0.796875 -0.703125 -2.25 -0.703125q-1.171875 0 -1.828125 0.53125q-0.640625 0.53125 -0.640625 1.15625q0 0.625 0.5625 1.109375q0.375 0.3125 1.921875 0.984375q2.59375 1.125 3.28125 1.78125q1.0625 1.03125 1.0625 2.515625q0 0.984375 -0.609375 1.9375q-0.59375 0.953125 -1.84375 1.515625q-1.234375 0.5625 -2.921875 0.5625q-2.296875 0 -3.90625 -1.125q-1.609375 -1.140625 -1.515625 -3.703125zm22.289062 0.03125l2.203125 0.21875q-0.484375 1.640625 -2.1875 3.109375q-1.703125 1.46875 -4.0625 1.46875q-1.46875 0 -2.703125 -0.671875q-1.21875 -0.6875 -1.859375 -1.984375q-0.640625 -1.296875 -0.640625 -2.953125q0 -2.171875 1.0 -4.203125q1.0 -2.046875 2.59375 -3.03125q1.609375 -1.0 3.453125 -1.0q2.375 0 3.78125 1.46875q1.421875 1.46875 1.421875 4.015625q0 0.984375 -0.171875 2.0l-9.75 0q-0.046875 0.390625 -0.046875 0.703125q0 1.859375 0.84375 2.84375q0.859375 0.96875 2.09375 0.96875q1.15625 0 2.28125 -0.75q1.125 -0.765625 1.75 -2.203125zm-6.5625 -3.28125l7.4375 0q0.015625 -0.359375 0.015625 -0.5q0 -1.703125 -0.859375 -2.59375q-0.84375 -0.90625 -2.171875 -0.90625q-1.453125 0 -2.640625 1.0q-1.1875 0.984375 -1.78125 3.0zm11.020508 7.78125l2.78125 -13.25l2.25 0l-0.453125 2.1875q1.25 -1.40625 2.234375 -1.9375q1.0 -0.546875 2.15625 -0.546875q1.25 0 2.078125 0.65625q0.828125 0.65625 1.078125 1.828125q1.015625 -1.25 2.125 -1.859375q1.125 -0.625 2.359375 -0.625q1.65625 0 2.484375 0.796875q0.828125 0.78125 0.828125 2.203125q0 0.609375 -0.28125 2.015625l-1.78125 8.53125l-2.265625 0l1.828125 -8.75q0.234375 -1.078125 0.234375 -1.546875q0 -0.640625 -0.421875 -1.015625q-0.40625 -0.375 -1.140625 -0.375q-1.015625 0 -2.0625 0.609375q-1.046875 0.609375 -1.625 1.609375q-0.578125 0.984375 -1.015625 3.046875l-1.359375 6.421875l-2.25 0l1.875 -8.9375q0.1875 -0.921875 0.1875 -1.296875q0 -0.65625 -0.40625 -1.046875q-0.40625 -0.40625 -1.046875 -0.40625q-0.953125 0 -2.015625 0.609375q-1.046875 0.609375 -1.71875 1.703125q-0.65625 1.09375 -1.078125 3.109375l-1.3125 6.265625l-2.265625 0zm31.030762 -4.5l2.203125 0.21875q-0.484375 1.640625 -2.1875 3.109375q-1.703125 1.46875 -4.0625 1.46875q-1.46875 0 -2.703186 -0.671875q-1.21875 -0.6875 -1.859375 -1.984375q-0.640625 -1.296875 -0.640625 -2.953125q0 -2.171875 1.0 -4.203125q1.0 -2.046875 2.593811 -3.03125q1.609375 -1.0 3.453125 -1.0q2.375 0 3.78125 1.46875q1.421875 1.46875 1.421875 4.015625q0 0.984375 -0.171875 2.0l-9.750061 0q-0.046875 0.390625 -0.046875 0.703125q0 1.859375 0.84375 2.84375q0.85943604 0.96875 2.093811 0.96875q1.15625 0 2.28125 -0.75q1.125 -0.765625 1.75 -2.203125zm-6.562561 -3.28125l7.437561 0q0.015625 -0.359375 0.015625 -0.5q0 -1.703125 -0.859375 -2.59375q-0.84375 -0.90625 -2.171875 -0.90625q-1.453125 0 -2.640625 1.0q-1.187561 0.984375 -1.781311 3.0zm11.036072 7.78125l2.78125 -13.25l2.03125 0l-0.484375 2.3125q1.34375 -1.359375 2.5 -1.984375q1.15625 -0.625 2.375 -0.625q1.609375 0 2.515625 0.875q0.921875 0.875 0.921875 2.328125q0 0.734375 -0.328125 2.328125l-1.6875 8.015625l-2.25 0l1.765625 -8.390625q0.25 -1.234375 0.25 -1.8125q0 -0.65625 -0.453125 -1.0625q-0.453125 -0.421875 -1.3125 -0.421875q-1.734375 0 -3.09375 1.25q-1.34375 1.25 -1.984375 4.28125l-1.28125 6.15625l-2.265625 0zm19.489258 -1.828125l-0.375 1.84375q-0.8125 0.203125 -1.578125 0.203125q-1.34375 0 -2.140625 -0.65625q-0.59375 -0.5 -0.59375 -1.359375q0 -0.4375 0.328125 -2.0l1.609375 -7.703125l-1.796875 0l0.375 -1.75l1.78125 0l0.6875 -3.25l2.578125 -1.5625l-1.015625 4.8125l2.21875 0l-0.375 1.75l-2.203125 0l-1.53125 7.328125q-0.296875 1.390625 -0.296875 1.671875q0 0.390625 0.234375 0.609375q0.234375 0.203125 0.765625 0.203125q0.734375 0 1.328125 -0.140625z" fill-rule="nonzero"/></g></svg>