<svg version="1.1" viewBox="0.0 0.0 730.6456692913385 537.0971128608924" fill="none" stroke="none" stroke-linecap="square" stroke-miterlimit="10" xmlns:xlink="http://www.w3.org/1999/xlink" xmlns="http://www.w3.org/2000/svg"><clipPath id="p.0"><path d="m0 0l730.6457 0l0 537.0971l-730.6457 0l0 -537.0971z" clip-rule="nonzero"/></clipPath><g clip-path="url(#p.0)"><path fill="#000000" fill-opacity="0.0" d="m0 0l730.6457 0l0 537.0971l-730.6457 0z" fill-rule="evenodd"/><path fill="#000000" fill-opacity="0.0" d="m62.3863 169.90265l127.405495 0l0 57.474304l-127.405495 0z" fill-rule="evenodd"/><path fill="#f4cccc" d="m58.93371 169.90169l134.31229 0l0 57.474304l-134.31229 0z" fill-rule="evenodd"/><path stroke="#595959" stroke-width="2.8713910761154855" stroke-linejoin="round" stroke-linecap="butt" d="m58.93371 169.90169l134.31229 0l0 57.474304l-134.31229 0z" fill-rule="evenodd"/><path fill="#000000" d="m93.44312 211.18755l0 -24.640625l3.265625 0l0 10.125l12.8125 0l0 -10.125l3.25 0l0 24.640625l-3.25 0l0 -11.609375l-12.8125 0l0 11.609375l-3.265625 0zm24.389633 -21.15625l0 -3.484375l3.03125 0l0 3.484375l-3.03125 0zm0 21.15625l0 -17.84375l3.03125 0l0 17.84375l-3.03125 0zm7.0849457 1.484375l2.9375 0.4375q0.18749237 1.359375 1.0312424 1.984375q1.125 0.828125 3.0625 0.828125q2.109375 0 3.25 -0.84375q1.140625 -0.828125 1.546875 -2.34375q0.234375 -0.921875 0.21875 -3.890625q-1.984375 2.34375 -4.9375 2.34375q-3.6875 0 -5.7031174 -2.65625q-2.015625 -2.65625 -2.015625 -6.375q0 -2.546875 0.921875 -4.703125q0.921875 -2.171875 2.671875 -3.34375q1.7656174 -1.171875 4.1406174 -1.171875q3.15625 0 5.203125 2.546875l0 -2.140625l2.796875 0l0 15.421875q0 4.171875 -0.859375 5.90625q-0.84375 1.75 -2.6875 2.75q-1.828125 1.015625 -4.515625 1.015625q-3.203125 0 -5.1718674 -1.4375q-1.96875 -1.4375 -1.890625 -4.328125zm2.5 -10.734375q0 3.515625 1.3906174 5.140625q1.40625 1.609375 3.5 1.609375q2.078125 0 3.484375 -1.609375q1.421875 -1.609375 1.421875 -5.03125q0 -3.28125 -1.453125 -4.9375q-1.453125 -1.671875 -3.5 -1.671875q-2.015625 0 -3.4375 1.640625q-1.4062424 1.640625 -1.4062424 4.859375zm17.190681 9.25l0 -24.640625l3.03125 0l0 8.84375q2.109375 -2.453125 5.34375 -2.453125q1.984375 0 3.4375 0.78125q1.46875 0.78125 2.09375 2.15625q0.640625 1.375 0.640625 4.0l0 11.3125l-3.03125 0l0 -11.3125q0 -2.265625 -0.984375 -3.296875q-0.984375 -1.03125 -2.78125 -1.03125q-1.34375 0 -2.53125 0.703125q-1.1875 0.6875 -1.6875 1.890625q-0.5 1.1875 -0.5 3.28125l0 9.765625l-3.03125 0z" fill-rule="nonzero"/><path fill="#000000" fill-opacity="0.0" d="m78.470314 32.83702l95.256065 0l0 75.07017l-95.256065 0z" fill-rule="evenodd"/><path fill="#000000" d="m125.270226 80.25379l0 -16.09375l-8.53125 0l0 -1.484375l18.718742 0l0 1.484375l-8.703117 0l0 16.09375l-1.484375 0z" fill-rule="nonzero"/><path fill="#000000" fill-opacity="0.0" d="m78.470314 388.5211l95.256065 0l0 66.97113l-95.256065 0z" fill-rule="evenodd"/><path fill="#000000" d="m139.89522 424.4764l0 3.28125l-27.921867 0l0 -3.28125l12.3125 0l0 -25.296875l3.296875 0l0 25.296875l12.312492 0z" fill-rule="nonzero"/><path fill="#fff2cc" d="m58.93371 276.8198l134.31229 0l0 57.474304l-134.31229 0z" fill-rule="evenodd"/><path stroke="#595959" stroke-width="2.8713910761154855" stroke-linejoin="round" stroke-linecap="butt" d="m58.93371 276.8198l134.31229 0l0 57.474304l-134.31229 0z" fill-rule="evenodd"/><path fill="#000000" d="m97.03247 318.10565l0 -24.640625l3.265625 0l0 21.734375l12.140625 0l0 2.90625l-15.40625 0zm17.768814 -8.921875q0 -4.96875 2.765625 -7.34375q2.296875 -1.984375 5.609375 -1.984375q3.671875 0 6.0 2.421875q2.34375 2.40625 2.34375 6.65625q0 3.4375 -1.03125 5.421875q-1.03125 1.96875 -3.015625 3.0625q-1.96875 1.09375 -4.296875 1.09375q-3.75 0 -6.0625 -2.40625q-2.3125 -2.40625 -2.3125 -6.921875zm3.109375 0q0 3.421875 1.5 5.140625q1.5 1.703125 3.765625 1.703125q2.25 0 3.734375 -1.71875q1.5 -1.71875 1.5 -5.234375q0 -3.3125 -1.5 -5.015625q-1.5 -1.703125 -3.734375 -1.703125q-2.265625 0 -3.765625 1.703125q-1.5 1.6875 -1.5 5.125zm20.456314 8.921875l-5.46875 -17.84375l3.140625 0l2.828125 10.296875l1.0625 3.828125q0.0625 -0.28125 0.921875 -3.671875l2.84375 -10.453125l3.109375 0l2.671875 10.34375l0.890625 3.421875l1.03125 -3.453125l3.046875 -10.3125l2.953125 0l-5.578125 17.84375l-3.15625 0l-2.828125 -10.6875l-0.6875 -3.046875l-3.625 13.734375l-3.15625 0z" fill-rule="nonzero"/><path fill="#000000" fill-opacity="0.0" d="m126.09835 388.5211l0 -54.2265" fill-rule="evenodd"/><path stroke="#595959" stroke-width="2.8713910761154855" stroke-linejoin="round" stroke-linecap="butt" d="m126.09834 388.5211l0 -44.385986" fill-rule="evenodd"/><path fill="#595959" stroke="#595959" stroke-width="2.8713910761154855" stroke-linecap="butt" d="m126.09834 344.1351l3.229126 3.229126l-3.229126 -8.871948l-3.2291183 8.871948z" fill-rule="evenodd"/><path fill="#000000" fill-opacity="0.0" d="m126.08985 276.8198l0 -49.457504" fill-rule="evenodd"/><path stroke="#595959" stroke-width="2.8713910761154855" stroke-linejoin="round" stroke-linecap="butt" d="m126.08985 276.8198l0 -39.617004" fill-rule="evenodd"/><path fill="#595959" stroke="#595959" stroke-width="2.8713910761154855" stroke-linecap="butt" d="m126.08985 237.20279l3.2291183 3.229126l-3.2291183 -8.871933l-3.2291183 8.871933z" fill-rule="evenodd"/><path fill="#000000" fill-opacity="0.0" d="m126.08905 169.90265l0 -61.996613" fill-rule="evenodd"/><path stroke="#595959" stroke-width="2.8713910761154855" stroke-linejoin="round" stroke-linecap="butt" d="m126.08904 169.90263l0 -52.15609" fill-rule="evenodd"/><path fill="#595959" stroke="#595959" stroke-width="2.8713910761154855" stroke-linecap="butt" d="m126.08904 117.746544l3.2291183 3.2291183l-3.2291183 -8.871933l-3.2291183 8.871933z" fill-rule="evenodd"/><path fill="#000000" fill-opacity="0.0" d="m206.16185 168.14929l113.92082 0l0 57.47432l-113.92082 0z" fill-rule="evenodd"/><path fill="#000000" d="m219.2556 197.93051l2.171875 -0.1875q0.15625 1.3125 0.71875 2.15625q0.578125 0.828125 1.765625 1.359375q1.1875 0.515625 2.671875 0.515625q1.3125 0 2.328125 -0.390625q1.015625 -0.40625 1.5 -1.078125q0.5 -0.6875 0.5 -1.5q0 -0.8125 -0.484375 -1.421875q-0.46875 -0.625 -1.5625 -1.046875q-0.703125 -0.265625 -3.109375 -0.84375q-2.390625 -0.578125 -3.359375 -1.09375q-1.25 -0.640625 -1.859375 -1.609375q-0.609375 -0.984375 -0.609375 -2.171875q0 -1.328125 0.75 -2.46875q0.75 -1.15625 2.1875 -1.75q1.4375 -0.59375 3.1875 -0.59375q1.953125 0 3.421875 0.625q1.484375 0.625 2.28125 1.84375q0.796875 1.203125 0.859375 2.734375l-2.21875 0.171875q-0.171875 -1.65625 -1.203125 -2.5q-1.03125 -0.84375 -3.03125 -0.84375q-2.09375 0 -3.0625 0.765625q-0.953125 0.765625 -0.953125 1.859375q0 0.9375 0.671875 1.546875q0.671875 0.59375 3.484375 1.234375q2.8125 0.640625 3.859375 1.109375q1.53125 0.703125 2.25 1.78125q0.71875 1.078125 0.71875 2.484375q0 1.390625 -0.796875 2.625q-0.796875 1.21875 -2.296875 1.90625q-1.484375 0.6875 -3.34375 0.6875q-2.375 0 -3.96875 -0.6875q-1.59375 -0.6875 -2.515625 -2.078125q-0.90625 -1.390625 -0.953125 -3.140625zm25.403763 1.546875l2.21875 0.265625q-0.53125 1.9375 -1.953125 3.015625q-1.40625 1.0625 -3.609375 1.0625q-2.765625 0 -4.390625 -1.703125q-1.625 -1.703125 -1.625 -4.78125q0 -3.1875 1.640625 -4.953125q1.640625 -1.765625 4.265625 -1.765625q2.53125 0 4.125 1.734375q1.609375 1.71875 1.609375 4.84375q0 0.1875 0 0.578125l-9.421875 0q0.109375 2.078125 1.171875 3.1875q1.0625 1.109375 2.640625 1.109375q1.171875 0 2.0 -0.625q0.84375 -0.625 1.328125 -1.96875zm-7.03125 -3.46875l7.0625 0q-0.140625 -1.59375 -0.8125 -2.390625q-1.03125 -1.234375 -2.65625 -1.234375q-1.46875 0 -2.484375 0.984375q-1.0 0.984375 -1.109375 2.640625zm20.172546 2.90625l2.109375 0.265625q-0.34375 2.1875 -1.765625 3.421875q-1.421875 1.21875 -3.4843903 1.21875q-2.59375 0 -4.171875 -1.6875q-1.578125 -1.703125 -1.578125 -4.859375q0 -2.046875 0.671875 -3.578125q0.6875 -1.53125 2.0625 -2.296875q1.390625 -0.78125 3.015625 -0.78125q2.0625153 0 3.3593903 1.046875q1.3125 1.046875 1.6875 2.953125l-2.078125 0.328125q-0.296875 -1.28125 -1.0625 -1.921875q-0.75001526 -0.640625 -1.8125153 -0.640625q-1.625 0 -2.640625 1.15625q-1.0 1.15625 -1.0 3.671875q0 2.546875 0.96875 3.703125q0.984375 1.15625 2.546875 1.15625q1.265625 0 2.1093903 -0.765625q0.84375 -0.78125 1.0625 -2.390625zm3.9140625 4.625l0 -12.625l1.9375 0l0 1.90625q0.734375 -1.34375 1.359375 -1.765625q0.625 -0.4375 1.375 -0.4375q1.078125 0 2.1875 0.6875l-0.734375 2.0q-0.78125 -0.46875 -1.5625 -0.46875q-0.703125 0 -1.265625 0.421875q-0.5625 0.421875 -0.796875 1.171875q-0.359375 1.140625 -0.359375 2.5l0 6.609375l-2.140625 0zm16.783722 -4.0625l2.21875 0.265625q-0.53125 1.9375 -1.953125 3.015625q-1.40625 1.0625 -3.609375 1.0625q-2.765625 0 -4.390625 -1.703125q-1.625 -1.703125 -1.625 -4.78125q0 -3.1875 1.640625 -4.953125q1.640625 -1.765625 4.265625 -1.765625q2.53125 0 4.125 1.734375q1.609375 1.71875 1.609375 4.84375q0 0.1875 0 0.578125l-9.421875 0q0.109375 2.078125 1.171875 3.1875q1.0625 1.109375 2.640625 1.109375q1.171875 0 2.0 -0.625q0.84375 -0.625 1.328125 -1.96875zm-7.03125 -3.46875l7.0625 0q-0.140625 -1.59375 -0.8125 -2.390625q-1.03125 -1.234375 -2.65625 -1.234375q-1.46875 0 -2.484375 0.984375q-1.0 0.984375 -1.109375 2.640625zm16.610046 5.609375l0.3125 1.890625q-0.90625 0.203125 -1.625 0.203125q-1.15625 0 -1.8125 -0.375q-0.640625 -0.375 -0.90625 -0.96875q-0.25 -0.59375 -0.25 -2.53125l0 -7.265625l-1.578125 0l0 -1.65625l1.578125 0l0 -3.140625l2.125 -1.28125l0 4.421875l2.15625 0l0 1.65625l-2.15625 0l0 7.390625q0 0.90625 0.109375 1.171875q0.125 0.265625 0.375 0.421875q0.25 0.15625 0.734375 0.15625q0.359375 0 0.9375 -0.09375z" fill-rule="nonzero"/><path fill="#000000" fill-opacity="0.0" d="m206.16185 278.55847l113.92082 0l0 57.474335l-113.92082 0z" fill-rule="evenodd"/><path fill="#000000" d="m220.03685 313.94907l0 -17.4375l6.578125 0q1.734375 0 2.65625 0.171875q1.28125 0.203125 2.140625 0.8125q0.875 0.59375 1.40625 1.6875q0.53125 1.078125 0.53125 2.375q0 2.21875 -1.421875 3.765625q-1.40625 1.53125 -5.109375 1.53125l-4.46875 0l0 7.09375l-2.3125 0zm2.3125 -9.140625l4.5 0q2.25 0 3.1875 -0.828125q0.9375 -0.84375 0.9375 -2.359375q0 -1.09375 -0.5625 -1.859375q-0.546875 -0.78125 -1.453125 -1.03125q-0.578125 -0.15625 -2.15625 -0.15625l-4.453125 0l0 6.234375zm21.950638 9.140625l0 -1.859375q-1.484375 2.140625 -4.015625 2.140625q-1.125 0 -2.09375 -0.421875q-0.96875 -0.4375 -1.4375 -1.078125q-0.46875 -0.65625 -0.65625 -1.59375q-0.125 -0.625 -0.125 -2.0l0 -7.8125l2.140625 0l0 7.0q0 1.671875 0.125 2.265625q0.203125 0.84375 0.859375 1.328125q0.65625 0.46875 1.609375 0.46875q0.96875 0 1.8125 -0.484375q0.84375 -0.5 1.1875 -1.34375q0.359375 -0.859375 0.359375 -2.46875l0 -6.765625l2.140625 0l0 12.625l-1.90625 0zm7.235031 0l-1.984375 0l0 -17.4375l2.140625 0l0 6.21875q1.359375 -1.703125 3.46875 -1.703125q1.1562653 0 2.1875153 0.46875q1.046875 0.46875 1.71875 1.328125q0.671875 0.84375 1.046875 2.046875q0.390625 1.203125 0.390625 2.578125q0 3.234375 -1.609375 5.015625q-1.59375 1.765625 -3.8437653 1.765625q-2.234375 0 -3.515625 -1.859375l0 1.578125zm-0.015625 -6.40625q0 2.265625 0.609375 3.28125q1.015625 1.65625 2.734375 1.65625q1.4062653 0 2.4218903 -1.21875q1.03125 -1.21875 1.03125 -3.640625q0 -2.46875 -0.984375 -3.640625q-0.984375 -1.1875 -2.3750153 -1.1875q-1.390625 0 -2.421875 1.21875q-1.015625 1.21875 -1.015625 3.53125zm11.547531 6.40625l0 -17.4375l2.140625 0l0 17.4375l-2.140625 0zm5.4743958 -14.96875l0 -2.46875l2.140625 0l0 2.46875l-2.140625 0zm0 14.96875l0 -12.625l2.140625 0l0 12.625l-2.140625 0zm13.630615 -4.625l2.109375 0.265625q-0.34375 2.1875 -1.765625 3.421875q-1.421875 1.21875 -3.484375 1.21875q-2.59375 0 -4.171875 -1.6875q-1.578125 -1.703125 -1.578125 -4.859375q0 -2.046875 0.671875 -3.578125q0.6875 -1.53125 2.0625 -2.296875q1.390625 -0.78125 3.015625 -0.78125q2.0625 0 3.359375 1.046875q1.3125 1.046875 1.6875 2.953125l-2.078125 0.328125q-0.296875 -1.28125 -1.0625 -1.921875q-0.75 -0.640625 -1.8125 -0.640625q-1.625 0 -2.640625 1.15625q-1.0 1.15625 -1.0 3.671875q0 2.546875 0.96875 3.703125q0.984375 1.15625 2.546875 1.15625q1.265625 0 2.109375 -0.765625q0.84375 -0.78125 1.0625 -2.390625z" fill-rule="nonzero"/><path fill="#000000" fill-opacity="0.0" d="m41.01837 450.79816l230.58267 0l0 54.204712l-230.58267 0z" fill-rule="evenodd"/><path fill="#000000" d="m74.41278 482.20218l3.90625 1.234375q-0.90625 3.265625 -3.0 4.859375q-2.078125 1.578125 -5.28125 1.578125q-3.96875 0 -6.53125 -2.703125q-2.5625 -2.71875 -2.5625 -7.421875q0 -4.984375 2.5625 -7.734375q2.578125 -2.75 6.765625 -2.75q3.65625 0 5.953125 2.15625q1.359375 1.28125 2.03125 3.671875l-3.984375 0.953125q-0.359375 -1.546875 -1.484375 -2.4375q-1.109375 -0.90625 -2.71875 -0.90625q-2.21875 0 -3.59375 1.59375q-1.375 1.578125 -1.375 5.140625q0 3.78125 1.359375 5.390625q1.359375 1.609375 3.53125 1.609375q1.609375 0 2.765625 -1.015625q1.15625 -1.03125 1.65625 -3.21875zm6.4359894 -0.09375q0 -1.90625 0.9375 -3.6875q0.9375 -1.78125 2.65625 -2.71875q1.734375 -0.9375 3.84375 -0.9375q3.28125 0 5.375 2.125q2.09375 2.125 2.09375 5.375q0 3.28125 -2.125 5.4375q-2.109375 2.15625 -5.3125 2.15625q-1.984375 0 -3.796875 -0.890625q-1.796875 -0.90625 -2.734375 -2.640625q-0.9375 -1.734375 -0.9375 -4.21875zm3.921875 0.203125q0 2.140625 1.015625 3.296875q1.015625 1.140625 2.515625 1.140625q1.5 0 2.515625 -1.140625q1.015625 -1.15625 1.015625 -3.328125q0 -2.125 -1.015625 -3.265625q-1.015625 -1.140625 -2.515625 -1.140625q-1.5 0 -2.515625 1.140625q-1.015625 1.140625 -1.015625 3.296875zm27.101822 7.21875l-3.8125 0l0 -7.375q0 -2.328125 -0.25 -3.015625q-0.234375 -0.6875 -0.796875 -1.0625q-0.546875 -0.390625 -1.3125 -0.390625q-1.0 0 -1.796875 0.546875q-0.78125 0.546875 -1.078125 1.453125q-0.28125 0.890625 -0.28125 3.296875l0 6.546875l-3.828125 0l0 -14.4375l3.546875 0l0 2.125q1.890625 -2.453125 4.765625 -2.453125q1.265625 0 2.3125 0.453125q1.046875 0.453125 1.578125 1.171875q0.53125 0.703125 0.734375 1.609375q0.21875 0.890625 0.21875 2.5625l0 8.96875zm2.211197 -14.4375l2.125 0l0 -1.09375q0 -1.8125 0.375 -2.703125q0.390625 -0.90625 1.421875 -1.46875q1.046875 -0.5625 2.640625 -0.5625q1.640625 0 3.203125 0.484375l-0.515625 2.671875q-0.921875 -0.21875 -1.765625 -0.21875q-0.828125 0 -1.1875 0.390625q-0.359375 0.375 -0.359375 1.484375l0 1.015625l2.859375 0l0 3.0l-2.859375 0l0 11.4375l-3.8125 0l0 -11.4375l-2.125 0l0 -3.0zm10.944061 -1.953125l0 -3.546875l3.8125 0l0 3.546875l-3.8125 0zm0 16.390625l0 -14.4375l3.8125 0l0 14.4375l-3.8125 0zm20.97026 0l-3.546875 0l0 -2.125q-0.875 1.234375 -2.078125 1.84375q-1.203125 0.609375 -2.4375 0.609375q-2.484375 0 -4.265625 -2.0q-1.765625 -2.015625 -1.765625 -5.609375q0 -3.65625 1.71875 -5.5625q1.734375 -1.921875 4.375 -1.921875q2.421875 0 4.1875 2.015625l0 -7.1875l3.8125 0l0 19.9375zm-10.1875 -7.53125q0 2.3125 0.640625 3.34375q0.921875 1.5 2.578125 1.5q1.3125 0 2.234375 -1.125q0.9375 -1.125 0.9375 -3.359375q0 -2.484375 -0.90625 -3.578125q-0.890625 -1.09375 -2.296875 -1.09375q-1.359375 0 -2.28125 1.078125q-0.90625 1.078125 -0.90625 3.234375zm22.320572 2.9375l3.8125 0.640625q-0.734375 2.09375 -2.328125 3.1875q-1.578125 1.09375 -3.953125 1.09375q-3.765625 0 -5.578125 -2.46875q-1.421875 -1.96875 -1.421875 -4.96875q0 -3.59375 1.875 -5.625q1.875 -2.03125 4.734375 -2.03125q3.234375 0 5.09375 2.125q1.859375 2.125 1.78125 6.515625l-9.578125 0q0.046875 1.703125 0.921875 2.65625q0.890625 0.9375 2.203125 0.9375q0.90625 0 1.515625 -0.484375q0.609375 -0.484375 0.921875 -1.578125zm0.21875 -3.859375q-0.046875 -1.65625 -0.859375 -2.515625q-0.8125 -0.875 -1.984375 -0.875q-1.25 0 -2.0625 0.90625q-0.8125 0.921875 -0.796875 2.484375l5.703125 0zm20.032242 8.453125l-3.8125 0l0 -7.375q0 -2.328125 -0.25 -3.015625q-0.234375 -0.6875 -0.796875 -1.0625q-0.546875 -0.390625 -1.3125 -0.390625q-1.0 0 -1.796875 0.546875q-0.78125 0.546875 -1.078125 1.453125q-0.28125 0.890625 -0.28125 3.296875l0 6.546875l-3.828125 0l0 -14.4375l3.546875 0l0 2.125q1.890625 -2.453125 4.765625 -2.453125q1.265625 0 2.3125 0.453125q1.046875 0.453125 1.578125 1.171875q0.53125 0.703125 0.734375 1.609375q0.21875 0.890625 0.21875 2.5625l0 8.96875zm10.508072 -14.4375l0 3.046875l-2.609375 0l0 5.8125q0 1.765625 0.0625 2.0625q0.078125 0.296875 0.34375 0.484375q0.265625 0.1875 0.640625 0.1875q0.53125 0 1.546875 -0.359375l0.328125 2.953125q-1.34375 0.578125 -3.015625 0.578125q-1.046875 0 -1.875 -0.34375q-0.828125 -0.34375 -1.21875 -0.890625q-0.375 -0.5625 -0.53125 -1.5q-0.125 -0.671875 -0.125 -2.6875l0 -6.296875l-1.75 0l0 -3.046875l1.75 0l0 -2.875l3.84375 -2.21875l0 5.09375l2.609375 0zm2.6471863 -1.953125l0 -3.546875l3.8125 0l0 3.546875l-3.8125 0zm0 16.390625l0 -14.4375l3.8125 0l0 14.4375l-3.8125 0zm10.595261 -10.03125l-3.46875 -0.625q0.578125 -2.09375 2.0 -3.09375q1.4375 -1.015625 4.25 -1.015625q2.5625 0 3.8125 0.609375q1.25 0.59375 1.75 1.53125q0.515625 0.9375 0.515625 3.421875l-0.046875 4.453125q0 1.90625 0.1875 2.8125q0.1875 0.90625 0.6875 1.9375l-3.78125 0q-0.140625 -0.375 -0.359375 -1.125q-0.09375 -0.34375 -0.140625 -0.453125q-0.984375 0.953125 -2.09375 1.4375q-1.109375 0.46875 -2.375 0.46875q-2.234375 0 -3.515625 -1.203125q-1.28125 -1.21875 -1.28125 -3.0625q0 -1.234375 0.578125 -2.1875q0.578125 -0.953125 1.625 -1.46875q1.0625 -0.515625 3.046875 -0.890625q2.6875 -0.5 3.71875 -0.9375l0 -0.375q0 -1.109375 -0.546875 -1.578125q-0.546875 -0.46875 -2.046875 -0.46875q-1.03125 0 -1.609375 0.40625q-0.5625 0.390625 -0.90625 1.40625zm5.109375 3.09375q-0.734375 0.25 -2.328125 0.59375q-1.59375 0.328125 -2.078125 0.65625q-0.75 0.53125 -0.75 1.34375q0 0.8125 0.59375 1.40625q0.609375 0.578125 1.53125 0.578125q1.03125 0 1.96875 -0.6875q0.6875 -0.515625 0.90625 -1.265625q0.15625 -0.484375 0.15625 -1.859375l0 -0.765625zm7.516617 6.9375l0 -19.9375l3.8125 0l0 19.9375l-3.8125 0zm7.7358856 -16.390625l0 -3.546875l3.8125 0l0 3.546875l-3.8125 0zm0 16.390625l0 -14.4375l3.8125 0l0 14.4375l-3.8125 0zm14.360886 -14.4375l0 3.046875l-2.609375 0l0 5.8125q0 1.765625 0.0625 2.0625q0.078125 0.296875 0.34375 0.484375q0.265625 0.1875 0.640625 0.1875q0.53125 0 1.546875 -0.359375l0.328125 2.953125q-1.34375 0.578125 -3.015625 0.578125q-1.046875 0 -1.875 -0.34375q-0.828125 -0.34375 -1.21875 -0.890625q-0.375 -0.5625 -0.53125 -1.5q-0.125 -0.671875 -0.125 -2.6875l0 -6.296875l-1.75 0l0 -3.046875l1.75 0l0 -2.875l3.84375 -2.21875l0 5.09375l2.609375 0zm0.8346863 0l4.0625 0l3.453125 10.25l3.375 -10.25l3.953125 0l-5.09375 13.890625l-0.90625 2.515625q-0.5 1.265625 -0.96875 1.921875q-0.453125 0.671875 -1.046875 1.078125q-0.578125 0.421875 -1.453125 0.65625q-0.859375 0.234375 -1.953125 0.234375q-1.09375 0 -2.15625 -0.234375l-0.34375 -2.984375q0.90625 0.171875 1.625 0.171875q1.328125 0 1.96875 -0.78125q0.640625 -0.78125 0.984375 -1.984375l-5.5 -14.484375z" fill-rule="nonzero"/><path fill="#000000" fill-opacity="0.0" d="m428.53503 169.90265l127.40552 0l0 57.474304l-127.40552 0z" fill-rule="evenodd"/><path fill="#fff2cc" d="m425.08246 169.90169l134.31226 0l0 57.474304l-134.31226 0z" fill-rule="evenodd"/><path stroke="#595959" stroke-width="2.8713910761154855" stroke-linejoin="round" stroke-linecap="butt" d="m425.08246 169.90169l134.31226 0l0 57.474304l-134.31226 0z" fill-rule="evenodd"/><path fill="#000000" d="m463.1812 211.18755l0 -24.640625l3.265625 0l0 21.734375l12.140625 0l0 2.90625l-15.40625 0zm17.76883 -8.921875q0 -4.96875 2.765625 -7.34375q2.296875 -1.984375 5.609375 -1.984375q3.671875 0 6.0 2.421875q2.34375 2.40625 2.34375 6.65625q0 3.4375 -1.03125 5.421875q-1.03125 1.96875 -3.015625 3.0625q-1.96875 1.09375 -4.296875 1.09375q-3.75 0 -6.0625 -2.40625q-2.3125 -2.40625 -2.3125 -6.921875zm3.109375 0q0 3.421875 1.5 5.140625q1.5 1.703125 3.765625 1.703125q2.25 0 3.734375 -1.71875q1.5 -1.71875 1.5 -5.234375q0 -3.3125 -1.5 -5.015625q-1.5 -1.703125 -3.734375 -1.703125q-2.265625 0 -3.765625 1.703125q-1.5 1.6875 -1.5 5.125zm20.456299 8.921875l-5.46875 -17.84375l3.140625 0l2.828125 10.296875l1.0625 3.828125q0.0625 -0.28125 0.921875 -3.671875l2.84375 -10.453125l3.1094055 0l2.671875 10.34375l0.890625 3.421875l1.03125 -3.453125l3.046875 -10.3125l2.953125 0l-5.578125 17.84375l-3.15625 0l-2.8281555 -10.6875l-0.6875 -3.046875l-3.625 13.734375l-3.15625 0z" fill-rule="nonzero"/><path fill="#000000" fill-opacity="0.0" d="m444.61905 32.83702l95.25607 0l0 75.07017l-95.25607 0z" fill-rule="evenodd"/><path fill="#000000" d="m491.41898 80.25379l0 -16.09375l-8.53125 0l0 -1.484375l18.71875 0l0 1.484375l-8.703125 0l0 16.09375l-1.484375 0z" fill-rule="nonzero"/><path fill="#000000" fill-opacity="0.0" d="m444.61905 388.5211l95.25607 0l0 66.97113l-95.25607 0z" fill-rule="evenodd"/><path fill="#000000" d="m506.04398 424.4764l0 3.28125l-27.921875 0l0 -3.28125l12.3125 0l0 -25.296875l3.296875 0l0 25.296875l12.3125 0z" fill-rule="nonzero"/><path fill="#f4cccc" d="m425.08246 276.8198l134.31226 0l0 57.474304l-134.31226 0z" fill-rule="evenodd"/><path stroke="#595959" stroke-width="2.8713910761154855" stroke-linejoin="round" stroke-linecap="butt" d="m425.08246 276.8198l134.31226 0l0 57.474304l-134.31226 0z" fill-rule="evenodd"/><path fill="#000000" d="m459.59186 318.10565l0 -24.640625l3.265625 0l0 10.125l12.8125 0l0 -10.125l3.25 0l0 24.640625l-3.25 0l0 -11.609375l-12.8125 0l0 11.609375l-3.265625 0zm24.389648 -21.15625l0 -3.484375l3.03125 0l0 3.484375l-3.03125 0zm0 21.15625l0 -17.84375l3.03125 0l0 17.84375l-3.03125 0zm7.0849304 1.484375l2.9375 0.4375q0.1875 1.359375 1.03125 1.984375q1.125 0.828125 3.0625 0.828125q2.109375 0 3.25 -0.84375q1.140625 -0.828125 1.546875 -2.34375q0.234375 -0.921875 0.21875 -3.890625q-1.984375 2.34375 -4.9375 2.34375q-3.6875 0 -5.703125 -2.65625q-2.015625 -2.65625 -2.015625 -6.375q0 -2.546875 0.921875 -4.703125q0.921875 -2.171875 2.671875 -3.34375q1.765625 -1.171875 4.140625 -1.171875q3.15625 0 5.203125 2.546875l0 -2.140625l2.796875 0l0 15.421875q0 4.171875 -0.859375 5.90625q-0.84375 1.75 -2.6875 2.75q-1.828125 1.015625 -4.515625 1.015625q-3.203125 0 -5.171875 -1.4375q-1.96875 -1.4375 -1.890625 -4.328125zm2.5 -10.734375q0 3.515625 1.390625 5.140625q1.40625 1.609375 3.5 1.609375q2.078125 0 3.484375 -1.609375q1.421875 -1.609375 1.421875 -5.03125q0 -3.28125 -1.453125 -4.9375q-1.453125 -1.671875 -3.5 -1.671875q-2.015625 0 -3.4375 1.640625q-1.40625 1.640625 -1.40625 4.859375zm17.190704 9.25l0 -24.640625l3.03125 0l0 8.84375q2.109375 -2.453125 5.34375 -2.453125q1.984375 0 3.4375 0.78125q1.46875 0.78125 2.09375 2.15625q0.640625 1.375 0.640625 4.0l0 11.3125l-3.03125 0l0 -11.3125q0 -2.265625 -0.984375 -3.296875q-0.984375 -1.03125 -2.78125 -1.03125q-1.34375 0 -2.53125 0.703125q-1.1875 0.6875 -1.6875 1.890625q-0.5 1.1875 -0.5 3.28125l0 9.765625l-3.03125 0z" fill-rule="nonzero"/><path fill="#000000" fill-opacity="0.0" d="m492.2471 388.5211l0 -54.2265" fill-rule="evenodd"/><path stroke="#595959" stroke-width="2.8713910761154855" stroke-linejoin="round" stroke-linecap="butt" d="m492.2471 388.5211l0 -44.385986" fill-rule="evenodd"/><path fill="#595959" stroke="#595959" stroke-width="2.8713910761154855" stroke-linecap="butt" d="m492.2471 344.1351l3.2290955 3.229126l-3.2290955 -8.871948l-3.229126 8.871948z" fill-rule="evenodd"/><path fill="#000000" fill-opacity="0.0" d="m492.2386 276.8198l0 -49.457504" fill-rule="evenodd"/><path stroke="#595959" stroke-width="2.8713910761154855" stroke-linejoin="round" stroke-linecap="butt" d="m492.2386 276.8198l0 -39.617004" fill-rule="evenodd"/><path fill="#595959" stroke="#595959" stroke-width="2.8713910761154855" stroke-linecap="butt" d="m492.2386 237.20279l3.229126 3.229126l-3.229126 -8.871933l-3.2290955 8.871933z" fill-rule="evenodd"/><path fill="#000000" fill-opacity="0.0" d="m492.2378 169.90265l0 -61.996613" fill-rule="evenodd"/><path stroke="#595959" stroke-width="2.8713910761154855" stroke-linejoin="round" stroke-linecap="butt" d="m492.2378 169.90263l0 -52.15609" fill-rule="evenodd"/><path fill="#595959" stroke="#595959" stroke-width="2.8713910761154855" stroke-linecap="butt" d="m492.2378 117.746544l3.2290955 3.2291183l-3.2290955 -8.871933l-3.229126 8.871933z" fill-rule="evenodd"/><path fill="#000000" fill-opacity="0.0" d="m567.4354 168.151l148.0025 0l0 57.47432l-148.0025 0z" fill-rule="evenodd"/><path fill="#000000" d="m592.76355 186.1041l2.296875 0l0 10.078125q0 2.625 -0.59375 4.171875q-0.59375 1.546875 -2.15625 2.515625q-1.546875 0.96875 -4.0625 0.96875q-2.453125 0 -4.015625 -0.84375q-1.546875 -0.84375 -2.21875 -2.4375q-0.65625 -1.609375 -0.65625 -4.375l0 -10.078125l2.296875 0l0 10.0625q0 2.265625 0.421875 3.34375q0.421875 1.078125 1.453125 1.671875q1.03125 0.578125 2.515625 0.578125q2.546875 0 3.625 -1.15625q1.09375 -1.15625 1.09375 -4.4375l0 -10.0625zm5.8728027 17.4375l0 -12.625l1.921875 0l0 1.796875q1.390625 -2.09375 4.015625 -2.09375q1.140625 0 2.09375 0.421875q0.96875 0.40625 1.4375 1.078125q0.484375 0.65625 0.671875 1.578125q0.125 0.59375 0.125 2.078125l0 7.765625l-2.140625 0l0 -7.6875q0 -1.296875 -0.25 -1.9375q-0.25 -0.65625 -0.890625 -1.046875q-0.640625 -0.390625 -1.5 -0.390625q-1.359375 0 -2.359375 0.875q-0.984375 0.859375 -0.984375 3.28125l0 6.90625l-2.140625 0zm18.219421 -1.921875l0.3125 1.890625q-0.90625 0.203125 -1.625 0.203125q-1.15625 0 -1.8125 -0.375q-0.640625 -0.375 -0.90625 -0.96875q-0.25 -0.59375 -0.25 -2.53125l0 -7.265625l-1.578125 0l0 -1.65625l1.578125 0l0 -3.140625l2.125 -1.28125l0 4.421875l2.15625 0l0 1.65625l-2.15625 0l0 7.390625q0 0.90625 0.109375 1.171875q0.125 0.265625 0.375 0.421875q0.25 0.15625 0.734375 0.15625q0.359375 0 0.9375 -0.09375zm2.0646973 1.921875l0 -12.625l1.9375 0l0 1.90625q0.734375 -1.34375 1.359375 -1.765625q0.625 -0.4375 1.375 -0.4375q1.078125 0 2.1875 0.6875l-0.734375 2.0q-0.78125 -0.46875 -1.5625 -0.46875q-0.703125 0 -1.265625 0.421875q-0.5625 0.421875 -0.796875 1.171875q-0.359375 1.140625 -0.359375 2.5l0 6.609375l-2.140625 0zm16.424377 0l0 -1.859375q-1.484375 2.140625 -4.015625 2.140625q-1.125 0 -2.09375 -0.421875q-0.96875 -0.4375 -1.4375 -1.078125q-0.46875 -0.65625 -0.65625 -1.59375q-0.125 -0.625 -0.125 -2.0l0 -7.8125l2.140625 0l0 7.0q0 1.671875 0.125 2.265625q0.203125 0.84375 0.859375 1.328125q0.65625 0.46875 1.609375 0.46875q0.96875 0 1.8125 -0.484375q0.84375 -0.5 1.1875 -1.34375q0.359375 -0.859375 0.359375 -2.46875l0 -6.765625l2.140625 0l0 12.625l-1.90625 0zm4.4069214 -3.765625l2.109375 -0.34375q0.1875 1.28125 1.0 1.96875q0.8125 0.671875 2.28125 0.671875q1.46875 0 2.1875 -0.59375q0.71875 -0.609375 0.71875 -1.421875q0 -0.71875 -0.640625 -1.140625q-0.4375 -0.28125 -2.1875 -0.734375q-2.359375 -0.59375 -3.265625 -1.015625q-0.90625 -0.4375 -1.375 -1.203125q-0.46875 -0.765625 -0.46875 -1.703125q0 -0.84375 0.375 -1.5625q0.390625 -0.71875 1.0625 -1.1875q0.5 -0.375 1.359375 -0.625q0.859375 -0.265625 1.84375 -0.265625q1.5 0 2.609375 0.4375q1.125 0.421875 1.65625 1.15625q0.546875 0.734375 0.75 1.953125l-2.09375 0.28125q-0.140625 -0.96875 -0.828125 -1.515625q-0.6875 -0.546875 -1.9375 -0.546875q-1.46875 0 -2.109375 0.484375q-0.625 0.484375 -0.625 1.140625q0 0.421875 0.265625 0.75q0.265625 0.34375 0.828125 0.578125q0.3125 0.109375 1.890625 0.546875q2.265625 0.609375 3.15625 1.0q0.90625 0.375 1.40625 1.109375q0.515625 0.734375 0.515625 1.828125q0 1.078125 -0.625 2.03125q-0.625 0.9375 -1.796875 1.453125q-1.171875 0.515625 -2.65625 0.515625q-2.46875 0 -3.765625 -1.015625q-1.28125 -1.03125 -1.640625 -3.03125zm17.710938 1.84375l0.3125 1.890625q-0.90625 0.203125 -1.625 0.203125q-1.15625 0 -1.8125 -0.375q-0.640625 -0.375 -0.90625 -0.96875q-0.25 -0.59375 -0.25 -2.53125l0 -7.265625l-1.578125 0l0 -1.65625l1.578125 0l0 -3.140625l2.125 -1.28125l0 4.421875l2.15625 0l0 1.65625l-2.15625 0l0 7.390625q0 0.90625 0.109375 1.171875q0.125 0.265625 0.375 0.421875q0.25 0.15625 0.734375 0.15625q0.359375 0 0.9375 -0.09375zm10.736572 -2.140625l2.21875 0.265625q-0.53125 1.9375 -1.953125 3.015625q-1.40625 1.0625 -3.609375 1.0625q-2.765625 0 -4.390625 -1.703125q-1.625 -1.703125 -1.625 -4.78125q0 -3.1875 1.640625 -4.953125q1.640625 -1.765625 4.265625 -1.765625q2.53125 0 4.125 1.734375q1.609375 1.71875 1.609375 4.84375q0 0.1875 0 0.578125l-9.421875 0q0.109375 2.078125 1.171875 3.1875q1.0625 1.109375 2.640625 1.109375q1.171875 0 2.0 -0.625q0.84375 -0.625 1.328125 -1.96875zm-7.03125 -3.46875l7.0625 0q-0.140625 -1.59375 -0.8125 -2.390625q-1.03125 -1.234375 -2.65625 -1.234375q-1.46875 0 -2.484375 0.984375q-1.0 0.984375 -1.109375 2.640625zm20.12561 7.53125l0 -1.59375q-1.203125 1.875 -3.53125 1.875q-1.515625 0 -2.78125 -0.828125q-1.265625 -0.828125 -1.96875 -2.3125q-0.6875 -1.5 -0.6875 -3.4375q0 -1.890625 0.625 -3.4375q0.640625 -1.546875 1.890625 -2.359375q1.265625 -0.828125 2.828125 -0.828125q1.140625 0 2.03125 0.484375q0.890625 0.484375 1.453125 1.25l0 -6.25l2.125 0l0 17.4375l-1.984375 0zm-6.765625 -6.296875q0 2.421875 1.015625 3.625q1.03125 1.203125 2.421875 1.203125q1.40625 0 2.390625 -1.140625q0.984375 -1.15625 0.984375 -3.515625q0 -2.59375 -1.0 -3.796875q-1.0 -1.21875 -2.46875 -1.21875q-1.421875 0 -2.390625 1.171875q-0.953125 1.15625 -0.953125 3.671875z" fill-rule="nonzero"/><path fill="#000000" fill-opacity="0.0" d="m567.4354 278.55847l113.92084 0l0 57.474335l-113.92084 0z" fill-rule="evenodd"/><path fill="#000000" d="m585.7479 313.94907l0 -15.375l-5.734375 0l0 -2.0625l13.8125 0l0 2.0625l-5.765625 0l0 15.375l-2.3125 0zm9.24115 0l0 -12.625l1.9375 0l0 1.90625q0.734375 -1.34375 1.359375 -1.765625q0.625 -0.4375 1.375 -0.4375q1.078125 0 2.1875 0.6875l-0.734375 2.0q-0.78125 -0.46875 -1.5625 -0.46875q-0.703125 0 -1.265625 0.421875q-0.5625 0.421875 -0.796875 1.171875q-0.359375 1.140625 -0.359375 2.5l0 6.609375l-2.140625 0zm16.424377 0l0 -1.859375q-1.484375 2.140625 -4.015625 2.140625q-1.125 0 -2.09375 -0.421875q-0.96875 -0.4375 -1.4375 -1.078125q-0.46875 -0.65625 -0.65625 -1.59375q-0.125 -0.625 -0.125 -2.0l0 -7.8125l2.140625 0l0 7.0q0 1.671875 0.125 2.265625q0.203125 0.84375 0.859375 1.328125q0.65625 0.46875 1.609375 0.46875q0.96875 0 1.8125 -0.484375q0.84375 -0.5 1.1875 -1.34375q0.359375 -0.859375 0.359375 -2.46875l0 -6.765625l2.140625 0l0 12.625l-1.90625 0zm4.4068604 -3.765625l2.109375 -0.34375q0.1875 1.28125 1.0 1.96875q0.8125 0.671875 2.28125 0.671875q1.46875 0 2.1875 -0.59375q0.71875 -0.609375 0.71875 -1.421875q0 -0.71875 -0.640625 -1.140625q-0.4375 -0.28125 -2.1875 -0.734375q-2.359375 -0.59375 -3.265625 -1.015625q-0.90625 -0.4375 -1.375 -1.203125q-0.46875 -0.765625 -0.46875 -1.703125q0 -0.84375 0.375 -1.5625q0.390625 -0.71875 1.0625 -1.1875q0.5 -0.375 1.359375 -0.625q0.859375 -0.265625 1.84375 -0.265625q1.5 0 2.609375 0.4375q1.125 0.421875 1.65625 1.15625q0.546875 0.734375 0.75 1.953125l-2.09375 0.28125q-0.140625 -0.96875 -0.828125 -1.515625q-0.6875 -0.546875 -1.9375 -0.546875q-1.46875 0 -2.109375 0.484375q-0.625 0.484375 -0.625 1.140625q0 0.421875 0.265625 0.75q0.265625 0.34375 0.828125 0.578125q0.3125 0.109375 1.890625 0.546875q2.265625 0.609375 3.15625 1.0q0.90625 0.375 1.40625 1.109375q0.515625 0.734375 0.515625 1.828125q0 1.078125 -0.625 2.03125q-0.625 0.9375 -1.796875 1.453125q-1.171875 0.515625 -2.65625 0.515625q-2.46875 0 -3.765625 -1.015625q-1.28125 -1.03125 -1.640625 -3.03125zm17.710938 1.84375l0.3125 1.890625q-0.90625 0.203125 -1.625 0.203125q-1.15625 0 -1.8125 -0.375q-0.640625 -0.375 -0.90625 -0.96875q-0.25 -0.59375 -0.25 -2.53125l0 -7.265625l-1.578125 0l0 -1.65625l1.578125 0l0 -3.140625l2.125 -1.28125l0 4.421875l2.15625 0l0 1.65625l-2.15625 0l0 7.390625q0 0.90625 0.109375 1.171875q0.125 0.265625 0.375 0.421875q0.25 0.15625 0.734375 0.15625q0.359375 0 0.9375 -0.09375zm10.736572 -2.140625l2.21875 0.265625q-0.53125 1.9375 -1.953125 3.015625q-1.40625 1.0625 -3.609375 1.0625q-2.765625 0 -4.390625 -1.703125q-1.625 -1.703125 -1.625 -4.78125q0 -3.1875 1.640625 -4.953125q1.640625 -1.765625 4.265625 -1.765625q2.53125 0 4.125 1.734375q1.609375 1.71875 1.609375 4.84375q0 0.1875 0 0.578125l-9.421875 0q0.109375 2.078125 1.171875 3.1875q1.0625 1.109375 2.640625 1.109375q1.171875 0 2.0 -0.625q0.84375 -0.625 1.328125 -1.96875zm-7.03125 -3.46875l7.0625 0q-0.140625 -1.59375 -0.8125 -2.390625q-1.03125 -1.234375 -2.65625 -1.234375q-1.46875 0 -2.484375 0.984375q-1.0 0.984375 -1.109375 2.640625zm20.125671 7.53125l0 -1.59375q-1.203125 1.875 -3.53125 1.875q-1.515625 0 -2.78125 -0.828125q-1.265625 -0.828125 -1.96875 -2.3125q-0.6875 -1.5 -0.6875 -3.4375q0 -1.890625 0.625 -3.4375q0.640625 -1.546875 1.890625 -2.359375q1.265625 -0.828125 2.828125 -0.828125q1.140625 0 2.03125 0.484375q0.890625 0.484375 1.453125 1.25l0 -6.25l2.125 0l0 17.4375l-1.984375 0zm-6.765625 -6.296875q0 2.421875 1.015625 3.625q1.03125 1.203125 2.421875 1.203125q1.40625 0 2.390625 -1.140625q0.984375 -1.15625 0.984375 -3.515625q0 -2.59375 -1.0 -3.796875q-1.0 -1.21875 -2.46875 -1.21875q-1.421875 0 -2.390625 1.171875q-0.953125 1.15625 -0.953125 3.671875z" fill-rule="nonzero"/><path fill="#000000" fill-opacity="0.0" d="m435.08008 450.79816l218.70868 0l0 54.204712l-218.70868 0z" fill-rule="evenodd"/><path fill="#000000" d="m491.42133 489.5303l0 -19.9375l4.015625 0l0 19.9375l-4.015625 0zm20.95465 0l-3.8125305 0l0 -7.375q0 -2.328125 -0.25 -3.015625q-0.234375 -0.6875 -0.796875 -1.0625q-0.546875 -0.390625 -1.3125 -0.390625q-1.0 0 -1.796875 0.546875q-0.78125 0.546875 -1.078125 1.453125q-0.28125 0.890625 -0.28125 3.296875l0 6.546875l-3.828125 0l0 -14.4375l3.546875 0l0 2.125q1.890625 -2.453125 4.765625 -2.453125q1.265625 0 2.3125 0.453125q1.046875 0.453125 1.578125 1.171875q0.53125 0.703125 0.7344055 1.609375q0.21875 0.890625 0.21875 2.5625l0 8.96875zm10.508057 -14.4375l0 3.046875l-2.609375 0l0 5.8125q0 1.765625 0.0625 2.0625q0.078125 0.296875 0.34375 0.484375q0.265625 0.1875 0.640625 0.1875q0.53125 0 1.546875 -0.359375l0.328125 2.953125q-1.34375 0.578125 -3.015625 0.578125q-1.046875 0 -1.875 -0.34375q-0.828125 -0.34375 -1.21875 -0.890625q-0.375 -0.5625 -0.53125 -1.5q-0.125 -0.671875 -0.125 -2.6875l0 -6.296875l-1.75 0l0 -3.046875l1.75 0l0 -2.875l3.84375 -2.21875l0 5.09375l2.609375 0zm11.006531 9.84375l3.8125 0.640625q-0.734375 2.09375 -2.328125 3.1875q-1.578125 1.09375 -3.953125 1.09375q-3.765625 0 -5.578125 -2.46875q-1.421875 -1.96875 -1.421875 -4.96875q0 -3.59375 1.875 -5.625q1.875 -2.03125 4.734375 -2.03125q3.234375 0 5.09375 2.125q1.859375 2.125 1.78125 6.515625l-9.578125 0q0.046875 1.703125 0.921875 2.65625q0.890625 0.9375 2.203125 0.9375q0.90625 0 1.515625 -0.484375q0.609375 -0.484375 0.921875 -1.578125zm0.21875 -3.859375q-0.046875 -1.65625 -0.859375 -2.515625q-0.8125 -0.875 -1.984375 -0.875q-1.25 0 -2.0625 0.90625q-0.8125 0.921875 -0.796875 2.484375l5.703125 0zm6.5479126 9.40625l4.375 0.53125q0.109375 0.765625 0.5 1.046875q0.546875 0.40625 1.703125 0.40625q1.5 0 2.25 -0.453125q0.5 -0.296875 0.765625 -0.96875q0.171875 -0.46875 0.171875 -1.75l0 -2.109375q-1.71875 2.34375 -4.328125 2.34375q-2.90625 0 -4.609375 -2.453125q-1.328125 -1.953125 -1.328125 -4.84375q0 -3.640625 1.75 -5.546875q1.75 -1.921875 4.34375 -1.921875q2.671875 0 4.421875 2.359375l0 -2.03125l3.578125 0l0 12.953125q0 2.5625 -0.421875 3.828125q-0.421875 1.265625 -1.1875 1.984375q-0.765625 0.71875 -2.046875 1.125q-1.265625 0.40625 -3.203125 0.40625q-3.671875 0 -5.21875 -1.265625q-1.53125 -1.25 -1.53125 -3.1875q0 -0.1875 0.015625 -0.453125zm3.421875 -8.46875q0 2.296875 0.890625 3.359375q0.890625 1.0625 2.1875 1.0625q1.40625 0 2.359375 -1.09375q0.96875 -1.09375 0.96875 -3.234375q0 -2.25 -0.921875 -3.328125q-0.921875 -1.09375 -2.328125 -1.09375q-1.375 0 -2.265625 1.078125q-0.890625 1.0625 -0.890625 3.25zm17.601807 7.515625l-3.828125 0l0 -14.4375l3.5625 0l0 2.046875q0.90625 -1.453125 1.625 -1.90625q0.734375 -0.46875 1.65625 -0.46875q1.3125 0 2.515625 0.71875l-1.1875 3.328125q-0.953125 -0.625 -1.78125 -0.625q-0.8125 0 -1.375 0.453125q-0.546875 0.4375 -0.875 1.59375q-0.3125 1.15625 -0.3125 4.84375l0 4.453125zm7.1794434 -16.390625l0 -3.546875l3.8125 0l0 3.546875l-3.8125 0zm0 16.390625l0 -14.4375l3.8125 0l0 14.4375l-3.8125 0zm14.36084 -14.4375l0 3.046875l-2.609375 0l0 5.8125q0 1.765625 0.0625 2.0625q0.078125 0.296875 0.34375 0.484375q0.265625 0.1875 0.640625 0.1875q0.53125 0 1.546875 -0.359375l0.328125 2.953125q-1.34375 0.578125 -3.015625 0.578125q-1.046875 0 -1.875 -0.34375q-0.828125 -0.34375 -1.21875 -0.890625q-0.375 -0.5625 -0.53125 -1.5q-0.125 -0.671875 -0.125 -2.6875l0 -6.296875l-1.75 0l0 -3.046875l1.75 0l0 -2.875l3.84375 -2.21875l0 5.09375l2.609375 0zm0.8347168 0l4.0625 0l3.453125 10.25l3.375 -10.25l3.953125 0l-5.09375 13.890625l-0.90625 2.515625q-0.5 1.265625 -0.96875 1.921875q-0.453125 0.671875 -1.046875 1.078125q-0.578125 0.421875 -1.453125 0.65625q-0.859375 0.234375 -1.953125 0.234375q-1.09375 0 -2.15625 -0.234375l-0.34375 -2.984375q0.90625 0.171875 1.625 0.171875q1.328125 0 1.96875 -0.78125q0.640625 -0.78125 0.984375 -1.984375l-5.5 -14.484375z" fill-rule="nonzero"/><path fill="#000000" fill-opacity="0.0" d="m358.80493 27.493439l0 482.11023" fill-rule="evenodd"/><path stroke="#000000" stroke-width="1.3070866141732282" stroke-linejoin="round" stroke-linecap="butt" d="m358.80493 27.493439l0 482.11023" fill-rule="evenodd"/></g></svg>