<svg version="1.1" viewBox="0.0 0.0 764.0629921259842 573.4383202099738" fill="none" stroke="none" stroke-linecap="square" stroke-miterlimit="10" xmlns:xlink="http://www.w3.org/1999/xlink" xmlns="http://www.w3.org/2000/svg"><clipPath id="p.0"><path d="m0 0l764.063 0l0 573.4383l-764.063 0l0 -573.4383z" clip-rule="nonzero"/></clipPath><g clip-path="url(#p.0)"><path fill="#000000" fill-opacity="0.0" d="m0 0l764.063 0l0 573.4383l-764.063 0z" fill-rule="evenodd"/><path fill="#fff2cc" d="m482.01047 428.4229l216.25784 0l0 110.70465l-216.25784 0z" fill-rule="evenodd"/><path stroke="#595959" stroke-width="3.204724409448819" stroke-linejoin="round" stroke-linecap="butt" d="m482.01047 428.4229l216.25784 0l0 110.70465l-216.25784 0z" fill-rule="evenodd"/><path fill="#000000" d="m517.2956 468.73236l4.046875 0l0 17.671875q0 4.609375 -1.046875 7.328125q-1.03125 2.71875 -3.765625 4.421875q-2.71875 1.6875 -7.140625 1.6875q-4.296875 0 -7.03125 -1.46875q-2.734375 -1.484375 -3.90625 -4.296875q-1.171875 -2.8125 -1.171875 -7.671875l0 -17.671875l4.046875 0l0 17.65625q0 3.984375 0.734375 5.875q0.75 1.890625 2.546875 2.921875q1.8125 1.015625 4.421875 1.015625q4.46875 0 6.359375 -2.03125q1.90625 -2.03125 1.90625 -7.78125l0 -17.65625zm8.810181 23.984375l3.71875 -0.59375q0.3125 2.234375 1.734375 3.421875q1.4375 1.1875 4.0 1.1875q2.59375 0 3.84375 -1.046875q1.25 -1.0625 1.25 -2.46875q0 -1.28125 -1.09375 -2.015625q-0.78125 -0.5 -3.84375 -1.265625q-4.140625 -1.046875 -5.734375 -1.796875q-1.59375 -0.765625 -2.421875 -2.109375q-0.828125 -1.359375 -0.828125 -2.984375q0 -1.484375 0.671875 -2.75q0.6875 -1.265625 1.859375 -2.09375q0.875 -0.640625 2.390625 -1.09375q1.515625 -0.453125 3.25 -0.453125q2.609375 0 4.578125 0.75q1.96875 0.75 2.90625 2.046875q0.9375 1.28125 1.296875 3.421875l-3.671875 0.5q-0.25 -1.703125 -1.453125 -2.65625q-1.203125 -0.96875 -3.390625 -0.96875q-2.59375 0 -3.703125 0.859375q-1.09375 0.84375 -1.09375 2.0q0 0.734375 0.453125 1.3125q0.453125 0.609375 1.4375 1.0q0.5625 0.21875 3.328125 0.96875q3.984375 1.0625 5.5625 1.75q1.578125 0.671875 2.46875 1.96875q0.890625 1.28125 0.890625 3.203125q0 1.875 -1.09375 3.546875q-1.09375 1.65625 -3.15625 2.5625q-2.0625 0.90625 -4.671875 0.90625q-4.328125 0 -6.59375 -1.796875q-2.265625 -1.796875 -2.890625 -5.3125zm38.0625 -0.53125l3.875 0.484375q-0.921875 3.40625 -3.40625 5.28125q-2.484375 1.875 -6.34375 1.875q-4.859375 0 -7.71875 -2.984375q-2.84375 -3.0 -2.84375 -8.40625q0 -5.59375 2.875 -8.6875q2.890625 -3.09375 7.484375 -3.09375q4.4375 0 7.25 3.03125q2.828125 3.03125 2.828125 8.515625q0 0.328125 -0.015625 1.0l-16.53125 0q0.203125 3.65625 2.0625 5.59375q1.859375 1.9375 4.640625 1.9375q2.0625 0 3.515625 -1.078125q1.46875 -1.09375 2.328125 -3.46875zm-12.34375 -6.078125l12.375 0q-0.25 -2.796875 -1.421875 -4.1875q-1.78125 -2.171875 -4.65625 -2.171875q-2.578125 0 -4.34375 1.734375q-1.765625 1.734375 -1.953125 4.625zm20.900513 13.21875l0 -22.171875l3.375 0l0 3.359375q1.296875 -2.359375 2.390625 -3.109375q1.09375 -0.75 2.40625 -0.75q1.90625 0 3.875 1.21875l-1.296875 3.484375q-1.375 -0.8125 -2.765625 -0.8125q-1.21875 0 -2.203125 0.75q-0.984375 0.734375 -1.40625 2.046875q-0.625 2.0 -0.625 4.375l0 11.609375l-3.75 0zm26.629028 0l0 -30.59375l10.546875 0q3.5625 0 5.4375 0.4375q2.640625 0.59375 4.5 2.1875q2.421875 2.046875 3.609375 5.234375q1.203125 3.171875 1.203125 7.265625q0 3.484375 -0.8125 6.1875q-0.8125 2.6875 -2.09375 4.453125q-1.265625 1.765625 -2.78125 2.78125q-1.515625 1.0 -3.65625 1.53125q-2.140625 0.515625 -4.90625 0.515625l-11.046875 0zm4.046875 -3.609375l6.53125 0q3.03125 0 4.75 -0.5625q1.734375 -0.5625 2.75 -1.59375q1.4375 -1.4375 2.234375 -3.859375q0.8125 -2.4375 0.8125 -5.90625q0 -4.796875 -1.578125 -7.375q-1.578125 -2.578125 -3.828125 -3.453125q-1.625 -0.625 -5.234375 -0.625l-6.4375 0l0 23.375zm40.81018 0.875q-2.078125 1.78125 -4.015625 2.515625q-1.9375 0.71875 -4.140625 0.71875q-3.65625 0 -5.625 -1.78125q-1.953125 -1.78125 -1.953125 -4.5625q0 -1.625 0.734375 -2.96875q0.75 -1.359375 1.9375 -2.171875q1.203125 -0.8125 2.71875 -1.234375q1.09375 -0.28125 3.328125 -0.5625q4.5625 -0.53125 6.703125 -1.28125q0.015625 -0.78125 0.015625 -0.984375q0 -2.296875 -1.0625 -3.234375q-1.4375 -1.28125 -4.28125 -1.28125q-2.640625 0 -3.90625 0.9375q-1.265625 0.921875 -1.875 3.28125l-3.671875 -0.5q0.5 -2.359375 1.640625 -3.8125q1.15625 -1.453125 3.328125 -2.234375q2.171875 -0.78125 5.03125 -0.78125q2.84375 0 4.609375 0.671875q1.78125 0.671875 2.609375 1.6875q0.84375 1.0 1.171875 2.546875q0.1875 0.96875 0.1875 3.46875l0 5.015625q0 5.234375 0.234375 6.625q0.25 1.390625 0.953125 2.65625l-3.921875 0q-0.578125 -1.171875 -0.75 -2.734375zm-0.3125 -8.390625q-2.046875 0.828125 -6.140625 1.421875q-2.3125 0.328125 -3.28125 0.75q-0.953125 0.421875 -1.484375 1.21875q-0.515625 0.796875 -0.515625 1.78125q0 1.5 1.140625 2.515625q1.140625 1.0 3.328125 1.0q2.171875 0 3.859375 -0.953125q1.703125 -0.953125 2.484375 -2.59375q0.609375 -1.28125 0.609375 -3.765625l0 -1.375zm17.822388 7.765625l0.546875 3.3125q-1.578125 0.34375 -2.84375 0.34375q-2.03125 0 -3.171875 -0.640625q-1.125 -0.65625 -1.59375 -1.703125q-0.453125 -1.0625 -0.453125 -4.4375l0 -12.765625l-2.75 0l0 -2.921875l2.75 0l0 -5.484375l3.75 -2.25l0 7.734375l3.765625 0l0 2.921875l-3.765625 0l0 12.96875q0 1.609375 0.1875 2.078125q0.203125 0.453125 0.640625 0.71875q0.453125 0.265625 1.296875 0.265625q0.625 0 1.640625 -0.140625zm18.142944 0.625q-2.078125 1.78125 -4.015625 2.515625q-1.9375 0.71875 -4.140625 0.71875q-3.65625 0 -5.625 -1.78125q-1.953125 -1.78125 -1.953125 -4.5625q0 -1.625 0.734375 -2.96875q0.75 -1.359375 1.9375 -2.171875q1.203125 -0.8125 2.71875 -1.234375q1.09375 -0.28125 3.328125 -0.5625q4.5625 -0.53125 6.703125 -1.28125q0.015625 -0.78125 0.015625 -0.984375q0 -2.296875 -1.0625 -3.234375q-1.4375 -1.28125 -4.28125 -1.28125q-2.640625 0 -3.90625 0.9375q-1.265625 0.921875 -1.875 3.28125l-3.671875 -0.5q0.5 -2.359375 1.640625 -3.8125q1.15625 -1.453125 3.328125 -2.234375q2.171875 -0.78125 5.03125 -0.78125q2.84375 0 4.609375 0.671875q1.78125 0.671875 2.609375 1.6875q0.84375 1.0 1.171875 2.546875q0.1875 0.96875 0.1875 3.46875l0 5.015625q0 5.234375 0.234375 6.625q0.25 1.390625 0.953125 2.65625l-3.921875 0q-0.578125 -1.171875 -0.75 -2.734375zm-0.3125 -8.390625q-2.046875 0.828125 -6.140625 1.421875q-2.3125 0.328125 -3.28125 0.75q-0.953125 0.421875 -1.484375 1.21875q-0.515625 0.796875 -0.515625 1.78125q0 1.5 1.140625 2.515625q1.140625 1.0 3.328125 1.0q2.171875 0 3.859375 -0.953125q1.703125 -0.953125 2.484375 -2.59375q0.609375 -1.28125 0.609375 -3.765625l0 -1.375z" fill-rule="nonzero"/><path fill="#fff2cc" d="m391.01193 428.41943l66.86722 0l0 64.241l-66.86722 0z" fill-rule="evenodd"/><path stroke="#595959" stroke-width="3.204724409448819" stroke-linejoin="round" stroke-linecap="butt" d="m391.01193 428.41943l66.86722 0l0 64.241l-66.86722 0z" fill-rule="evenodd"/><path fill="#000000" d="m431.5963 446.93884l3.640625 0l0 15.921875q0 4.140625 -0.9375 6.59375q-0.9375 2.4375 -3.390625 3.96875q-2.453125 1.53125 -6.4375 1.53125q-3.875 0 -6.34375 -1.328125q-2.453125 -1.34375 -3.5 -3.859375q-1.046875 -2.53125 -1.046875 -6.90625l0 -15.921875l3.640625 0l0 15.890625q0 3.59375 0.65625 5.296875q0.671875 1.703125 2.296875 2.625q1.625 0.921875 3.984375 0.921875q4.015625 0 5.71875 -1.828125q1.71875 -1.828125 1.71875 -7.015625l0 -15.890625z" fill-rule="nonzero"/><path fill="#d0e0e3" d="m301.65982 277.74808l0 0c0 -30.570251 52.910645 -55.352325 118.17923 -55.352325l0 0c65.268555 0 118.1792 24.782074 118.1792 55.352325l0 0c0 30.57022 -52.910645 55.352295 -118.1792 55.352295l0 0c-65.268585 0 -118.17923 -24.782074 -118.17923 -55.352295z" fill-rule="evenodd"/><path stroke="#595959" stroke-width="3.204724409448819" stroke-linejoin="round" stroke-linecap="butt" d="m301.65982 277.74808l0 0c0 -30.570251 52.910645 -55.352325 118.17923 -55.352325l0 0c65.268555 0 118.1792 24.782074 118.1792 55.352325l0 0c0 30.57022 -52.910645 55.352295 -118.1792 55.352295l0 0c-65.268585 0 -118.17923 -24.782074 -118.17923 -55.352295z" fill-rule="evenodd"/><path fill="#000000" d="m350.48657 283.47083l3.8125 -0.34375q0.28125 2.296875 1.265625 3.78125q1.0 1.46875 3.078125 2.375q2.09375 0.90625 4.703125 0.90625q2.3125 0 4.078125 -0.6875q1.78125 -0.6875 2.640625 -1.890625q0.875 -1.203125 0.875 -2.625q0 -1.4375 -0.84375 -2.5q-0.828125 -1.078125 -2.75 -1.8125q-1.21875 -0.484375 -5.4375 -1.5q-4.21875 -1.015625 -5.90625 -1.90625q-2.203125 -1.140625 -3.28125 -2.84375q-1.0625 -1.703125 -1.0625 -3.8125q0 -2.3125 1.3125 -4.328125q1.3125 -2.015625 3.828125 -3.0625q2.53125 -1.046875 5.625 -1.046875q3.40625 0 6.0 1.09375q2.59375 1.09375 3.984375 3.234375q1.40625 2.125 1.515625 4.8125l-3.875 0.296875q-0.3125 -2.90625 -2.125 -4.375q-1.796875 -1.484375 -5.328125 -1.484375q-3.671875 0 -5.359375 1.34375q-1.671875 1.34375 -1.671875 3.234375q0 1.65625 1.1875 2.71875q1.171875 1.0625 6.09375 2.1875q4.9375 1.109375 6.78125 1.953125q2.671875 1.21875 3.9375 3.109375q1.28125 1.890625 1.28125 4.359375q0 2.4375 -1.40625 4.609375q-1.390625 2.15625 -4.015625 3.359375q-2.609375 1.1875 -5.890625 1.1875q-4.15625 0 -6.96875 -1.203125q-2.796875 -1.21875 -4.40625 -3.640625q-1.59375 -2.4375 -1.671875 -5.5zm44.59204 2.6875l3.875 0.484375q-0.921875 3.40625 -3.40625 5.28125q-2.484375 1.875 -6.34375 1.875q-4.859375 0 -7.71875 -2.984375q-2.84375 -3.0 -2.84375 -8.40625q0 -5.59375 2.875 -8.6875q2.890625 -3.09375 7.484375 -3.09375q4.4375 0 7.25 3.03125q2.828125 3.03125 2.828125 8.515625q0 0.328125 -0.015625 1.0l-16.53125 0q0.203125 3.65625 2.0625 5.59375q1.859375 1.9375 4.640625 1.9375q2.0625 0 3.515625 -1.078125q1.46875 -1.09375 2.328125 -3.46875zm-12.34375 -6.078125l12.375 0q-0.25 -2.796875 -1.421875 -4.1875q-1.78125 -2.171875 -4.65625 -2.171875q-2.578125 0 -4.34375 1.734375q-1.765625 1.734375 -1.953125 4.625zm20.900513 13.21875l0 -22.171875l3.375 0l0 3.359375q1.296875 -2.359375 2.390625 -3.109375q1.09375 -0.75 2.40625 -0.75q1.90625 0 3.875 1.21875l-1.296875 3.484375q-1.375 -0.8125 -2.765625 -0.8125q-1.21875 0 -2.203125 0.75q-0.984375 0.734375 -1.40625 2.046875q-0.625 2.0 -0.625 4.375l0 11.609375l-3.75 0zm20.423584 0l-8.421875 -22.171875l3.96875 0l4.75 13.28125q0.78125 2.140625 1.421875 4.46875q0.5 -1.75 1.40625 -4.21875l4.921875 -13.53125l3.859375 0l-8.390625 22.171875l-3.515625 0zm15.25 -26.28125l0 -4.3125l3.75 0l0 4.3125l-3.75 0zm0 26.28125l0 -22.171875l3.75 0l0 22.171875l-3.75 0zm23.93518 -8.125l3.703125 0.484375q-0.609375 3.828125 -3.109375 5.984375q-2.484375 2.15625 -6.125 2.15625q-4.546875 0 -7.3125 -2.96875q-2.765625 -2.984375 -2.765625 -8.53125q0 -3.59375 1.1875 -6.28125q1.1875 -2.6875 3.609375 -4.03125q2.4375 -1.359375 5.296875 -1.359375q3.625 0 5.90625 1.828125q2.296875 1.828125 2.953125 5.1875l-3.65625 0.5625q-0.515625 -2.234375 -1.84375 -3.359375q-1.328125 -1.125 -3.203125 -1.125q-2.84375 0 -4.625 2.03125q-1.765625 2.03125 -1.765625 6.4375q0 4.46875 1.703125 6.5q1.71875 2.015625 4.46875 2.015625q2.21875 0 3.703125 -1.34375q1.484375 -1.359375 1.875 -4.1875zm22.09375 0.984375l3.875 0.484375q-0.921875 3.40625 -3.40625 5.28125q-2.484375 1.875 -6.34375 1.875q-4.859375 0 -7.71875 -2.984375q-2.84375 -3.0 -2.84375 -8.40625q0 -5.59375 2.875 -8.6875q2.890625 -3.09375 7.484375 -3.09375q4.4375 0 7.25 3.03125q2.828125 3.03125 2.828125 8.515625q0 0.328125 -0.015625 1.0l-16.53125 0q0.203125 3.65625 2.0625 5.59375q1.859375 1.9375 4.640625 1.9375q2.0625 0 3.515625 -1.078125q1.46875 -1.09375 2.328125 -3.46875zm-12.34375 -6.078125l12.375 0q-0.25 -2.796875 -1.421875 -4.1875q-1.78125 -2.171875 -4.65625 -2.171875q-2.578125 0 -4.34375 1.734375q-1.765625 1.734375 -1.953125 4.625z" fill-rule="nonzero"/><path fill="#d0e0e3" d="m150.65045 428.4229l216.25787 0l0 110.70465l-216.25787 0z" fill-rule="evenodd"/><path stroke="#595959" stroke-width="3.204724409448819" stroke-linejoin="round" stroke-linecap="butt" d="m150.65045 428.4229l216.25787 0l0 110.70465l-216.25787 0z" fill-rule="evenodd"/><path fill="#000000" d="m189.42691 463.998l3.8125 -0.34375q0.28125 2.296875 1.265625 3.78125q1.0 1.46875 3.078125 2.375q2.09375 0.90625 4.703125 0.90625q2.3125 0 4.078125 -0.6875q1.78125 -0.6875 2.640625 -1.890625q0.875 -1.203125 0.875 -2.625q0 -1.4375 -0.84375 -2.5q-0.828125 -1.078125 -2.75 -1.8125q-1.21875 -0.484375 -5.4375 -1.5q-4.21875 -1.015625 -5.90625 -1.90625q-2.203125 -1.140625 -3.28125 -2.84375q-1.0625 -1.703125 -1.0625 -3.8125q0 -2.3125 1.3125 -4.328125q1.3125 -2.015625 3.828125 -3.0625q2.53125 -1.046875 5.625 -1.046875q3.40625 0 6.0 1.09375q2.59375 1.09375 3.984375 3.234375q1.40625 2.125 1.515625 4.8125l-3.875 0.296875q-0.3125 -2.90625 -2.125 -4.375q-1.796875 -1.484375 -5.328125 -1.484375q-3.671875 0 -5.359375 1.34375q-1.671875 1.34375 -1.671875 3.234375q0 1.65625 1.1875 2.71875q1.171875 1.0625 6.09375 2.1875q4.9375 1.109375 6.78125 1.953125q2.671875 1.21875 3.9375 3.109375q1.28125 1.890625 1.28125 4.359375q0 2.4375 -1.40625 4.609375q-1.390625 2.15625 -4.015625 3.359375q-2.609375 1.1875 -5.890625 1.1875q-4.15625 0 -6.96875 -1.203125q-2.796875 -1.21875 -4.40625 -3.640625q-1.59375 -2.4375 -1.671875 -5.5zm44.59204 2.6875l3.875 0.484375q-0.921875 3.40625 -3.40625 5.28125q-2.484375 1.875 -6.34375 1.875q-4.859375 0 -7.71875 -2.984375q-2.84375 -3.0 -2.84375 -8.40625q0 -5.59375 2.875 -8.6875q2.890625 -3.09375 7.484375 -3.09375q4.4375 0 7.25 3.03125q2.828125 3.03125 2.828125 8.515625q0 0.328125 -0.015625 1.0l-16.53125 0q0.203125 3.65625 2.0625 5.59375q1.859375 1.9375 4.640625 1.9375q2.0625 0 3.515625 -1.078125q1.46875 -1.09375 2.328125 -3.46875zm-12.34375 -6.078125l12.375 0q-0.25 -2.796875 -1.421875 -4.1875q-1.78125 -2.171875 -4.65625 -2.171875q-2.578125 0 -4.34375 1.734375q-1.765625 1.734375 -1.953125 4.625zm20.900513 13.21875l0 -22.171875l3.375 0l0 3.359375q1.296875 -2.359375 2.390625 -3.109375q1.09375 -0.75 2.40625 -0.75q1.90625 0 3.875 1.21875l-1.296875 3.484375q-1.375 -0.8125 -2.765625 -0.8125q-1.21875 0 -2.203125 0.75q-0.984375 0.734375 -1.40625 2.046875q-0.625 2.0 -0.625 4.375l0 11.609375l-3.75 0zm20.423584 0l-8.421875 -22.171875l3.96875 0l4.75 13.28125q0.78125 2.140625 1.421875 4.46875q0.5 -1.75 1.40625 -4.21875l4.921875 -13.53125l3.859375 0l-8.390625 22.171875l-3.515625 0zm15.25 -26.28125l0 -4.3125l3.75 0l0 4.3125l-3.75 0zm0 26.28125l0 -22.171875l3.75 0l0 22.171875l-3.75 0zm23.93518 -8.125l3.703125 0.484375q-0.609375 3.828125 -3.109375 5.984375q-2.484375 2.15625 -6.125 2.15625q-4.546875 0 -7.3125 -2.96875q-2.765625 -2.984375 -2.765625 -8.53125q0 -3.59375 1.1875 -6.28125q1.1875 -2.6875 3.609375 -4.03125q2.4375 -1.359375 5.296875 -1.359375q3.625 0 5.90625 1.828125q2.296875 1.828125 2.953125 5.1875l-3.65625 0.5625q-0.515625 -2.234375 -1.84375 -3.359375q-1.328125 -1.125 -3.203125 -1.125q-2.84375 0 -4.625 2.03125q-1.765625 2.03125 -1.765625 6.4375q0 4.46875 1.703125 6.5q1.71875 2.015625 4.46875 2.015625q2.21875 0 3.703125 -1.34375q1.484375 -1.359375 1.875 -4.1875zm22.09375 0.984375l3.875 0.484375q-0.921875 3.40625 -3.40625 5.28125q-2.484375 1.875 -6.34375 1.875q-4.859375 0 -7.71875 -2.984375q-2.84375 -3.0 -2.84375 -8.40625q0 -5.59375 2.875 -8.6875q2.890625 -3.09375 7.484375 -3.09375q4.4375 0 7.25 3.03125q2.828125 3.03125 2.828125 8.515625q0 0.328125 -0.015625 1.0l-16.53125 0q0.203125 3.65625 2.0625 5.59375q1.859375 1.9375 4.640625 1.9375q2.0625 0 3.515625 -1.078125q1.46875 -1.09375 2.328125 -3.46875zm-12.34375 -6.078125l12.375 0q-0.25 -2.796875 -1.421875 -4.1875q-1.78125 -2.171875 -4.65625 -2.171875q-2.578125 0 -4.34375 1.734375q-1.765625 1.734375 -1.953125 4.625z" fill-rule="nonzero"/><path fill="#000000" d="m216.92575 524.8261l0 -30.59375l10.546875 0q3.5625 0 5.4375 0.4375q2.640625 0.59375 4.5 2.1875q2.421875 2.046875 3.609375 5.234375q1.203125 3.171875 1.203125 7.265625q0 3.484375 -0.8125 6.1875q-0.8125 2.6875 -2.09375 4.453125q-1.265625 1.765625 -2.78125 2.78125q-1.515625 1.0 -3.65625 1.53125q-2.140625 0.515625 -4.90625 0.515625l-11.046875 0zm4.046875 -3.609375l6.53125 0q3.03125 0 4.75 -0.5625q1.734375 -0.5625 2.75 -1.59375q1.4375 -1.4375 2.234375 -3.859375q0.8125 -2.4375 0.8125 -5.90625q0 -4.796875 -1.578125 -7.375q-1.578125 -2.578125 -3.828125 -3.453125q-1.625 -0.625 -5.234375 -0.625l-6.4375 0l0 23.375zm40.81018 0.875q-2.078125 1.78125 -4.015625 2.515625q-1.9375 0.71875 -4.140625 0.71875q-3.65625 0 -5.625 -1.78125q-1.953125 -1.78125 -1.953125 -4.5625q0 -1.625 0.734375 -2.96875q0.75 -1.359375 1.9375 -2.171875q1.203125 -0.8125 2.71875 -1.234375q1.09375 -0.28125 3.328125 -0.5625q4.5625 -0.53125 6.703125 -1.28125q0.015625 -0.78125 0.015625 -0.984375q0 -2.296875 -1.0625 -3.234375q-1.4375 -1.28125 -4.28125 -1.28125q-2.640625 0 -3.90625 0.9375q-1.265625 0.921875 -1.875 3.28125l-3.671875 -0.5q0.5 -2.359375 1.640625 -3.8125q1.15625 -1.453125 3.328125 -2.234375q2.171875 -0.78125 5.03125 -0.78125q2.84375 0 4.609375 0.671875q1.78125 0.671875 2.609375 1.6875q0.84375 1.0 1.171875 2.546875q0.1875 0.96875 0.1875 3.46875l0 5.015625q0 5.234375 0.234375 6.625q0.25 1.390625 0.953125 2.65625l-3.921875 0q-0.578125 -1.171875 -0.75 -2.734375zm-0.3125 -8.390625q-2.046875 0.828125 -6.140625 1.421875q-2.3125 0.328125 -3.28125 0.75q-0.953125 0.421875 -1.484375 1.21875q-0.515625 0.796875 -0.515625 1.78125q0 1.5 1.140625 2.515625q1.140625 1.0 3.328125 1.0q2.171875 0 3.859375 -0.953125q1.703125 -0.953125 2.484375 -2.59375q0.609375 -1.28125 0.609375 -3.765625l0 -1.375zm17.822388 7.765625l0.546875 3.3125q-1.578125 0.34375 -2.84375 0.34375q-2.03125 0 -3.171875 -0.640625q-1.125 -0.65625 -1.59375 -1.703125q-0.453125 -1.0625 -0.453125 -4.4375l0 -12.765625l-2.75 0l0 -2.921875l2.75 0l0 -5.484375l3.75 -2.25l0 7.734375l3.765625 0l0 2.921875l-3.765625 0l0 12.96875q0 1.609375 0.1875 2.078125q0.203125 0.453125 0.640625 0.71875q0.453125 0.265625 1.296875 0.265625q0.625 0 1.640625 -0.140625zm18.142944 0.625q-2.078125 1.78125 -4.015625 2.515625q-1.9375 0.71875 -4.140625 0.71875q-3.65625 0 -5.625 -1.78125q-1.953125 -1.78125 -1.953125 -4.5625q0 -1.625 0.734375 -2.96875q0.75 -1.359375 1.9375 -2.171875q1.203125 -0.8125 2.71875 -1.234375q1.09375 -0.28125 3.328125 -0.5625q4.5625 -0.53125 6.703125 -1.28125q0.015625 -0.78125 0.015625 -0.984375q0 -2.296875 -1.0625 -3.234375q-1.4375 -1.28125 -4.28125 -1.28125q-2.640625 0 -3.90625 0.9375q-1.265625 0.921875 -1.875 3.28125l-3.671875 -0.5q0.5 -2.359375 1.640625 -3.8125q1.15625 -1.453125 3.328125 -2.234375q2.171875 -0.78125 5.03125 -0.78125q2.84375 0 4.609375 0.671875q1.78125 0.671875 2.609375 1.6875q0.84375 1.0 1.171875 2.546875q0.1875 0.96875 0.1875 3.46875l0 5.015625q0 5.234375 0.234375 6.625q0.25 1.390625 0.953125 2.65625l-3.921875 0q-0.578125 -1.171875 -0.75 -2.734375zm-0.3125 -8.390625q-2.046875 0.828125 -6.140625 1.421875q-2.3125 0.328125 -3.28125 0.75q-0.953125 0.421875 -1.484375 1.21875q-0.515625 0.796875 -0.515625 1.78125q0 1.5 1.140625 2.515625q1.140625 1.0 3.328125 1.0q2.171875 0 3.859375 -0.953125q1.703125 -0.953125 2.484375 -2.59375q0.609375 -1.28125 0.609375 -3.765625l0 -1.375z" fill-rule="nonzero"/><path fill="#d0e0e3" d="m65.795235 428.41943l66.86721 0l0 64.241l-66.86721 0z" fill-rule="evenodd"/><path stroke="#595959" stroke-width="3.204724409448819" stroke-linejoin="round" stroke-linecap="butt" d="m65.795235 428.41943l66.86721 0l0 64.241l-66.86721 0z" fill-rule="evenodd"/><path fill="#000000" d="m88.12882 465.64197l3.4375 -0.3125q0.234375 2.078125 1.125 3.40625q0.90625 1.3125 2.78125 2.140625q1.875 0.8125 4.21875 0.8125q2.09375 0 3.6875 -0.625q1.59375 -0.625 2.375 -1.703125q0.78125 -1.078125 0.78125 -2.359375q0 -1.296875 -0.75 -2.265625q-0.75 -0.96875 -2.484375 -1.625q-1.109375 -0.421875 -4.90625 -1.328125q-3.78125 -0.921875 -5.3125 -1.734375q-1.96875 -1.03125 -2.9375 -2.5625q-0.96875 -1.53125 -0.96875 -3.421875q0 -2.09375 1.1875 -3.90625q1.1875 -1.8125 3.453125 -2.75q2.28125 -0.9375 5.0625 -0.9375q3.0625 0 5.390625 0.984375q2.34375 0.984375 3.59375 2.90625q1.265625 1.90625 1.359375 4.34375l-3.484375 0.25q-0.296875 -2.609375 -1.921875 -3.9375q-1.625 -1.328125 -4.796875 -1.328125q-3.296875 0 -4.8125 1.21875q-1.515625 1.203125 -1.515625 2.90625q0 1.484375 1.0625 2.4375q1.0625 0.96875 5.5 1.96875q4.453125 1.0 6.09375 1.765625q2.40625 1.109375 3.546875 2.8125q1.15625 1.6875 1.15625 3.90625q0 2.203125 -1.265625 4.15625q-1.25 1.9375 -3.609375 3.015625q-2.359375 1.078125 -5.3125 1.078125q-3.734375 0 -6.265625 -1.078125q-2.53125 -1.09375 -3.96875 -3.28125q-1.4375 -2.203125 -1.5 -4.953125z" fill-rule="nonzero"/><path fill="#000000" fill-opacity="0.0" d="m419.83905 333.10037l-161.10757 95.35144" fill-rule="evenodd"/><path stroke="#595959" stroke-width="3.204724409448819" stroke-linejoin="round" stroke-linecap="butt" d="m403.29166 342.89392l-144.56018 85.55789" fill-rule="evenodd"/><path fill="#595959" stroke="#595959" stroke-width="3.204724409448819" stroke-linecap="butt" d="m405.98773 347.44925l9.819519 -11.962677l-15.211639 2.8520508z" fill-rule="evenodd"/><path fill="#000000" fill-opacity="0.0" d="m590.1394 428.4229l-170.29929 -95.35144" fill-rule="evenodd"/><path stroke="#38761d" stroke-width="5.412073490813648" stroke-linejoin="round" stroke-linecap="butt" d="m561.80585 412.5588l-113.63217 -63.62323" fill-rule="evenodd"/><path fill="#38761d" stroke="#38761d" stroke-width="5.412073490813648" stroke-linecap="butt" d="m557.43866 420.3587l25.797241 4.1989136l-17.062866 -19.798737z" fill-rule="evenodd"/><path fill="#38761d" stroke="#38761d" stroke-width="5.412073490813648" stroke-linecap="butt" d="m452.5409 341.13565l-25.797272 -4.198883l17.062866 19.798706z" fill-rule="evenodd"/><path fill="#fff2cc" d="m229.14035 215.26825l66.86722 0l0 64.24103l-66.86722 0z" fill-rule="evenodd"/><path stroke="#595959" stroke-width="3.204724409448819" stroke-linejoin="round" stroke-linecap="butt" d="m229.14035 215.26825l66.86722 0l0 64.24103l-66.86722 0z" fill-rule="evenodd"/><path fill="#000000" d="m269.72473 233.78767l3.640625 0l0 15.921875q0 4.140625 -0.9375 6.5937347q-0.9375 2.4375 -3.390625 3.96875q-2.453125 1.53125 -6.4375 1.53125q-3.875 0 -6.34375 -1.328125q-2.453125 -1.34375 -3.5 -3.859375q-1.046875 -2.5312347 -1.046875 -6.9062347l0 -15.921875l3.640625 0l0 15.890625q0 3.59375 0.65625 5.296875q0.671875 1.7031097 2.296875 2.6249847q1.625 0.921875 3.984375 0.921875q4.015625 0 5.71875 -1.828125q1.71875 -1.8281097 1.71875 -7.0156097l0 -15.890625z" fill-rule="nonzero"/><path fill="#d0e0e3" d="m153.63524 215.39227l66.86722 0l0 64.241l-66.86722 0z" fill-rule="evenodd"/><path stroke="#595959" stroke-width="3.204724409448819" stroke-linejoin="round" stroke-linecap="butt" d="m153.63524 215.39227l66.86722 0l0 64.241l-66.86722 0z" fill-rule="evenodd"/><path fill="#000000" d="m175.96884 252.6148l3.4375 -0.3125q0.234375 2.078125 1.125 3.40625q0.90625 1.3125 2.78125 2.140625q1.875 0.8125 4.21875 0.8125q2.09375 0 3.6875 -0.625q1.59375 -0.625 2.375 -1.703125q0.78125 -1.078125 0.78125 -2.359375q0 -1.296875 -0.75 -2.265625q-0.75 -0.96875 -2.484375 -1.625q-1.109375 -0.421875 -4.90625 -1.328125q-3.78125 -0.921875 -5.3125 -1.734375q-1.96875 -1.03125 -2.9375 -2.5625q-0.96875 -1.53125 -0.96875 -3.421875q0 -2.09375 1.1875 -3.90625q1.1875 -1.8125 3.453125 -2.75q2.28125 -0.9375 5.0625 -0.9375q3.0625 0 5.390625 0.984375q2.34375 0.984375 3.59375 2.90625q1.265625 1.90625 1.359375 4.34375l-3.484375 0.25q-0.296875 -2.609375 -1.921875 -3.9375q-1.625 -1.328125 -4.796875 -1.328125q-3.296875 0 -4.8125 1.21875q-1.515625 1.203125 -1.515625 2.90625q0 1.484375 1.0625 2.4375q1.0625 0.96875 5.5 1.96875q4.453125 1.0 6.09375 1.765625q2.40625 1.109375 3.546875 2.8125q1.15625 1.6875 1.15625 3.90625q0 2.203125 -1.265625 4.15625q-1.25 1.9375 -3.609375 3.015625q-2.359375 1.078125 -5.3125 1.078125q-3.734375 0 -6.265625 -1.078125q-2.53125 -1.09375 -3.96875 -3.28125q-1.4375 -2.203125 -1.5 -4.953125z" fill-rule="nonzero"/><path fill="#fff2cc" d="m624.6653 215.39452l66.86719 0l0 64.24101l-66.86719 0z" fill-rule="evenodd"/><path stroke="#595959" stroke-width="3.204724409448819" stroke-linejoin="round" stroke-linecap="butt" d="m624.6653 215.39452l66.86719 0l0 64.24101l-66.86719 0z" fill-rule="evenodd"/><path fill="#000000" d="m665.24963 233.91393l3.640625 0l0 15.921875q0 4.140625 -0.9375 6.5937653q-0.9375 2.4375 -3.390625 3.96875q-2.453125 1.53125 -6.4375 1.53125q-3.875 0 -6.34375 -1.328125q-2.453125 -1.34375 -3.5 -3.859375q-1.046875 -2.5312653 -1.046875 -6.9062653l0 -15.921875l3.640625 0l0 15.890625q0 3.59375 0.65625 5.296875q0.671875 1.7031403 2.296875 2.6250153q1.625 0.921875 3.984375 0.921875q4.015625 0 5.71875 -1.828125q1.71875 -1.8281403 1.71875 -7.0156403l0 -15.890625z" fill-rule="nonzero"/><path fill="#ffffff" d="m548.98676 215.39227l66.86725 0l0 64.241l-66.86725 0z" fill-rule="evenodd"/><path stroke="#595959" stroke-width="3.204724409448819" stroke-linejoin="round" stroke-linecap="butt" stroke-dasharray="3.204724409448819,9.614173228346457" d="m548.98676 215.39227l66.86725 0l0 64.241l-66.86725 0z" fill-rule="evenodd"/><path fill="#000000" fill-opacity="0.0" d="m187.06885 215.39227c0 -31.763672 98.83621 -63.539963 197.67242 -63.52733c98.83618 0.012619019 197.67242 31.814163 197.67242 63.62834" fill-rule="evenodd"/><path stroke="#cc4125" stroke-width="3.608923884514436" stroke-linejoin="round" stroke-linecap="butt" d="m187.06886 215.39227c0 -31.763657 98.8362 -63.539963 197.67241 -63.527344c49.41809 0.0063171387 98.83618 7.9598694 135.89978 19.888596c18.531738 5.9643707 33.974915 12.922531 44.785156 20.37799c1.3512573 0.9319458 2.630127 1.8716431 3.8336182 2.8181458c0.6017456 0.4732666 1.1846313 0.9481964 1.748291 1.4247284c0.14093018 0.119125366 0.28063965 0.2383728 0.41912842 0.35768127l0.069885254 0.060806274" fill-rule="evenodd"/><path fill="#cc4125" stroke="#cc4125" stroke-width="3.608923884514436" stroke-linecap="butt" d="m566.3491 199.79807l13.404724 11.138855l-3.1087036 -17.149246z" fill-rule="evenodd"/><path fill="#000000" fill-opacity="0.0" d="m172.12898 34.31229l443.7276 0l0 80.40227l-443.7276 0z" fill-rule="evenodd"/><path fill="#000000" d="m232.71721 109.46839l7.015625 -33.671875l10.15625 0q3.65625 0 5.578125 0.53125q2.7656403 0.71875 4.7031403 2.546875q1.953125 1.8125 2.9375 4.546875q1.0 2.734375 1.0 6.140625q0 4.0625 -1.234375 7.40625q-1.21875 3.34375 -3.21875 5.875q-1.984375 2.53125 -4.1562653 3.96875q-2.15625 1.4375 -5.125 2.125q-2.25 0.53125 -5.53125 0.53125l-12.125 0zm5.296875 -3.8125l5.328125 0q3.609375 0 6.40625 -0.671875q1.75 -0.40625 2.984375 -1.203125q1.640625 -1.046875 2.96875 -2.734375q1.7500153 -2.25 2.7812653 -5.125q1.046875 -2.890625 1.046875 -6.5625q0 -4.09375 -1.421875 -6.28125q-1.421875 -2.203125 -3.6250153 -2.90625q-1.625 -0.53125 -5.078125 -0.53125l-5.9375 0l-5.453125 26.015625zm46.042587 -4.484375l4.046875 0.421875q-0.875 3.0 -4.015625 5.71875q-3.125 2.703125 -7.46875 2.703125q-2.703125 0 -4.96875 -1.25q-2.265625 -1.25 -3.453125 -3.640625q-1.171875 -2.390625 -1.171875 -5.4375q0 -4.0 1.84375 -7.75q1.84375 -3.75 4.78125 -5.578125q2.953125 -1.828125 6.375 -1.828125q4.359375 0 6.96875 2.71875q2.609375 2.703125 2.609375 7.390625q0 1.78125 -0.328125 3.671875l-17.953125 0q-0.09375 0.703125 -0.09375 1.28125q0 3.421875 1.5625 5.234375q1.578125 1.796875 3.859375 1.796875q2.125 0 4.1875 -1.40625q2.078125 -1.40625 3.21875 -4.046875zm-12.078125 -6.03125l13.6875 0q0.03125 -0.640625 0.03125 -0.921875q0 -3.125 -1.5625 -4.78125q-1.5625 -1.671875 -4.015625 -1.671875q-2.671875 0 -4.875 1.84375q-2.1875 1.828125 -3.265625 5.53125zm37.156555 5.4375l4.15625 0.4375q-1.5625 4.578125 -4.453125 6.796875q-2.875 2.203125 -6.546875 2.203125q-3.96875 0 -6.4375 -2.5625q-2.46875 -2.578125 -2.46875 -7.1875q0 -4.0 1.578125 -7.859375q1.59375 -3.859375 4.546875 -5.859375q2.953125 -2.015625 6.734375 -2.015625q3.921875 0 6.21875 2.21875q2.296875 2.21875 2.296875 5.859375l-4.078125 0.28125q-0.03125 -2.328125 -1.359375 -3.625q-1.3125 -1.3125 -3.46875 -1.3125q-2.5 0 -4.34375 1.59375q-1.828125 1.578125 -2.875 4.8125q-1.046875 3.21875 -1.046875 6.203125q0 3.125 1.375 4.6875q1.375 1.5625 3.40625 1.5625q2.015625 0 3.859375 -1.53125q1.859375 -1.546875 2.90625 -4.703125zm6.359375 8.890625l7.03125 -33.671875l4.15625 0l-7.03125 33.671875l-4.15625 0zm27.214447 -3.03125q-2.15625 1.859375 -4.15625 2.71875q-2.0 0.859375 -4.265625 0.859375q-3.375 0 -5.453125 -1.984375q-2.0625 -1.984375 -2.0625 -5.078125q0 -2.046875 0.921875 -3.625q0.9375 -1.578125 2.46875 -2.53125q1.546875 -0.953125 3.78125 -1.359375q1.390625 -0.28125 5.3125 -0.4375q3.921875 -0.15625 5.609375 -0.828125q0.484375 -1.703125 0.484375 -2.828125q0 -1.4375 -1.046875 -2.265625q-1.453125 -1.15625 -4.234375 -1.15625q-2.609375 0 -4.28125 1.171875q-1.65625 1.15625 -2.421875 3.296875l-4.203125 -0.375q1.28125 -3.625 4.078125 -5.546875q2.796875 -1.9375 7.03125 -1.9375q4.53125 0 7.171875 2.15625q2.015625 1.609375 2.015625 4.1875q0 1.9375 -0.5625 4.515625l-1.359375 6.0625q-0.640625 2.890625 -0.640625 4.703125q0 1.15625 0.5 3.3125l-4.203125 0q-0.34375 -1.1875 -0.484375 -3.03125zm1.546875 -9.328125q-0.875 0.34375 -1.875 0.53125q-1.0 0.1875 -3.34375 0.390625q-3.625 0.328125 -5.125 0.828125q-1.484375 0.484375 -2.25 1.5625q-0.75 1.078125 -0.75 2.390625q0 1.734375 1.203125 2.875q1.203125 1.125 3.4375 1.125q2.0625 0 3.96875 -1.09375q1.90625 -1.09375 3.0 -3.046875q1.109375 -1.953125 1.734375 -5.5625zm8.562805 4.015625l4.15625 -0.25q0 1.796875 0.546875 3.0625q0.546875 1.265625 2.03125 2.078125q1.484375 0.796875 3.453125 0.796875q2.765625 0 4.140625 -1.109375q1.375 -1.109375 1.375 -2.59375q0 -1.078125 -0.828125 -2.046875q-0.84375 -0.96875 -4.140625 -2.375q-3.296875 -1.40625 -4.21875 -1.984375q-1.53125 -0.9375 -2.3125 -2.21875q-0.78125 -1.28125 -0.78125 -2.921875q0 -2.90625 2.296875 -4.96875q2.296875 -2.0625 6.421875 -2.0625q4.59375 0 7.0 2.125q2.40625 2.125 2.484375 5.59375l-4.0625 0.265625q-0.09375 -2.203125 -1.5625 -3.484375q-1.46875 -1.28125 -4.15625 -1.28125q-2.15625 0 -3.359375 0.984375q-1.1875 0.984375 -1.1875 2.140625q0 1.140625 1.03125 2.015625q0.703125 0.59375 3.5625 1.828125q4.78125 2.078125 6.015625 3.265625q1.984375 1.90625 1.984375 4.640625q0 1.8125 -1.125 3.5625q-1.109375 1.75 -3.390625 2.796875q-2.28125 1.03125 -5.390625 1.03125q-4.21875 0 -7.1875 -2.078125q-2.953125 -2.09375 -2.796875 -6.8125zm23.515625 0l4.15625 -0.25q0 1.796875 0.546875 3.0625q0.546875 1.265625 2.03125 2.078125q1.484375 0.796875 3.453125 0.796875q2.765625 0 4.140625 -1.109375q1.375 -1.109375 1.375 -2.59375q0 -1.078125 -0.828125 -2.046875q-0.84375 -0.96875 -4.140625 -2.375q-3.296875 -1.40625 -4.21875 -1.984375q-1.53125 -0.9375 -2.3125 -2.21875q-0.78125 -1.28125 -0.78125 -2.921875q0 -2.90625 2.296875 -4.96875q2.296875 -2.0625 6.421875 -2.0625q4.59375 0 7.0 2.125q2.40625 2.125 2.484375 5.59375l-4.0625 0.265625q-0.09375 -2.203125 -1.5625 -3.484375q-1.46875 -1.28125 -4.15625 -1.28125q-2.15625 0 -3.359375 0.984375q-1.1875 0.984375 -1.1875 2.140625q0 1.140625 1.03125 2.015625q0.703125 0.59375 3.5625 1.828125q4.78125 2.078125 6.015625 3.265625q1.984375 1.90625 1.984375 4.640625q0 1.8125 -1.125 3.5625q-1.109375 1.75 -3.390625 2.796875q-2.28125 1.03125 -5.390625 1.03125q-4.21875 0 -7.1875 -2.078125q-2.953125 -2.09375 -2.796875 -6.8125zm29.03125 -20.609375l0.984375 -4.71875l4.125 0l-0.984375 4.71875l-4.125 0zm-6.0625 28.953125l5.09375 -24.390625l4.15625 0l-5.09375 24.390625l-4.15625 0zm11.183197 0l4.421875 -21.171875l-3.71875 0l0.671875 -3.21875l3.71875 0l0.71875 -3.46875q0.546875 -2.59375 1.125 -3.734375q0.59375 -1.15625 1.90625 -1.890625q1.328125 -0.75 3.59375 -0.75q1.59375 0 4.59375 0.65625l-0.75 3.625q-2.109375 -0.546875 -3.546875 -0.546875q-1.21875 0 -1.84375 0.609375q-0.625 0.609375 -1.09375 2.890625l-0.546875 2.609375l4.640625 0l-0.671875 3.21875l-4.640625 0l-4.421875 21.171875l-4.15625 0zm18.394928 -28.953125l0.984375 -4.71875l4.125 0l-0.984375 4.71875l-4.125 0zm-6.0625 28.953125l5.09375 -24.390625l4.15625 0l-5.09375 24.390625l-4.15625 0zm27.433197 -8.890625l4.15625 0.4375q-1.5625 4.578125 -4.453125 6.796875q-2.875 2.203125 -6.546875 2.203125q-3.96875 0 -6.4375 -2.5625q-2.46875 -2.578125 -2.46875 -7.1875q0 -4.0 1.578125 -7.859375q1.59375 -3.859375 4.546875 -5.859375q2.953125 -2.015625 6.734375 -2.015625q3.921875 0 6.21875 2.21875q2.296875 2.21875 2.296875 5.859375l-4.078125 0.28125q-0.03125 -2.328125 -1.359375 -3.625q-1.3125 -1.3125 -3.46875 -1.3125q-2.5 0 -4.34375 1.59375q-1.828125 1.578125 -2.875 4.8125q-1.046875 3.21875 -1.046875 6.203125q0 3.125 1.375 4.6875q1.375 1.5625 3.40625 1.5625q2.015625 0 3.859375 -1.53125q1.859375 -1.546875 2.90625 -4.703125zm23.125 5.859375q-2.15625 1.859375 -4.15625 2.71875q-2.0 0.859375 -4.265625 0.859375q-3.375 0 -5.453125 -1.984375q-2.0625 -1.984375 -2.0625 -5.078125q0 -2.046875 0.921875 -3.625q0.9375 -1.578125 2.46875 -2.53125q1.546875 -0.953125 3.78125 -1.359375q1.390625 -0.28125 5.3125 -0.4375q3.921875 -0.15625 5.609375 -0.828125q0.484375 -1.703125 0.484375 -2.828125q0 -1.4375 -1.046875 -2.265625q-1.453125 -1.15625 -4.234375 -1.15625q-2.609375 0 -4.28125 1.171875q-1.65625 1.15625 -2.421875 3.296875l-4.203125 -0.375q1.28125 -3.625 4.078125 -5.546875q2.796875 -1.9375 7.03125 -1.9375q4.53125 0 7.171875 2.15625q2.015625 1.609375 2.015625 4.1875q0 1.9375 -0.5625 4.515625l-1.359375 6.0625q-0.640625 2.890625 -0.640625 4.703125q0 1.15625 0.5 3.3125l-4.203125 0q-0.34375 -1.1875 -0.484375 -3.03125zm1.546875 -9.328125q-0.875 0.34375 -1.875 0.53125q-1.0 0.1875 -3.34375 0.390625q-3.625 0.328125 -5.125 0.828125q-1.484375 0.484375 -2.25 1.5625q-0.75 1.078125 -0.75 2.390625q0 1.734375 1.203125 2.875q1.203125 1.125 3.4375 1.125q2.0625 0 3.96875 -1.09375q1.90625 -1.09375 3.0 -3.046875q1.109375 -1.953125 1.734375 -5.5625zm17.89093 8.984375l-0.6875 3.390625q-1.5 0.390625 -2.90625 0.390625q-2.46875 0 -3.9375 -1.203125q-1.109375 -0.921875 -1.109375 -2.515625q0 -0.796875 0.59375 -3.6875l2.96875 -14.171875l-3.28125 0l0.65625 -3.21875l3.28125 0l1.265625 -5.984375l4.765625 -2.875l-1.875 8.859375l4.09375 0l-0.6875 3.21875l-4.0625 0l-2.828125 13.484375q-0.53125 2.5625 -0.53125 3.078125q0 0.734375 0.421875 1.125q0.4375 0.390625 1.390625 0.390625q1.390625 0 2.46875 -0.28125zm9.254303 -25.578125l0.984375 -4.71875l4.125 0l-0.984375 4.71875l-4.125 0zm-6.0625 28.953125l5.09375 -24.390625l4.15625 0l-5.09375 24.390625l-4.15625 0zm11.339478 -9.25q0 -7.140625 4.203125 -11.828125q3.46875 -3.859375 9.09375 -3.859375q4.40625 0 7.109375 2.765625q2.703125 2.75 2.703125 7.421875q0 4.203125 -1.703125 7.828125q-1.703125 3.609375 -4.84375 5.546875q-3.125 1.921875 -6.59375 1.921875q-2.84375 0 -5.1875 -1.21875q-2.328125 -1.21875 -3.5625 -3.4375q-1.21875 -2.234375 -1.21875 -5.140625zm4.15625 -0.421875q0 3.453125 1.65625 5.234375q1.65625 1.78125 4.203125 1.78125q1.328125 0 2.640625 -0.546875q1.3125 -0.546875 2.4375 -1.640625q1.125 -1.109375 1.90625 -2.515625q0.796875 -1.40625 1.28125 -3.046875q0.703125 -2.265625 0.703125 -4.359375q0 -3.3125 -1.671875 -5.125q-1.65625 -1.828125 -4.171875 -1.828125q-1.953125 0 -3.5625 0.9375q-1.609375 0.921875 -2.90625 2.71875q-1.296875 1.78125 -1.90625 4.15625q-0.609375 2.375 -0.609375 4.234375zm21.26593 9.671875l5.09375 -24.390625l3.765625 0l-0.890625 4.25q2.453125 -2.5 4.59375 -3.640625q2.140625 -1.15625 4.359375 -1.15625q2.96875 0 4.65625 1.609375q1.6875 1.609375 1.6875 4.296875q0 1.34375 -0.59375 4.265625l-3.109375 14.765625l-4.15625 0l3.234375 -15.453125q0.484375 -2.25 0.484375 -3.328125q0 -1.21875 -0.84375 -1.96875q-0.828125 -0.765625 -2.40625 -0.765625q-3.203125 0 -5.703125 2.296875q-2.484375 2.296875 -3.65625 7.875l-2.359375 11.34375l-4.15625 0z" fill-rule="nonzero"/></g></svg>