<svg version="1.1" viewBox="0.0 0.0 1079.6299212598426 472.2230971128609" fill="none" stroke="none" stroke-linecap="square" stroke-miterlimit="10" xmlns:xlink="http://www.w3.org/1999/xlink" xmlns="http://www.w3.org/2000/svg"><clipPath id="p.0"><path d="m0 0l1079.6299 0l0 472.22308l-1079.6299 0l0 -472.22308z" clip-rule="nonzero"/></clipPath><g clip-path="url(#p.0)"><path fill="#000000" fill-opacity="0.0" d="m0 0l1079.6299 0l0 472.22308l-1079.6299 0z" fill-rule="evenodd"/><path fill="#d0e0e3" d="m386.615 260.3115l137.45557 0l0 70.36145l-137.45557 0z" fill-rule="evenodd"/><path stroke="#595959" stroke-width="2.0393700787401574" stroke-linejoin="round" stroke-linecap="butt" d="m386.615 260.3115l137.45557 0l0 70.36145l-137.45557 0z" fill-rule="evenodd"/><path fill="#000000" d="m411.25958 282.33322l2.4375 -0.21875q0.171875 1.46875 0.796875 2.40625q0.625 0.9375 1.953125 1.515625q1.328125 0.5625 2.984375 0.5625q1.46875 0 2.59375 -0.4375q1.140625 -0.4375 1.6875 -1.1875q0.546875 -0.765625 0.546875 -1.671875q0 -0.921875 -0.53125 -1.59375q-0.53125 -0.6875 -1.75 -1.15625q-0.78125 -0.296875 -3.46875 -0.9375q-2.671875 -0.65625 -3.75 -1.21875q-1.390625 -0.734375 -2.078125 -1.8125q-0.671875 -1.078125 -0.671875 -2.421875q0 -1.46875 0.828125 -2.75q0.84375 -1.28125 2.4375 -1.9375q1.609375 -0.671875 3.578125 -0.671875q2.15625 0 3.8125 0.703125q1.65625 0.6875 2.53125 2.046875q0.890625 1.34375 0.96875 3.0625l-2.46875 0.1875q-0.203125 -1.84375 -1.359375 -2.78125q-1.140625 -0.953125 -3.375 -0.953125q-2.34375 0 -3.421875 0.859375q-1.0625 0.859375 -1.0625 2.0625q0 1.046875 0.765625 1.71875q0.734375 0.6875 3.875 1.40625q3.140625 0.703125 4.3125 1.21875q1.6875 0.796875 2.5 2.0q0.8125 1.1875 0.8125 2.75q0 1.5625 -0.890625 2.9375q-0.890625 1.375 -2.5625 2.140625q-1.65625 0.75 -3.734375 0.75q-2.640625 0 -4.4375 -0.765625q-1.78125 -0.765625 -2.796875 -2.3125q-1.0 -1.546875 -1.0625 -3.5zm28.342163 1.71875l2.46875 0.296875q-0.578125 2.171875 -2.171875 3.359375q-1.578125 1.1875 -4.03125 1.1875q-3.09375 0 -4.90625 -1.890625q-1.796875 -1.90625 -1.796875 -5.34375q0 -3.5625 1.828125 -5.515625q1.828125 -1.96875 4.75 -1.96875q2.828125 0 4.609375 1.921875q1.796875 1.921875 1.796875 5.40625q0 0.21875 -0.015625 0.640625l-10.5 0q0.125 2.328125 1.296875 3.5625q1.1875 1.234375 2.953125 1.234375q1.3125 0 2.234375 -0.6875q0.9375 -0.703125 1.484375 -2.203125zm-7.84375 -3.859375l7.875 0q-0.171875 -1.78125 -0.90625 -2.671875q-1.140625 -1.375 -2.953125 -1.375q-1.65625 0 -2.78125 1.09375q-1.109375 1.09375 -1.234375 2.953125zm13.2836 8.390625l0 -14.09375l2.140625 0l0 2.140625q0.828125 -1.5 1.515625 -1.96875q0.703125 -0.484375 1.546875 -0.484375q1.203125 0 2.453125 0.765625l-0.828125 2.21875q-0.875 -0.515625 -1.75 -0.515625q-0.78125 0 -1.40625 0.46875q-0.625 0.46875 -0.890625 1.3125q-0.390625 1.265625 -0.390625 2.78125l0 7.375l-2.390625 0zm12.985931 0l-5.359375 -14.09375l2.515625 0l3.03125 8.4375q0.484375 1.375 0.90625 2.84375q0.3125 -1.109375 0.890625 -2.6875l3.125 -8.59375l2.453125 0l-5.328125 14.09375l-2.234375 0zm9.6796875 -16.703125l0 -2.75l2.390625 0l0 2.75l-2.390625 0zm0 16.703125l0 -14.09375l2.390625 0l0 14.09375l-2.390625 0zm15.224243 -5.15625l2.34375 0.296875q-0.375 2.4375 -1.96875 3.8125q-1.578125 1.359375 -3.890625 1.359375q-2.890625 0 -4.65625 -1.890625q-1.75 -1.890625 -1.75 -5.40625q0 -2.296875 0.75 -4.0q0.765625 -1.71875 2.3125 -2.5625q1.546875 -0.859375 3.359375 -0.859375q2.296875 0 3.75 1.15625q1.46875 1.15625 1.875 3.296875l-2.328125 0.359375q-0.328125 -1.421875 -1.171875 -2.125q-0.84375 -0.71875 -2.03125 -0.71875q-1.8125 0 -2.9375 1.296875q-1.125 1.28125 -1.125 4.078125q0 2.84375 1.078125 4.140625q1.09375 1.28125 2.84375 1.28125q1.40625 0 2.34375 -0.859375q0.953125 -0.875 1.203125 -2.65625zm14.0390625 0.625l2.46875 0.296875q-0.578125 2.171875 -2.171875 3.359375q-1.578125 1.1875 -4.03125 1.1875q-3.09375 0 -4.90625 -1.890625q-1.796875 -1.90625 -1.796875 -5.34375q0 -3.5625 1.828125 -5.515625q1.828125 -1.96875 4.75 -1.96875q2.828125 0 4.609375 1.921875q1.796875 1.921875 1.796875 5.40625q0 0.21875 -0.015625 0.640625l-10.5 0q0.125 2.328125 1.296875 3.5625q1.1875 1.234375 2.953125 1.234375q1.3125 0 2.234375 -0.6875q0.9375 -0.703125 1.484375 -2.203125zm-7.84375 -3.859375l7.875 0q-0.171875 -1.78125 -0.90625 -2.671875q-1.140625 -1.375 -2.953125 -1.375q-1.65625 0 -2.78125 1.09375q-1.109375 1.09375 -1.234375 2.953125z" fill-rule="nonzero"/><path fill="#000000" d="m428.73886 321.58322l0 -19.453125l6.703125 0q2.265625 0 3.46875 0.28125q1.671875 0.390625 2.84375 1.390625q1.546875 1.296875 2.296875 3.328125q0.765625 2.015625 0.765625 4.625q0 2.21875 -0.515625 3.9375q-0.515625 1.703125 -1.328125 2.828125q-0.8125 1.109375 -1.78125 1.765625q-0.953125 0.640625 -2.3125 0.96875q-1.359375 0.328125 -3.125 0.328125l-7.015625 0zm2.578125 -2.296875l4.15625 0q1.921875 0 3.015625 -0.359375q1.09375 -0.359375 1.75 -1.0q0.90625 -0.921875 1.40625 -2.46875q0.515625 -1.546875 0.515625 -3.75q0 -3.046875 -1.0 -4.6875q-1.0 -1.640625 -2.421875 -2.1875q-1.046875 -0.40625 -3.34375 -0.40625l-4.078125 0l0 14.859375zm25.93518 0.5625q-1.328125 1.125 -2.5625 1.59375q-1.21875 0.453125 -2.625 0.453125q-2.328125 0 -3.578125 -1.125q-1.234375 -1.140625 -1.234375 -2.90625q0 -1.03125 0.46875 -1.890625q0.46875 -0.859375 1.234375 -1.375q0.765625 -0.515625 1.71875 -0.78125q0.703125 -0.1875 2.125 -0.359375q2.890625 -0.34375 4.25 -0.8125q0.015625 -0.5 0.015625 -0.625q0 -1.46875 -0.671875 -2.0625q-0.921875 -0.8125 -2.71875 -0.8125q-1.6875 0 -2.5 0.59375q-0.796875 0.59375 -1.171875 2.09375l-2.34375 -0.3125q0.328125 -1.5 1.046875 -2.421875q0.734375 -0.921875 2.109375 -1.421875q1.390625 -0.5 3.203125 -0.5q1.796875 0 2.921875 0.421875q1.140625 0.421875 1.671875 1.078125q0.53125 0.640625 0.734375 1.609375q0.125 0.609375 0.125 2.203125l0 3.1875q0 3.328125 0.140625 4.21875q0.15625 0.875 0.609375 1.6875l-2.484375 0q-0.375 -0.75 -0.484375 -1.734375zm-0.203125 -5.34375q-1.296875 0.53125 -3.890625 0.90625q-1.484375 0.21875 -2.09375 0.484375q-0.609375 0.265625 -0.9375 0.78125q-0.328125 0.5 -0.328125 1.125q0 0.953125 0.71875 1.59375q0.71875 0.640625 2.125 0.640625q1.375 0 2.4375 -0.609375q1.078125 -0.609375 1.59375 -1.65625q0.375 -0.796875 0.375 -2.390625l0 -0.875zm11.330444 4.9375l0.34375 2.109375q-1.0 0.21875 -1.796875 0.21875q-1.296875 0 -2.015625 -0.40625q-0.71875 -0.421875 -1.015625 -1.09375q-0.28125 -0.671875 -0.28125 -2.8125l0 -8.109375l-1.75 0l0 -1.859375l1.75 0l0 -3.484375l2.375 -1.4375l0 4.921875l2.390625 0l0 1.859375l-2.390625 0l0 8.234375q0 1.03125 0.125 1.328125q0.125 0.28125 0.40625 0.453125q0.28125 0.171875 0.8125 0.171875q0.40625 0 1.046875 -0.09375zm11.5336 0.40625q-1.328125 1.125 -2.5625 1.59375q-1.21875 0.453125 -2.625 0.453125q-2.328125 0 -3.578125 -1.125q-1.234375 -1.140625 -1.234375 -2.90625q0 -1.03125 0.46875 -1.890625q0.46875 -0.859375 1.234375 -1.375q0.765625 -0.515625 1.71875 -0.78125q0.703125 -0.1875 2.125 -0.359375q2.890625 -0.34375 4.25 -0.8125q0.015625 -0.5 0.015625 -0.625q0 -1.46875 -0.671875 -2.0625q-0.921875 -0.8125 -2.71875 -0.8125q-1.6875 0 -2.5 0.59375q-0.796875 0.59375 -1.171875 2.09375l-2.34375 -0.3125q0.328125 -1.5 1.046875 -2.421875q0.734375 -0.921875 2.109375 -1.421875q1.390625 -0.5 3.203125 -0.5q1.796875 0 2.921875 0.421875q1.140625 0.421875 1.671875 1.078125q0.53125 0.640625 0.734375 1.609375q0.125 0.609375 0.125 2.203125l0 3.1875q0 3.328125 0.140625 4.21875q0.15625 0.875 0.609375 1.6875l-2.484375 0q-0.375 -0.75 -0.484375 -1.734375zm-0.203125 -5.34375q-1.296875 0.53125 -3.890625 0.90625q-1.484375 0.21875 -2.09375 0.484375q-0.609375 0.265625 -0.9375 0.78125q-0.328125 0.5 -0.328125 1.125q0 0.953125 0.71875 1.59375q0.71875 0.640625 2.125 0.640625q1.375 0 2.4375 -0.609375q1.078125 -0.609375 1.59375 -1.65625q0.375 -0.796875 0.375 -2.390625l0 -0.875z" fill-rule="nonzero"/><path fill="#fff2cc" d="m893.83746 260.3115l137.45563 0l0 70.36145l-137.45563 0z" fill-rule="evenodd"/><path stroke="#595959" stroke-width="2.0393700787401574" stroke-linejoin="round" stroke-linecap="butt" d="m893.83746 260.3115l137.45563 0l0 70.36145l-137.45563 0z" fill-rule="evenodd"/><path fill="#000000" d="m916.26794 285.6301l2.578125 0l0 11.234375q0 2.9375 -0.671875 4.671875q-0.65625 1.71875 -2.390625 2.796875q-1.734375 1.078125 -4.546875 1.078125q-2.734375 0 -4.46875 -0.9375q-1.734375 -0.9375 -2.484375 -2.71875q-0.734375 -1.796875 -0.734375 -4.890625l0 -11.234375l2.5625 0l0 11.234375q0 2.53125 0.46875 3.734375q0.484375 1.1875 1.625 1.84375q1.15625 0.65625 2.8125 0.65625q2.828125 0 4.03125 -1.28125q1.21875 -1.296875 1.21875 -4.953125l0 -11.234375zm5.5914307 15.25l2.375 -0.375q0.1875 1.421875 1.09375 2.1875q0.921875 0.75 2.546875 0.75q1.640625 0 2.4375 -0.671875q0.796875 -0.671875 0.796875 -1.578125q0 -0.8125 -0.703125 -1.265625q-0.484375 -0.328125 -2.4375 -0.8125q-2.625 -0.671875 -3.640625 -1.15625q-1.015625 -0.484375 -1.546875 -1.328125q-0.515625 -0.859375 -0.515625 -1.890625q0 -0.953125 0.421875 -1.75q0.4375 -0.796875 1.1875 -1.328125q0.546875 -0.421875 1.5 -0.703125q0.96875 -0.28125 2.078125 -0.28125q1.65625 0 2.90625 0.484375q1.265625 0.46875 1.859375 1.28125q0.59375 0.8125 0.8125 2.1875l-2.328125 0.3125q-0.15625 -1.078125 -0.921875 -1.6875q-0.765625 -0.609375 -2.15625 -0.609375q-1.640625 0 -2.34375 0.546875q-0.703125 0.53125 -0.703125 1.265625q0 0.46875 0.28125 0.828125q0.296875 0.390625 0.921875 0.640625q0.359375 0.140625 2.109375 0.609375q2.53125 0.671875 3.53125 1.109375q1.0 0.4375 1.5625 1.265625q0.578125 0.8125 0.578125 2.03125q0 1.1875 -0.703125 2.25q-0.6875 1.0625 -2.0 1.640625q-1.3125 0.5625 -2.96875 0.5625q-2.75 0 -4.1875 -1.140625q-1.4375 -1.140625 -1.84375 -3.375zm24.195312 -0.328125l2.46875 0.296875q-0.578125 2.171875 -2.171875 3.359375q-1.578125 1.1875 -4.03125 1.1875q-3.09375 0 -4.90625 -1.890625q-1.796875 -1.90625 -1.796875 -5.34375q0 -3.5625 1.828125 -5.515625q1.828125 -1.96875 4.75 -1.96875q2.828125 0 4.609375 1.921875q1.796875 1.921875 1.796875 5.40625q0 0.21875 -0.015625 0.640625l-10.5 0q0.125 2.328125 1.296875 3.5625q1.1875 1.234375 2.953125 1.234375q1.3125 0 2.234375 -0.6875q0.9375 -0.703125 1.484375 -2.203125zm-7.84375 -3.859375l7.875 0q-0.171875 -1.78125 -0.90625 -2.671875q-1.140625 -1.375 -2.953125 -1.375q-1.65625 0 -2.78125 1.09375q-1.109375 1.09375 -1.234375 2.953125zm13.283569 8.390625l0 -14.09375l2.140625 0l0 2.140625q0.828125 -1.5 1.515625 -1.96875q0.703125 -0.484375 1.546875 -0.484375q1.203125 0 2.453125 0.765625l-0.828125 2.21875q-0.875 -0.515625 -1.75 -0.515625q-0.78125 0 -1.40625 0.46875q-0.625 0.46875 -0.890625 1.3125q-0.390625 1.265625 -0.390625 2.78125l0 7.375l-2.390625 0zm16.925842 0l0 -19.453125l6.703125 0q2.265625 0 3.46875 0.28125q1.671875 0.390625 2.84375 1.390625q1.546875 1.296875 2.296875 3.328125q0.765625 2.015625 0.765625 4.625q0 2.21875 -0.515625 3.9375q-0.515625 1.703125 -1.328125 2.828125q-0.8125 1.109375 -1.78125 1.765625q-0.953125 0.640625 -2.3125 0.96875q-1.359375 0.328125 -3.125 0.328125l-7.015625 0zm2.578125 -2.296875l4.15625 0q1.921875 0 3.015625 -0.359375q1.09375 -0.359375 1.75 -1.0q0.90625 -0.921875 1.40625 -2.46875q0.515625 -1.546875 0.515625 -3.75q0 -3.046875 -1.0 -4.6875q-1.0 -1.640625 -2.421875 -2.1875q-1.046875 -0.40625 -3.34375 -0.40625l-4.078125 0l0 14.859375zm25.93512 0.5625q-1.328125 1.125 -2.5625 1.59375q-1.21875 0.453125 -2.625 0.453125q-2.328125 0 -3.578125 -1.125q-1.234375 -1.140625 -1.234375 -2.90625q0 -1.03125 0.46875 -1.890625q0.46875 -0.859375 1.234375 -1.375q0.765625 -0.515625 1.71875 -0.78125q0.703125 -0.1875 2.125 -0.359375q2.890625 -0.34375 4.25 -0.8125q0.015625 -0.5 0.015625 -0.625q0 -1.46875 -0.671875 -2.0625q-0.921875 -0.8125 -2.71875 -0.8125q-1.6875 0 -2.5 0.59375q-0.796875 0.59375 -1.171875 2.09375l-2.34375 -0.3125q0.328125 -1.5 1.046875 -2.421875q0.734375 -0.921875 2.109375 -1.421875q1.390625 -0.5 3.203125 -0.5q1.796875 0 2.921875 0.421875q1.140625 0.421875 1.671875 1.078125q0.53125 0.640625 0.734375 1.609375q0.125 0.609375 0.125 2.203125l0 3.1875q0 3.328125 0.140625 4.21875q0.15625 0.875 0.609375 1.6875l-2.484375 0q-0.375 -0.75 -0.484375 -1.734375zm-0.203125 -5.34375q-1.296875 0.53125 -3.890625 0.90625q-1.484375 0.21875 -2.09375 0.484375q-0.609375 0.265625 -0.9375 0.78125q-0.328125 0.5 -0.328125 1.125q0 0.953125 0.71875 1.59375q0.71875 0.640625 2.125 0.640625q1.375 0 2.4375 -0.609375q1.078125 -0.609375 1.59375 -1.65625q0.375 -0.796875 0.375 -2.390625l0 -0.875zm11.330505 4.9375l0.34375 2.109375q-1.0 0.21875 -1.796875 0.21875q-1.296875 0 -2.015625 -0.40625q-0.71875 -0.421875 -1.015625 -1.09375q-0.28125 -0.671875 -0.28125 -2.8125l0 -8.109375l-1.75 0l0 -1.859375l1.75 0l0 -3.484375l2.375 -1.4375l0 4.921875l2.390625 0l0 1.859375l-2.390625 0l0 8.234375q0 1.03125 0.125 1.328125q0.125 0.28125 0.40625 0.453125q0.28125 0.171875 0.8125 0.171875q0.40625 0 1.046875 -0.09375zm11.533569 0.40625q-1.328125 1.125 -2.5625 1.59375q-1.21875 0.453125 -2.625 0.453125q-2.328125 0 -3.578125 -1.125q-1.234375 -1.140625 -1.234375 -2.90625q0 -1.03125 0.46875 -1.890625q0.46875 -0.859375 1.234375 -1.375q0.765625 -0.515625 1.71875 -0.78125q0.703125 -0.1875 2.125 -0.359375q2.890625 -0.34375 4.25 -0.8125q0.015625 -0.5 0.015625 -0.625q0 -1.46875 -0.671875 -2.0625q-0.921875 -0.8125 -2.71875 -0.8125q-1.6875 0 -2.5 0.59375q-0.796875 0.59375 -1.171875 2.09375l-2.34375 -0.3125q0.328125 -1.5 1.046875 -2.421875q0.734375 -0.921875 2.109375 -1.421875q1.390625 -0.5 3.203125 -0.5q1.796875 0 2.921875 0.421875q1.140625 0.421875 1.671875 1.078125q0.53125 0.640625 0.734375 1.609375q0.125 0.609375 0.125 2.203125l0 3.1875q0 3.328125 0.140625 4.21875q0.15625 0.875 0.609375 1.6875l-2.484375 0q-0.375 -0.75 -0.484375 -1.734375zm-0.203125 -5.34375q-1.296875 0.53125 -3.890625 0.90625q-1.484375 0.21875 -2.09375 0.484375q-0.609375 0.265625 -0.9375 0.78125q-0.328125 0.5 -0.328125 1.125q0 0.953125 0.71875 1.59375q0.71875 0.640625 2.125 0.640625q1.375 0 2.4375 -0.609375q1.078125 -0.609375 1.59375 -1.65625q0.375 -0.796875 0.375 -2.390625l0 -0.875z" fill-rule="nonzero"/><path fill="#d0e0e3" d="m324.91122 260.30927l42.501465 0l0 40.8302l-42.501465 0z" fill-rule="evenodd"/><path stroke="#595959" stroke-width="2.0393700787401574" stroke-linejoin="round" stroke-linecap="butt" d="m324.91122 260.30927l42.501465 0l0 40.8302l-42.501465 0z" fill-rule="evenodd"/><path fill="#000000" d="m339.10068 284.08124l2.1875 -0.1875q0.15625 1.3125 0.71875 2.15625q0.578125 0.84375 1.765625 1.359375q1.203125 0.515625 2.6875 0.515625q1.328125 0 2.34375 -0.390625q1.015625 -0.390625 1.5 -1.078125q0.5 -0.6875 0.5 -1.5q0 -0.828125 -0.484375 -1.4375q-0.46875 -0.625 -1.5625 -1.03125q-0.703125 -0.28125 -3.125 -0.859375q-2.40625 -0.578125 -3.375 -1.09375q-1.25 -0.65625 -1.875 -1.625q-0.609375 -0.96875 -0.609375 -2.1875q0 -1.3125 0.75 -2.46875q0.75 -1.15625 2.1875 -1.75q1.453125 -0.59375 3.21875 -0.59375q1.953125 0 3.4375 0.625q1.484375 0.625 2.28125 1.84375q0.8125 1.21875 0.859375 2.75l-2.21875 0.171875q-0.171875 -1.65625 -1.203125 -2.5q-1.03125 -0.859375 -3.046875 -0.859375q-2.109375 0 -3.078125 0.78125q-0.953125 0.765625 -0.953125 1.84375q0 0.953125 0.6875 1.5625q0.65625 0.609375 3.484375 1.25q2.828125 0.640625 3.875 1.109375q1.53125 0.703125 2.25 1.78125q0.734375 1.078125 0.734375 2.5q0 1.390625 -0.796875 2.625q-0.796875 1.234375 -2.296875 1.921875q-1.5 0.6875 -3.375 0.6875q-2.375 0 -3.984375 -0.6875q-1.609375 -0.703125 -2.53125 -2.09375q-0.90625 -1.390625 -0.953125 -3.140625z" fill-rule="nonzero"/><path fill="#d0e0e3" d="m380.23813 164.5458l0 0c0 -19.42978 33.630524 -35.18074 75.115845 -35.18074l0 0c41.48535 0 75.115875 15.750961 75.115875 35.18074l0 0c0 19.42978 -33.630524 35.18074 -75.115875 35.18074l0 0c-41.48532 0 -75.115845 -15.750961 -75.115845 -35.18074z" fill-rule="evenodd"/><path stroke="#595959" stroke-width="2.0393700787401574" stroke-linejoin="round" stroke-linecap="butt" d="m380.23813 164.5458l0 0c0 -19.42978 33.630524 -35.18074 75.115845 -35.18074l0 0c41.48535 0 75.115875 15.750961 75.115875 35.18074l0 0c0 19.42978 -33.630524 35.18074 -75.115875 35.18074l0 0c-41.48532 0 -75.115845 -15.750961 -75.115845 -35.18074z" fill-rule="evenodd"/><path fill="#000000" d="m411.27078 167.88681l2.4375 -0.21875q0.171875 1.46875 0.796875 2.40625q0.625 0.9375 1.953125 1.515625q1.328125 0.5625 2.984375 0.5625q1.46875 0 2.59375 -0.4375q1.140625 -0.4375 1.6875 -1.1875q0.546875 -0.765625 0.546875 -1.671875q0 -0.921875 -0.53125 -1.59375q-0.53125 -0.6875 -1.75 -1.15625q-0.78125 -0.296875 -3.46875 -0.9375q-2.671875 -0.65625 -3.75 -1.21875q-1.390625 -0.734375 -2.078125 -1.8125q-0.671875 -1.078125 -0.671875 -2.421875q0 -1.46875 0.828125 -2.75q0.84375 -1.28125 2.4375 -1.9375q1.609375 -0.671875 3.578125 -0.671875q2.15625 0 3.8125 0.703125q1.65625 0.6875 2.53125 2.046875q0.890625 1.34375 0.96875 3.0625l-2.46875 0.1875q-0.203125 -1.84375 -1.359375 -2.78125q-1.140625 -0.953125 -3.375 -0.953125q-2.34375 0 -3.421875 0.859375q-1.0625 0.859375 -1.0625 2.0625q0 1.046875 0.765625 1.71875q0.734375 0.6875 3.875 1.40625q3.140625 0.703125 4.3125 1.21875q1.6875 0.796875 2.5 2.0q0.8125 1.1875 0.8125 2.75q0 1.5625 -0.890625 2.9375q-0.890625 1.375 -2.5625 2.140625q-1.65625 0.75 -3.734375 0.75q-2.640625 0 -4.4375 -0.765625q-1.78125 -0.765625 -2.796875 -2.3125q-1.0 -1.546875 -1.0625 -3.5zm28.342163 1.71875l2.46875 0.296875q-0.578125 2.171875 -2.171875 3.359375q-1.578125 1.1875 -4.03125 1.1875q-3.09375 0 -4.90625 -1.890625q-1.796875 -1.90625 -1.796875 -5.34375q0 -3.5625 1.828125 -5.515625q1.828125 -1.96875 4.75 -1.96875q2.828125 0 4.609375 1.921875q1.796875 1.921875 1.796875 5.40625q0 0.21875 -0.015625 0.640625l-10.5 0q0.125 2.328125 1.296875 3.5625q1.1875 1.234375 2.953125 1.234375q1.3125 0 2.234375 -0.6875q0.9375 -0.703125 1.484375 -2.203125zm-7.84375 -3.859375l7.875 0q-0.171875 -1.78125 -0.90625 -2.671875q-1.140625 -1.375 -2.953125 -1.375q-1.65625 0 -2.78125 1.09375q-1.109375 1.09375 -1.234375 2.953125zm13.2836 8.390625l0 -14.09375l2.140625 0l0 2.140625q0.828125 -1.5 1.515625 -1.96875q0.703125 -0.484375 1.546875 -0.484375q1.203125 0 2.453125 0.765625l-0.828125 2.21875q-0.875 -0.515625 -1.75 -0.515625q-0.78125 0 -1.40625 0.46875q-0.625 0.46875 -0.890625 1.3125q-0.390625 1.265625 -0.390625 2.78125l0 7.375l-2.390625 0zm12.985931 0l-5.359375 -14.09375l2.515625 0l3.03125 8.4375q0.484375 1.375 0.90625 2.84375q0.3125 -1.109375 0.890625 -2.6875l3.125 -8.59375l2.453125 0l-5.328125 14.09375l-2.234375 0zm9.6796875 -16.703125l0 -2.75l2.390625 0l0 2.75l-2.390625 0zm0 16.703125l0 -14.09375l2.390625 0l0 14.09375l-2.390625 0zm15.224243 -5.15625l2.34375 0.296875q-0.375 2.4375 -1.96875 3.8125q-1.578125 1.359375 -3.890625 1.359375q-2.890625 0 -4.65625 -1.890625q-1.75 -1.890625 -1.75 -5.40625q0 -2.296875 0.75 -4.0q0.765625 -1.71875 2.3125 -2.5625q1.546875 -0.859375 3.359375 -0.859375q2.296875 0 3.75 1.15625q1.46875 1.15625 1.875 3.296875l-2.328125 0.359375q-0.328125 -1.421875 -1.171875 -2.125q-0.84375 -0.71875 -2.03125 -0.71875q-1.8125 0 -2.9375 1.296875q-1.125 1.28125 -1.125 4.078125q0 2.84375 1.078125 4.140625q1.09375 1.28125 2.84375 1.28125q1.40625 0 2.34375 -0.859375q0.953125 -0.875 1.203125 -2.65625zm14.0390625 0.625l2.46875 0.296875q-0.578125 2.171875 -2.171875 3.359375q-1.578125 1.1875 -4.03125 1.1875q-3.09375 0 -4.90625 -1.890625q-1.796875 -1.90625 -1.796875 -5.34375q0 -3.5625 1.828125 -5.515625q1.828125 -1.96875 4.75 -1.96875q2.828125 0 4.609375 1.921875q1.796875 1.921875 1.796875 5.40625q0 0.21875 -0.015625 0.640625l-10.5 0q0.125 2.328125 1.296875 3.5625q1.1875 1.234375 2.953125 1.234375q1.3125 0 2.234375 -0.6875q0.9375 -0.703125 1.484375 -2.203125zm-7.84375 -3.859375l7.875 0q-0.171875 -1.78125 -0.90625 -2.671875q-1.140625 -1.375 -2.953125 -1.375q-1.65625 0 -2.78125 1.09375q-1.109375 1.09375 -1.234375 2.953125z" fill-rule="nonzero"/><path fill="#d0e0e3" d="m326.81305 124.91592l42.501434 0l0 40.830208l-42.501434 0z" fill-rule="evenodd"/><path stroke="#595959" stroke-width="2.0393700787401574" stroke-linejoin="round" stroke-linecap="butt" d="m326.81305 124.91592l42.501434 0l0 40.830208l-42.501434 0z" fill-rule="evenodd"/><path fill="#000000" d="m341.00247 148.68787l2.1875 -0.1875q0.15625 1.3125 0.71875 2.15625q0.578125 0.84375 1.765625 1.359375q1.203125 0.515625 2.6875 0.515625q1.328125 0 2.34375 -0.390625q1.015625 -0.390625 1.5 -1.078125q0.5 -0.6875 0.5 -1.5q0 -0.828125 -0.484375 -1.4375q-0.46875 -0.625 -1.5625 -1.03125q-0.703125 -0.28125 -3.125 -0.859375q-2.40625 -0.578125 -3.375 -1.09375q-1.25 -0.65625 -1.875 -1.625q-0.609375 -0.96875 -0.609375 -2.1875q0 -1.3125 0.75 -2.46875q0.75 -1.15625 2.1875 -1.75q1.453125 -0.59375 3.21875 -0.59375q1.953125 0 3.4375 0.625q1.484375 0.625 2.28125 1.84375q0.8125 1.21875 0.859375 2.75l-2.21875 0.171875q-0.171875 -1.65625 -1.203125 -2.5q-1.03125 -0.859375 -3.046875 -0.859375q-2.109375 0 -3.078125 0.78125q-0.953125 0.765625 -0.953125 1.84375q0 0.953125 0.6875 1.5625q0.65625 0.609375 3.484375 1.25q2.828125 0.640625 3.875 1.109375q1.53125 0.703125 2.25 1.78125q0.734375 1.078125 0.734375 2.5q0 1.390625 -0.796875 2.625q-0.796875 1.234375 -2.296875 1.921875q-1.5 0.6875 -3.375 0.6875q-2.375 0 -3.984375 -0.6875q-1.609375 -0.703125 -2.53125 -2.09375q-0.90625 -1.390625 -0.953125 -3.140625z" fill-rule="nonzero"/><path fill="#fff2cc" d="m835.9979 260.30927l42.501465 0l0 40.8302l-42.501465 0z" fill-rule="evenodd"/><path stroke="#595959" stroke-width="2.0393700787401574" stroke-linejoin="round" stroke-linecap="butt" d="m835.9979 260.30927l42.501465 0l0 40.8302l-42.501465 0z" fill-rule="evenodd"/><path fill="#000000" d="m861.794 272.20624l2.3125 0l0 10.109375q0 2.640625 -0.59375 4.203125q-0.59375 1.546875 -2.15625 2.515625q-1.5625 0.96875 -4.09375 0.96875q-2.453125 0 -4.015625 -0.84375q-1.5625 -0.84375 -2.234375 -2.453125q-0.671875 -1.609375 -0.671875 -4.390625l0 -10.109375l2.3125 0l0 10.09375q0 2.28125 0.421875 3.359375q0.4375 1.078125 1.46875 1.671875q1.03125 0.578125 2.515625 0.578125q2.5625 0 3.640625 -1.15625q1.09375 -1.15625 1.09375 -4.453125l0 -10.09375z" fill-rule="nonzero"/><path fill="#000000" fill-opacity="0.0" d="m455.35397 199.72655l0 60.603317" fill-rule="evenodd"/><path stroke="#595959" stroke-width="2.0393700787401574" stroke-linejoin="round" stroke-linecap="butt" d="m455.35397 211.96277l0 36.13086" fill-rule="evenodd"/><path fill="#595959" stroke="#595959" stroke-width="2.0393700787401574" stroke-linecap="butt" d="m458.72244 211.96277l-3.3684692 -9.254868l-3.3684998 9.254868z" fill-rule="evenodd"/><path fill="#595959" stroke="#595959" stroke-width="2.0393700787401574" stroke-linecap="butt" d="m451.98547 248.09363l3.3684998 9.254852l3.3684692 -9.254852z" fill-rule="evenodd"/><path fill="#d0e0e3" d="m779.20483 164.5458l0 0c0 -19.42978 33.630554 -35.18074 75.115845 -35.18074l0 0c41.48535 0 75.115845 15.750961 75.115845 35.18074l0 0c0 19.42978 -33.630493 35.18074 -75.115845 35.18074l0 0c-41.48529 0 -75.115845 -15.750961 -75.115845 -35.18074z" fill-rule="evenodd"/><path stroke="#595959" stroke-width="2.0393700787401574" stroke-linejoin="round" stroke-linecap="butt" d="m779.20483 164.5458l0 0c0 -19.42978 33.630554 -35.18074 75.115845 -35.18074l0 0c41.48535 0 75.115845 15.750961 75.115845 35.18074l0 0c0 19.42978 -33.630493 35.18074 -75.115845 35.18074l0 0c-41.48529 0 -75.115845 -15.750961 -75.115845 -35.18074z" fill-rule="evenodd"/><path fill="#000000" d="m810.2375 167.88681l2.4375 -0.21875q0.171875 1.46875 0.796875 2.40625q0.625 0.9375 1.953125 1.515625q1.328125 0.5625 2.984375 0.5625q1.46875 0 2.59375 -0.4375q1.140625 -0.4375 1.6875 -1.1875q0.546875 -0.765625 0.546875 -1.671875q0 -0.921875 -0.53125 -1.59375q-0.53125 -0.6875 -1.75 -1.15625q-0.78125 -0.296875 -3.46875 -0.9375q-2.671875 -0.65625 -3.75 -1.21875q-1.390625 -0.734375 -2.078125 -1.8125q-0.671875 -1.078125 -0.671875 -2.421875q0 -1.46875 0.828125 -2.75q0.84375 -1.28125 2.4375 -1.9375q1.609375 -0.671875 3.578125 -0.671875q2.15625 0 3.8125 0.703125q1.65625 0.6875 2.53125 2.046875q0.890625 1.34375 0.96875 3.0625l-2.46875 0.1875q-0.203125 -1.84375 -1.359375 -2.78125q-1.140625 -0.953125 -3.375 -0.953125q-2.34375 0 -3.421875 0.859375q-1.0625 0.859375 -1.0625 2.0625q0 1.046875 0.765625 1.71875q0.734375 0.6875 3.875 1.40625q3.140625 0.703125 4.3125 1.21875q1.6875 0.796875 2.5 2.0q0.8125 1.1875 0.8125 2.75q0 1.5625 -0.890625 2.9375q-0.890625 1.375 -2.5625 2.140625q-1.65625 0.75 -3.734375 0.75q-2.640625 0 -4.4375 -0.765625q-1.78125 -0.765625 -2.796875 -2.3125q-1.0 -1.546875 -1.0625 -3.5zm28.342224 1.71875l2.46875 0.296875q-0.578125 2.171875 -2.171875 3.359375q-1.578125 1.1875 -4.03125 1.1875q-3.09375 0 -4.90625 -1.890625q-1.796875 -1.90625 -1.796875 -5.34375q0 -3.5625 1.828125 -5.515625q1.828125 -1.96875 4.75 -1.96875q2.828125 0 4.609375 1.921875q1.796875 1.921875 1.796875 5.40625q0 0.21875 -0.015625 0.640625l-10.5 0q0.125 2.328125 1.296875 3.5625q1.1875 1.234375 2.953125 1.234375q1.3125 0 2.234375 -0.6875q0.9375 -0.703125 1.484375 -2.203125zm-7.84375 -3.859375l7.875 0q-0.171875 -1.78125 -0.90625 -2.671875q-1.140625 -1.375 -2.953125 -1.375q-1.65625 0 -2.78125 1.09375q-1.109375 1.09375 -1.234375 2.953125zm13.283569 8.390625l0 -14.09375l2.140625 0l0 2.140625q0.828125 -1.5 1.515625 -1.96875q0.703125 -0.484375 1.546875 -0.484375q1.203125 0 2.453125 0.765625l-0.828125 2.21875q-0.875 -0.515625 -1.75 -0.515625q-0.78125 0 -1.40625 0.46875q-0.625 0.46875 -0.890625 1.3125q-0.390625 1.265625 -0.390625 2.78125l0 7.375l-2.390625 0zm12.985962 0l-5.359375 -14.09375l2.515625 0l3.03125 8.4375q0.484375 1.375 0.90625 2.84375q0.3125 -1.109375 0.890625 -2.6875l3.125 -8.59375l2.453125 0l-5.328125 14.09375l-2.234375 0zm9.6796875 -16.703125l0 -2.75l2.390625 0l0 2.75l-2.390625 0zm0 16.703125l0 -14.09375l2.390625 0l0 14.09375l-2.390625 0zm15.224182 -5.15625l2.34375 0.296875q-0.375 2.4375 -1.96875 3.8125q-1.578125 1.359375 -3.890625 1.359375q-2.890625 0 -4.65625 -1.890625q-1.75 -1.890625 -1.75 -5.40625q0 -2.296875 0.75 -4.0q0.765625 -1.71875 2.3125 -2.5625q1.546875 -0.859375 3.359375 -0.859375q2.296875 0 3.75 1.15625q1.46875 1.15625 1.875 3.296875l-2.328125 0.359375q-0.328125 -1.421875 -1.171875 -2.125q-0.84375 -0.71875 -2.03125 -0.71875q-1.8125 0 -2.9375 1.296875q-1.125 1.28125 -1.125 4.078125q0 2.84375 1.078125 4.140625q1.09375 1.28125 2.84375 1.28125q1.40625 0 2.34375 -0.859375q0.953125 -0.875 1.203125 -2.65625zm14.0390625 0.625l2.46875 0.296875q-0.578125 2.171875 -2.171875 3.359375q-1.578125 1.1875 -4.03125 1.1875q-3.09375 0 -4.90625 -1.890625q-1.796875 -1.90625 -1.796875 -5.34375q0 -3.5625 1.828125 -5.515625q1.828125 -1.96875 4.75 -1.96875q2.828125 0 4.609375 1.921875q1.796875 1.921875 1.796875 5.40625q0 0.21875 -0.015625 0.640625l-10.5 0q0.125 2.328125 1.296875 3.5625q1.1875 1.234375 2.953125 1.234375q1.3125 0 2.234375 -0.6875q0.9375 -0.703125 1.484375 -2.203125zm-7.84375 -3.859375l7.875 0q-0.171875 -1.78125 -0.90625 -2.671875q-1.140625 -1.375 -2.953125 -1.375q-1.65625 0 -2.78125 1.09375q-1.109375 1.09375 -1.234375 2.953125z" fill-rule="nonzero"/><path fill="#d0e0e3" d="m683.22186 260.3115l137.45557 0l0 70.36145l-137.45557 0z" fill-rule="evenodd"/><path stroke="#595959" stroke-width="2.0393700787401574" stroke-linejoin="round" stroke-linecap="butt" d="m683.22186 260.3115l137.45557 0l0 70.36145l-137.45557 0z" fill-rule="evenodd"/><path fill="#000000" d="m707.86646 282.33322l2.4375 -0.21875q0.171875 1.46875 0.796875 2.40625q0.625 0.9375 1.953125 1.515625q1.328125 0.5625 2.984375 0.5625q1.46875 0 2.59375 -0.4375q1.140625 -0.4375 1.6875 -1.1875q0.546875 -0.765625 0.546875 -1.671875q0 -0.921875 -0.53125 -1.59375q-0.53125 -0.6875 -1.75 -1.15625q-0.78125 -0.296875 -3.46875 -0.9375q-2.671875 -0.65625 -3.75 -1.21875q-1.390625 -0.734375 -2.078125 -1.8125q-0.671875 -1.078125 -0.671875 -2.421875q0 -1.46875 0.828125 -2.75q0.84375 -1.28125 2.4375 -1.9375q1.609375 -0.671875 3.578125 -0.671875q2.15625 0 3.8125 0.703125q1.65625 0.6875 2.53125 2.046875q0.890625 1.34375 0.96875 3.0625l-2.46875 0.1875q-0.203125 -1.84375 -1.359375 -2.78125q-1.140625 -0.953125 -3.375 -0.953125q-2.34375 0 -3.421875 0.859375q-1.0625 0.859375 -1.0625 2.0625q0 1.046875 0.765625 1.71875q0.734375 0.6875 3.875 1.40625q3.140625 0.703125 4.3125 1.21875q1.6875 0.796875 2.5 2.0q0.8125 1.1875 0.8125 2.75q0 1.5625 -0.890625 2.9375q-0.890625 1.375 -2.5625 2.140625q-1.65625 0.75 -3.734375 0.75q-2.640625 0 -4.4375 -0.765625q-1.78125 -0.765625 -2.796875 -2.3125q-1.0 -1.546875 -1.0625 -3.5zm28.342163 1.71875l2.46875 0.296875q-0.578125 2.171875 -2.171875 3.359375q-1.578125 1.1875 -4.03125 1.1875q-3.09375 0 -4.90625 -1.890625q-1.796875 -1.90625 -1.796875 -5.34375q0 -3.5625 1.828125 -5.515625q1.828125 -1.96875 4.75 -1.96875q2.828125 0 4.609375 1.921875q1.796875 1.921875 1.796875 5.40625q0 0.21875 -0.015625 0.640625l-10.5 0q0.125 2.328125 1.296875 3.5625q1.1875 1.234375 2.953125 1.234375q1.3125 0 2.234375 -0.6875q0.9375 -0.703125 1.484375 -2.203125zm-7.84375 -3.859375l7.875 0q-0.171875 -1.78125 -0.90625 -2.671875q-1.140625 -1.375 -2.953125 -1.375q-1.65625 0 -2.78125 1.09375q-1.109375 1.09375 -1.234375 2.953125zm13.283569 8.390625l0 -14.09375l2.140625 0l0 2.140625q0.828125 -1.5 1.515625 -1.96875q0.703125 -0.484375 1.546875 -0.484375q1.203125 0 2.453125 0.765625l-0.828125 2.21875q-0.875 -0.515625 -1.75 -0.515625q-0.78125 0 -1.40625 0.46875q-0.625 0.46875 -0.890625 1.3125q-0.390625 1.265625 -0.390625 2.78125l0 7.375l-2.390625 0zm12.985962 0l-5.359375 -14.09375l2.515625 0l3.03125 8.4375q0.484375 1.375 0.90625 2.84375q0.3125 -1.109375 0.890625 -2.6875l3.125 -8.59375l2.453125 0l-5.328125 14.09375l-2.234375 0zm9.6796875 -16.703125l0 -2.75l2.390625 0l0 2.75l-2.390625 0zm0 16.703125l0 -14.09375l2.390625 0l0 14.09375l-2.390625 0zm15.224243 -5.15625l2.34375 0.296875q-0.375 2.4375 -1.96875 3.8125q-1.578125 1.359375 -3.890625 1.359375q-2.890625 0 -4.65625 -1.890625q-1.75 -1.890625 -1.75 -5.40625q0 -2.296875 0.75 -4.0q0.765625 -1.71875 2.3125 -2.5625q1.546875 -0.859375 3.359375 -0.859375q2.296875 0 3.75 1.15625q1.46875 1.15625 1.875 3.296875l-2.328125 0.359375q-0.328125 -1.421875 -1.171875 -2.125q-0.84375 -0.71875 -2.03125 -0.71875q-1.8125 0 -2.9375 1.296875q-1.125 1.28125 -1.125 4.078125q0 2.84375 1.078125 4.140625q1.09375 1.28125 2.84375 1.28125q1.40625 0 2.34375 -0.859375q0.953125 -0.875 1.203125 -2.65625zm14.0390625 0.625l2.46875 0.296875q-0.578125 2.171875 -2.171875 3.359375q-1.578125 1.1875 -4.03125 1.1875q-3.09375 0 -4.90625 -1.890625q-1.796875 -1.90625 -1.796875 -5.34375q0 -3.5625 1.828125 -5.515625q1.828125 -1.96875 4.75 -1.96875q2.828125 0 4.609375 1.921875q1.796875 1.921875 1.796875 5.40625q0 0.21875 -0.015625 0.640625l-10.5 0q0.125 2.328125 1.296875 3.5625q1.1875 1.234375 2.953125 1.234375q1.3125 0 2.234375 -0.6875q0.9375 -0.703125 1.484375 -2.203125zm-7.84375 -3.859375l7.875 0q-0.171875 -1.78125 -0.90625 -2.671875q-1.140625 -1.375 -2.953125 -1.375q-1.65625 0 -2.78125 1.09375q-1.109375 1.09375 -1.234375 2.953125z" fill-rule="nonzero"/><path fill="#000000" d="m725.3457 321.58322l0 -19.453125l6.703125 0q2.265625 0 3.46875 0.28125q1.671875 0.390625 2.84375 1.390625q1.546875 1.296875 2.296875 3.328125q0.765625 2.015625 0.765625 4.625q0 2.21875 -0.515625 3.9375q-0.515625 1.703125 -1.328125 2.828125q-0.8125 1.109375 -1.78125 1.765625q-0.953125 0.640625 -2.3125 0.96875q-1.359375 0.328125 -3.125 0.328125l-7.015625 0zm2.578125 -2.296875l4.15625 0q1.921875 0 3.015625 -0.359375q1.09375 -0.359375 1.75 -1.0q0.90625 -0.921875 1.40625 -2.46875q0.515625 -1.546875 0.515625 -3.75q0 -3.046875 -1.0 -4.6875q-1.0 -1.640625 -2.421875 -2.1875q-1.046875 -0.40625 -3.34375 -0.40625l-4.078125 0l0 14.859375zm25.93518 0.5625q-1.328125 1.125 -2.5625 1.59375q-1.21875 0.453125 -2.625 0.453125q-2.328125 0 -3.578125 -1.125q-1.234375 -1.140625 -1.234375 -2.90625q0 -1.03125 0.46875 -1.890625q0.46875 -0.859375 1.234375 -1.375q0.765625 -0.515625 1.71875 -0.78125q0.703125 -0.1875 2.125 -0.359375q2.890625 -0.34375 4.25 -0.8125q0.015625 -0.5 0.015625 -0.625q0 -1.46875 -0.671875 -2.0625q-0.921875 -0.8125 -2.71875 -0.8125q-1.6875 0 -2.5 0.59375q-0.796875 0.59375 -1.171875 2.09375l-2.34375 -0.3125q0.328125 -1.5 1.046875 -2.421875q0.734375 -0.921875 2.109375 -1.421875q1.390625 -0.5 3.203125 -0.5q1.796875 0 2.921875 0.421875q1.140625 0.421875 1.671875 1.078125q0.53125 0.640625 0.734375 1.609375q0.125 0.609375 0.125 2.203125l0 3.1875q0 3.328125 0.140625 4.21875q0.15625 0.875 0.609375 1.6875l-2.484375 0q-0.375 -0.75 -0.484375 -1.734375zm-0.203125 -5.34375q-1.296875 0.53125 -3.890625 0.90625q-1.484375 0.21875 -2.09375 0.484375q-0.609375 0.265625 -0.9375 0.78125q-0.328125 0.5 -0.328125 1.125q0 0.953125 0.71875 1.59375q0.71875 0.640625 2.125 0.640625q1.375 0 2.4375 -0.609375q1.078125 -0.609375 1.59375 -1.65625q0.375 -0.796875 0.375 -2.390625l0 -0.875zm11.330444 4.9375l0.34375 2.109375q-1.0 0.21875 -1.796875 0.21875q-1.296875 0 -2.015625 -0.40625q-0.71875 -0.421875 -1.015625 -1.09375q-0.28125 -0.671875 -0.28125 -2.8125l0 -8.109375l-1.75 0l0 -1.859375l1.75 0l0 -3.484375l2.375 -1.4375l0 4.921875l2.390625 0l0 1.859375l-2.390625 0l0 8.234375q0 1.03125 0.125 1.328125q0.125 0.28125 0.40625 0.453125q0.28125 0.171875 0.8125 0.171875q0.40625 0 1.046875 -0.09375zm11.53363 0.40625q-1.328125 1.125 -2.5625 1.59375q-1.21875 0.453125 -2.625 0.453125q-2.328125 0 -3.578125 -1.125q-1.234375 -1.140625 -1.234375 -2.90625q0 -1.03125 0.46875 -1.890625q0.46875 -0.859375 1.234375 -1.375q0.765625 -0.515625 1.71875 -0.78125q0.703125 -0.1875 2.125 -0.359375q2.890625 -0.34375 4.25 -0.8125q0.015625 -0.5 0.015625 -0.625q0 -1.46875 -0.671875 -2.0625q-0.921875 -0.8125 -2.71875 -0.8125q-1.6875 0 -2.5 0.59375q-0.796875 0.59375 -1.171875 2.09375l-2.34375 -0.3125q0.328125 -1.5 1.046875 -2.421875q0.734375 -0.921875 2.109375 -1.421875q1.390625 -0.5 3.203125 -0.5q1.796875 0 2.921875 0.421875q1.140625 0.421875 1.671875 1.078125q0.53125 0.640625 0.734375 1.609375q0.125 0.609375 0.125 2.203125l0 3.1875q0 3.328125 0.140625 4.21875q0.15625 0.875 0.609375 1.6875l-2.484375 0q-0.375 -0.75 -0.484375 -1.734375zm-0.203125 -5.34375q-1.296875 0.53125 -3.890625 0.90625q-1.484375 0.21875 -2.09375 0.484375q-0.609375 0.265625 -0.9375 0.78125q-0.328125 0.5 -0.328125 1.125q0 0.953125 0.71875 1.59375q0.71875 0.640625 2.125 0.640625q1.375 0 2.4375 -0.609375q1.078125 -0.609375 1.59375 -1.65625q0.375 -0.796875 0.375 -2.390625l0 -0.875z" fill-rule="nonzero"/><path fill="#d0e0e3" d="m629.28705 260.30927l42.501465 0l0 40.8302l-42.501465 0z" fill-rule="evenodd"/><path stroke="#595959" stroke-width="2.0393700787401574" stroke-linejoin="round" stroke-linecap="butt" d="m629.28705 260.30927l42.501465 0l0 40.8302l-42.501465 0z" fill-rule="evenodd"/><path fill="#000000" d="m643.4765 284.08124l2.1875 -0.1875q0.15625 1.3125 0.71875 2.15625q0.578125 0.84375 1.765625 1.359375q1.203125 0.515625 2.6875 0.515625q1.328125 0 2.34375 -0.390625q1.015625 -0.390625 1.5 -1.078125q0.5 -0.6875 0.5 -1.5q0 -0.828125 -0.484375 -1.4375q-0.46875 -0.625 -1.5625 -1.03125q-0.703125 -0.28125 -3.125 -0.859375q-2.40625 -0.578125 -3.375 -1.09375q-1.25 -0.65625 -1.875 -1.625q-0.609375 -0.96875 -0.609375 -2.1875q0 -1.3125 0.75 -2.46875q0.75 -1.15625 2.1875 -1.75q1.453125 -0.59375 3.21875 -0.59375q1.953125 0 3.4375 0.625q1.484375 0.625 2.28125 1.84375q0.8125 1.21875 0.859375 2.75l-2.21875 0.171875q-0.171875 -1.65625 -1.203125 -2.5q-1.03125 -0.859375 -3.046875 -0.859375q-2.109375 0 -3.078125 0.78125q-0.953125 0.765625 -0.953125 1.84375q0 0.953125 0.6875 1.5625q0.65625 0.609375 3.484375 1.25q2.828125 0.640625 3.875 1.109375q1.53125 0.703125 2.25 1.78125q0.734375 1.078125 0.734375 2.5q0 1.390625 -0.796875 2.625q-0.796875 1.234375 -2.296875 1.921875q-1.5 0.6875 -3.375 0.6875q-2.375 0 -3.984375 -0.6875q-1.609375 -0.703125 -2.53125 -2.09375q-0.90625 -1.390625 -0.953125 -3.140625z" fill-rule="nonzero"/><path fill="#000000" fill-opacity="0.0" d="m854.3207 199.72655l-102.40149 60.603317" fill-rule="evenodd"/><path stroke="#595959" stroke-width="2.0393700787401574" stroke-linejoin="round" stroke-linecap="butt" d="m843.79047 205.95857l-91.87128 54.37126" fill-rule="evenodd"/><path fill="#595959" stroke="#595959" stroke-width="2.0393700787401574" stroke-linecap="butt" d="m845.50604 208.85745l6.2489624 -7.6124725l-9.680176 1.8147278z" fill-rule="evenodd"/><path fill="#000000" fill-opacity="0.0" d="m962.56525 260.3115l-108.243835 -60.603317" fill-rule="evenodd"/><path stroke="#595959" stroke-width="2.0393700787401574" stroke-linejoin="round" stroke-linecap="butt" d="m962.5652 260.31146l-97.56708 -54.625626" fill-rule="evenodd"/><path fill="#595959" stroke="#595959" stroke-width="2.0393700787401574" stroke-linecap="butt" d="m866.6437 202.74664l-9.720947 -1.582016l6.4297485 7.460388z" fill-rule="evenodd"/><path fill="#fff2cc" d="m733.1108 124.834984l42.501465 0l0 40.830208l-42.501465 0z" fill-rule="evenodd"/><path stroke="#595959" stroke-width="2.0393700787401574" stroke-linejoin="round" stroke-linecap="butt" d="m733.1108 124.834984l42.501465 0l0 40.830208l-42.501465 0z" fill-rule="evenodd"/><path fill="#000000" d="m758.90686 136.73193l2.3125 0l0 10.109375q0 2.640625 -0.59375 4.203125q-0.59375 1.546875 -2.15625 2.515625q-1.5625 0.96875 -4.09375 0.96875q-2.453125 0 -4.015625 -0.84375q-1.5625 -0.84375 -2.234375 -2.453125q-0.671875 -1.609375 -0.671875 -4.390625l0 -10.109375l2.3125 0l0 10.09375q0 2.28125 0.421875 3.359375q0.4375 1.078125 1.46875 1.671875q1.03125 0.578125 2.515625 0.578125q2.5625 0 3.640625 -1.15625q1.09375 -1.15625 1.09375 -4.453125l0 -10.09375z" fill-rule="nonzero"/><path fill="#d0e0e3" d="m685.119 124.91381l42.501465 0l0 40.830193l-42.501465 0z" fill-rule="evenodd"/><path stroke="#595959" stroke-width="2.0393700787401574" stroke-linejoin="round" stroke-linecap="butt" d="m685.119 124.91381l42.501465 0l0 40.830193l-42.501465 0z" fill-rule="evenodd"/><path fill="#000000" d="m699.3085 148.68576l2.1875 -0.1875q0.15625 1.3125 0.71875 2.15625q0.578125 0.84375 1.765625 1.359375q1.203125 0.515625 2.6875 0.515625q1.328125 0 2.34375 -0.390625q1.015625 -0.390625 1.5 -1.078125q0.5 -0.6875 0.5 -1.5q0 -0.828125 -0.484375 -1.4375q-0.46875 -0.625 -1.5625 -1.03125q-0.703125 -0.28125 -3.125 -0.859375q-2.40625 -0.578125 -3.375 -1.09375q-1.25 -0.65625 -1.875 -1.625q-0.609375 -0.96875 -0.609375 -2.1875q0 -1.3125 0.75 -2.46875q0.75 -1.15625 2.1875 -1.75q1.453125 -0.59375 3.21875 -0.59375q1.953125 0 3.4375 0.625q1.484375 0.625 2.28125 1.84375q0.8125 1.21875 0.859375 2.75l-2.21875 0.171875q-0.171875 -1.65625 -1.203125 -2.5q-1.03125 -0.859375 -3.046875 -0.859375q-2.109375 0 -3.078125 0.78125q-0.953125 0.765625 -0.953125 1.84375q0 0.953125 0.6875 1.5625q0.65625 0.609375 3.484375 1.25q2.828125 0.640625 3.875 1.109375q1.53125 0.703125 2.25 1.78125q0.734375 1.078125 0.734375 2.5q0 1.390625 -0.796875 2.625q-0.796875 1.234375 -2.296875 1.921875q-1.5 0.6875 -3.375 0.6875q-2.375 0 -3.984375 -0.6875q-1.609375 -0.703125 -2.53125 -2.09375q-0.90625 -1.390625 -0.953125 -3.140625z" fill-rule="nonzero"/><path fill="#eeeeee" d="m558.0055 209.98247l31.84497 0l0 -10.20755l20.4151 20.4151l-20.4151 20.4151l0 -10.20755l-31.84497 0z" fill-rule="evenodd"/><path stroke="#595959" stroke-width="2.0393700787401574" stroke-linejoin="round" stroke-linecap="butt" d="m558.0055 209.98247l31.84497 0l0 -10.20755l20.4151 20.4151l-20.4151 20.4151l0 -10.20755l-31.84497 0z" fill-rule="evenodd"/><path fill="#000000" fill-opacity="0.0" d="m78.97815 139.13914l87.62428 0l0 39.52414l-87.62428 0z" fill-rule="evenodd"/><path fill="#fff2cc" d="m124.89776 139.0633l41.139915 0l0 39.52414l-41.139915 0z" fill-rule="evenodd"/><path stroke="#595959" stroke-width="1.973753280839895" stroke-linejoin="round" stroke-linecap="butt" d="m124.89776 139.0633l41.139915 0l0 39.52414l-41.139915 0z" fill-rule="evenodd"/><path fill="#000000" d="m149.8733 150.61708l2.234375 0l0 9.78125q0 2.5625 -0.578125 4.0625q-0.578125 1.5 -2.09375 2.4375q-1.5 0.9375 -3.953125 0.9375q-2.375 0 -3.890625 -0.8125q-1.515625 -0.828125 -2.171875 -2.375q-0.640625 -1.5625 -0.640625 -4.25l0 -9.78125l2.25 0l0 9.765625q0 2.21875 0.40625 3.265625q0.40625 1.046875 1.40625 1.609375q1.0 0.5625 2.453125 0.5625q2.46875 0 3.515625 -1.109375q1.0625 -1.125 1.0625 -4.328125l0 -9.765625z" fill-rule="nonzero"/><path fill="#d0e0e3" d="m78.443405 139.13959l41.139908 0l0 39.524155l-41.139908 0z" fill-rule="evenodd"/><path stroke="#595959" stroke-width="1.973753280839895" stroke-linejoin="round" stroke-linecap="butt" d="m78.443405 139.13959l41.139908 0l0 39.524155l-41.139908 0z" fill-rule="evenodd"/><path fill="#000000" d="m92.18138 162.19337l2.109375 -0.1875q0.15625 1.265625 0.703125 2.078125q0.546875 0.8125 1.703125 1.328125q1.15625 0.5 2.609375 0.5q1.28125 0 2.265625 -0.375q0.984375 -0.390625 1.453125 -1.046875q0.484375 -0.671875 0.484375 -1.453125q0 -0.796875 -0.46875 -1.390625q-0.453125 -0.609375 -1.515625 -1.015625q-0.6875 -0.265625 -3.03125 -0.8125q-2.328125 -0.5625 -3.265625 -1.0625q-1.203125 -0.640625 -1.8125 -1.578125q-0.59375 -0.9375 -0.59375 -2.109375q0 -1.28125 0.734375 -2.390625q0.734375 -1.125 2.125 -1.703125q1.40625 -0.578125 3.109375 -0.578125q1.890625 0 3.328125 0.609375q1.4375 0.609375 2.203125 1.796875q0.78125 1.171875 0.84375 2.65625l-2.15625 0.15625q-0.171875 -1.59375 -1.171875 -2.40625q-1.0 -0.828125 -2.953125 -0.828125q-2.03125 0 -2.96875 0.75q-0.921875 0.734375 -0.921875 1.78125q0 0.921875 0.65625 1.5q0.640625 0.59375 3.375 1.21875q2.734375 0.609375 3.75 1.078125q1.484375 0.6875 2.1875 1.734375q0.703125 1.03125 0.703125 2.40625q0 1.34375 -0.78125 2.546875q-0.765625 1.1875 -2.21875 1.859375q-1.4375 0.65625 -3.265625 0.65625q-2.296875 0 -3.859375 -0.65625q-1.546875 -0.671875 -2.4375 -2.015625q-0.875 -1.359375 -0.921875 -3.046875z" fill-rule="nonzero"/><path fill="#000000" fill-opacity="0.0" d="m90.03915 44.872215l65.50071 0l0 51.642395l-65.50071 0z" fill-rule="evenodd"/><path fill="#000000" d="m122.227 77.48595l0 -11.0625l-5.875 0l0 -1.03125l12.875008 0l0 1.03125l-5.9843826 0l0 11.0625l-1.015625 0z" fill-rule="nonzero"/><path fill="#000000" fill-opacity="0.0" d="m89.490204 289.49405l65.5007 0l0 46.049347l-65.5007 0z" fill-rule="evenodd"/><path fill="#000000" d="m131.74055 314.22726l0 2.25l-19.21875 0l0 -2.25l8.46875 0l0 -17.40625l2.265625 0l0 17.40625l8.484375 0z" fill-rule="nonzero"/><path fill="#fff2cc" d="m154.99142 212.67157l41.139908 0l0 39.52414l-41.139908 0z" fill-rule="evenodd"/><path stroke="#595959" stroke-width="1.973753280839895" stroke-linejoin="round" stroke-linecap="butt" d="m154.99142 212.67157l41.139908 0l0 39.52414l-41.139908 0z" fill-rule="evenodd"/><path fill="#000000" d="m179.96696 224.22536l2.234375 0l0 9.78125q0 2.5625 -0.578125 4.0625q-0.578125 1.5 -2.09375 2.4375q-1.5 0.9375 -3.953125 0.9375q-2.375 0 -3.890625 -0.8125q-1.515625 -0.828125 -2.171875 -2.375q-0.640625 -1.5625 -0.640625 -4.25l0 -9.78125l2.25 0l0 9.765625q0 2.21875 0.40625 3.265625q0.40625 1.046875 1.40625 1.609375q1.0 0.5625 2.453125 0.5625q2.46875 0 3.515625 -1.109375q1.0625 -1.125 1.0625 -4.328125l0 -9.765625z" fill-rule="nonzero"/><path fill="#d0e0e3" d="m48.349747 212.74786l41.139908 0l0 39.524155l-41.139908 0z" fill-rule="evenodd"/><path stroke="#595959" stroke-width="1.973753280839895" stroke-linejoin="round" stroke-linecap="butt" d="m48.349747 212.74786l41.139908 0l0 39.524155l-41.139908 0z" fill-rule="evenodd"/><path fill="#000000" d="m62.087723 235.80165l2.109375 -0.1875q0.15625 1.265625 0.703125 2.078125q0.546875 0.8125 1.703125 1.328125q1.15625 0.5 2.609375 0.5q1.28125 0 2.265625 -0.375q0.984375 -0.390625 1.453125 -1.046875q0.484375 -0.671875 0.484375 -1.453125q0 -0.796875 -0.46875 -1.390625q-0.453125 -0.609375 -1.515625 -1.015625q-0.6875 -0.265625 -3.03125 -0.8125q-2.328125 -0.5625 -3.265625 -1.0625q-1.203125 -0.640625 -1.8125 -1.578125q-0.59375 -0.9375 -0.59375 -2.109375q0 -1.28125 0.734375 -2.390625q0.734375 -1.125 2.125 -1.703125q1.40625 -0.578125 3.109375 -0.578125q1.890625 0 3.328125 0.609375q1.4375 0.609375 2.203125 1.796875q0.78125 1.171875 0.84375 2.65625l-2.15625 0.15625q-0.171875 -1.59375 -1.171875 -2.40625q-1.0 -0.828125 -2.953125 -0.828125q-2.03125 0 -2.96875 0.75q-0.921875 0.734375 -0.921875 1.78125q0 0.921875 0.65625 1.5q0.640625 0.59375 3.375 1.21875q2.734375 0.609375 3.75 1.078125q1.484375 0.6875 2.1875 1.734375q0.703125 1.03125 0.703125 2.40625q0 1.34375 -0.78125 2.546875q-0.765625 1.1875 -2.21875 1.859375q-1.4375 0.65625 -3.265625 0.65625q-2.296875 0 -3.859375 -0.65625q-1.546875 -0.671875 -2.4375 -2.015625q-0.875 -1.359375 -0.921875 -3.046875z" fill-rule="nonzero"/><path fill="#000000" fill-opacity="0.0" d="m122.240555 289.49405l-53.320305 -37.224777" fill-rule="evenodd"/><path stroke="#595959" stroke-width="1.973753280839895" stroke-linejoin="round" stroke-linecap="butt" d="m122.240555 289.49405l-43.61004 -30.44571" fill-rule="evenodd"/><path fill="#595959" stroke="#595959" stroke-width="1.973753280839895" stroke-linecap="butt" d="m80.49672 256.3752l-9.210564 -2.4542084l5.478157 7.8004913z" fill-rule="evenodd"/><path fill="#000000" fill-opacity="0.0" d="m122.240555 289.49405l53.320312 -37.286926" fill-rule="evenodd"/><path stroke="#595959" stroke-width="1.973753280839895" stroke-linejoin="round" stroke-linecap="butt" d="m122.240555 289.49405l43.61534 -30.500244" fill-rule="evenodd"/><path fill="#595959" stroke="#595959" stroke-width="1.973753280839895" stroke-linecap="butt" d="m167.7242 261.66547l5.472046 -7.804764l-9.208633 2.461441z" fill-rule="evenodd"/><path fill="#000000" fill-opacity="0.0" d="m68.9197 212.74786l53.879616 -34.05539" fill-rule="evenodd"/><path stroke="#595959" stroke-width="1.973753280839895" stroke-linejoin="round" stroke-linecap="butt" d="m68.9197 212.74786l43.869095 -27.728104" fill-rule="evenodd"/><path fill="#595959" stroke="#595959" stroke-width="1.973753280839895" stroke-linecap="butt" d="m114.530624 187.77554l5.8296204 -7.5414276l-9.313286 2.0298615z" fill-rule="evenodd"/><path fill="#000000" fill-opacity="0.0" d="m175.56137 212.67157l-52.761 -33.993256" fill-rule="evenodd"/><path stroke="#595959" stroke-width="1.973753280839895" stroke-linejoin="round" stroke-linecap="butt" d="m175.56137 212.67157l-42.805817 -27.579254" fill-rule="evenodd"/><path fill="#595959" stroke="#595959" stroke-width="1.973753280839895" stroke-linecap="butt" d="m134.52127 182.35176l-9.295311 -2.110672l5.763893 7.5917816z" fill-rule="evenodd"/><path fill="#000000" fill-opacity="0.0" d="m122.79029 139.13914l0 -42.631386" fill-rule="evenodd"/><path stroke="#595959" stroke-width="1.973753280839895" stroke-linejoin="round" stroke-linecap="butt" d="m122.79029 139.13914l0 -30.788864" fill-rule="evenodd"/><path fill="#595959" stroke="#595959" stroke-width="1.973753280839895" stroke-linecap="butt" d="m126.05041 108.35028l-3.2601166 -8.957085l-3.260109 8.957085z" fill-rule="evenodd"/><path fill="#000000" fill-opacity="0.0" d="m299.3555 345.57654l296.6299 0l0 55.968506l-296.6299 0z" fill-rule="evenodd"/><path fill="#000000" d="m331.0117 375.36066l3.4375 -0.328125q0.296875 1.734375 1.25 2.546875q0.953125 0.8125 2.5625 0.8125q1.703125 0 2.5625 -0.71875q0.875 -0.734375 0.875 -1.703125q0 -0.609375 -0.359375 -1.046875q-0.359375 -0.4375 -1.265625 -0.765625q-0.625 -0.203125 -2.84375 -0.765625q-2.828125 -0.703125 -3.984375 -1.71875q-1.609375 -1.453125 -1.609375 -3.53125q0 -1.328125 0.75 -2.484375q0.765625 -1.171875 2.1875 -1.78125q1.4375 -0.609375 3.453125 -0.609375q3.296875 0 4.953125 1.453125q1.671875 1.4375 1.75 3.84375l-3.53125 0.15625q-0.21875 -1.34375 -0.96875 -1.9375q-0.75 -0.59375 -2.234375 -0.59375q-1.546875 0 -2.421875 0.625q-0.5625 0.40625 -0.5625 1.09375q0 0.625 0.53125 1.0625q0.671875 0.5625 3.25 1.171875q2.578125 0.609375 3.8125 1.265625q1.234375 0.640625 1.921875 1.765625q0.703125 1.125 0.703125 2.796875q0 1.5 -0.84375 2.8125q-0.828125 1.3125 -2.359375 1.953125q-1.515625 0.640625 -3.796875 0.640625q-3.328125 0 -5.109375 -1.53125q-1.765625 -1.546875 -2.109375 -4.484375zm24.513184 1.671875l3.34375 0.5625q-0.640625 1.828125 -2.03125 2.796875q-1.390625 0.953125 -3.484375 0.953125q-3.296875 0 -4.890625 -2.15625q-1.25 -1.734375 -1.25 -4.375q0 -3.140625 1.640625 -4.921875q1.65625 -1.796875 4.171875 -1.796875q2.828125 0 4.453125 1.875q1.640625 1.859375 1.578125 5.71875l-8.40625 0q0.03125 1.5 0.796875 2.328125q0.78125 0.828125 1.953125 0.828125q0.78125 0 1.3125 -0.421875q0.546875 -0.4375 0.8125 -1.390625zm0.203125 -3.390625q-0.046875 -1.46875 -0.765625 -2.21875q-0.703125 -0.765625 -1.734375 -0.765625q-1.09375 0 -1.8125 0.8125q-0.71875 0.796875 -0.703125 2.171875l5.015625 0zm9.271545 7.421875l-3.359375 0l0 -12.6875l3.125 0l0 1.8125q0.796875 -1.28125 1.4375 -1.6875q0.640625 -0.40625 1.453125 -0.40625q1.140625 0 2.203125 0.640625l-1.046875 2.921875q-0.84375 -0.546875 -1.5625 -0.546875q-0.71875 0 -1.203125 0.390625q-0.484375 0.375 -0.765625 1.390625q-0.28125 1.015625 -0.28125 4.25l0 3.921875zm9.781799 0l-5.109375 -12.6875l3.53125 0l2.390625 6.484375l0.6875 2.15625q0.28125 -0.828125 0.34375 -1.09375q0.171875 -0.53125 0.359375 -1.0625l2.40625 -6.484375l3.453125 0l-5.03125 12.6875l-3.03125 0zm10.115295 -14.40625l0 -3.09375l3.359375 0l0 3.09375l-3.359375 0zm0 14.40625l0 -12.6875l3.359375 0l0 12.6875l-3.359375 0zm17.856384 -8.9375l-3.3125 0.609375q-0.15625 -1.0 -0.75 -1.5q-0.59375 -0.5 -1.53125 -0.5q-1.265625 0 -2.015625 0.875q-0.734375 0.859375 -0.734375 2.890625q0 2.25 0.75 3.1875q0.765625 0.921875 2.046875 0.921875q0.953125 0 1.5625 -0.53125q0.609375 -0.546875 0.859375 -1.875l3.296875 0.5625q-0.515625 2.265625 -1.984375 3.421875q-1.453125 1.15625 -3.890625 1.15625q-2.78125 0 -4.4375 -1.75q-1.65625 -1.75 -1.65625 -4.859375q0 -3.140625 1.65625 -4.890625q1.65625 -1.75 4.484375 -1.75q2.328125 0 3.6875 1.0q1.375 1.0 1.96875 3.03125zm9.88092 4.90625l3.34375 0.5625q-0.640625 1.828125 -2.03125 2.796875q-1.390625 0.953125 -3.484375 0.953125q-3.296875 0 -4.890625 -2.15625q-1.25 -1.734375 -1.25 -4.375q0 -3.140625 1.640625 -4.921875q1.65625 -1.796875 4.171875 -1.796875q2.828125 0 4.453125 1.875q1.640625 1.859375 1.578125 5.71875l-8.40625 0q0.03125 1.5 0.796875 2.328125q0.78125 0.828125 1.953125 0.828125q0.78125 0 1.3125 -0.421875q0.546875 -0.4375 0.8125 -1.390625zm0.203125 -3.390625q-0.046875 -1.46875 -0.765625 -2.21875q-0.703125 -0.765625 -1.734375 -0.765625q-1.09375 0 -1.8125 0.8125q-0.71875 0.796875 -0.703125 2.171875l5.015625 0zm12.768524 7.421875l0 -17.5l3.53125 0l0 17.5l-3.53125 0zm18.418884 0l-3.359375 0l0 -6.46875q0 -2.0625 -0.21875 -2.65625q-0.21875 -0.609375 -0.703125 -0.9375q-0.484375 -0.34375 -1.15625 -0.34375q-0.875 0 -1.578125 0.484375q-0.6875 0.484375 -0.9375 1.265625q-0.25 0.78125 -0.25 2.90625l0 5.75l-3.359375 0l0 -12.6875l3.109375 0l0 1.875q1.65625 -2.15625 4.1875 -2.15625q1.109375 0 2.015625 0.40625q0.921875 0.390625 1.390625 1.015625q0.484375 0.625 0.671875 1.421875q0.1875 0.78125 0.1875 2.25l0 7.875zm3.3900757 -14.40625l0 -3.09375l3.359375 0l0 3.09375l-3.359375 0zm0 14.40625l0 -12.6875l3.359375 0l0 12.6875l-3.359375 0zm12.606354 -12.6875l0 2.6875l-2.28125 0l0 5.109375q0 1.546875 0.0625 1.8125q0.0625 0.25 0.296875 0.421875q0.234375 0.15625 0.5625 0.15625q0.46875 0 1.359375 -0.3125l0.28125 2.59375q-1.171875 0.5 -2.65625 0.5q-0.90625 0 -1.640625 -0.296875q-0.71875 -0.3125 -1.0625 -0.796875q-0.328125 -0.484375 -0.46875 -1.296875q-0.109375 -0.59375 -0.109375 -2.375l0 -5.515625l-1.53125 0l0 -2.6875l1.53125 0l0 -2.515625l3.375 -1.953125l0 4.46875l2.28125 0zm2.330597 -1.71875l0 -3.09375l3.359375 0l0 3.09375l-3.359375 0zm0 14.40625l0 -12.6875l3.359375 0l0 12.6875l-3.359375 0zm9.309479 -8.8125l-3.046875 -0.546875q0.515625 -1.84375 1.765625 -2.71875q1.25 -0.890625 3.71875 -0.890625q2.25 0 3.34375 0.53125q1.109375 0.53125 1.546875 1.359375q0.453125 0.8125 0.453125 3.0l-0.03125 3.90625q0 1.671875 0.15625 2.46875q0.15625 0.796875 0.609375 1.703125l-3.328125 0q-0.125 -0.328125 -0.3125 -0.984375q-0.09375 -0.3125 -0.125 -0.40625q-0.859375 0.84375 -1.84375 1.265625q-0.96875 0.40625 -2.078125 0.40625q-1.96875 0 -3.09375 -1.0625q-1.125 -1.0625 -1.125 -2.6875q0 -1.0625 0.515625 -1.90625q0.515625 -0.84375 1.4375 -1.28125q0.921875 -0.453125 2.671875 -0.796875q2.34375 -0.4375 3.25 -0.828125l0 -0.328125q0 -0.96875 -0.484375 -1.375q-0.46875 -0.421875 -1.796875 -0.421875q-0.890625 0 -1.390625 0.359375q-0.5 0.359375 -0.8125 1.234375zm4.484375 2.71875q-0.640625 0.21875 -2.046875 0.515625q-1.390625 0.296875 -1.8125 0.59375q-0.65625 0.453125 -0.65625 1.171875q0 0.703125 0.515625 1.21875q0.53125 0.515625 1.34375 0.515625q0.90625 0 1.734375 -0.59375q0.59375 -0.453125 0.796875 -1.109375q0.125 -0.4375 0.125 -1.640625l0 -0.671875zm6.5996704 6.09375l0 -17.5l3.359375 0l0 17.5l-3.359375 0zm6.7938843 -14.40625l0 -3.09375l3.359375 0l0 3.09375l-3.359375 0zm0 14.40625l0 -12.6875l3.359375 0l0 12.6875l-3.359375 0zm5.4501038 0l0 -2.609375l4.75 -5.46875q1.171875 -1.328125 1.734375 -1.890625q-0.59375 0.03125 -1.546875 0.046875l-4.46875 0.03125l0 -2.796875l10.484375 0l0 2.390625l-4.859375 5.578125l-1.703125 1.859375q1.40625 -0.09375 1.734375 -0.09375l5.1875 0l0 2.953125l-11.3125 0zm16.085938 -8.8125l-3.046875 -0.546875q0.515625 -1.84375 1.765625 -2.71875q1.25 -0.890625 3.71875 -0.890625q2.25 0 3.34375 0.53125q1.109375 0.53125 1.546875 1.359375q0.453125 0.8125 0.453125 3.0l-0.03125 3.90625q0 1.671875 0.15625 2.46875q0.15625 0.796875 0.609375 1.703125l-3.328125 0q-0.125 -0.328125 -0.3125 -0.984375q-0.09375 -0.3125 -0.125 -0.40625q-0.859375 0.84375 -1.84375 1.265625q-0.96875 0.40625 -2.078125 0.40625q-1.96875 0 -3.09375 -1.0625q-1.125 -1.0625 -1.125 -2.6875q0 -1.0625 0.515625 -1.90625q0.515625 -0.84375 1.4375 -1.28125q0.921875 -0.453125 2.671875 -0.796875q2.34375 -0.4375 3.25 -0.828125l0 -0.328125q0 -0.96875 -0.484375 -1.375q-0.46875 -0.421875 -1.796875 -0.421875q-0.890625 0 -1.390625 0.359375q-0.5 0.359375 -0.8125 1.234375zm4.484375 2.71875q-0.640625 0.21875 -2.046875 0.515625q-1.390625 0.296875 -1.8125 0.59375q-0.65625 0.453125 -0.65625 1.171875q0 0.703125 0.515625 1.21875q0.53125 0.515625 1.34375 0.515625q0.90625 0 1.734375 -0.59375q0.59375 -0.453125 0.796875 -1.109375q0.125 -0.4375 0.125 -1.640625l0 -0.671875zm12.41217 -6.59375l0 2.6875l-2.28125 0l0 5.109375q0 1.546875 0.0625 1.8125q0.0625 0.25 0.296875 0.421875q0.234375 0.15625 0.5625 0.15625q0.46875 0 1.359375 -0.3125l0.28125 2.59375q-1.171875 0.5 -2.65625 0.5q-0.90625 0 -1.640625 -0.296875q-0.71875 -0.3125 -1.0625 -0.796875q-0.328125 -0.484375 -0.46875 -1.296875q-0.109375 -0.59375 -0.109375 -2.375l0 -5.515625l-1.53125 0l0 -2.6875l1.53125 0l0 -2.515625l3.375 -1.953125l0 4.46875l2.28125 0zm2.3305664 -1.71875l0 -3.09375l3.359375 0l0 3.09375l-3.359375 0zm0 14.40625l0 -12.6875l3.359375 0l0 12.6875l-3.359375 0zm6.0282593 -6.515625q0 -1.671875 0.8125 -3.234375q0.828125 -1.5625 2.328125 -2.390625q1.515625 -0.828125 3.390625 -0.828125q2.875 0 4.703125 1.875q1.84375 1.859375 1.84375 4.71875q0 2.875 -1.859375 4.765625q-1.84375 1.890625 -4.671875 1.890625q-1.734375 0 -3.328125 -0.78125q-1.578125 -0.796875 -2.40625 -2.3125q-0.8125 -1.515625 -0.8125 -3.703125zm3.4375 0.171875q0 1.890625 0.890625 2.890625q0.890625 1.0 2.203125 1.0q1.3125 0 2.203125 -1.0q0.890625 -1.0 0.890625 -2.90625q0 -1.875 -0.890625 -2.875q-0.890625 -1.0 -2.203125 -1.0q-1.3125 0 -2.203125 1.0q-0.890625 1.0 -0.890625 2.890625zm23.81195 6.34375l-3.359375 0l0 -6.46875q0 -2.0625 -0.21875 -2.65625q-0.21875 -0.609375 -0.703125 -0.9375q-0.484375 -0.34375 -1.15625 -0.34375q-0.875 0 -1.578125 0.484375q-0.6875 0.484375 -0.9375 1.265625q-0.25 0.78125 -0.25 2.90625l0 5.75l-3.359375 0l0 -12.6875l3.109375 0l0 1.875q1.65625 -2.15625 4.1875 -2.15625q1.109375 0 2.015625 0.40625q0.921875 0.390625 1.390625 1.015625q0.484375 0.625 0.671875 1.421875q0.1875 0.78125 0.1875 2.25l0 7.875z" fill-rule="nonzero"/><path fill="#000000" fill-opacity="0.0" d="m693.774 349.58078l318.2362 0l0 47.968506l-318.2362 0z" fill-rule="evenodd"/><path fill="#000000" d="m728.2451 367.56802l3.546875 0l0 9.46875q0 2.265625 0.125 2.9375q0.21875 1.0625 1.078125 1.71875q0.859375 0.65625 2.328125 0.65625q1.515625 0 2.28125 -0.609375q0.765625 -0.625 0.90625 -1.515625q0.15625 -0.90625 0.15625 -2.984375l0 -9.671875l3.546875 0l0 9.1875q0 3.15625 -0.296875 4.453125q-0.28125 1.296875 -1.0625 2.203125q-0.765625 0.890625 -2.0625 1.421875q-1.28125 0.53125 -3.359375 0.53125q-2.5 0 -3.796875 -0.578125q-1.296875 -0.578125 -2.046875 -1.5q-0.75 -0.921875 -1.0 -1.9375q-0.34375 -1.515625 -0.34375 -4.453125l0 -9.328125zm16.487427 13.875l3.359375 -0.5q0.21875 0.96875 0.875 1.484375q0.65625 0.5 1.84375 0.5q1.296875 0 1.953125 -0.46875q0.4375 -0.34375 0.4375 -0.90625q0 -0.375 -0.234375 -0.625q-0.25 -0.234375 -1.125 -0.4375q-4.0625 -0.90625 -5.140625 -1.640625q-1.515625 -1.03125 -1.515625 -2.859375q0 -1.640625 1.296875 -2.765625q1.3125 -1.125 4.046875 -1.125q2.609375 0 3.875 0.859375q1.265625 0.84375 1.734375 2.5l-3.15625 0.578125q-0.203125 -0.734375 -0.78125 -1.125q-0.5625 -0.40625 -1.609375 -0.40625q-1.328125 0 -1.90625 0.375q-0.375 0.265625 -0.375 0.6875q0 0.359375 0.328125 0.609375q0.453125 0.328125 3.125 0.9375q2.6875 0.609375 3.75 1.5q1.0625 0.890625 1.0625 2.484375q0 1.75 -1.46875 3.0q-1.453125 1.25 -4.296875 1.25q-2.59375 0 -4.109375 -1.046875q-1.515625 -1.046875 -1.96875 -2.859375zm22.115295 -0.40625l3.34375 0.5625q-0.640625 1.828125 -2.03125 2.796875q-1.390625 0.953125 -3.484375 0.953125q-3.296875 0 -4.890625 -2.15625q-1.25 -1.734375 -1.25 -4.375q0 -3.140625 1.640625 -4.921875q1.65625 -1.796875 4.171875 -1.796875q2.828125 0 4.453125 1.875q1.640625 1.859375 1.578125 5.71875l-8.40625 0q0.03125 1.5 0.796875 2.328125q0.78125 0.828125 1.953125 0.828125q0.78125 0 1.3125 -0.421875q0.546875 -0.4375 0.8125 -1.390625zm0.203125 -3.390625q-0.046875 -1.46875 -0.765625 -2.21875q-0.703125 -0.765625 -1.734375 -0.765625q-1.09375 0 -1.8125 0.8125q-0.71875 0.796875 -0.703125 2.171875l5.015625 0zm9.271545 7.421875l-3.359375 0l0 -12.6875l3.125 0l0 1.8125q0.796875 -1.28125 1.4375 -1.6875q0.640625 -0.40625 1.453125 -0.40625q1.140625 0 2.203125 0.640625l-1.046875 2.921875q-0.84375 -0.546875 -1.5625 -0.546875q-0.71875 0 -1.203125 0.390625q-0.484375 0.375 -0.765625 1.390625q-0.28125 1.015625 -0.28125 4.25l0 3.921875zm13.106934 -17.5l6.46875 0q2.171875 0 3.328125 0.328125q1.53125 0.453125 2.625 1.609375q1.109375 1.15625 1.671875 2.84375q0.578125 1.671875 0.578125 4.140625q0 2.15625 -0.53125 3.71875q-0.65625 1.90625 -1.875 3.09375q-0.921875 0.890625 -2.484375 1.390625q-1.171875 0.375 -3.125 0.375l-6.65625 0l0 -17.5zm3.53125 2.953125l0 11.59375l2.640625 0q1.484375 0 2.140625 -0.15625q0.859375 -0.21875 1.421875 -0.734375q0.578125 -0.515625 0.921875 -1.6875q0.359375 -1.171875 0.359375 -3.203125q0 -2.03125 -0.359375 -3.109375q-0.34375 -1.09375 -1.0 -1.703125q-0.640625 -0.609375 -1.625 -0.828125q-0.75 -0.171875 -2.90625 -0.171875l-1.59375 0zm16.62799 5.734375l-3.046875 -0.546875q0.515625 -1.84375 1.765625 -2.71875q1.25 -0.890625 3.71875 -0.890625q2.25 0 3.34375 0.53125q1.109375 0.53125 1.546875 1.359375q0.453125 0.8125 0.453125 3.0l-0.03125 3.90625q0 1.671875 0.15625 2.46875q0.15625 0.796875 0.609375 1.703125l-3.328125 0q-0.125 -0.328125 -0.3125 -0.984375q-0.09375 -0.3125 -0.125 -0.40625q-0.859375 0.84375 -1.84375 1.265625q-0.96875 0.40625 -2.078125 0.40625q-1.96875 0 -3.09375 -1.0625q-1.125 -1.0625 -1.125 -2.6875q0 -1.0625 0.515625 -1.90625q0.515625 -0.84375 1.4375 -1.28125q0.921875 -0.453125 2.671875 -0.796875q2.34375 -0.4375 3.25 -0.828125l0 -0.328125q0 -0.96875 -0.484375 -1.375q-0.46875 -0.421875 -1.796875 -0.421875q-0.890625 0 -1.390625 0.359375q-0.5 0.359375 -0.8125 1.234375zm4.484375 2.71875q-0.640625 0.21875 -2.046875 0.515625q-1.390625 0.296875 -1.8125 0.59375q-0.65625 0.453125 -0.65625 1.171875q0 0.703125 0.515625 1.21875q0.53125 0.515625 1.34375 0.515625q0.90625 0 1.734375 -0.59375q0.59375 -0.453125 0.796875 -1.109375q0.125 -0.4375 0.125 -1.640625l0 -0.671875zm12.41217 -6.59375l0 2.6875l-2.28125 0l0 5.109375q0 1.546875 0.0625 1.8125q0.0625 0.25 0.296875 0.421875q0.234375 0.15625 0.5625 0.15625q0.46875 0 1.359375 -0.3125l0.28125 2.59375q-1.171875 0.5 -2.65625 0.5q-0.90625 0 -1.640625 -0.296875q-0.71875 -0.3125 -1.0625 -0.796875q-0.328125 -0.484375 -0.46875 -1.296875q-0.109375 -0.59375 -0.109375 -2.375l0 -5.515625l-1.53125 0l0 -2.6875l1.53125 0l0 -2.515625l3.375 -1.953125l0 4.46875l2.28125 0zm4.8462524 3.875l-3.046875 -0.546875q0.515625 -1.84375 1.765625 -2.71875q1.25 -0.890625 3.71875 -0.890625q2.25 0 3.34375 0.53125q1.109375 0.53125 1.546875 1.359375q0.453125 0.8125 0.453125 3.0l-0.03125 3.90625q0 1.671875 0.15625 2.46875q0.15625 0.796875 0.609375 1.703125l-3.328125 0q-0.125 -0.328125 -0.3125 -0.984375q-0.09375 -0.3125 -0.125 -0.40625q-0.859375 0.84375 -1.84375 1.265625q-0.96875 0.40625 -2.078125 0.40625q-1.96875 0 -3.09375 -1.0625q-1.125 -1.0625 -1.125 -2.6875q0 -1.0625 0.515625 -1.90625q0.515625 -0.84375 1.4375 -1.28125q0.921875 -0.453125 2.671875 -0.796875q2.34375 -0.4375 3.25 -0.828125l0 -0.328125q0 -0.96875 -0.484375 -1.375q-0.46875 -0.421875 -1.796875 -0.421875q-0.890625 0 -1.390625 0.359375q-0.5 0.359375 -0.8125 1.234375zm4.484375 2.71875q-0.640625 0.21875 -2.046875 0.515625q-1.390625 0.296875 -1.8125 0.59375q-0.65625 0.453125 -0.65625 1.171875q0 0.703125 0.515625 1.21875q0.53125 0.515625 1.34375 0.515625q0.90625 0 1.734375 -0.59375q0.59375 -0.453125 0.796875 -1.109375q0.125 -0.4375 0.125 -1.640625l0 -0.671875zm13.424744 6.09375l0 -17.5l5.671875 0q3.21875 0 4.203125 0.265625q1.5 0.390625 2.515625 1.71875q1.015625 1.3125 1.015625 3.390625q0 1.625 -0.59375 2.71875q-0.578125 1.09375 -1.484375 1.71875q-0.890625 0.625 -1.828125 0.828125q-1.265625 0.25 -3.65625 0.25l-2.3125 0l0 6.609375l-3.53125 0zm3.53125 -14.546875l0 4.96875l1.9375 0q2.09375 0 2.796875 -0.265625q0.703125 -0.28125 1.09375 -0.859375q0.40625 -0.59375 0.40625 -1.375q0 -0.953125 -0.5625 -1.5625q-0.5625 -0.625 -1.421875 -0.78125q-0.625 -0.125 -2.546875 -0.125l-1.703125 0zm15.966309 14.546875l-3.359375 0l0 -12.6875l3.125 0l0 1.8125q0.796875 -1.28125 1.4375 -1.6875q0.640625 -0.40625 1.453125 -0.40625q1.140625 0 2.203125 0.640625l-1.046875 2.921875q-0.84375 -0.546875 -1.5625 -0.546875q-0.71875 0 -1.203125 0.390625q-0.484375 0.375 -0.765625 1.390625q-0.28125 1.015625 -0.28125 4.25l0 3.921875zm5.5317993 -6.515625q0 -1.671875 0.8125 -3.234375q0.828125 -1.5625 2.328125 -2.390625q1.515625 -0.828125 3.390625 -0.828125q2.875 0 4.703125 1.875q1.84375 1.859375 1.84375 4.71875q0 2.875 -1.859375 4.765625q-1.84375 1.890625 -4.671875 1.890625q-1.734375 0 -3.328125 -0.78125q-1.578125 -0.796875 -2.40625 -2.3125q-0.8125 -1.515625 -0.8125 -3.703125zm3.4375 0.171875q0 1.890625 0.890625 2.890625q0.890625 1.0 2.203125 1.0q1.3125 0 2.203125 -1.0q0.890625 -1.0 0.890625 -2.90625q0 -1.875 -0.890625 -2.875q-0.890625 -1.0 -2.203125 -1.0q-1.3125 0 -2.203125 1.0q-0.890625 1.0 -0.890625 2.890625zm23.327576 -2.59375l-3.3125 0.609375q-0.15625 -1.0 -0.75 -1.5q-0.59375 -0.5 -1.53125 -0.5q-1.265625 0 -2.015625 0.875q-0.734375 0.859375 -0.734375 2.890625q0 2.25 0.75 3.1875q0.765625 0.921875 2.046875 0.921875q0.953125 0 1.5625 -0.53125q0.609375 -0.546875 0.859375 -1.875l3.296875 0.5625q-0.515625 2.265625 -1.984375 3.421875q-1.453125 1.15625 -3.890625 1.15625q-2.78125 0 -4.4375 -1.75q-1.65625 -1.75 -1.65625 -4.859375q0 -3.140625 1.65625 -4.890625q1.65625 -1.75 4.484375 -1.75q2.328125 0 3.6875 1.0q1.375 1.0 1.96875 3.03125zm9.88092 4.90625l3.34375 0.5625q-0.640625 1.828125 -2.03125 2.796875q-1.390625 0.953125 -3.484375 0.953125q-3.296875 0 -4.890625 -2.15625q-1.25 -1.734375 -1.25 -4.375q0 -3.140625 1.640625 -4.921875q1.65625 -1.796875 4.171875 -1.796875q2.828125 0 4.453125 1.875q1.640625 1.859375 1.578125 5.71875l-8.40625 0q0.03125 1.5 0.796875 2.328125q0.78125 0.828125 1.953125 0.828125q0.78125 0 1.3125 -0.421875q0.546875 -0.4375 0.8125 -1.390625zm0.203125 -3.390625q-0.046875 -1.46875 -0.765625 -2.21875q-0.703125 -0.765625 -1.734375 -0.765625q-1.09375 0 -1.8125 0.8125q-0.71875 0.796875 -0.703125 2.171875l5.015625 0zm4.8809204 3.796875l3.359375 -0.5q0.21875 0.96875 0.875 1.484375q0.65625 0.5 1.84375 0.5q1.296875 0 1.953125 -0.46875q0.4375 -0.34375 0.4375 -0.90625q0 -0.375 -0.234375 -0.625q-0.25 -0.234375 -1.125 -0.4375q-4.0625 -0.90625 -5.140625 -1.640625q-1.515625 -1.03125 -1.515625 -2.859375q0 -1.640625 1.296875 -2.765625q1.3125 -1.125 4.046875 -1.125q2.609375 0 3.875 0.859375q1.265625 0.84375 1.734375 2.5l-3.15625 0.578125q-0.203125 -0.734375 -0.78125 -1.125q-0.5625 -0.40625 -1.609375 -0.40625q-1.328125 0 -1.90625 0.375q-0.375 0.265625 -0.375 0.6875q0 0.359375 0.328125 0.609375q0.453125 0.328125 3.125 0.9375q2.6875 0.609375 3.75 1.5q1.0625 0.890625 1.0625 2.484375q0 1.75 -1.46875 3.0q-1.453125 1.25 -4.296875 1.25q-2.59375 0 -4.109375 -1.046875q-1.515625 -1.046875 -1.96875 -2.859375zm13.59967 0l3.359375 -0.5q0.21875 0.96875 0.875 1.484375q0.65625 0.5 1.84375 0.5q1.296875 0 1.953125 -0.46875q0.4375 -0.34375 0.4375 -0.90625q0 -0.375 -0.234375 -0.625q-0.25 -0.234375 -1.125 -0.4375q-4.0625 -0.90625 -5.140625 -1.640625q-1.515625 -1.03125 -1.515625 -2.859375q0 -1.640625 1.296875 -2.765625q1.3125 -1.125 4.046875 -1.125q2.609375 0 3.875 0.859375q1.265625 0.84375 1.734375 2.5l-3.15625 0.578125q-0.203125 -0.734375 -0.78125 -1.125q-0.5625 -0.40625 -1.609375 -0.40625q-1.328125 0 -1.90625 0.375q-0.375 0.265625 -0.375 0.6875q0 0.359375 0.328125 0.609375q0.453125 0.328125 3.125 0.9375q2.6875 0.609375 3.75 1.5q1.0625 0.890625 1.0625 2.484375q0 1.75 -1.46875 3.0q-1.453125 1.25 -4.296875 1.25q-2.59375 0 -4.109375 -1.046875q-1.515625 -1.046875 -1.96875 -2.859375zm14.771545 -10.78125l0 -3.09375l3.359375 0l0 3.09375l-3.359375 0zm0 14.40625l0 -12.6875l3.359375 0l0 12.6875l-3.359375 0zm18.34076 0l-3.359375 0l0 -6.46875q0 -2.0625 -0.21875 -2.65625q-0.21875 -0.609375 -0.703125 -0.9375q-0.484375 -0.34375 -1.15625 -0.34375q-0.875 0 -1.578125 0.484375q-0.6875 0.484375 -0.9375 1.265625q-0.25 0.78125 -0.25 2.90625l0 5.75l-3.359375 0l0 -12.6875l3.109375 0l0 1.875q1.65625 -2.15625 4.1875 -2.15625q1.109375 0 2.015625 0.40625q0.921875 0.390625 1.390625 1.015625q0.484375 0.625 0.671875 1.421875q0.1875 0.78125 0.1875 2.25l0 7.875zm3.0775757 0.828125l3.84375 0.46875q0.09375 0.671875 0.4375 0.921875q0.484375 0.359375 1.5 0.359375q1.3125 0 1.96875 -0.390625q0.453125 -0.265625 0.671875 -0.84375q0.15625 -0.421875 0.15625 -1.546875l0 -1.84375q-1.5 2.046875 -3.796875 2.046875q-2.546875 0 -4.046875 -2.15625q-1.171875 -1.71875 -1.171875 -4.25q0 -3.1875 1.53125 -4.875q1.546875 -1.6875 3.828125 -1.6875q2.34375 0 3.875 2.0625l0 -1.78125l3.140625 0l0 11.390625q0 2.234375 -0.375 3.34375q-0.375 1.125 -1.046875 1.75q-0.65625 0.640625 -1.78125 0.984375q-1.109375 0.359375 -2.8125 0.359375q-3.234375 0 -4.578125 -1.109375q-1.34375 -1.09375 -1.34375 -2.796875q0 -0.15625 0 -0.40625zm3.0 -7.4375q0 2.03125 0.78125 2.96875q0.78125 0.9375 1.9375 0.9375q1.21875 0 2.0625 -0.953125q0.859375 -0.96875 0.859375 -2.859375q0 -1.96875 -0.8125 -2.921875q-0.8125 -0.96875 -2.046875 -0.96875q-1.21875 0 -2.0 0.9375q-0.78125 0.9375 -0.78125 2.859375z" fill-rule="nonzero"/><path fill="#000000" fill-opacity="0.0" d="m247.7406 47.487724l0 377.22833" fill-rule="evenodd"/><path stroke="#000000" stroke-width="1.3097112860892388" stroke-linejoin="round" stroke-linecap="butt" d="m247.7406 47.487724l0 377.22833" fill-rule="evenodd"/><path fill="#d0e0e3" d="m48.336838 350.7395l36.409447 0l0 34.960632l-36.409447 0z" fill-rule="evenodd"/><path stroke="#595959" stroke-width="1.7480314960629921" stroke-linejoin="round" stroke-linecap="butt" d="m48.336838 350.7395l36.409447 0l0 34.960632l-36.409447 0z" fill-rule="evenodd"/><path fill="#000000" d="m60.5017 371.00613l1.875 -0.15625q0.125 1.125 0.609375 1.84375q0.484375 0.71875 1.5 1.171875q1.03125 0.4375 2.3125 0.4375q1.125 0 2.0 -0.34375q0.875 -0.34375 1.296875 -0.921875q0.421875 -0.59375 0.421875 -1.28125q0 -0.703125 -0.40625 -1.234375q-0.40625 -0.53125 -1.359375 -0.890625q-0.59375 -0.234375 -2.65625 -0.71875q-2.0625 -0.5 -2.890625 -0.9375q-1.078125 -0.5625 -1.609375 -1.390625q-0.515625 -0.84375 -0.515625 -1.875q0 -1.125 0.640625 -2.109375q0.640625 -0.984375 1.875 -1.5q1.234375 -0.515625 2.75 -0.515625q1.671875 0 2.9375 0.546875q1.265625 0.53125 1.953125 1.578125q0.6875 1.03125 0.734375 2.359375l-1.890625 0.140625q-0.15625 -1.421875 -1.046875 -2.140625q-0.875 -0.734375 -2.609375 -0.734375q-1.796875 0 -2.625 0.65625q-0.8125 0.65625 -0.8125 1.59375q0 0.796875 0.578125 1.328125q0.578125 0.515625 2.984375 1.0625q2.421875 0.546875 3.328125 0.953125q1.296875 0.609375 1.921875 1.53125q0.625 0.921875 0.625 2.125q0 1.203125 -0.6875 2.265625q-0.671875 1.046875 -1.96875 1.640625q-1.28125 0.578125 -2.875 0.578125q-2.03125 0 -3.40625 -0.578125q-1.375 -0.59375 -2.15625 -1.78125q-0.78125 -1.203125 -0.828125 -2.703125z" fill-rule="nonzero"/><path fill="#000000" fill-opacity="0.0" d="m96.721954 352.1172l99.40158 0l0 34.960632l-99.40158 0z" fill-rule="evenodd"/><path fill="#000000" d="m107.659454 372.32376l1.875 -0.171875q0.125 1.125 0.609375 1.859375q0.5 0.71875 1.515625 1.171875q1.015625 0.4375 2.296875 0.4375q1.140625 0 2.0 -0.34375q0.875 -0.34375 1.296875 -0.921875q0.421875 -0.59375 0.421875 -1.28125q0 -0.71875 -0.40625 -1.234375q-0.40625 -0.53125 -1.34375 -0.890625q-0.609375 -0.234375 -2.671875 -0.71875q-2.0625 -0.5 -2.890625 -0.953125q-1.078125 -0.546875 -1.609375 -1.375q-0.515625 -0.84375 -0.515625 -1.875q0 -1.140625 0.640625 -2.125q0.640625 -0.984375 1.875 -1.5q1.25 -0.515625 2.75 -0.515625q1.671875 0 2.9375 0.546875q1.28125 0.53125 1.96875 1.578125q0.6875 1.046875 0.734375 2.359375l-1.90625 0.140625q-0.15625 -1.421875 -1.046875 -2.140625q-0.875 -0.734375 -2.59375 -0.734375q-1.796875 0 -2.625 0.671875q-0.828125 0.65625 -0.828125 1.578125q0 0.8125 0.578125 1.328125q0.578125 0.53125 3.0 1.078125q2.421875 0.546875 3.3125 0.953125q1.3125 0.59375 1.9375 1.53125q0.625 0.921875 0.625 2.125q0 1.203125 -0.6875 2.265625q-0.6875 1.046875 -1.96875 1.640625q-1.28125 0.578125 -2.890625 0.578125q-2.03125 0 -3.40625 -0.59375q-1.375 -0.59375 -2.15625 -1.78125q-0.78125 -1.1875 -0.828125 -2.6875zm21.840149 1.3125l1.90625 0.234375q-0.453125 1.671875 -1.671875 2.59375q-1.21875 0.921875 -3.109375 0.921875q-2.375 0 -3.78125 -1.46875q-1.390625 -1.46875 -1.390625 -4.125q0 -2.734375 1.40625 -4.25q1.421875 -1.515625 3.671875 -1.515625q2.171875 0 3.546875 1.484375q1.390625 1.484375 1.390625 4.171875q0 0.171875 -0.015625 0.5l-8.09375 0q0.09375 1.78125 1.0 2.734375q0.921875 0.953125 2.28125 0.953125q1.015625 0 1.71875 -0.53125q0.71875 -0.53125 1.140625 -1.703125zm-6.046875 -2.96875l6.0625 0q-0.125 -1.375 -0.6875 -2.0625q-0.875 -1.0625 -2.28125 -1.0625q-1.265625 0 -2.140625 0.859375q-0.859375 0.84375 -0.953125 2.265625zm10.23819 6.46875l0 -10.859375l1.65625 0l0 1.640625q0.640625 -1.140625 1.171875 -1.515625q0.53125 -0.375 1.1875 -0.375q0.921875 0 1.890625 0.59375l-0.640625 1.71875q-0.671875 -0.40625 -1.34375 -0.40625q-0.609375 0 -1.09375 0.375q-0.46875 0.359375 -0.6875 1.0q-0.296875 0.984375 -0.296875 2.140625l0 5.6875l-1.84375 0zm10.003601 0l-4.125 -10.859375l1.9375 0l2.34375 6.5q0.375 1.0625 0.6875 2.1875q0.25 -0.859375 0.6875 -2.0625l2.40625 -6.625l1.890625 0l-4.109375 10.859375l-1.71875 0zm7.46875 -12.875l0 -2.109375l1.84375 0l0 2.109375l-1.84375 0zm0 12.875l0 -10.859375l1.84375 0l0 10.859375l-1.84375 0zm11.729767 -3.984375l1.8125 0.25q-0.296875 1.859375 -1.53125 2.921875q-1.21875 1.0625 -3.0 1.0625q-2.21875 0 -3.578125 -1.453125q-1.359375 -1.46875 -1.359375 -4.1875q0 -1.75 0.578125 -3.0625q0.59375 -1.328125 1.78125 -1.984375q1.1875 -0.671875 2.59375 -0.671875q1.765625 0 2.890625 0.90625q1.125 0.890625 1.4375 2.53125l-1.78125 0.28125q-0.25 -1.09375 -0.90625 -1.640625q-0.65625 -0.5625 -1.5625 -0.5625q-1.390625 0 -2.265625 1.0q-0.875 1.0 -0.875 3.15625q0 2.1875 0.84375 3.1875q0.84375 0.984375 2.1875 0.984375q1.078125 0 1.796875 -0.65625q0.734375 -0.671875 0.9375 -2.0625zm10.8125 0.484375l1.90625 0.234375q-0.453125 1.671875 -1.671875 2.59375q-1.21875 0.921875 -3.109375 0.921875q-2.375 0 -3.78125 -1.46875q-1.390625 -1.46875 -1.390625 -4.125q0 -2.734375 1.40625 -4.25q1.421875 -1.515625 3.671875 -1.515625q2.171875 0 3.546875 1.484375q1.390625 1.484375 1.390625 4.171875q0 0.171875 -0.015625 0.5l-8.09375 0q0.09375 1.78125 1.0 2.734375q0.921875 0.953125 2.28125 0.953125q1.015625 0 1.71875 -0.53125q0.71875 -0.53125 1.140625 -1.703125zm-6.046875 -2.96875l6.0625 0q-0.125 -1.375 -0.6875 -2.0625q-0.875 -1.0625 -2.28125 -1.0625q-1.265625 0 -2.140625 0.859375q-0.859375 0.84375 -0.953125 2.265625z" fill-rule="nonzero"/><path fill="#fff2cc" d="m48.918545 392.93307l35.212597 0l0 33.795288l-35.212597 0z" fill-rule="evenodd"/><path stroke="#595959" stroke-width="1.6902887139107612" stroke-linejoin="round" stroke-linecap="butt" d="m48.918545 392.93307l35.212597 0l0 33.795288l-35.212597 0z" fill-rule="evenodd"/><path fill="#000000" d="m70.291016 402.7853l1.921875 0l0 8.375q0 2.1875 -0.5 3.484375q-0.5 1.28125 -1.796875 2.09375q-1.28125 0.796875 -3.375 0.796875q-2.03125 0 -3.328125 -0.703125q-1.296875 -0.703125 -1.859375 -2.03125q-0.546875 -1.328125 -0.546875 -3.640625l0 -8.375l1.921875 0l0 8.375q0 1.890625 0.34375 2.78125q0.359375 0.890625 1.203125 1.375q0.859375 0.484375 2.09375 0.484375q2.125 0 3.015625 -0.953125q0.90625 -0.96875 0.90625 -3.6875l0 -8.375z" fill-rule="nonzero"/><path fill="#000000" fill-opacity="0.0" d="m96.721954 392.38846l99.40158 0l0 34.960632l-99.40158 0z" fill-rule="evenodd"/><path fill="#000000" d="m118.17508 402.42313l1.984375 0l0 8.65625q0 2.265625 -0.515625 3.59375q-0.515625 1.328125 -1.84375 2.15625q-1.328125 0.828125 -3.5 0.828125q-2.109375 0 -3.453125 -0.71875q-1.328125 -0.734375 -1.90625 -2.109375q-0.578125 -1.375 -0.578125 -3.75l0 -8.65625l1.984375 0l0 8.640625q0 1.953125 0.359375 2.890625q0.375 0.921875 1.25 1.421875q0.890625 0.5 2.171875 0.5q2.1875 0 3.109375 -0.984375q0.9375 -1.0 0.9375 -3.828125l0 -8.640625zm4.307892 11.75l1.828125 -0.296875q0.15625 1.09375 0.84375 1.6875q0.703125 0.578125 1.96875 0.578125q1.265625 0 1.875 -0.515625q0.609375 -0.515625 0.609375 -1.21875q0 -0.625 -0.53125 -0.984375q-0.390625 -0.234375 -1.890625 -0.609375q-2.015625 -0.515625 -2.796875 -0.890625q-0.78125 -0.375 -1.1875 -1.03125q-0.40625 -0.65625 -0.40625 -1.453125q0 -0.734375 0.328125 -1.34375q0.328125 -0.625 0.90625 -1.03125q0.4375 -0.3125 1.171875 -0.53125q0.734375 -0.234375 1.59375 -0.234375q1.265625 0 2.234375 0.375q0.96875 0.375 1.421875 1.0q0.46875 0.625 0.640625 1.671875l-1.796875 0.25q-0.125 -0.84375 -0.71875 -1.3125q-0.578125 -0.46875 -1.65625 -0.46875q-1.265625 0 -1.8125 0.421875q-0.53125 0.421875 -0.53125 0.984375q0 0.359375 0.21875 0.640625q0.21875 0.296875 0.703125 0.5q0.28125 0.09375 1.625 0.46875q1.953125 0.515625 2.71875 0.859375q0.78125 0.328125 1.21875 0.96875q0.4375 0.625 0.4375 1.5625q0 0.921875 -0.53125 1.734375q-0.53125 0.8125 -1.546875 1.265625q-1.015625 0.4375 -2.296875 0.4375q-2.109375 0 -3.21875 -0.875q-1.109375 -0.890625 -1.421875 -2.609375zm18.640625 -0.265625l1.90625 0.234375q-0.453125 1.671875 -1.671875 2.59375q-1.21875 0.921875 -3.109375 0.921875q-2.375 0 -3.78125 -1.46875q-1.390625 -1.46875 -1.390625 -4.125q0 -2.734375 1.40625 -4.25q1.421875 -1.515625 3.671875 -1.515625q2.171875 0 3.546875 1.484375q1.390625 1.484375 1.390625 4.171875q0 0.171875 -0.015625 0.5l-8.09375 0q0.09375 1.78125 1.0 2.734375q0.921875 0.953125 2.28125 0.953125q1.015625 0 1.71875 -0.53125q0.71875 -0.53125 1.140625 -1.703125zm-6.046875 -2.96875l6.0625 0q-0.125 -1.375 -0.6875 -2.0625q-0.875 -1.0625 -2.28125 -1.0625q-1.265625 0 -2.140625 0.859375q-0.859375 0.84375 -0.953125 2.265625zm10.23819 6.46875l0 -10.859375l1.65625 0l0 1.640625q0.640625 -1.140625 1.171875 -1.515625q0.53125 -0.375 1.1875 -0.375q0.921875 0 1.890625 0.59375l-0.640625 1.71875q-0.671875 -0.40625 -1.34375 -0.40625q-0.609375 0 -1.09375 0.375q-0.46875 0.359375 -0.6875 1.0q-0.296875 0.984375 -0.296875 2.140625l0 5.6875l-1.84375 0z" fill-rule="nonzero"/></g></svg>